<svg width="271" height="28" viewBox="0 0 271 28" fill="none" xmlns="http://www.w3.org/2000/svg">
<g clip-path="url(#clip0_744_1474)">
<rect width="271" height="28" fill="white"/>
<path d="M9.00924 25H3.2273V4.70866H17.2185V25H11.4366V9.42694H9.00924V25ZM25.4425 17.7453V25H19.6605V4.70866H28.2789C29.788 4.70866 30.9608 5.0723 31.7972 5.79959C32.6517 6.5087 33.079 7.7269 33.079 9.45421V12.9725C33.079 14.6271 32.6517 15.8362 31.7972 16.5998C30.9426 17.3635 29.7698 17.7453 28.2789 17.7453H25.4425ZM25.4425 13.7088H26.2061C26.6243 13.7088 26.9152 13.6088 27.0789 13.4088C27.2607 13.2088 27.3516 12.8725 27.3516 12.3997V9.89059C27.3516 9.38149 27.2607 9.03602 27.0789 8.8542C26.9152 8.67238 26.6243 8.58147 26.2061 8.58147H25.4425V13.7088ZM44.4364 18.8362C44.4364 17.8544 44.4546 16.918 44.491 16.0271C44.5455 15.118 44.591 14.2452 44.6273 13.4088C44.4273 14.2452 44.2 15.1089 43.9455 15.9998C43.7091 16.8726 43.4364 17.7817 43.1273 18.7271L41.1363 25H35.0817V4.70866H40.8636V10.8724C40.8636 11.7997 40.8454 12.6997 40.8091 13.5725C40.7909 14.427 40.7636 15.2634 40.7272 16.0816C40.9454 15.2634 41.1727 14.427 41.4091 13.5725C41.6454 12.6997 41.9091 11.8179 42.2 10.927L44.1637 4.70866H50.2184V25H44.4364V18.8362ZM52.6602 25V4.70866H58.2512V12.5634L61.2785 4.70866H66.9514L63.324 13.6543L67.0332 25H61.1422L58.2512 16.1089V25H52.6602ZM76.2011 9.42694H74.0465C74.0465 11.2633 74.0374 12.8634 74.0192 14.227C74.001 15.5907 73.9647 16.7726 73.9101 17.7726C73.8738 18.7726 73.8101 19.609 73.7192 20.2817C73.6465 20.9545 73.5465 21.509 73.4192 21.9454C73.2919 22.3636 73.1283 22.7636 72.9283 23.1454C72.7283 23.5091 72.4555 23.8272 72.1101 24.1C71.7828 24.3727 71.3737 24.5909 70.8828 24.7545C70.3919 24.9182 69.8009 25 69.11 25H67.4463V19.9544H67.6645C68.01 19.9544 68.2736 19.8453 68.4555 19.6272C68.6555 19.409 68.8009 18.9362 68.8918 18.2089C68.91 17.9362 68.9282 17.6544 68.9464 17.3635C68.9827 17.0726 69.0009 16.718 69.0009 16.2998C69.0191 15.8634 69.0282 15.3452 69.0282 14.7452C69.0464 14.127 69.0555 13.3634 69.0555 12.4543C69.0737 11.5452 69.0827 10.4633 69.0827 9.20875C69.0827 7.936 69.0827 6.43597 69.0827 4.70866H81.983V25H76.2011V9.42694ZM105.49 19.1635C105.49 20.0726 105.353 20.909 105.081 21.6727C104.826 22.4181 104.435 23.0636 103.908 23.6091C103.38 24.1363 102.708 24.5545 101.89 24.8636C101.09 25.1545 100.144 25.3 99.0531 25.3H98.0713C96.9258 25.3 95.944 25.1545 95.1258 24.8636C94.3258 24.5545 93.6621 24.1273 93.1348 23.5818C92.6257 23.0363 92.2439 22.3909 91.9893 21.6454C91.753 20.8817 91.6348 20.0544 91.6348 19.1635V16.9544H90.2166V25H84.4346V4.70866H90.2166V11.9088H91.6348V10.5451C91.6348 8.63601 92.1348 7.13598 93.1348 6.04505C94.153 4.95412 95.7985 4.40865 98.0713 4.40865H99.0531C101.271 4.40865 102.899 4.95412 103.935 6.04505C104.971 7.1178 105.49 8.61783 105.49 10.5451V19.1635ZM99.6531 10.6542C99.6531 10.1815 99.5713 9.80877 99.4077 9.53603C99.244 9.2633 98.9622 9.12693 98.5622 9.12693C98.1622 9.12693 97.8804 9.2633 97.7167 9.53603C97.5531 9.79058 97.4713 10.1633 97.4713 10.6542V19.109C97.4713 20.0726 97.8349 20.5545 98.5622 20.5545C99.2895 20.5545 99.6531 20.0726 99.6531 19.109V10.6542ZM115.562 17.2544C115.253 17.3453 114.899 17.4089 114.499 17.4453C114.117 17.4635 113.762 17.4726 113.435 17.4726C112.399 17.4726 111.499 17.3907 110.735 17.2271C109.99 17.0453 109.362 16.7362 108.853 16.2998C108.362 15.8634 107.99 15.2816 107.735 14.5543C107.499 13.8089 107.38 12.8725 107.38 11.7452V4.70866H113.162V10.7088C113.162 11.1452 113.181 11.5088 113.217 11.7997C113.253 12.0906 113.317 12.3179 113.408 12.4816C113.517 12.6452 113.662 12.7634 113.844 12.8361C114.026 12.8907 114.262 12.9179 114.553 12.9179C114.808 12.9179 115.017 12.8997 115.181 12.8634C115.344 12.827 115.472 12.7906 115.562 12.7543V4.70866H121.344V25H115.562V17.2544ZM134.491 4.70866V9.42694H129.309V12.127H133.755V16.9271H129.309V20.2272H134.627V25H123.8V4.70866H134.491ZM136.664 4.70866H142.446V11.6361H144.792V4.70866H150.573V25H144.792V17.2271H142.446V25H136.664V4.70866ZM162.372 18.8362C162.372 17.8544 162.39 16.918 162.427 16.0271C162.481 15.118 162.527 14.2452 162.563 13.4088C162.363 14.2452 162.136 15.1089 161.881 15.9998C161.645 16.8726 161.372 17.7817 161.063 18.7271L159.072 25H153.017V4.70866H158.799V10.8724C158.799 11.7997 158.781 12.6997 158.745 13.5725C158.727 14.427 158.699 15.2634 158.663 16.0816C158.881 15.2634 159.108 14.427 159.345 13.5725C159.581 12.6997 159.845 11.8179 160.136 10.927L162.099 4.70866H168.154V25H162.372V18.8362ZM177.932 17.5544H177.469L175.641 25H170.05L172.096 16.518C171.569 16.2453 171.132 15.8089 170.787 15.2089C170.441 14.6089 170.269 13.7725 170.269 12.6997V8.74511C170.269 7.34508 170.66 6.32687 171.441 5.6905C172.241 5.03594 173.269 4.70866 174.523 4.70866H183.523V25H177.932V17.5544ZM177.96 8.58147H176.978C176.578 8.58147 176.287 8.67238 176.105 8.8542C175.923 9.01784 175.832 9.33603 175.832 9.80877V12.0452C175.832 12.5179 175.923 12.8543 176.105 13.0543C176.287 13.2543 176.578 13.3543 176.978 13.3543H177.96V8.58147ZM191.137 20.2272C191.246 19.7908 191.337 19.3726 191.409 18.9726C191.5 18.5544 191.573 18.0908 191.627 17.5817C191.7 17.0726 191.755 16.4725 191.791 15.7816C191.846 15.0907 191.882 14.2452 191.9 13.2452C191.937 12.2452 191.964 11.0542 191.982 9.6724C192 8.27237 192.009 6.61779 192.009 4.70866H204.528V20.2272H206.164V27.9455H200.928V25H195.037V27.9455H189.8V20.2272H191.137ZM198.746 20.2272V9.34512H196.973C196.973 11.8543 196.918 13.9907 196.809 15.7543C196.718 17.4998 196.537 18.9908 196.264 20.2272H198.746ZM209.726 20.7999C209.944 20.7999 210.089 20.7635 210.162 20.6908C210.235 20.5999 210.271 20.4817 210.271 20.3363V20.2817C210.271 20.1908 210.253 20.0544 210.217 19.8726C210.198 19.6908 210.153 19.4817 210.08 19.2453L206.18 4.70866H211.989L213.789 15.0998L215.617 4.70866H221.235L216.98 21.509C216.835 22.0545 216.671 22.5454 216.489 22.9818C216.326 23.4181 216.089 23.7909 215.78 24.1C215.471 24.3909 215.071 24.6182 214.58 24.7818C214.089 24.9273 213.471 25 212.726 25H208.171V20.7999H209.726ZM228.368 17.7453V25H222.586V4.70866H231.204C232.713 4.70866 233.886 5.0723 234.722 5.79959C235.577 6.5087 236.004 7.7269 236.004 9.45421V12.9725C236.004 14.6271 235.577 15.8362 234.722 16.5998C233.868 17.3635 232.695 17.7453 231.204 17.7453H228.368ZM228.368 13.7088H229.131C229.549 13.7088 229.84 13.6088 230.004 13.4088C230.186 13.2088 230.277 12.8725 230.277 12.3997V9.89059C230.277 9.38149 230.186 9.03602 230.004 8.8542C229.84 8.67238 229.549 8.58147 229.131 8.58147H228.368V13.7088ZM238.007 25V4.70866H243.598V12.5634L246.625 4.70866H252.298L248.671 13.6543L252.38 25H246.489L243.598 16.1089V25H238.007ZM263.102 18.8362C263.102 17.8544 263.12 16.918 263.157 16.0271C263.211 15.118 263.257 14.2452 263.293 13.4088C263.093 14.2452 262.866 15.1089 262.611 15.9998C262.375 16.8726 262.102 17.7817 261.793 18.7271L259.802 25H253.748V4.70866H259.529V10.8724C259.529 11.7997 259.511 12.6997 259.475 13.5725C259.457 14.427 259.429 15.2634 259.393 16.0816C259.611 15.2634 259.839 14.427 260.075 13.5725C260.311 12.6997 260.575 11.8179 260.866 10.927L262.83 4.70866H268.884V25H263.102V18.8362Z" fill="black"/>
</g>
<defs>
<clipPath id="clip0_744_1474">
<rect width="271" height="28" fill="white"/>
</clipPath>
</defs>
</svg>
