<svg width="315" height="226" viewBox="0 0 315 226" fill="none" xmlns="http://www.w3.org/2000/svg">
<path d="M0 0H315V226H0V0Z" fill="#8485E8"/>
<path d="M270 112.5C270 88.092 261.537 64.4391 246.053 45.5715C230.568 26.7039 209.021 13.7889 185.082 9.02715C161.143 4.26539 136.294 7.95146 114.768 19.4573C93.2417 30.9631 76.3712 49.5769 67.0307 72.1269C57.6902 94.6769 56.4575 119.768 63.5428 143.125C70.6281 166.482 85.5928 186.66 105.887 200.22C126.182 213.78 150.55 219.884 174.841 217.492C199.131 215.1 221.841 204.359 239.1 187.1L164.5 112.5H270Z" fill="#FDDC3E"/>
<path d="M108.757 64.4516C79.6566 63.2041 28.3916 66.9663 57.8135 95.41C94.5909 130.965 187.115 23.8866 195.659 32.4946C204.204 41.1025 48.9306 118.902 76.7923 156.328C99.0816 186.269 112.537 163.559 116.748 148.339" stroke="#FDDC3E" stroke-width="59" stroke-linecap="square"/>
<path d="M224.256 26C226.9 33.1667 229.635 41 207.328 66C197.593 76.9102 178.987 88.5868 156.543 102M49 127C97.2306 129.924 131.066 117.227 156.543 102M105.759 201C123.77 187.456 159.716 148.747 156.543 102M156.543 102C155.221 76.5221 157.828 21.6 178.45 8" stroke="white" stroke-width="5" stroke-linecap="round"/>
<path d="M91 36L269 111" stroke="white" stroke-width="5" stroke-linecap="round"/>
</svg>
