<svg width="253" height="216" viewBox="0 0 253 216" fill="none" xmlns="http://www.w3.org/2000/svg">
<path d="M251 110.5C251 86.092 242.537 62.4391 227.053 43.5715C211.568 24.7039 190.021 11.7889 166.082 7.02715C142.143 2.26539 117.294 5.95146 95.7676 17.4573C74.2417 28.9631 57.3712 47.5769 48.0307 70.1269C38.6902 92.6769 37.4575 117.768 44.5428 141.125C51.6281 164.482 66.5928 184.66 86.8873 198.22C107.182 211.78 131.55 217.884 155.841 215.492C180.131 213.1 202.841 202.359 220.1 185.1L145.5 110.5H251Z" fill="black"/>
<path d="M89.7565 62.4516C60.6566 61.2041 9.39158 64.9663 38.8135 93.41C75.5909 128.965 168.115 21.8866 176.659 30.4946C185.204 39.1025 29.9306 116.902 57.7923 154.328C80.0816 184.269 93.5374 161.559 97.7476 146.339" stroke="black" stroke-width="59" stroke-linecap="square"/>
<path d="M205.256 24C207.9 31.1667 210.635 39 188.328 64C178.593 74.9102 159.987 86.5868 137.543 100M30 125C78.2306 127.924 112.066 115.227 137.543 100M86.759 199C104.77 185.456 140.716 146.747 137.543 100M137.543 100C136.221 74.5221 138.828 19.6 159.45 6" stroke="white" stroke-width="5" stroke-linecap="round"/>
<path d="M72 34L250 109" stroke="white" stroke-width="5" stroke-linecap="round"/>
</svg>
