<svg width="109" height="314" viewBox="0 0 109 314" fill="none" xmlns="http://www.w3.org/2000/svg">
<path fill-rule="evenodd" clip-rule="evenodd" d="M72.9181 -4.3541C69.0003 -4.95752 67.3001 -5.91638 66.7333 -6.34227C66.4607 -6.54714 66.4546 -6.58313 66.4383 -6.68132L66.4382 -6.68152C66.4355 -6.69799 66.4324 -6.71623 66.4278 -6.7373C66.1269 -8.10044 66.5092 -12.329 70.784 -20.1613C78.8535 -34.9465 95.268 -52.732 108.436 -64.7759L91.5638 -83.2236C77.7626 -70.6009 58.9083 -50.5863 48.8396 -32.1382C44.0453 -23.3539 39.6411 -12.1074 42.0152 -1.34975C43.3202 4.56382 46.5685 9.77688 51.7154 13.6443C56.6141 17.3252 62.6421 19.358 69.1125 20.3546C73.6947 21.0603 75.4004 22.1485 75.8298 22.4854C75.8478 22.6318 75.8639 22.8865 75.8408 23.2754C75.739 24.991 74.9668 27.959 72.7733 32.4005C70.6462 36.7073 67.5603 41.654 63.6677 47.1547C56.2998 57.5666 46.8228 68.8926 37.198 80.3954L37.1824 80.414C36.5933 81.1181 36.0036 81.8228 35.4138 82.528C25.4536 94.438 15.2729 106.707 8.51568 117.26C4.59962 123.376 2.61463 131.018 1.57501 138.671C0.508361 146.523 0.297453 155.506 0.671195 165.095C0.803308 168.484 1.01025 171.989 1.28527 175.591L15.8381 171.173L18.8904 170.246L20.473 173.016L26.4329 183.445L27.0649 183.061C26.3644 176.354 25.8817 170.008 25.6522 164.121C25.3113 155.375 25.5437 147.954 26.3475 142.036C27.1784 135.919 28.4912 132.425 29.5695 130.741C35.2984 121.794 44.3499 110.812 54.5914 98.5662C55.2461 97.7833 55.9051 96.9959 56.5674 96.2045L56.5692 96.2025C65.994 84.9414 76.0948 72.8728 84.0749 61.5958C88.3646 55.5339 92.259 49.4025 95.1885 43.4711C98.0514 37.6742 100.412 31.2438 100.797 24.7563C101.208 17.8266 99.3268 10.5384 93.5013 4.78678C88.11 -0.536136 80.7156 -3.15312 72.9181 -4.3541ZM28.0748 191.811L27.0799 192.417L23.5673 194.555L21.5271 190.985L15.1097 179.754L2.00407 183.733C3.46249 198.388 5.89055 214.359 8.88083 230.645C17.5263 277.731 31.1473 328.904 41.0618 361.625L64.9876 354.375C55.2575 322.263 41.8986 272.036 33.4698 226.13C31.2751 214.177 29.4332 202.615 28.0748 191.811Z" fill="white"/>
</svg>
