<svg width="105" height="314" viewBox="0 0 105 314" fill="none" xmlns="http://www.w3.org/2000/svg">
<path fill-rule="evenodd" clip-rule="evenodd" d="M135.187 47.1112C111.023 23.2203 107.281 1.94196 110.317 -14.3897C113.525 -31.6419 124.757 -45.7357 134.171 -53.2102L118.626 -72.7896C105.789 -62.5973 90.3188 -43.5912 85.7387 -18.96C80.9874 6.59166 88.3707 35.98 117.61 64.8891C125.319 72.5101 127.157 77.017 127.452 78.8635L127.463 78.9326C127.562 79.528 127.695 80.3288 125.571 82.2671C122.869 84.7336 118.003 87.4371 110.573 90.3434C103.328 93.177 94.8735 95.7539 85.6799 98.5359L85.0451 98.728C76.2429 101.391 66.8213 104.242 58.1993 107.519C49.4601 110.84 40.633 114.925 33.6077 120.37C26.4645 125.907 20.1627 133.682 18.885 144.304C17.6337 154.707 21.5493 165.072 28.6072 175.164C45.2204 198.92 45.1928 226.691 37.0467 253.347C35.8173 257.37 34.4125 261.329 32.8713 265.198L42.8377 262.173L45.89 261.246L47.4726 264.016L53.4324 274.445L56.9312 272.316C58.3963 268.502 59.7463 264.609 60.9551 260.653C70.4322 229.643 71.644 193.081 49.0943 160.836C43.9138 153.429 43.4726 149.231 43.7061 147.29C43.9131 145.569 44.9378 143.219 48.9228 140.13C53.0256 136.95 59.1284 133.91 67.0809 130.888C74.8816 127.923 83.5913 125.288 92.7059 122.529L92.7084 122.529L92.9208 122.464C101.902 119.746 111.345 116.886 119.68 113.626C127.828 110.438 136.224 106.392 142.424 100.733C149.12 94.6224 153.895 85.9082 152.139 74.918C150.581 65.1708 144.168 55.9902 135.187 47.1112ZM51.5443 284.96L50.5669 285.555L48.5267 281.985L42.1093 270.754L28.6818 274.83C20.2971 292.614 9.52606 307.83 0.704102 317.643L19.2952 334.357C29.5869 322.91 41.9386 305.488 51.5443 284.96Z" fill="white"/>
</svg>
