<svg width="271" height="28" viewBox="0 0 271 28" fill="none" xmlns="http://www.w3.org/2000/svg">
<g clip-path="url(#clip0_744_1468)">
<rect width="271" height="28" fill="white"/>
<path d="M3.2273 4.70866H9.00924V11.6361H11.3547V4.70866H17.1367V25H11.3547V17.2271H9.00924V25H3.2273V4.70866ZM30.2718 4.70866V9.42694H25.0898V12.127H29.5354V16.9271H25.0898V20.2272H30.4081V25H19.5806V4.70866H30.2718ZM50.5186 20.7454C50.9549 20.7454 51.255 20.6181 51.4186 20.3635C51.5822 20.0908 51.6641 19.7272 51.6641 19.2726V16.218H57.146V19.6544C57.146 20.3999 57.0369 21.1181 56.8187 21.809C56.6187 22.4818 56.2732 23.0818 55.7823 23.6091C55.3096 24.1182 54.6823 24.5273 53.9005 24.8364C53.1186 25.1455 52.155 25.3 51.0095 25.3H50.0549C48.8731 25.3 47.864 25.1636 47.0276 24.8909C46.2094 24.6 45.5457 24.1818 45.0366 23.6363C44.5275 23.0909 44.1548 22.4272 43.9184 21.6454C43.7002 20.8635 43.5912 19.9726 43.5912 18.9726V10.5997C43.5912 9.65422 43.7002 8.79965 43.9184 8.036C44.1366 7.27235 44.4912 6.62688 44.9821 6.0996C45.4912 5.55413 46.1548 5.13594 46.973 4.84502C47.8094 4.55411 48.8276 4.40865 50.0277 4.40865H50.9822C52.0732 4.40865 53.0095 4.53593 53.7914 4.79048C54.5732 5.04503 55.2096 5.40867 55.7005 5.88141C56.2096 6.33596 56.5733 6.89961 56.7914 7.57235C57.0278 8.2451 57.146 8.99966 57.146 9.83604V12.6997H51.6641V10.2179C51.6641 9.81786 51.5822 9.49058 51.4186 9.23603C51.2731 8.96329 50.9731 8.82693 50.5186 8.82693C50.1004 8.82693 49.8095 8.9542 49.6458 9.20875C49.5004 9.46331 49.4276 9.79968 49.4276 10.2179V19.2726C49.4276 19.7453 49.5004 20.109 49.6458 20.3635C49.8095 20.6181 50.1004 20.7454 50.5186 20.7454ZM61.7935 9.31785H58.6026V4.70866H70.4392V9.31785H67.2482V25H61.7935V9.31785ZM86.0041 19.1635C86.0041 20.0726 85.8678 20.909 85.595 21.6727C85.3405 22.4181 84.9405 23.0636 84.395 23.6091C83.8495 24.1363 83.1586 24.5545 82.3222 24.8636C81.504 25.1545 80.5404 25.3 79.4313 25.3H78.4494C77.2858 25.3 76.2857 25.1545 75.4494 24.8636C74.6312 24.5545 73.9493 24.1273 73.4039 23.5818C72.8766 23.0363 72.4857 22.3909 72.2311 21.6454C71.9947 20.8817 71.8766 20.0544 71.8766 19.1635V10.5451C71.8766 8.63601 72.3857 7.13598 73.4039 6.04505C74.4402 4.95412 76.1221 4.40865 78.4494 4.40865H79.4313C81.6859 4.40865 83.3404 4.95412 84.395 6.04505C85.4678 7.1178 86.0041 8.61783 86.0041 10.5451V19.1635ZM80.1676 10.6542C80.1676 10.1815 80.0767 9.80877 79.8949 9.53603C79.7131 9.2633 79.3949 9.12693 78.9403 9.12693C78.4858 9.12693 78.1676 9.2633 77.9858 9.53603C77.804 9.79058 77.713 10.1633 77.713 10.6542V19.109C77.713 19.5817 77.804 19.9453 77.9858 20.1999C78.1858 20.4363 78.504 20.5545 78.9403 20.5545C79.7585 20.5545 80.1676 20.0726 80.1676 19.109V10.6542ZM97.6417 18.8362C97.6417 17.8544 97.6599 16.918 97.6963 16.0271C97.7508 15.118 97.7963 14.2452 97.8326 13.4088C97.6326 14.2452 97.4054 15.1089 97.1508 15.9998C96.9144 16.8726 96.6417 17.7817 96.3326 18.7271L94.3417 25H88.287V4.70866H94.0689V10.8724C94.0689 11.7997 94.0508 12.6997 94.0144 13.5725C93.9962 14.427 93.9689 15.2634 93.9326 16.0816C94.1508 15.2634 94.378 14.427 94.6144 13.5725C94.8508 12.6997 95.1144 11.8179 95.4053 10.927L97.369 4.70866H103.424V25H97.6417V18.8362ZM108.456 9.31785H105.265V4.70866H117.102V9.31785H113.911V25H108.456V9.31785ZM143.561 19.1635C143.561 20.0726 143.425 20.909 143.152 21.6727C142.898 22.4181 142.498 23.0636 141.952 23.6091C141.407 24.1363 140.716 24.5545 139.88 24.8636C139.061 25.1545 138.098 25.3 136.989 25.3H136.007C134.843 25.3 133.843 25.1545 133.007 24.8636C132.188 24.5545 131.507 24.1273 130.961 23.5818C130.434 23.0363 130.043 22.3909 129.788 21.6454C129.552 20.8817 129.434 20.0544 129.434 19.1635V10.5451C129.434 8.63601 129.943 7.13598 130.961 6.04505C131.998 4.95412 133.679 4.40865 136.007 4.40865H136.989C139.243 4.40865 140.898 4.95412 141.952 6.04505C143.025 7.1178 143.561 8.61783 143.561 10.5451V19.1635ZM137.725 10.6542C137.725 10.1815 137.634 9.80877 137.452 9.53603C137.27 9.2633 136.952 9.12693 136.498 9.12693C136.043 9.12693 135.725 9.2633 135.543 9.53603C135.361 9.79058 135.27 10.1633 135.27 10.6542V19.109C135.27 19.5817 135.361 19.9453 135.543 20.1999C135.743 20.4363 136.061 20.5545 136.498 20.5545C137.316 20.5545 137.725 20.0726 137.725 19.109V10.6542ZM152.608 20.7454C153.044 20.7454 153.344 20.6181 153.508 20.3635C153.672 20.0908 153.754 19.7272 153.754 19.2726V16.218H159.236V19.6544C159.236 20.3999 159.126 21.1181 158.908 21.809C158.708 22.4818 158.363 23.0818 157.872 23.6091C157.399 24.1182 156.772 24.5273 155.99 24.8364C155.208 25.1455 154.244 25.3 153.099 25.3H152.144C150.963 25.3 149.953 25.1636 149.117 24.8909C148.299 24.6 147.635 24.1818 147.126 23.6363C146.617 23.0909 146.244 22.4272 146.008 21.6454C145.79 20.8635 145.681 19.9726 145.681 18.9726V10.5997C145.681 9.65422 145.79 8.79965 146.008 8.036C146.226 7.27235 146.581 6.62688 147.072 6.0996C147.581 5.55413 148.244 5.13594 149.063 4.84502C149.899 4.55411 150.917 4.40865 152.117 4.40865H153.072C154.163 4.40865 155.099 4.53593 155.881 4.79048C156.663 5.04503 157.299 5.40867 157.79 5.88141C158.299 6.33596 158.663 6.89961 158.881 7.57235C159.117 8.2451 159.236 8.99966 159.236 9.83604V12.6997H153.754V10.2179C153.754 9.81786 153.672 9.49058 153.508 9.23603C153.363 8.96329 153.063 8.82693 152.608 8.82693C152.19 8.82693 151.899 8.9542 151.735 9.20875C151.59 9.46331 151.517 9.79968 151.517 10.2179V19.2726C151.517 19.7453 151.59 20.109 151.735 20.3635C151.899 20.6181 152.19 20.7454 152.608 20.7454ZM163.883 9.31785H160.692V4.70866H172.529V9.31785H169.338V25H163.883V9.31785ZM178.319 18.1544H180.256L179.874 15.4271C179.728 14.4089 179.61 13.4907 179.519 12.6725C179.446 11.8361 179.374 11.0815 179.301 10.4088C179.228 11.0815 179.146 11.8361 179.056 12.6725C178.965 13.4907 178.846 14.4089 178.701 15.4271L178.319 18.1544ZM180.828 22.3545H177.746L177.392 25H172.51L175.646 4.70866H183.147L186.638 25H181.183L180.828 22.3545ZM188.166 4.70866H196.812C198.302 4.70866 199.439 5.04503 200.221 5.71777C201.003 6.39051 201.393 7.53599 201.393 9.15421V10.1906C201.393 10.7724 201.312 11.2724 201.148 11.6906C201.003 12.1088 200.821 12.4634 200.603 12.7543C200.384 13.0452 200.148 13.2816 199.893 13.4634C199.639 13.627 199.403 13.7452 199.184 13.8179C199.403 13.8907 199.666 14.0089 199.975 14.1725C200.284 14.318 200.575 14.5452 200.848 14.8543C201.139 15.1452 201.384 15.5362 201.584 16.0271C201.784 16.518 201.884 17.1271 201.884 17.8544V20.009C201.884 21.6454 201.493 22.8909 200.712 23.7454C199.93 24.5818 198.739 25 197.139 25H188.166V4.70866ZM193.675 8.58147V12.427H194.711C195.53 12.427 195.939 11.9452 195.939 10.9815V9.99968C195.939 9.50876 195.848 9.15421 195.666 8.93602C195.502 8.69965 195.184 8.58147 194.711 8.58147H193.675ZM193.675 16.218V20.9908H194.875C195.348 20.9908 195.675 20.8635 195.857 20.609C196.039 20.3544 196.13 19.9817 196.13 19.4908V17.718C196.13 17.2089 196.039 16.8362 195.857 16.5998C195.675 16.3453 195.348 16.218 194.875 16.218H193.675ZM211.68 9.42694H209.526C209.526 11.2633 209.516 12.8634 209.498 14.227C209.48 15.5907 209.444 16.7726 209.389 17.7726C209.353 18.7726 209.289 19.609 209.198 20.2817C209.126 20.9545 209.026 21.509 208.898 21.9454C208.771 22.3636 208.607 22.7636 208.407 23.1454C208.207 23.5091 207.935 23.8272 207.589 24.1C207.262 24.3727 206.853 24.5909 206.362 24.7545C205.871 24.9182 205.28 25 204.589 25H202.925V19.9544H203.144C203.489 19.9544 203.753 19.8453 203.935 19.6272C204.135 19.409 204.28 18.9362 204.371 18.2089C204.389 17.9362 204.407 17.6544 204.425 17.3635C204.462 17.0726 204.48 16.718 204.48 16.2998C204.498 15.8634 204.507 15.3452 204.507 14.7452C204.525 14.127 204.535 13.3634 204.535 12.4543C204.553 11.5452 204.562 10.4633 204.562 9.20875C204.562 7.936 204.562 6.43597 204.562 4.70866H217.462V25H211.68V9.42694ZM227.25 17.5544H226.787L224.959 25H219.368L221.414 16.518C220.886 16.2453 220.45 15.8089 220.105 15.2089C219.759 14.6089 219.586 13.7725 219.586 12.6997V8.74511C219.586 7.34508 219.977 6.32687 220.759 5.6905C221.559 5.03594 222.587 4.70866 223.841 4.70866H232.841V25H227.25V17.5544ZM227.278 8.58147H226.296C225.896 8.58147 225.605 8.67238 225.423 8.8542C225.241 9.01784 225.15 9.33603 225.15 9.80877V12.0452C225.15 12.5179 225.241 12.8543 225.423 13.0543C225.605 13.2543 225.896 13.3543 226.296 13.3543H227.278V8.58147ZM237.899 9.31785H234.708V4.70866H246.545V9.31785H243.354V25H237.899V9.31785ZM254.194 11.4179H257.031C258.522 11.4179 259.694 11.7997 260.549 12.5634C261.403 13.327 261.831 14.5361 261.831 16.1907V20.2544C261.831 21.9818 261.403 23.2091 260.549 23.9363C259.712 24.6454 258.54 25 257.031 25H248.412V4.70866H254.194V11.4179ZM254.958 20.9908C255.376 20.9908 255.667 20.8999 255.831 20.7181C256.012 20.5363 256.103 20.1908 256.103 19.6817V16.7635C256.103 16.2907 256.012 15.9544 255.831 15.7543C255.667 15.5543 255.376 15.4543 254.958 15.4543H254.194V20.9908H254.958Z" fill="black"/>
</g>
<defs>
<clipPath id="clip0_744_1468">
<rect width="271" height="28" fill="white"/>
</clipPath>
</defs>
</svg>
