<svg width="471" height="1235" viewBox="0 0 471 1235" fill="none" xmlns="http://www.w3.org/2000/svg">
<path d="M55.626 26.45H26.358L25.44 31.418H39.048C42.252 31.418 44.916 31.724 47.04 32.336C49.164 32.948 50.856 33.794 52.116 34.874C53.412 35.954 54.312 37.25 54.816 38.762C55.356 40.274 55.626 41.948 55.626 43.784C55.626 45.764 55.284 47.6 54.6 49.292C53.916 50.948 52.836 52.388 51.36 53.612C49.92 54.836 48.066 55.79 45.798 56.474C43.53 57.158 40.812 57.5 37.644 57.5H7.782L15.558 17.324H57.408L55.626 26.45ZM36.456 48.374C38.76 48.374 40.344 47.996 41.208 47.24C42.108 46.484 42.558 45.458 42.558 44.162C42.558 43.658 42.486 43.19 42.342 42.758C42.198 42.29 41.928 41.894 41.532 41.57C41.172 41.246 40.668 40.994 40.02 40.814C39.408 40.634 38.598 40.544 37.59 40.544H23.658L22.092 48.374H36.456ZM105.984 17.324L104.202 26.45H79.0924L77.9044 32.444H102.258L100.422 41.84H76.0684L74.8264 48.266H100.314L98.5324 57.5H60.5164L68.3464 17.324H105.984ZM133.709 16.784H135.437C139.181 16.784 142.367 17.036 144.995 17.54C147.659 18.008 149.837 18.674 151.529 19.538C153.221 20.402 154.463 21.464 155.255 22.724C156.047 23.948 156.443 25.316 156.443 26.828C156.443 28.304 156.173 29.564 155.633 30.608C155.129 31.652 154.445 32.552 153.581 33.308C152.753 34.028 151.781 34.622 150.665 35.09C149.585 35.522 148.469 35.864 147.317 36.116C148.325 36.404 149.279 36.782 150.179 37.25C151.079 37.718 151.871 38.33 152.555 39.086C153.275 39.806 153.833 40.67 154.229 41.678C154.661 42.686 154.877 43.838 154.877 45.134C154.877 49.562 153.005 52.856 149.261 55.016C145.553 57.14 139.721 58.202 131.765 58.202H130.469C126.941 58.202 123.665 57.932 120.641 57.392C117.617 56.852 115.025 55.988 112.865 54.8C110.705 53.576 109.067 52.01 107.951 50.102C106.835 48.194 106.421 45.854 106.709 43.082H120.371C120.227 44.306 120.389 45.332 120.857 46.16C121.361 46.952 122.081 47.6 123.017 48.104C123.989 48.608 125.159 48.968 126.527 49.184C127.931 49.4 129.461 49.508 131.117 49.508C133.097 49.508 134.735 49.418 136.031 49.238C137.363 49.022 138.425 48.716 139.217 48.32C140.045 47.888 140.621 47.366 140.945 46.754C141.305 46.142 141.485 45.422 141.485 44.594C141.485 43.298 140.963 42.344 139.919 41.732C138.875 41.12 137.093 40.814 134.573 40.814H124.367L125.933 32.714H136.193C137.093 32.714 137.939 32.678 138.731 32.606C139.523 32.498 140.207 32.3 140.783 32.012C141.395 31.724 141.863 31.328 142.187 30.824C142.547 30.284 142.727 29.582 142.727 28.718C142.727 27.566 142.043 26.702 140.675 26.126C139.343 25.55 137.273 25.262 134.465 25.262C131.297 25.262 128.705 25.658 126.689 26.45C124.673 27.242 123.485 28.646 123.125 30.662H109.409C109.841 28.106 110.777 25.946 112.217 24.182C113.693 22.418 115.511 20.996 117.671 19.916C119.867 18.8 122.333 18.008 125.069 17.54C127.805 17.036 130.685 16.784 133.709 16.784ZM174.031 47.726C174.643 47.726 175.039 47.636 175.219 47.456C175.435 47.24 175.543 46.934 175.543 46.538C175.543 45.926 175.237 45.008 174.625 43.784L162.529 17.324H176.515L185.857 38.708L201.517 17.324H215.449L191.689 48.59C190.465 50.21 189.259 51.596 188.071 52.748C186.919 53.864 185.659 54.782 184.291 55.502C182.959 56.186 181.465 56.69 179.809 57.014C178.153 57.338 176.191 57.5 173.923 57.5H165.175L167.065 47.726H174.031ZM220.749 17.324H236.895L243.645 42.542L260.223 17.324H277.341L269.565 57.5H257.307L262.329 31.634L245.427 57.5H236.733L229.821 31.634L224.853 57.5H212.919L220.749 17.324ZM286.667 17.324H299.249L296.441 31.904H317.285L320.147 17.324H332.729L324.953 57.5H312.317L315.395 41.786H294.497L291.419 57.5H278.837L286.667 17.324ZM362.989 48.104C365.041 48.104 366.607 47.69 367.687 46.862C368.803 45.998 369.361 44.756 369.361 43.136C369.361 42.02 369.001 41.102 368.281 40.382C367.561 39.626 366.193 39.248 364.177 39.248H350.353L348.625 48.104H362.989ZM352.189 29.852H366.013C369.217 29.852 371.881 30.194 374.005 30.878C376.129 31.526 377.803 32.426 379.027 33.578C380.287 34.73 381.169 36.098 381.673 37.682C382.177 39.266 382.429 40.976 382.429 42.812C382.429 45.008 382.051 47.006 381.295 48.806C380.575 50.606 379.459 52.154 377.947 53.45C376.435 54.746 374.509 55.754 372.169 56.474C369.865 57.158 367.129 57.5 363.961 57.5H334.261L342.037 17.324H354.619L352.189 29.852ZM397.117 57.5H384.535L392.365 17.324H404.947L397.117 57.5ZM451.922 17.324L450.14 26.45H425.03L423.842 32.444H448.196L446.36 41.84H422.006L420.764 48.266H446.252L444.47 57.5H406.454L414.284 17.324H451.922Z" fill="black"/>
<path d="M7.782 780.5L15.612 740.324H28.194L25.062 756.308L44.826 740.324H60.756L36.888 759.386L54.06 780.5H38.94L23.982 761.978L20.364 780.5H7.782ZM86.4381 749.666L77.1501 764.732H90.2181L86.4381 749.666ZM92.4321 773.48H71.7501L67.3761 780.5H54.0921L79.4721 740.324H96.1041L107.012 780.5H94.2141L92.4321 773.48ZM150.716 780.5H138.134L141.482 763.058L122.474 780.5H106.22L130.412 758.36L115.4 740.324H130.358L142.994 755.444L145.91 740.324H158.492L155.522 755.498L173.99 740.324H189.488L166.646 759.062L181.874 780.5H166.538L154.064 763.058L150.716 780.5ZM190.648 771.104C191.512 769.772 192.322 768.314 193.078 766.73C193.834 765.11 194.572 763.13 195.292 760.79C196.048 758.414 196.804 755.588 197.56 752.312C198.316 749 199.144 745.004 200.044 740.324H240.22L234.172 771.104H240.652L237.52 787.25H225.802L227.152 780.5H195.4L194.05 787.25H182.332L185.518 771.104H190.648ZM221.59 771.104L225.856 749.72H209.98C209.368 752.6 208.774 755.156 208.198 757.388C207.622 759.584 207.046 761.546 206.47 763.274C205.93 764.966 205.372 766.46 204.796 767.756C204.22 769.016 203.626 770.132 203.014 771.104H221.59ZM273.551 771.104C275.603 771.104 277.169 770.69 278.249 769.862C279.365 768.998 279.923 767.756 279.923 766.136C279.923 765.02 279.563 764.102 278.843 763.382C278.123 762.626 276.755 762.248 274.739 762.248H260.915L259.187 771.104H273.551ZM262.751 752.852H276.575C279.779 752.852 282.443 753.194 284.567 753.878C286.691 754.526 288.365 755.426 289.589 756.578C290.849 757.73 291.731 759.098 292.235 760.682C292.739 762.266 292.991 763.976 292.991 765.812C292.991 768.008 292.613 770.006 291.857 771.806C291.137 773.606 290.021 775.154 288.509 776.45C286.997 777.746 285.071 778.754 282.731 779.474C280.427 780.158 277.691 780.5 274.523 780.5H244.823L252.599 740.324H265.181L262.751 752.852ZM307.679 780.5H295.097L302.927 740.324H315.509L307.679 780.5ZM356.274 754.904L329.598 780.5H317.016L324.846 740.324H337.428L332.406 765.92L359.136 740.324H371.718L363.888 780.5H351.306L356.274 754.904ZM348.93 737.462C346.518 737.462 344.592 737.138 343.152 736.49C341.748 735.806 340.686 734.996 339.966 734.06C339.246 733.088 338.778 732.062 338.562 730.982C338.382 729.902 338.328 728.948 338.4 728.12H346.77C346.77 728.336 346.77 728.606 346.77 728.93C346.806 729.254 346.914 729.578 347.094 729.902C347.274 730.226 347.544 730.514 347.904 730.766C348.3 730.982 348.858 731.09 349.578 731.09H349.632C350.28 731.09 350.82 730.982 351.252 730.766C351.684 730.514 352.026 730.244 352.278 729.956C352.53 729.632 352.71 729.308 352.818 728.984C352.962 728.624 353.052 728.336 353.088 728.12H361.458C361.386 728.948 361.152 729.902 360.756 730.982C360.36 732.026 359.73 733.034 358.866 734.006C358.002 734.978 356.868 735.806 355.464 736.49C354.06 737.138 352.332 737.462 350.28 737.462H348.93Z" fill="black"/>
<path d="M244.398 862.324H251.418L248.61 878.254H255.09L257.898 862.324H264.918L257.844 902.5H250.824L253.902 884.95H247.422L244.344 902.5H237.324L244.398 862.324ZM272.655 889.162H277.947L278.055 880.09C278.091 878.038 278.127 876.256 278.163 874.744C278.235 873.232 278.307 871.81 278.379 870.478C278.091 871.522 277.713 872.836 277.245 874.42C276.813 876.004 276.255 877.876 275.571 880.036L272.655 889.162ZM277.893 895.102H270.711L268.335 902.5H262.017L275.463 862.324H284.211L284.373 902.5H277.785L277.893 895.102ZM285.628 902.5L296.428 881.17L293.35 862.324H300.262L301.882 875.716L308.092 862.324H315.004L305.5 881.656L308.686 902.5H301.882L299.83 887.434L292.54 902.5H285.628ZM334.089 892.078C333.801 893.806 333.405 895.354 332.901 896.722C332.397 898.054 331.731 899.188 330.903 900.124C330.111 901.06 329.121 901.78 327.933 902.284C326.781 902.752 325.377 902.986 323.721 902.986H322.695C321.111 902.986 319.671 902.788 318.375 902.392C317.115 901.96 316.053 901.312 315.189 900.448C314.325 899.584 313.713 898.468 313.353 897.1C313.029 895.696 313.029 894.022 313.353 892.078L316.755 872.692C317.043 871.036 317.421 869.542 317.889 868.21C318.357 866.878 318.987 865.744 319.779 864.808C320.571 863.872 321.543 863.152 322.695 862.648C323.883 862.144 325.341 861.892 327.069 861.892H328.095C329.823 861.892 331.335 862.108 332.631 862.54C333.963 862.936 335.043 863.584 335.871 864.484C336.699 865.348 337.257 866.464 337.545 867.832C337.833 869.2 337.815 870.82 337.491 872.692L334.089 892.078ZM330.417 872.746C330.705 871.018 330.561 869.812 329.985 869.128C329.409 868.444 328.599 868.102 327.555 868.102C326.511 868.102 325.701 868.462 325.125 869.182C324.549 869.866 324.117 871.054 323.829 872.746L320.427 892.132C320.139 893.644 320.247 894.796 320.751 895.588C321.255 896.344 322.083 896.722 323.235 896.722C324.351 896.722 325.179 896.362 325.719 895.642C326.295 894.922 326.727 893.752 327.015 892.132L330.417 872.746ZM338.44 896.128C338.872 895.336 339.268 894.526 339.628 893.698C340.024 892.834 340.402 891.826 340.762 890.674C341.158 889.522 341.554 888.172 341.95 886.624C342.346 885.04 342.778 883.132 343.246 880.9C343.714 878.632 344.218 875.986 344.758 872.962C345.334 869.938 345.982 866.392 346.702 862.324H365.494L359.554 896.128H362.794L360.634 908.332H354.154L355.18 902.5H341.896L340.87 908.332H334.39L336.55 896.128H338.44ZM352.534 896.128L357.394 868.534H352.102C351.274 873.25 350.536 877.156 349.888 880.252C349.24 883.348 348.664 885.922 348.16 887.974C347.656 889.99 347.17 891.61 346.702 892.834C346.27 894.058 345.838 895.156 345.406 896.128H352.534ZM382.314 887.866C382.566 886.354 382.8 885.004 383.016 883.816C383.268 882.628 383.484 881.584 383.664 880.684C383.844 879.748 384.006 878.938 384.15 878.254C384.33 877.534 384.492 876.886 384.636 876.31C384.132 877.462 383.538 878.794 382.854 880.306C382.206 881.782 381.378 883.582 380.37 885.706L372.378 902.5H365.574L372.702 862.324H379.614L377.022 876.958C376.734 878.542 376.482 879.91 376.266 881.062C376.05 882.214 375.852 883.222 375.672 884.086C375.492 884.95 375.33 885.724 375.186 886.408C375.042 887.056 374.898 887.686 374.754 888.298C375.294 887.146 375.87 885.868 376.482 884.464C377.13 883.024 377.958 881.242 378.966 879.118L387.012 862.324H393.816L386.688 902.5H379.776L382.314 887.866ZM403.537 868.642H397.165L398.245 862.324H418.009L416.875 868.642H410.557L404.617 902.5H397.597L403.537 868.642ZM430.445 862.324H441.407C444.251 862.324 446.339 863.044 447.671 864.484C449.039 865.924 449.453 868.174 448.913 871.234L448.319 874.582C448.103 875.734 447.797 876.67 447.401 877.39C447.041 878.11 446.627 878.704 446.159 879.172C445.691 879.604 445.223 879.928 444.755 880.144C444.323 880.324 443.927 880.45 443.567 880.522C443.891 880.666 444.269 880.9 444.701 881.224C445.133 881.512 445.511 881.962 445.835 882.574C446.195 883.186 446.447 883.978 446.591 884.95C446.735 885.922 446.681 887.146 446.429 888.622L445.511 893.86C445.259 895.264 444.935 896.506 444.539 897.586C444.143 898.666 443.603 899.566 442.919 900.286C442.271 901.006 441.425 901.564 440.381 901.96C439.337 902.32 438.041 902.5 436.493 902.5H423.371L430.445 862.324ZM436.439 867.67L434.549 878.362H437.897C439.049 878.362 439.877 878.056 440.381 877.444C440.921 876.832 441.299 875.896 441.515 874.636L442.055 871.612C442.271 870.352 442.199 869.38 441.839 868.696C441.479 868.012 440.633 867.67 439.301 867.67H436.439ZM433.523 884.086L431.255 896.884H434.873C436.025 896.884 436.853 896.578 437.357 895.966C437.897 895.318 438.293 894.31 438.545 892.942L439.409 888.028C439.625 886.804 439.499 885.85 439.031 885.166C438.599 884.446 437.753 884.086 436.493 884.086H433.523Z" fill="black"/>
<path d="M37.596 215.5H32.844L19.344 202.486V215.5H15.78V188.5H19.344V200.434L32.196 188.5H37.056L23.124 201.46L37.596 215.5ZM60.8489 188.5H64.6289L53.0729 217.984C52.0289 220.648 50.5349 222.736 48.5909 224.248C46.6829 225.796 44.5409 226.48 42.1649 226.3V222.952C45.4049 223.312 47.8709 221.44 49.5629 217.336L50.2649 215.662L38.1689 188.5H41.9489L52.1009 211.126L60.8489 188.5ZM83.4083 187.852C87.2603 187.852 90.5363 189.22 93.2363 191.956C95.9723 194.692 97.3403 198.04 97.3403 202C97.3403 205.96 95.9723 209.308 93.2363 212.044C90.5363 214.78 87.2603 216.148 83.4083 216.148C78.6203 216.148 74.9843 214.168 72.5003 210.208V226.3H68.9363V188.5H72.5003V193.792C74.9843 189.832 78.6203 187.852 83.4083 187.852ZM75.5783 209.614C77.6303 211.666 80.1503 212.692 83.1383 212.692C86.1263 212.692 88.6463 211.666 90.6983 209.614C92.7503 207.526 93.7763 204.988 93.7763 202C93.7763 199.012 92.7503 196.492 90.6983 194.44C88.6463 192.352 86.1263 191.308 83.1383 191.308C80.1503 191.308 77.6303 192.352 75.5783 194.44C73.5263 196.492 72.5003 199.012 72.5003 202C72.5003 204.988 73.5263 207.526 75.5783 209.614ZM115.848 216.148C111.78 216.148 108.396 214.798 105.696 212.098C102.996 209.362 101.646 205.996 101.646 202C101.646 198.004 102.996 194.656 105.696 191.956C108.396 189.22 111.78 187.852 115.848 187.852C118.512 187.852 120.906 188.5 123.03 189.796C125.154 191.056 126.702 192.766 127.674 194.926L124.758 196.6C124.038 194.98 122.868 193.702 121.248 192.766C119.664 191.794 117.864 191.308 115.848 191.308C112.86 191.308 110.34 192.352 108.288 194.44C106.236 196.492 105.21 199.012 105.21 202C105.21 204.988 106.236 207.526 108.288 209.614C110.34 211.666 112.86 212.692 115.848 212.692C117.864 212.692 119.664 212.224 121.248 211.288C122.832 210.316 124.074 209.02 124.974 207.4L127.944 209.128C126.828 211.288 125.19 212.998 123.03 214.258C120.87 215.518 118.476 216.148 115.848 216.148ZM145.272 187.852C149.268 187.852 152.49 189.274 154.938 192.118C157.422 194.926 158.664 198.256 158.664 202.108C158.664 202.504 158.628 203.062 158.556 203.782H134.85C135.21 206.518 136.362 208.696 138.306 210.316C140.286 211.9 142.716 212.692 145.596 212.692C147.648 212.692 149.412 212.278 150.888 211.45C152.4 210.586 153.534 209.47 154.29 208.102L157.422 209.938C156.234 211.846 154.614 213.358 152.562 214.474C150.51 215.59 148.17 216.148 145.542 216.148C141.294 216.148 137.838 214.816 135.174 212.152C132.51 209.488 131.178 206.104 131.178 202C131.178 197.968 132.492 194.602 135.12 191.902C137.748 189.202 141.132 187.852 145.272 187.852ZM145.272 191.308C142.464 191.308 140.106 192.154 138.198 193.846C136.326 195.502 135.21 197.662 134.85 200.326H154.992C154.632 197.482 153.534 195.268 151.698 193.684C149.862 192.1 147.72 191.308 145.272 191.308ZM199.649 215.5H194.897L181.397 202.486V215.5H177.833V188.5H181.397V200.434L194.249 188.5H199.109L185.177 201.46L199.649 215.5ZM225.047 188.5H228.611V215.5H225.047V210.208C222.563 214.168 218.927 216.148 214.139 216.148C210.287 216.148 206.993 214.78 204.257 212.044C201.557 209.308 200.207 205.96 200.207 202C200.207 198.04 201.557 194.692 204.257 191.956C206.993 189.22 210.287 187.852 214.139 187.852C218.927 187.852 222.563 189.832 225.047 193.792V188.5ZM206.849 209.614C208.901 211.666 211.421 212.692 214.409 212.692C217.397 212.692 219.917 211.666 221.969 209.614C224.021 207.526 225.047 204.988 225.047 202C225.047 199.012 224.021 196.492 221.969 194.44C219.917 192.352 217.397 191.308 214.409 191.308C211.421 191.308 208.901 192.352 206.849 194.44C204.797 196.492 203.771 199.012 203.771 202C203.771 204.988 204.797 207.526 206.849 209.614ZM257.973 215.5H253.221L239.721 202.486V215.5H236.157V188.5H239.721V200.434L252.573 188.5H257.433L243.501 201.46L257.973 215.5Z" fill="black"/>
<path d="M187.44 403.75V434.5H183.381V409.961L172.619 427.427H172.127L161.364 409.961V434.5H157.305V403.75H161.979L172.373 420.601L182.766 403.75H187.44ZM222.488 403.75H226.547V434.5H222.488V428.473C219.659 432.983 215.518 435.238 210.065 435.238C205.678 435.238 201.926 433.68 198.81 430.564C195.735 427.448 194.198 423.635 194.198 419.125C194.198 414.615 195.735 410.802 198.81 407.686C201.926 404.57 205.678 403.012 210.065 403.012C215.518 403.012 219.659 405.267 222.488 409.777V403.75ZM201.762 427.796C204.099 430.133 206.969 431.302 210.372 431.302C213.775 431.302 216.645 430.133 218.982 427.796C221.319 425.418 222.488 422.528 222.488 419.125C222.488 415.722 221.319 412.852 218.982 410.515C216.645 408.137 213.775 406.948 210.372 406.948C206.969 406.948 204.099 408.137 201.762 410.515C199.425 412.852 198.257 415.722 198.257 419.125C198.257 422.528 199.425 425.418 201.762 427.796ZM259.987 434.5H254.575L239.2 419.678V434.5H235.141V403.75H239.2V417.341L253.837 403.75H259.372L243.505 418.51L259.987 434.5ZM276.797 435.238C272.164 435.238 268.31 433.7 265.235 430.625C262.16 427.509 260.623 423.676 260.623 419.125C260.623 414.574 262.16 410.761 265.235 407.686C268.31 404.57 272.164 403.012 276.797 403.012C279.831 403.012 282.558 403.75 284.977 405.226C287.396 406.661 289.159 408.608 290.266 411.068L286.945 412.975C286.125 411.13 284.792 409.674 282.947 408.608C281.143 407.501 279.093 406.948 276.797 406.948C273.394 406.948 270.524 408.137 268.187 410.515C265.85 412.852 264.682 415.722 264.682 419.125C264.682 422.528 265.85 425.418 268.187 427.796C270.524 430.133 273.394 431.302 276.797 431.302C279.093 431.302 281.143 430.769 282.947 429.703C284.751 428.596 286.166 427.12 287.191 425.275L290.573 427.243C289.302 429.703 287.437 431.65 284.977 433.085C282.517 434.52 279.79 435.238 276.797 435.238ZM318.787 403.75H322.231V434.5H318.172V410.822L299.845 434.5H296.401V403.75H300.46V427.427L318.787 403.75ZM360.949 403.75V434.5H356.89V409.961L346.128 427.427H345.636L334.873 409.961V434.5H330.814V403.75H335.488L345.882 420.601L356.275 403.75H360.949ZM391.692 403.75H395.997L382.836 437.329C381.647 440.363 379.946 442.741 377.732 444.463C375.559 446.226 373.119 447.005 370.413 446.8V442.987C374.103 443.397 376.912 441.265 378.839 436.591L379.638 434.685L365.862 403.75H370.167L381.729 429.518L391.692 403.75ZM431.038 403.75V434.5H426.979V409.961L416.216 427.427H415.724L404.962 409.961V434.5H400.903V403.75H405.577L415.97 420.601L426.364 403.75H431.038Z" fill="black"/>
<path d="M42.135 450.25V481H38.076V454.186H20.364V481H16.305V450.25H42.135ZM76.4871 477.125C73.3711 480.2 69.5581 481.738 65.0481 481.738C60.5381 481.738 56.7046 480.2 53.5476 477.125C50.4316 474.009 48.8736 470.176 48.8736 465.625C48.8736 461.074 50.4316 457.261 53.5476 454.186C56.7046 451.07 60.5381 449.512 65.0481 449.512C69.5581 449.512 73.3711 451.07 76.4871 454.186C79.6441 457.261 81.2226 461.074 81.2226 465.625C81.2226 470.176 79.6441 474.009 76.4871 477.125ZM56.4381 474.296C58.7751 476.633 61.6451 477.802 65.0481 477.802C68.4511 477.802 71.3211 476.633 73.6581 474.296C75.9951 471.918 77.1636 469.028 77.1636 465.625C77.1636 462.222 75.9951 459.352 73.6581 457.015C71.3211 454.637 68.4511 453.448 65.0481 453.448C61.6451 453.448 58.7751 454.637 56.4381 457.015C54.1011 459.352 52.9326 462.222 52.9326 465.625C52.9326 469.028 54.1011 471.918 56.4381 474.296ZM112.029 450.25V481H107.97V454.186H94.0708V467.9C94.0708 473.025 93.0868 476.551 91.1188 478.478C89.1918 480.405 86.5268 481.246 83.1238 481V477.187C85.4608 477.433 87.1828 476.879 88.2898 475.526C89.4378 474.173 90.0118 471.631 90.0118 467.9V450.25H112.029ZM133.111 461.935C135.981 461.935 138.4 462.837 140.368 464.641C142.377 466.404 143.382 468.679 143.382 471.467C143.382 474.255 142.377 476.551 140.368 478.355C138.4 480.118 135.981 481 133.111 481H120.627V450.25H124.686V461.935H133.111ZM133.111 477.064C134.833 477.064 136.289 476.551 137.478 475.526C138.708 474.501 139.323 473.148 139.323 471.467C139.323 469.786 138.708 468.433 137.478 467.408C136.289 466.383 134.833 465.871 133.111 465.871H124.686V477.064H133.111ZM164.781 465.195C168.348 466.547 170.132 469.007 170.132 472.574C170.132 475.116 169.127 477.289 167.118 479.093C165.15 480.856 162.321 481.738 158.631 481.738C152.44 481.738 148.381 479.278 146.454 474.358L149.898 472.328C151.169 475.977 154.08 477.802 158.631 477.802C161.009 477.802 162.834 477.289 164.105 476.264C165.417 475.239 166.073 473.927 166.073 472.328C166.073 470.893 165.54 469.725 164.474 468.823C163.408 467.921 161.973 467.47 160.169 467.47H155.679V463.534H158.939C160.702 463.534 162.075 463.103 163.059 462.242C164.084 461.34 164.597 460.11 164.597 458.552C164.597 457.076 164.002 455.867 162.813 454.924C161.624 453.94 160.025 453.448 158.016 453.448C154.162 453.448 151.6 454.985 150.329 458.06L146.946 456.092C148.996 451.705 152.686 449.512 158.016 449.512C161.255 449.512 163.838 450.373 165.765 452.095C167.692 453.776 168.656 455.846 168.656 458.306C168.656 461.463 167.364 463.759 164.781 465.195ZM188.786 461.935C191.656 461.935 194.075 462.837 196.043 464.641C198.052 466.404 199.056 468.679 199.056 471.467C199.056 474.255 198.052 476.551 196.043 478.355C194.075 480.118 191.656 481 188.786 481H176.301V450.25H180.36V461.935H188.786ZM203.361 450.25H207.42V481H203.361V450.25ZM188.786 477.064C190.508 477.064 191.963 476.551 193.152 475.526C194.382 474.501 194.997 473.148 194.997 471.467C194.997 469.786 194.382 468.433 193.152 467.408C191.963 466.383 190.508 465.871 188.786 465.871H180.36V477.064H188.786ZM257.265 477.064H261.57V489.241H257.511V481H232.419V489.241H228.36V477.064H232.111C234.202 474.317 235.248 470.442 235.248 465.44V450.25H257.265V477.064ZM237.031 477.064H253.206V454.186H239.307V465.44C239.307 470.155 238.548 474.03 237.031 477.064ZM292.925 450.25V481H288.866V454.186H274.967V467.9C274.967 473.025 273.983 476.551 272.015 478.478C270.088 480.405 267.423 481.246 264.02 481V477.187C266.357 477.433 268.079 476.879 269.186 475.526C270.334 474.173 270.908 471.631 270.908 467.9V450.25H292.925ZM323.663 450.25V481H319.604V469.192H314.315L304.844 481H299.678L309.395 469.069C306.935 468.7 304.906 467.675 303.307 465.994C301.708 464.313 300.908 462.242 300.908 459.782C300.908 456.994 301.892 454.719 303.86 452.956C305.869 451.152 308.309 450.25 311.179 450.25H323.663ZM311.179 465.379H319.604V454.186H311.179C309.457 454.186 307.981 454.698 306.751 455.723C305.562 456.748 304.967 458.101 304.967 459.782C304.967 461.463 305.562 462.816 306.751 463.841C307.981 464.866 309.457 465.379 311.179 465.379Z" fill="black"/>
<path d="M238.44 586.75V617.5H234.381V592.961L223.619 610.427H223.127L212.364 592.961V617.5H208.305V586.75H212.979L223.373 603.601L233.766 586.75H238.44ZM269.429 586.75H272.873V617.5H268.814V593.822L250.487 617.5H247.043V586.75H251.102V610.427L269.429 586.75ZM303.227 586.75H307.286V617.5H303.227V604.093H285.515V617.5H281.456V586.75H285.515V600.157H303.227V586.75ZM338.256 586.75H341.7V617.5H337.641V593.822L319.314 617.5H315.87V586.75H319.929V610.427L338.256 586.75ZM380.419 586.75V617.5H376.36V592.961L365.597 610.427H365.105L354.343 592.961V617.5H350.284V586.75H354.958L365.351 603.601L375.745 586.75H380.419ZM411.161 586.75H415.466L402.305 620.329C401.116 623.363 399.415 625.741 397.201 627.463C395.028 629.226 392.588 630.005 389.882 629.8V625.987C393.572 626.397 396.381 624.265 398.308 619.591L399.107 617.685L385.331 586.75H389.636L401.198 612.518L411.161 586.75ZM450.507 586.75V617.5H446.448V592.961L435.685 610.427H435.193L424.431 592.961V617.5H420.372V586.75H425.046L435.439 603.601L445.833 586.75H450.507Z" fill="black"/>
<path d="M388.635 664.564H392.94V676.741H388.881V668.5H363.789V676.741H359.73V664.564H363.482C365.572 661.817 366.618 657.942 366.618 652.94V637.75H388.635V664.564ZM368.402 664.564H384.576V641.686H370.677V652.94C370.677 657.655 369.919 661.53 368.402 664.564ZM424.295 637.75V668.5H420.236V641.686H406.337V655.4C406.337 660.525 405.353 664.051 403.385 665.978C401.458 667.905 398.793 668.746 395.39 668.5V664.687C397.727 664.933 399.449 664.379 400.556 663.026C401.704 661.673 402.278 659.131 402.278 655.4V637.75H424.295ZM455.033 637.75V668.5H450.974V656.692H445.685L436.214 668.5H431.048L440.765 656.569C438.305 656.2 436.276 655.175 434.677 653.494C433.078 651.813 432.278 649.742 432.278 647.282C432.278 644.494 433.262 642.219 435.23 640.456C437.239 638.652 439.679 637.75 442.549 637.75H455.033ZM442.549 652.879H450.974V641.686H442.549C440.827 641.686 439.351 642.198 438.121 643.223C436.932 644.248 436.337 645.601 436.337 647.282C436.337 648.963 436.932 650.316 438.121 651.341C439.351 652.366 440.827 652.879 442.549 652.879Z" fill="black"/>
<path d="M102.074 714.125C98.9575 717.2 95.1445 718.738 90.6345 718.738C86.1245 718.738 82.291 717.2 79.134 714.125C76.018 711.009 74.46 707.176 74.46 702.625C74.46 698.074 76.018 694.261 79.134 691.186C82.291 688.07 86.1245 686.512 90.6345 686.512C95.1445 686.512 98.9575 688.07 102.074 691.186C105.231 694.261 106.809 698.074 106.809 702.625C106.809 707.176 105.231 711.009 102.074 714.125ZM82.0245 711.296C84.3615 713.633 87.2315 714.802 90.6345 714.802C94.0375 714.802 96.9075 713.633 99.2445 711.296C101.582 708.918 102.75 706.028 102.75 702.625C102.75 699.222 101.582 696.352 99.2445 694.015C96.9075 691.637 94.0375 690.448 90.6345 690.448C87.2315 690.448 84.3615 691.637 82.0245 694.015C79.6875 696.352 78.519 699.222 78.519 702.625C78.519 706.028 79.6875 708.918 82.0245 711.296ZM138.447 718H133.035L117.66 703.178V718H113.601V687.25H117.66V700.841L132.297 687.25H137.832L121.965 702.01L138.447 718ZM160.473 686.512C164.86 686.512 168.591 688.07 171.666 691.186C174.782 694.302 176.34 698.115 176.34 702.625C176.34 707.135 174.782 710.948 171.666 714.064C168.591 717.18 164.86 718.738 160.473 718.738C155.02 718.738 150.879 716.483 148.05 711.973V730.3H143.991V687.25H148.05V693.277C150.879 688.767 155.02 686.512 160.473 686.512ZM151.556 711.296C153.893 713.633 156.763 714.802 160.166 714.802C163.569 714.802 166.439 713.633 168.776 711.296C171.113 708.918 172.281 706.028 172.281 702.625C172.281 699.222 171.113 696.352 168.776 694.015C166.439 691.637 163.569 690.448 160.166 690.448C156.763 690.448 153.893 691.637 151.556 694.015C149.219 696.352 148.05 699.222 148.05 702.625C148.05 706.028 149.219 708.918 151.556 711.296ZM204.028 687.25H208.333L195.172 720.829C193.983 723.863 192.282 726.241 190.068 727.963C187.895 729.726 185.455 730.505 182.749 730.3V726.487C186.439 726.897 189.248 724.765 191.175 720.091L191.974 718.185L178.198 687.25H182.503L194.065 713.018L204.028 687.25ZM248.554 718H243.634L231.088 703.178V718H227.029V703.178L214.483 718H209.563L223.339 702.01L210.178 687.25H215.098L227.029 700.903V687.25H231.088V700.903L243.019 687.25H247.939L234.778 702.01L248.554 718ZM278.061 687.25H282.12V718H278.061V711.973C275.232 716.483 271.091 718.738 265.638 718.738C261.251 718.738 257.5 717.18 254.384 714.064C251.309 710.948 249.771 707.135 249.771 702.625C249.771 698.115 251.309 694.302 254.384 691.186C257.5 688.07 261.251 686.512 265.638 686.512C271.091 686.512 275.232 688.767 278.061 693.277V687.25ZM257.336 711.296C259.673 713.633 262.543 714.802 265.946 714.802C269.349 714.802 272.219 713.633 274.556 711.296C276.893 708.918 278.061 706.028 278.061 702.625C278.061 699.222 276.893 696.352 274.556 694.015C272.219 691.637 269.349 690.448 265.946 690.448C262.543 690.448 259.673 691.637 257.336 694.015C254.999 696.352 253.83 699.222 253.83 702.625C253.83 706.028 254.999 708.918 257.336 711.296ZM316.975 686.512C321.485 686.512 325.298 688.07 328.414 691.186C331.571 694.261 333.149 698.074 333.149 702.625C333.149 707.176 331.571 711.009 328.414 714.125C325.298 717.2 321.485 718.738 316.975 718.738C312.834 718.738 309.267 717.405 306.274 714.74C303.322 712.034 301.62 708.652 301.169 704.593H294.773V718H290.714V687.25H294.773V700.657H301.169C301.62 696.598 303.322 693.236 306.274 690.571C309.267 687.865 312.834 686.512 316.975 686.512ZM308.365 711.296C310.702 713.633 313.572 714.802 316.975 714.802C320.378 714.802 323.248 713.633 325.585 711.296C327.922 708.918 329.09 706.028 329.09 702.625C329.09 699.222 327.922 696.352 325.585 694.015C323.248 691.637 320.378 690.448 316.975 690.448C313.572 690.448 310.702 691.637 308.365 694.015C306.028 696.352 304.859 699.222 304.859 702.625C304.859 706.028 306.028 708.918 308.365 711.296ZM381.107 714.064H385.412V726.241H381.353V718H339.902V687.25H343.961V714.064H358.475V687.25H362.534V714.064H377.048V687.25H381.107V714.064ZM413.939 687.25H417.383V718H413.324V694.322L394.997 718H391.553V687.25H395.612V710.927L413.939 687.25ZM451.796 718H446.938L437.344 705.331L427.75 718H422.891L434.945 702.071L423.691 687.25H428.549L437.344 698.873L446.138 687.25H450.997L439.804 702.071L451.796 718Z" fill="black"/>
<path d="M26.1345 837.238C21.5015 837.238 17.6475 835.7 14.5725 832.625C11.4975 829.509 9.96 825.676 9.96 821.125C9.96 816.574 11.4975 812.761 14.5725 809.686C17.6475 806.57 21.5015 805.012 26.1345 805.012C29.1685 805.012 31.895 805.75 34.314 807.226C36.733 808.661 38.496 810.608 39.603 813.068L36.282 814.975C35.462 813.13 34.1295 811.674 32.2845 810.608C30.4805 809.501 28.4305 808.948 26.1345 808.948C22.7315 808.948 19.8615 810.137 17.5245 812.515C15.1875 814.852 14.019 817.722 14.019 821.125C14.019 824.528 15.1875 827.418 17.5245 829.796C19.8615 832.133 22.7315 833.302 26.1345 833.302C28.4305 833.302 30.4805 832.769 32.2845 831.703C34.0885 830.596 35.503 829.12 36.528 827.275L39.9105 829.243C38.6395 831.703 36.774 833.65 34.314 835.085C31.854 836.52 29.1275 837.238 26.1345 837.238ZM66.6769 805.75H70.9819L57.8209 839.329C56.6319 842.363 54.9304 844.741 52.7164 846.463C50.5434 848.226 48.1039 849.005 45.3979 848.8V844.987C49.0879 845.397 51.8964 843.265 53.8234 838.591L54.6229 836.685L40.8469 805.75H45.1519L56.7139 831.518L66.6769 805.75ZM106.023 805.75V836.5H101.964V811.961L91.201 829.427H90.709L79.9465 811.961V836.5H75.8875V805.75H80.5615L90.955 822.601L101.349 805.75H106.023ZM141.07 805.75H145.129V836.5H141.07V830.473C138.241 834.983 134.1 837.238 128.647 837.238C124.26 837.238 120.509 835.68 117.393 832.564C114.318 829.448 112.78 825.635 112.78 821.125C112.78 816.615 114.318 812.802 117.393 809.686C120.509 806.57 124.26 805.012 128.647 805.012C134.1 805.012 138.241 807.267 141.07 811.777V805.75ZM120.345 829.796C122.682 832.133 125.552 833.302 128.955 833.302C132.358 833.302 135.228 832.133 137.565 829.796C139.902 827.418 141.07 824.528 141.07 821.125C141.07 817.722 139.902 814.852 137.565 812.515C135.228 810.137 132.358 808.948 128.955 808.948C125.552 808.948 122.682 810.137 120.345 812.515C118.008 814.852 116.839 817.722 116.839 821.125C116.839 824.528 118.008 827.418 120.345 829.796ZM168.053 837.238C163.42 837.238 159.566 835.7 156.491 832.625C153.416 829.509 151.878 825.676 151.878 821.125C151.878 816.574 153.416 812.761 156.491 809.686C159.566 806.57 163.42 805.012 168.053 805.012C171.087 805.012 173.813 805.75 176.232 807.226C178.651 808.661 180.414 810.608 181.521 813.068L178.2 814.975C177.38 813.13 176.048 811.674 174.203 810.608C172.399 809.501 170.349 808.948 168.053 808.948C164.65 808.948 161.78 810.137 159.443 812.515C157.106 814.852 155.937 817.722 155.937 821.125C155.937 824.528 157.106 827.418 159.443 829.796C161.78 832.133 164.65 833.302 168.053 833.302C170.349 833.302 172.399 832.769 174.203 831.703C176.007 830.596 177.421 829.12 178.446 827.275L181.829 829.243C180.558 831.703 178.692 833.65 176.232 835.085C173.772 836.52 171.046 837.238 168.053 837.238ZM224.803 805.75H228.862V836.5H187.657V805.75H191.716V832.564H206.23V805.75H210.289V832.564H224.803V805.75ZM251.652 805.012C256.203 805.012 259.872 806.631 262.66 809.87C265.489 813.068 266.904 816.861 266.904 821.248C266.904 821.699 266.863 822.334 266.781 823.154H239.782C240.192 826.27 241.504 828.751 243.718 830.596C245.973 832.4 248.741 833.302 252.021 833.302C254.358 833.302 256.367 832.83 258.048 831.887C259.77 830.903 261.061 829.632 261.922 828.074L265.489 830.165C264.136 832.338 262.291 834.06 259.954 835.331C257.617 836.602 254.952 837.238 251.959 837.238C247.121 837.238 243.185 835.721 240.151 832.687C237.117 829.653 235.6 825.799 235.6 821.125C235.6 816.533 237.097 812.699 240.09 809.624C243.083 806.549 246.937 805.012 251.652 805.012ZM251.652 808.948C248.454 808.948 245.768 809.911 243.595 811.838C241.463 813.724 240.192 816.184 239.782 819.218H262.722C262.312 815.979 261.061 813.458 258.97 811.654C256.879 809.85 254.44 808.948 251.652 808.948ZM297.989 832.564H302.294V844.741H298.235V836.5H273.143V844.741H269.084V832.564H272.836C274.927 829.817 275.972 825.942 275.972 820.94V805.75H297.989V832.564ZM277.756 832.564H293.93V809.686H280.031V820.94C280.031 825.655 279.273 829.53 277.756 832.564ZM345.58 805.75H349.639V836.5H308.434V805.75H312.493V832.564H327.007V805.75H331.066V832.564H345.58V805.75ZM380.609 805.75H384.053V836.5H379.994V812.822L361.667 836.5H358.223V805.75H362.282V829.427L380.609 805.75ZM397.557 800.83V797.263H413.547V800.83H397.557ZM415.023 805.75H418.467V836.5H414.408V812.822L396.081 836.5H392.637V805.75H396.696V829.427L415.023 805.75Z" fill="black"/>
<path d="M28.5375 1088.25H32.844L28.488 1113H24.1815L25.716 1104.24C23.34 1105 21.0795 1105.38 18.9345 1105.38C15.7995 1105.38 13.4895 1104.57 12.0045 1102.95C10.5195 1101.33 10.008 1099.17 10.47 1096.47L11.9055 1088.25H16.212L14.826 1096.22C14.232 1099.65 15.8325 1101.37 19.6275 1101.37C21.5415 1101.37 23.8185 1100.94 26.4585 1100.08L28.5375 1088.25ZM57.8009 1088.25L57.0584 1092.41H48.6434L45.0299 1113H40.7234L44.3369 1092.41H35.9219L36.6149 1088.25H57.8009ZM68.1816 1113.64C64.5186 1113.64 61.5816 1112.37 59.3706 1109.83C57.1596 1107.29 56.4006 1104.07 57.0936 1100.18C57.7866 1096.35 59.6016 1093.3 62.5386 1091.02C65.4756 1088.74 68.7426 1087.61 72.3396 1087.61C75.8706 1087.61 78.7086 1088.88 80.8536 1091.42C82.9986 1093.96 83.7411 1097.14 83.0811 1100.97C82.4211 1104.87 80.6556 1107.95 77.7846 1110.23C74.9136 1112.5 71.7126 1113.64 68.1816 1113.64ZM68.5281 1109.44C70.9371 1109.44 73.1316 1108.64 75.1116 1107.06C77.1246 1105.48 78.3621 1103.3 78.8241 1100.53C79.2861 1097.85 78.7911 1095.74 77.3391 1094.19C75.9201 1092.61 74.0226 1091.81 71.6466 1091.81C69.3036 1091.85 67.1421 1092.64 65.1621 1094.19C63.1821 1095.74 61.9281 1097.89 61.4001 1100.62C60.9381 1103.4 61.4166 1105.57 62.8356 1107.16C64.2876 1108.71 66.1851 1109.47 68.5281 1109.44ZM88.8498 1099.88L89.5428 1095.72H107.61L106.917 1099.88H88.8498ZM132.776 1088.25L132.033 1092.41H123.618L120.005 1113H115.698L119.312 1092.41H110.897L111.59 1088.25H132.776ZM143.157 1113.64C139.494 1113.64 136.557 1112.37 134.346 1109.83C132.135 1107.29 131.376 1104.07 132.069 1100.18C132.762 1096.35 134.577 1093.3 137.514 1091.02C140.451 1088.74 143.718 1087.61 147.315 1087.61C150.846 1087.61 153.684 1088.88 155.829 1091.42C157.974 1093.96 158.716 1097.14 158.056 1100.97C157.396 1104.87 155.631 1107.95 152.76 1110.23C149.889 1112.5 146.688 1113.64 143.157 1113.64ZM143.503 1109.44C145.912 1109.44 148.107 1108.64 150.087 1107.06C152.1 1105.48 153.337 1103.3 153.799 1100.53C154.261 1097.85 153.766 1095.74 152.314 1094.19C150.895 1092.61 148.998 1091.81 146.622 1091.81C144.279 1091.85 142.117 1092.64 140.137 1094.19C138.157 1095.74 136.903 1097.89 136.375 1100.62C135.913 1103.4 136.392 1105.57 137.811 1107.16C139.263 1108.71 141.16 1109.47 143.503 1109.44ZM185.357 1113.64C181.694 1113.64 178.757 1112.37 176.546 1109.83C174.335 1107.29 173.576 1104.07 174.269 1100.18C174.962 1096.35 176.777 1093.3 179.714 1091.02C182.651 1088.74 185.918 1087.61 189.515 1087.61C193.046 1087.61 195.884 1088.88 198.029 1091.42C200.174 1093.96 200.917 1097.14 200.257 1100.97C199.597 1104.87 197.831 1107.95 194.96 1110.23C192.089 1112.5 188.888 1113.64 185.357 1113.64ZM185.704 1109.44C188.113 1109.44 190.307 1108.64 192.287 1107.06C194.3 1105.48 195.538 1103.3 196 1100.53C196.462 1097.85 195.967 1095.74 194.515 1094.19C193.096 1092.61 191.198 1091.81 188.822 1091.81C186.479 1091.85 184.318 1092.64 182.338 1094.19C180.358 1095.74 179.104 1097.89 178.576 1100.62C178.114 1103.4 178.592 1105.57 180.011 1107.16C181.463 1108.71 183.361 1109.47 185.704 1109.44ZM215.035 1113.64C211.339 1113.64 208.435 1112.32 206.323 1109.68C204.211 1107.01 203.485 1103.81 204.145 1100.08C204.772 1096.45 206.488 1093.46 209.293 1091.12C212.098 1088.78 215.348 1087.61 219.044 1087.61C221.519 1087.61 223.664 1088.2 225.479 1089.39C227.294 1090.54 228.565 1092.09 229.291 1094.04L225.479 1096.02C224.39 1093.22 222.13 1091.81 218.698 1091.81C216.19 1091.81 213.962 1092.64 212.015 1094.29C210.101 1095.91 208.913 1097.95 208.451 1100.43C207.989 1102.97 208.435 1105.1 209.788 1106.81C211.141 1108.53 213.071 1109.39 215.579 1109.39C217.262 1109.39 218.797 1108.99 220.183 1108.2C221.602 1107.41 222.757 1106.33 223.648 1104.98L227.113 1107.26C225.859 1109.27 224.159 1110.84 222.014 1111.96C219.902 1113.08 217.576 1113.64 215.035 1113.64ZM241.963 1113.64C238.3 1113.64 235.363 1112.37 233.152 1109.83C230.941 1107.29 230.182 1104.07 230.875 1100.18C231.568 1096.35 233.383 1093.3 236.32 1091.02C239.257 1088.74 242.524 1087.61 246.121 1087.61C249.652 1087.61 252.49 1088.88 254.635 1091.42C256.78 1093.96 257.523 1097.14 256.863 1100.97C256.203 1104.87 254.437 1107.95 251.566 1110.23C248.695 1112.5 245.494 1113.64 241.963 1113.64ZM242.31 1109.44C244.719 1109.44 246.913 1108.64 248.893 1107.06C250.906 1105.48 252.144 1103.3 252.606 1100.53C253.068 1097.85 252.573 1095.74 251.121 1094.19C249.702 1092.61 247.804 1091.81 245.428 1091.81C243.085 1091.85 240.924 1092.64 238.944 1094.19C236.964 1095.74 235.71 1097.89 235.182 1100.62C234.72 1103.4 235.198 1105.57 236.617 1107.16C238.069 1108.71 239.967 1109.47 242.31 1109.44ZM271.294 1113.64C267.73 1113.64 264.892 1112.42 262.78 1109.98C260.668 1107.54 259.942 1104.45 260.602 1100.72C261.328 1096.47 262.5 1093.2 264.117 1090.92C265.734 1088.61 268.605 1086.53 272.73 1084.69C273.522 1084.32 274.545 1083.89 275.799 1083.4C277.086 1082.87 278.026 1082.47 278.62 1082.21C279.247 1081.95 279.94 1081.58 280.699 1081.12C281.491 1080.66 282.102 1080.15 282.531 1079.59C282.993 1078.99 283.389 1078.32 283.719 1077.56L286.986 1079.54C286.788 1080.07 286.557 1080.56 286.293 1081.02C286.062 1081.45 285.748 1081.88 285.352 1082.31C284.989 1082.71 284.659 1083.05 284.362 1083.35C284.065 1083.65 283.62 1083.96 283.026 1084.29C282.465 1084.62 282.019 1084.88 281.689 1085.08C281.392 1085.28 280.864 1085.54 280.105 1085.87C279.379 1086.17 278.868 1086.39 278.571 1086.52C278.274 1086.62 277.68 1086.85 276.789 1087.21C275.931 1087.54 275.37 1087.75 275.106 1087.85C272.796 1088.74 271.03 1089.67 269.809 1090.63C268.588 1091.55 267.631 1092.72 266.938 1094.14C269.38 1091.83 272.4 1090.68 275.997 1090.68C278.934 1090.68 281.343 1091.8 283.224 1094.04C285.138 1096.29 285.814 1099.06 285.253 1102.36C284.659 1105.72 283.092 1108.45 280.551 1110.52C278.01 1112.6 274.924 1113.64 271.294 1113.64ZM266.245 1107.26C267.565 1108.74 269.38 1109.49 271.69 1109.49C274 1109.49 276.03 1108.79 277.779 1107.41C279.528 1105.99 280.6 1104.19 280.996 1102.01C281.359 1099.83 280.93 1098.03 279.709 1096.62C278.488 1095.2 276.756 1094.49 274.512 1094.49C272.334 1094.49 270.288 1095.13 268.374 1096.42C266.46 1097.7 265.305 1099.44 264.909 1101.61C264.513 1103.86 264.958 1105.74 266.245 1107.26ZM303.586 1087.61C307.315 1087.61 310.169 1088.89 312.149 1091.47C314.162 1094.01 314.822 1097.08 314.129 1100.67C314.063 1101.2 313.898 1101.85 313.634 1102.6H292.943C292.943 1104.82 293.62 1106.53 294.973 1107.75C296.359 1108.97 298.19 1109.58 300.467 1109.58C303.8 1109.58 306.424 1108.36 308.338 1105.92L311.555 1108.25C310.301 1109.96 308.635 1111.3 306.556 1112.26C304.51 1113.18 302.315 1113.64 299.972 1113.64C296.078 1113.64 293.092 1112.34 291.013 1109.73C288.934 1107.13 288.224 1103.92 288.884 1100.13C289.511 1096.53 291.211 1093.55 293.983 1091.17C296.755 1088.79 299.956 1087.61 303.586 1087.61ZM293.587 1098.79H310.07C310.169 1096.45 309.592 1094.68 308.338 1093.5C307.084 1092.28 305.417 1091.67 303.338 1091.67C301.028 1091.67 298.999 1092.31 297.25 1093.6C295.534 1094.85 294.313 1096.58 293.587 1098.79ZM338.335 1088.25H342.642L338.286 1113H333.979L335.811 1102.65H322.99L321.159 1113H316.852L321.208 1088.25H325.515L323.683 1098.55H336.504L338.335 1088.25ZM366.324 1088.25H370.63L366.274 1113H361.968L363.799 1102.65H350.979L349.147 1113H344.841L349.197 1088.25H353.503L351.672 1098.55H364.492L366.324 1088.25ZM384.759 1113.64C381.096 1113.64 378.159 1112.37 375.948 1109.83C373.737 1107.29 372.978 1104.07 373.671 1100.18C374.364 1096.35 376.179 1093.3 379.116 1091.02C382.053 1088.74 385.32 1087.61 388.917 1087.61C392.448 1087.61 395.286 1088.88 397.431 1091.42C399.576 1093.96 400.319 1097.14 399.659 1100.97C398.999 1104.87 397.233 1107.95 394.362 1110.23C391.491 1112.5 388.29 1113.64 384.759 1113.64ZM385.106 1109.44C387.515 1109.44 389.709 1108.64 391.689 1107.06C393.702 1105.48 394.94 1103.3 395.402 1100.53C395.864 1097.85 395.369 1095.74 393.917 1094.19C392.498 1092.61 390.6 1091.81 388.224 1091.81C385.881 1091.85 383.72 1092.64 381.74 1094.19C379.76 1095.74 378.506 1097.89 377.978 1100.62C377.516 1103.4 377.994 1105.57 379.413 1107.16C380.865 1108.71 382.763 1109.47 385.106 1109.44ZM418.248 1087.61C421.977 1087.61 424.831 1088.89 426.811 1091.47C428.824 1094.01 429.484 1097.08 428.791 1100.67C428.725 1101.2 428.56 1101.85 428.296 1102.6H407.605C407.605 1104.82 408.282 1106.53 409.635 1107.75C411.021 1108.97 412.852 1109.58 415.129 1109.58C418.462 1109.58 421.086 1108.36 423 1105.92L426.217 1108.25C424.963 1109.96 423.297 1111.3 421.218 1112.26C419.172 1113.18 416.977 1113.64 414.634 1113.64C410.74 1113.64 407.754 1112.34 405.675 1109.73C403.596 1107.13 402.886 1103.92 403.546 1100.13C404.173 1096.53 405.873 1093.55 408.645 1091.17C411.417 1088.79 414.618 1087.61 418.248 1087.61ZM408.249 1098.79H424.732C424.831 1096.45 424.254 1094.68 423 1093.5C421.746 1092.28 420.079 1091.67 418 1091.67C415.69 1091.67 413.661 1092.31 411.912 1093.6C410.196 1094.85 408.975 1096.58 408.249 1098.79Z" fill="black"/>
<path d="M30.6345 531.238C26.0015 531.238 22.1475 529.7 19.0725 526.625C15.9975 523.509 14.46 519.676 14.46 515.125C14.46 510.574 15.9975 506.761 19.0725 503.686C22.1475 500.57 26.0015 499.012 30.6345 499.012C33.6685 499.012 36.395 499.75 38.814 501.226C41.233 502.661 42.996 504.608 44.103 507.068L40.782 508.975C39.962 507.13 38.6295 505.674 36.7845 504.608C34.9805 503.501 32.9305 502.948 30.6345 502.948C27.2315 502.948 24.3615 504.137 22.0245 506.515C19.6875 508.852 18.519 511.722 18.519 515.125C18.519 518.528 19.6875 521.418 22.0245 523.796C24.3615 526.133 27.2315 527.302 30.6345 527.302C32.9305 527.302 34.9805 526.769 36.7845 525.703C38.5885 524.596 40.003 523.12 41.028 521.275L44.4105 523.243C43.1395 525.703 41.274 527.65 38.814 529.085C36.354 530.52 33.6275 531.238 30.6345 531.238ZM64.1443 499.012C68.6953 499.012 72.3648 500.631 75.1528 503.87C77.9818 507.068 79.3963 510.861 79.3963 515.248C79.3963 515.699 79.3553 516.334 79.2733 517.154H52.2748C52.6848 520.27 53.9968 522.751 56.2108 524.596C58.4658 526.4 61.2333 527.302 64.5133 527.302C66.8503 527.302 68.8593 526.83 70.5403 525.887C72.2623 524.903 73.5538 523.632 74.4148 522.074L77.9818 524.165C76.6288 526.338 74.7838 528.06 72.4468 529.331C70.1098 530.602 67.4448 531.238 64.4518 531.238C59.6138 531.238 55.6778 529.721 52.6438 526.687C49.6098 523.653 48.0928 519.799 48.0928 515.125C48.0928 510.533 49.5893 506.699 52.5823 503.624C55.5753 500.549 59.4293 499.012 64.1443 499.012ZM64.1443 502.948C60.9463 502.948 58.2608 503.911 56.0878 505.838C53.9558 507.724 52.6848 510.184 52.2748 513.218H75.2143C74.8043 509.979 73.5538 507.458 71.4628 505.654C69.3718 503.85 66.9323 502.948 64.1443 502.948ZM99.5059 531.238C95.0779 531.238 91.3879 529.782 88.4359 526.871C85.4839 523.919 84.0079 520.106 84.0079 515.432C84.0079 510.184 84.7869 506.166 86.3449 503.378C87.9029 500.549 91.0599 497.987 95.8159 495.691C96.7179 495.24 97.9069 494.707 99.3829 494.092C100.9 493.477 102.027 492.985 102.765 492.616C103.544 492.247 104.385 491.775 105.287 491.201C106.189 490.586 106.865 489.91 107.316 489.172C107.767 488.434 108.054 487.552 108.177 486.527L111.375 488.372C111.211 489.356 110.883 490.279 110.391 491.14C109.899 492.001 109.387 492.698 108.854 493.231C108.362 493.764 107.562 494.358 106.455 495.014C105.389 495.629 104.549 496.08 103.934 496.367C103.36 496.613 102.335 497.044 100.859 497.659C99.4239 498.274 98.4604 498.684 97.9684 498.889C95.0984 500.119 92.9869 501.41 91.6339 502.763C90.2809 504.075 89.3174 505.797 88.7434 507.929C90.1374 506.084 91.9004 504.731 94.0324 503.87C96.2054 502.968 98.3169 502.517 100.367 502.517C104.467 502.517 107.849 503.87 110.514 506.576C113.22 509.241 114.573 512.665 114.573 516.847C114.573 520.988 113.138 524.432 110.268 527.179C107.439 529.885 103.852 531.238 99.5059 531.238ZM99.5059 527.179C102.704 527.179 105.328 526.215 107.378 524.288C109.469 522.32 110.514 519.84 110.514 516.847C110.514 513.813 109.53 511.332 107.562 509.405C105.635 507.437 103.052 506.453 99.8134 506.453C96.9024 506.453 94.2579 507.376 91.8799 509.221C89.5019 511.025 88.3129 513.444 88.3129 516.478C88.3129 519.594 89.3789 522.156 91.5109 524.165C93.6839 526.174 96.3489 527.179 99.5059 527.179ZM141.686 499.75V530.5H137.627V518.692H132.338L122.867 530.5H117.701L127.418 518.569C124.958 518.2 122.928 517.175 121.329 515.494C119.73 513.813 118.931 511.742 118.931 509.282C118.931 506.494 119.915 504.219 121.883 502.456C123.892 500.652 126.331 499.75 129.201 499.75H141.686ZM129.201 514.879H137.627V503.686H129.201C127.479 503.686 126.003 504.198 124.773 505.223C123.584 506.248 122.99 507.601 122.99 509.282C122.99 510.963 123.584 512.316 124.773 513.341C126.003 514.366 127.479 514.879 129.201 514.879Z" fill="black"/>
<path d="M23.676 549.6H25.62L19.329 564.369C18.699 565.881 17.898 566.97 16.926 567.636C15.954 568.302 14.748 568.59 13.308 568.5V566.772C14.316 566.88 15.144 566.736 15.792 566.34C16.458 565.926 17.007 565.215 17.439 564.207L17.817 563.316L11.31 549.6H13.254L18.708 561.21L23.676 549.6ZM35.4347 558.726C36.4787 559.122 37.2887 559.725 37.8647 560.535C38.4407 561.345 38.7287 562.299 38.7287 563.397C38.7287 564.981 38.1347 566.286 36.9467 567.312C35.7767 568.32 34.1927 568.824 32.1947 568.824C30.3947 568.824 28.9547 568.419 27.8747 567.609C26.7947 566.799 26.0477 565.782 25.6337 564.558L27.2537 563.64C27.4877 564.594 27.9917 565.404 28.7657 566.07C29.5577 566.718 30.7007 567.042 32.1947 567.042C33.6707 567.042 34.8137 566.709 35.6237 566.043C36.4337 565.359 36.8387 564.477 36.8387 563.397C36.8387 562.317 36.4607 561.444 35.7047 560.778C34.9667 560.094 33.9407 559.752 32.6267 559.752H30.4667V557.97H31.9517C33.2297 557.97 34.2467 557.646 35.0027 556.998C35.7587 556.35 36.1367 555.513 36.1367 554.487C36.1367 553.479 35.7677 552.66 35.0297 552.03C34.3097 551.382 33.3197 551.058 32.0597 551.058C29.7377 551.058 28.2077 552.048 27.4697 554.028L25.9037 553.11C26.3717 551.958 27.1097 551.031 28.1177 550.329C29.1437 549.627 30.4577 549.276 32.0597 549.276C33.8417 549.276 35.2817 549.78 36.3797 550.788C37.4777 551.778 38.0267 553.02 38.0267 554.514C38.0267 556.404 37.1627 557.808 35.4347 558.726ZM54.1303 549.6H56.0203V568.5H54.1303V559.671H43.8703V568.5H41.9803V549.6H43.8703V557.889H54.1303V549.6ZM72.9139 568.5L71.1589 563.856H62.1949L60.4399 568.5H58.4419L65.7049 549.6H67.6489L74.9119 568.5H72.9139ZM62.8699 562.074H70.4839L66.6769 551.949L62.8699 562.074ZM87.8147 558.699C88.7327 559.095 89.4617 559.698 90.0017 560.508C90.5597 561.3 90.8387 562.209 90.8387 563.235C90.8387 564.693 90.3257 565.935 89.2997 566.961C88.2737 567.987 87.0317 568.5 85.5737 568.5H77.3387V549.6H84.9527C86.3567 549.6 87.5537 550.104 88.5437 551.112C89.5337 552.102 90.0287 553.29 90.0287 554.676C90.0287 556.44 89.2907 557.781 87.8147 558.699ZM84.9527 551.382H79.2287V557.97H84.9527C85.8347 557.97 86.5817 557.655 87.1937 557.025C87.8237 556.377 88.1387 555.594 88.1387 554.676C88.1387 553.776 87.8237 553.002 87.1937 552.354C86.5817 551.706 85.8347 551.382 84.9527 551.382ZM85.5737 566.718C86.5097 566.718 87.3017 566.385 87.9497 565.719C88.6157 565.035 88.9487 564.207 88.9487 563.235C88.9487 562.281 88.6157 561.462 87.9497 560.778C87.3017 560.094 86.5097 559.752 85.5737 559.752H79.2287V566.718H85.5737ZM106.664 568.5L104.909 563.856H95.9449L94.1899 568.5H92.1919L99.4549 549.6H101.399L108.662 568.5H106.664ZM96.6199 562.074H104.234L100.427 551.949L96.6199 562.074ZM121.624 549.6V551.382H115.819V568.5H113.929V551.382H108.124V549.6H121.624ZM131.075 556.62C132.767 556.62 134.18 557.187 135.314 558.321C136.448 559.455 137.015 560.868 137.015 562.56C137.015 564.252 136.448 565.665 135.314 566.799C134.18 567.933 132.767 568.5 131.075 568.5H124.325V549.6H126.215V556.62H131.075ZM131.075 566.718C132.245 566.718 133.208 566.331 133.964 565.557C134.738 564.765 135.125 563.766 135.125 562.56C135.125 561.354 134.738 560.364 133.964 559.59C133.208 558.798 132.245 558.402 131.075 558.402H126.215V566.718H131.075Z" fill="black"/>
<path d="M396.39 749.5L395.655 747.385H391.185L390.45 749.5H388.575L392.385 739H394.455L398.25 749.5H396.39ZM391.755 745.765H395.085L393.42 741.025L391.755 745.765ZM413.179 739V749.5H411.454V742.015L408.259 747.295H408.049L404.854 742V749.5H403.129V739H404.989L408.154 744.25L411.334 739H413.179ZM424.048 748.12C422.998 749.17 421.713 749.695 420.193 749.695C418.673 749.695 417.383 749.17 416.323 748.12C415.273 747.06 414.748 745.77 414.748 744.25C414.748 742.73 415.273 741.445 416.323 740.395C417.383 739.335 418.673 738.805 420.193 738.805C421.713 738.805 422.998 739.335 424.048 740.395C425.108 741.445 425.638 742.73 425.638 744.25C425.638 745.77 425.108 747.06 424.048 748.12ZM417.538 746.95C418.258 747.66 419.143 748.015 420.193 748.015C421.243 748.015 422.123 747.66 422.833 746.95C423.553 746.23 423.913 745.33 423.913 744.25C423.913 743.17 423.553 742.275 422.833 741.565C422.123 740.845 421.243 740.485 420.193 740.485C419.143 740.485 418.258 740.845 417.538 741.565C416.828 742.275 416.473 743.17 416.473 744.25C416.473 745.33 416.828 746.23 417.538 746.95ZM438.333 749.5H436.398L432.783 744.58V749.5H431.058V744.58L427.443 749.5H425.493L429.423 744.13L425.643 739H427.593L431.058 743.77V739H432.783V743.77L436.248 739H438.183L434.418 744.13L438.333 749.5ZM441.329 747.85H445.979V749.5H439.604V739H445.904V740.65H441.329V743.38H445.529V745.015H441.329V747.85ZM454.383 739V740.65H451.428V749.5H449.703V740.65H446.733V739H454.383Z" fill="black"/>
<path d="M433.35 767.5V760.375L428.4 767.5H427.05V757H428.775V764.125L433.725 757H435.075V767.5H433.35ZM447.147 757H448.872V767.5H447.147V762.955H442.647V767.5H440.922V757H442.647V761.305H447.147V757ZM452.696 765.85H457.346V767.5H450.971V757H457.271V758.65H452.696V761.38H456.896V763.015H452.696V765.85Z" fill="black"/>
<path d="M397.47 784H395.415L391.275 779.005V784H389.55V773.5H391.275V778.21L395.265 773.5H397.32L393.075 778.615L397.47 784ZM405.648 784L404.913 781.885H400.443L399.708 784H397.833L401.643 773.5H403.713L407.508 784H405.648ZM401.013 780.265H404.343L402.678 775.525L401.013 780.265ZM420.652 784H418.717L415.102 779.08V784H413.377V779.08L409.762 784H407.812L411.742 778.63L407.962 773.5H409.912L413.377 778.27V773.5H415.102V778.27L418.567 773.5H420.502L416.737 778.63L420.652 784ZM429.871 782.35H430.996V786.01H429.271V784H422.896V786.01H421.171V782.35H422.146C422.756 781.55 423.061 780.345 423.061 778.735V773.5H429.871V782.35ZM424.036 782.35H428.146V775.12H424.786V778.765C424.786 780.325 424.536 781.52 424.036 782.35ZM432.499 784V773.5H434.224V777.1H436.369C437.359 777.1 438.184 777.435 438.844 778.105C439.514 778.765 439.849 779.58 439.849 780.55C439.849 781.52 439.514 782.34 438.844 783.01C438.184 783.67 437.359 784 436.369 784H432.499ZM440.869 784V773.5H442.594V784H440.869ZM434.224 782.38H436.369C436.879 782.38 437.299 782.21 437.629 781.87C437.959 781.52 438.124 781.08 438.124 780.55C438.124 780.02 437.959 779.585 437.629 779.245C437.299 778.895 436.879 778.72 436.369 778.72H434.224V782.38ZM446.621 772.45V771.04H450.821V772.45H446.621ZM451.001 784V776.875L446.051 784H444.701V773.5H446.426V780.625L451.376 773.5H452.726V784H451.001Z" fill="black"/>
<path d="M24.81 860.1H26.7V879H24.81V870.171H14.55V879H12.66V860.1H14.55V868.389H24.81V860.1ZM43.5936 879L41.8386 874.356H32.8746L31.1196 879H29.1216L36.3846 860.1H38.3286L45.5916 879H43.5936ZM33.5496 872.574H41.1636L37.3566 862.449L33.5496 872.574ZM60.9784 879H58.8184L53.6884 870.927L48.5584 879H46.3984L52.6084 869.253L46.8034 860.1H48.9364L53.6884 867.552L58.4404 860.1H60.5734L54.7684 869.253L60.9784 879ZM78.4961 876.489C76.6061 878.379 74.2931 879.324 71.5571 879.324C68.8211 879.324 66.5081 878.379 64.6181 876.489C62.7281 874.581 61.7831 872.268 61.7831 869.55C61.7831 866.832 62.7281 864.528 64.6181 862.638C66.5081 860.73 68.8211 859.776 71.5571 859.776C74.2931 859.776 76.6061 860.73 78.4961 862.638C80.3861 864.528 81.3311 866.832 81.3311 869.55C81.3311 872.268 80.3861 874.581 78.4961 876.489ZM65.9411 875.193C67.4531 876.723 69.3251 877.488 71.5571 877.488C73.7891 877.488 75.6611 876.723 77.1731 875.193C78.6851 873.645 79.4411 871.764 79.4411 869.55C79.4411 867.336 78.6851 865.464 77.1731 863.934C75.6611 862.386 73.7891 861.612 71.5571 861.612C69.3251 861.612 67.4531 862.386 65.9411 863.934C64.4291 865.464 63.6731 867.336 63.6731 869.55C63.6731 871.764 64.4291 873.645 65.9411 875.193ZM97.2459 877.218H99.2709V882.618H97.3809V879H83.8809V882.618H81.9909V877.218H83.5299C84.7719 875.76 85.3929 873.51 85.3929 870.468V860.1H97.2459V877.218ZM85.7709 877.218H95.3559V861.882H87.2829V870.522C87.2829 873.51 86.7789 875.742 85.7709 877.218ZM114.538 879V863.61L104.008 879H102.388V860.1H104.278V875.49L114.808 860.1H116.428V879H114.538ZM132.619 860.1V861.882H126.814V879H124.924V861.882H119.119V860.1H132.619ZM142.07 867.12C143.762 867.12 145.175 867.687 146.309 868.821C147.443 869.955 148.01 871.368 148.01 873.06C148.01 874.752 147.443 876.165 146.309 877.299C145.175 878.433 143.762 879 142.07 879H135.32V860.1H137.21V867.12H142.07ZM142.07 877.218C143.24 877.218 144.203 876.831 144.959 876.057C145.733 875.265 146.12 874.266 146.12 873.06C146.12 871.854 145.733 870.864 144.959 870.09C144.203 869.298 143.24 868.902 142.07 868.902H137.21V877.218H142.07Z" fill="black"/>
<path d="M19.41 888.6C21.102 888.6 22.515 889.167 23.649 890.301C24.783 891.435 25.35 892.848 25.35 894.54C25.35 896.232 24.783 897.645 23.649 898.779C22.515 899.913 21.102 900.48 19.41 900.48H14.55V907.5H12.66V888.6H19.41ZM19.41 898.698C20.58 898.698 21.543 898.311 22.299 897.537C23.073 896.745 23.46 895.746 23.46 894.54C23.46 893.334 23.073 892.344 22.299 891.57C21.543 890.778 20.58 890.382 19.41 890.382H14.55V898.698H19.41ZM39.2693 907.5L37.5143 902.856H28.5503L26.7953 907.5H24.7973L32.0603 888.6H34.0043L41.2673 907.5H39.2693ZM29.2253 901.074H36.8393L33.0323 890.949L29.2253 901.074ZM52.4152 897.726C53.4592 898.122 54.2692 898.725 54.8452 899.535C55.4212 900.345 55.7092 901.299 55.7092 902.397C55.7092 903.981 55.1152 905.286 53.9272 906.312C52.7572 907.32 51.1732 907.824 49.1752 907.824C47.3752 907.824 45.9352 907.419 44.8552 906.609C43.7752 905.799 43.0282 904.782 42.6142 903.558L44.2342 902.64C44.4682 903.594 44.9722 904.404 45.7462 905.07C46.5382 905.718 47.6812 906.042 49.1752 906.042C50.6512 906.042 51.7942 905.709 52.6042 905.043C53.4142 904.359 53.8192 903.477 53.8192 902.397C53.8192 901.317 53.4412 900.444 52.6852 899.778C51.9472 899.094 50.9212 898.752 49.6072 898.752H47.4472V896.97H48.9322C50.2102 896.97 51.2272 896.646 51.9832 895.998C52.7392 895.35 53.1172 894.513 53.1172 893.487C53.1172 892.479 52.7482 891.66 52.0102 891.03C51.2902 890.382 50.3002 890.058 49.0402 890.058C46.7182 890.058 45.1882 891.048 44.4502 893.028L42.8842 892.11C43.3522 890.958 44.0902 890.031 45.0982 889.329C46.1242 888.627 47.4382 888.276 49.0402 888.276C50.8222 888.276 52.2622 888.78 53.3602 889.788C54.4582 890.778 55.0072 892.02 55.0072 893.514C55.0072 895.404 54.1432 896.808 52.4152 897.726ZM69.4368 897.699C70.3548 898.095 71.0838 898.698 71.6238 899.508C72.1818 900.3 72.4608 901.209 72.4608 902.235C72.4608 903.693 71.9478 904.935 70.9218 905.961C69.8958 906.987 68.6538 907.5 67.1958 907.5H58.9608V888.6H66.5748C67.9788 888.6 69.1758 889.104 70.1658 890.112C71.1558 891.102 71.6508 892.29 71.6508 893.676C71.6508 895.44 70.9128 896.781 69.4368 897.699ZM66.5748 890.382H60.8508V896.97H66.5748C67.4568 896.97 68.2038 896.655 68.8158 896.025C69.4458 895.377 69.7608 894.594 69.7608 893.676C69.7608 892.776 69.4458 892.002 68.8158 891.354C68.2038 890.706 67.4568 890.382 66.5748 890.382ZM67.1958 905.718C68.1318 905.718 68.9238 905.385 69.5718 904.719C70.2378 904.035 70.5708 903.207 70.5708 902.235C70.5708 901.281 70.2378 900.462 69.5718 899.778C68.9238 899.094 68.1318 898.752 67.1958 898.752H60.8508V905.718H67.1958ZM73.1316 907.5V905.826C74.4456 906.006 75.4266 905.601 76.0746 904.611C76.7406 903.603 77.0736 901.767 77.0736 899.103V888.6H89.3316V907.5H87.4416V890.382H78.9636V899.157C78.9636 900.867 78.8286 902.298 78.5586 903.45C78.2886 904.602 77.8836 905.484 77.3436 906.096C76.8216 906.69 76.2186 907.095 75.5346 907.311C74.8686 907.509 74.0676 907.572 73.1316 907.5ZM95.55 905.718H104.73V907.5H93.66V888.6H104.595V890.382H95.55V897.078H103.92V898.86H95.55V905.718ZM118.642 888.6H120.532V907.5H118.642V899.535C117.004 900.345 115.294 900.75 113.512 900.75C111.712 900.75 110.272 900.246 109.192 899.238C108.112 898.23 107.572 896.934 107.572 895.35V888.6H109.462V895.35C109.462 896.448 109.813 897.33 110.515 897.996C111.235 898.644 112.234 898.968 113.512 898.968C115.294 898.968 117.004 898.563 118.642 897.753V888.6ZM126.742 905.718H135.922V907.5H124.852V888.6H135.787V890.382H126.742V897.078H135.112V898.86H126.742V905.718ZM151.32 888.6H153.21V907.5H151.32V898.671H141.06V907.5H139.17V888.6H141.06V896.889H151.32V888.6ZM169.671 907.5V892.11L159.141 907.5H157.521V888.6H159.411V903.99L169.941 888.6H171.561V907.5H169.671ZM188.293 888.6V907.5H186.403V899.94H181.867L176.683 907.5H174.523L179.788 899.859C178.438 899.625 177.313 898.986 176.413 897.942C175.513 896.88 175.063 895.656 175.063 894.27C175.063 892.704 175.612 891.372 176.71 890.274C177.826 889.158 179.167 888.6 180.733 888.6H188.293ZM180.733 898.158H186.403V890.382H180.733C179.689 890.382 178.798 890.76 178.06 891.516C177.322 892.272 176.953 893.19 176.953 894.27C176.953 895.332 177.322 896.25 178.06 897.024C178.798 897.78 179.689 898.158 180.733 898.158Z" fill="black"/>
<path d="M21.489 595.824C18.627 595.824 16.26 594.879 14.388 592.989C12.516 591.099 11.58 588.786 11.58 586.05C11.58 583.314 12.516 581.001 14.388 579.111C16.26 577.221 18.627 576.276 21.489 576.276C23.235 576.276 24.837 576.699 26.295 577.545C27.753 578.373 28.878 579.498 29.67 580.92L27.996 581.892C27.402 580.74 26.52 579.822 25.35 579.138C24.18 578.454 22.893 578.112 21.489 578.112C19.131 578.112 17.205 578.877 15.711 580.407C14.217 581.937 13.47 583.818 13.47 586.05C13.47 588.282 14.217 590.163 15.711 591.693C17.205 593.223 19.131 593.988 21.489 593.988C22.893 593.988 24.18 593.646 25.35 592.962C26.52 592.278 27.402 591.36 27.996 590.208L29.67 591.153C28.896 592.575 27.771 593.709 26.295 594.555C24.837 595.401 23.235 595.824 21.489 595.824ZM34.6682 593.718H43.8482V595.5H32.7782V576.6H43.7132V578.382H34.6682V585.078H43.0382V586.86H34.6682V593.718ZM54.1155 584.16C55.6815 584.16 57.0135 584.718 58.1115 585.834C59.2275 586.95 59.7855 588.282 59.7855 589.83C59.7855 591.396 59.2275 592.737 58.1115 593.853C57.0135 594.951 55.6815 595.5 54.1155 595.5H47.0955V576.6H58.1655V578.382H48.9855V584.16H54.1155ZM54.1155 593.718C55.1595 593.718 56.0505 593.34 56.7885 592.584C57.5265 591.828 57.8955 590.91 57.8955 589.83C57.8955 588.768 57.5265 587.859 56.7885 587.103C56.0505 586.329 55.1595 585.942 54.1155 585.942H48.9855V593.718H54.1155ZM74.7821 576.6V595.5H72.8921V587.94H68.3561L63.1721 595.5H61.0121L66.2771 587.859C64.9271 587.625 63.8021 586.986 62.9021 585.942C62.0021 584.88 61.5521 583.656 61.5521 582.27C61.5521 580.704 62.1011 579.372 63.1991 578.274C64.3151 577.158 65.6561 576.6 67.2221 576.6H74.7821ZM67.2221 586.158H72.8921V578.382H67.2221C66.1781 578.382 65.2871 578.76 64.5491 579.516C63.8111 580.272 63.4421 581.19 63.4421 582.27C63.4421 583.332 63.8111 584.25 64.5491 585.024C65.2871 585.78 66.1781 586.158 67.2221 586.158Z" fill="black"/>
<path d="M26.16 602.1V621H24.27V603.882H14.55V621H12.66V602.1H26.16ZM46.1172 618.489C44.2272 620.379 41.9142 621.324 39.1782 621.324C36.4422 621.324 34.1292 620.379 32.2392 618.489C30.3492 616.581 29.4042 614.268 29.4042 611.55C29.4042 608.832 30.3492 606.528 32.2392 604.638C34.1292 602.73 36.4422 601.776 39.1782 601.776C41.9142 601.776 44.2272 602.73 46.1172 604.638C48.0072 606.528 48.9522 608.832 48.9522 611.55C48.9522 614.268 48.0072 616.581 46.1172 618.489ZM33.5622 617.193C35.0742 618.723 36.9462 619.488 39.1782 619.488C41.4102 619.488 43.2822 618.723 44.7942 617.193C46.3062 615.645 47.0622 613.764 47.0622 611.55C47.0622 609.336 46.3062 607.464 44.7942 605.934C43.2822 604.386 41.4102 603.612 39.1782 603.612C36.9462 603.612 35.0742 604.386 33.5622 605.934C32.0502 607.464 31.2942 609.336 31.2942 611.55C31.2942 613.764 32.0502 615.645 33.5622 617.193ZM61.0134 621.324C58.1514 621.324 55.7844 620.379 53.9124 618.489C52.0404 616.599 51.1044 614.286 51.1044 611.55C51.1044 608.814 52.0404 606.501 53.9124 604.611C55.7844 602.721 58.1514 601.776 61.0134 601.776C62.7594 601.776 64.3614 602.199 65.8194 603.045C67.2774 603.873 68.4024 604.998 69.1944 606.42L67.5204 607.392C66.9264 606.24 66.0444 605.322 64.8744 604.638C63.7044 603.954 62.4174 603.612 61.0134 603.612C58.6554 603.612 56.7294 604.377 55.2354 605.907C53.7414 607.437 52.9944 609.318 52.9944 611.55C52.9944 613.782 53.7414 615.663 55.2354 617.193C56.7294 618.723 58.6554 619.488 61.0134 619.488C62.4174 619.488 63.7044 619.146 64.8744 618.462C66.0444 617.778 66.9264 616.86 67.5204 615.708L69.1944 616.653C68.4204 618.075 67.2954 619.209 65.8194 620.055C64.3614 620.901 62.7594 621.324 61.0134 621.324ZM83.9189 602.1V603.882H78.1139V621H76.2239V603.882H70.4189V602.1H83.9189ZM101.172 618.489C99.2819 620.379 96.9689 621.324 94.2329 621.324C91.4969 621.324 89.1839 620.379 87.2939 618.489C85.4039 616.581 84.4589 614.268 84.4589 611.55C84.4589 608.832 85.4039 606.528 87.2939 604.638C89.1839 602.73 91.4969 601.776 94.2329 601.776C96.9689 601.776 99.2819 602.73 101.172 604.638C103.062 606.528 104.007 608.832 104.007 611.55C104.007 614.268 103.062 616.581 101.172 618.489ZM88.6169 617.193C90.1289 618.723 92.0009 619.488 94.2329 619.488C96.4649 619.488 98.3369 618.723 99.8489 617.193C101.361 615.645 102.117 613.764 102.117 611.55C102.117 609.336 101.361 607.464 99.8489 605.934C98.3369 604.386 96.4649 603.612 94.2329 603.612C92.0009 603.612 90.1289 604.386 88.6169 605.934C87.1049 607.464 86.3489 609.336 86.3489 611.55C86.3489 613.764 87.1049 615.645 88.6169 617.193ZM119.264 602.1V621H117.374V613.44H112.838L107.654 621H105.494L110.759 613.359C109.409 613.125 108.284 612.486 107.384 611.442C106.484 610.38 106.034 609.156 106.034 607.77C106.034 606.204 106.583 604.872 107.681 603.774C108.797 602.658 110.138 602.1 111.704 602.1H119.264ZM111.704 611.658H117.374V603.882H111.704C110.66 603.882 109.769 604.26 109.031 605.016C108.293 605.772 107.924 606.69 107.924 607.77C107.924 608.832 108.293 609.75 109.031 610.524C109.769 611.28 110.66 611.658 111.704 611.658ZM135.737 602.1H137.627V621H135.737V612.171H125.477V621H123.587V602.1H125.477V610.389H135.737V602.1ZM154.088 602.1H155.978V621H154.088V612.171H143.828V621H141.938V602.1H143.828V610.389H154.088V602.1ZM175.923 618.489C174.033 620.379 171.72 621.324 168.984 621.324C166.248 621.324 163.935 620.379 162.045 618.489C160.155 616.581 159.21 614.268 159.21 611.55C159.21 608.832 160.155 606.528 162.045 604.638C163.935 602.73 166.248 601.776 168.984 601.776C171.72 601.776 174.033 602.73 175.923 604.638C177.813 606.528 178.758 608.832 178.758 611.55C178.758 614.268 177.813 616.581 175.923 618.489ZM163.368 617.193C164.88 618.723 166.752 619.488 168.984 619.488C171.216 619.488 173.088 618.723 174.6 617.193C176.112 615.645 176.868 613.764 176.868 611.55C176.868 609.336 176.112 607.464 174.6 605.934C173.088 604.386 171.216 603.612 168.984 603.612C166.752 603.612 164.88 604.386 163.368 605.934C161.856 607.464 161.1 609.336 161.1 611.55C161.1 613.764 161.856 615.645 163.368 617.193Z" fill="black"/>
<path d="M45.6 239L40.32 269H32.58L36.6 246.26H24.66L20.64 269H12.9L18.18 239H45.6ZM69.8517 238.16C74.0917 238.16 77.3517 239.82 79.6317 243.14C81.9517 246.42 82.7517 250.24 82.0317 254.6C81.3917 258.84 79.5517 262.44 76.5117 265.4C73.4717 268.36 69.7917 269.84 65.4717 269.84C61.0717 269.84 57.8717 268.16 55.8717 264.8L53.0517 281H45.3117L52.6917 239H60.4317L59.8917 242.12C62.5317 239.48 65.8517 238.16 69.8517 238.16ZM74.2917 254.06C74.7317 251.54 74.3117 249.5 73.0317 247.94C71.7917 246.34 69.9717 245.54 67.5717 245.54C65.2917 245.54 63.2517 246.24 61.4517 247.64C59.6917 249.04 58.5117 250.88 57.9117 253.16L57.6717 254.66C57.3917 257.06 57.9317 258.96 59.2917 260.36C60.6517 261.76 62.4717 262.46 64.7517 262.46C67.0717 262.46 69.1317 261.72 70.9317 260.24C72.7317 258.72 73.8517 256.66 74.2917 254.06ZM99.9689 269.84C95.0089 269.84 91.2689 268.18 88.7489 264.86C86.2289 261.5 85.4089 257.56 86.2889 253.04C87.1289 248.76 89.2089 245.22 92.5289 242.42C95.8489 239.58 99.8089 238.16 104.409 238.16C109.049 238.16 112.609 239.84 115.089 243.2C117.609 246.52 118.469 250.38 117.669 254.78C116.949 259.02 114.889 262.6 111.489 265.52C108.129 268.4 104.289 269.84 99.9689 269.84ZM100.509 262.28C102.789 262.28 104.829 261.52 106.629 260C108.469 258.48 109.589 256.46 109.989 253.94C110.469 251.46 110.069 249.48 108.789 248C107.509 246.48 105.729 245.72 103.449 245.72C101.209 245.72 99.1889 246.48 97.3889 248C95.6289 249.48 94.5089 251.48 94.0289 254C93.5889 256.52 93.9889 258.54 95.2289 260.06C96.5089 261.54 98.2689 262.28 100.509 262.28ZM148.914 247.88C148.434 250.68 147.114 252.68 144.954 253.88C147.474 255.52 148.454 257.86 147.894 260.9C147.414 263.46 146.214 265.46 144.294 266.9C142.374 268.3 139.754 269 136.434 269H120.654L125.934 239H140.514C143.394 239 145.614 239.86 147.174 241.58C148.774 243.3 149.354 245.4 148.914 247.88ZM138.654 245.36H132.054L131.154 250.76H137.634C139.914 250.76 141.194 249.86 141.474 248.06C141.634 247.18 141.474 246.52 140.994 246.08C140.514 245.6 139.734 245.36 138.654 245.36ZM140.514 259.58C140.674 258.74 140.494 258.08 139.974 257.6C139.454 257.12 138.674 256.88 137.634 256.88H130.074L129.054 262.46H136.674C137.674 262.46 138.514 262.22 139.194 261.74C139.914 261.22 140.354 260.5 140.514 259.58ZM166.238 269.84C161.278 269.84 157.538 268.18 155.018 264.86C152.498 261.5 151.678 257.56 152.558 253.04C153.398 248.76 155.478 245.22 158.798 242.42C162.118 239.58 166.078 238.16 170.678 238.16C175.318 238.16 178.878 239.84 181.358 243.2C183.878 246.52 184.738 250.38 183.938 254.78C183.218 259.02 181.158 262.6 177.758 265.52C174.398 268.4 170.558 269.84 166.238 269.84ZM166.778 262.28C169.058 262.28 171.098 261.52 172.898 260C174.738 258.48 175.858 256.46 176.258 253.94C176.738 251.46 176.338 249.48 175.058 248C173.778 246.48 171.998 245.72 169.718 245.72C167.478 245.72 165.458 246.48 163.658 248C161.898 249.48 160.778 251.48 160.298 254C159.858 256.52 160.258 258.54 161.498 260.06C162.778 261.54 164.538 262.28 166.778 262.28ZM218.032 239L214.012 261.74H218.032L215.272 277.04H207.712L209.152 269H190.492L189.112 277.04H181.492L184.252 261.74H187.972C190.092 259.22 191.572 255.68 192.412 251.12L194.512 239H218.032ZM196.372 261.74H206.452L209.272 245.96H200.872L199.972 251.12C199.172 255.56 197.972 259.1 196.372 261.74ZM248.551 239H254.311L249.031 269H241.471L244.411 252.32L227.371 269H221.611L226.891 239H234.451L231.511 255.68L248.551 239ZM285.043 239L283.723 246.44H274.363L270.403 269H262.663L266.623 246.44H257.203L258.463 239H285.043ZM301.056 248.6C304.216 248.6 306.696 249.64 308.496 251.72C310.336 253.76 310.996 256.3 310.476 259.34C309.916 262.42 308.516 264.8 306.276 266.48C304.036 268.16 301.096 269 297.456 269H283.896L289.176 239H296.916L295.236 248.6H301.056ZM301.536 261.26C302.376 260.62 302.876 259.8 303.036 258.8C303.196 257.8 302.976 256.98 302.376 256.34C301.816 255.7 300.996 255.38 299.916 255.38H294.036L292.836 262.16H298.716C299.796 262.16 300.736 261.86 301.536 261.26Z" fill="black"/>
<path d="M38.34 636.5H44.1L38.82 666.5H31.26L34.2 649.82L17.16 666.5H11.4L16.68 636.5H24.24L21.3 653.18L38.34 636.5ZM70.8717 636.5H78.6117L73.3317 666.5H65.5917L67.5717 655.1H55.6317L53.6517 666.5H45.9117L51.1917 636.5H58.9317L56.9517 647.84H68.8917L70.8717 636.5ZM109.343 636.5L108.023 643.94H98.6634L94.7034 666.5H86.9634L90.9234 643.94H81.5034L82.7634 636.5H109.343ZM114.345 640.04C117.745 637.12 121.665 635.66 126.105 635.66C130.545 635.66 134.045 637.2 136.605 640.28C139.165 643.32 140.025 647.06 139.185 651.5C139.105 652.38 138.825 653.44 138.345 654.68H115.665C115.825 656.6 116.565 658.02 117.885 658.94C119.205 659.86 120.865 660.32 122.865 660.32C125.865 660.32 128.325 659.3 130.245 657.26L135.705 661.64C132.345 665.44 127.865 667.34 122.265 667.34C117.305 667.34 113.525 665.76 110.925 662.6C108.365 659.44 107.465 655.54 108.225 650.9C108.905 646.54 110.945 642.92 114.345 640.04ZM116.745 648.62H131.985C131.945 646.58 131.325 645.08 130.125 644.12C128.965 643.12 127.465 642.62 125.625 642.62C123.625 642.62 121.845 643.14 120.285 644.18C118.765 645.22 117.585 646.7 116.745 648.62ZM164.211 635.66C168.451 635.66 171.711 637.32 173.991 640.64C176.311 643.92 177.111 647.74 176.391 652.1C175.751 656.34 173.911 659.94 170.871 662.9C167.831 665.86 164.151 667.34 159.831 667.34C155.431 667.34 152.231 665.66 150.231 662.3L147.411 678.5H139.671L147.051 636.5H154.791L154.251 639.62C156.891 636.98 160.211 635.66 164.211 635.66ZM168.651 651.56C169.091 649.04 168.671 647 167.391 645.44C166.151 643.84 164.331 643.04 161.931 643.04C159.651 643.04 157.611 643.74 155.811 645.14C154.051 646.54 152.871 648.38 152.271 650.66L152.031 652.16C151.751 654.56 152.291 656.46 153.651 657.86C155.011 659.26 156.831 659.96 159.111 659.96C161.431 659.96 163.491 659.22 165.291 657.74C167.091 656.22 168.211 654.16 168.651 651.56ZM186.708 640.04C190.108 637.12 194.028 635.66 198.468 635.66C202.908 635.66 206.408 637.2 208.968 640.28C211.528 643.32 212.388 647.06 211.548 651.5C211.468 652.38 211.188 653.44 210.708 654.68H188.028C188.188 656.6 188.928 658.02 190.248 658.94C191.568 659.86 193.228 660.32 195.228 660.32C198.228 660.32 200.688 659.3 202.608 657.26L208.068 661.64C204.708 665.44 200.228 667.34 194.628 667.34C189.668 667.34 185.888 665.76 183.288 662.6C180.728 659.44 179.828 655.54 180.588 650.9C181.268 646.54 183.308 642.92 186.708 640.04ZM189.108 648.62H204.348C204.308 646.58 203.688 645.08 202.488 644.12C201.328 643.12 199.828 642.62 197.988 642.62C195.988 642.62 194.208 643.14 192.648 644.18C191.128 645.22 189.948 646.7 189.108 648.62ZM229.014 667.34C224.374 667.34 220.734 665.76 218.094 662.6C215.494 659.4 214.574 655.5 215.334 650.9C216.014 646.5 218.034 642.86 221.394 639.98C224.794 637.1 228.754 635.66 233.274 635.66C236.354 635.66 238.994 636.38 241.194 637.82C243.394 639.22 244.974 641.1 245.934 643.46L238.914 647.18C237.834 644.58 235.734 643.28 232.614 643.28C230.294 643.28 228.214 644.04 226.374 645.56C224.574 647.04 223.474 648.96 223.074 651.32C222.674 653.72 223.094 655.72 224.334 657.32C225.574 658.88 227.354 659.66 229.674 659.66C232.794 659.66 235.274 658.32 237.114 655.64L243.354 659.66C241.834 662.14 239.794 664.04 237.234 665.36C234.714 666.68 231.974 667.34 229.014 667.34ZM271.497 636.5H279.237L273.957 666.5H266.217L268.197 655.1H256.257L254.277 666.5H246.537L251.817 636.5H259.557L257.577 647.84H269.517L271.497 636.5ZM295.988 667.34C291.028 667.34 287.288 665.68 284.768 662.36C282.248 659 281.428 655.06 282.308 650.54C283.148 646.26 285.228 642.72 288.548 639.92C291.868 637.08 295.828 635.66 300.428 635.66C305.068 635.66 308.628 637.34 311.108 640.7C313.628 644.02 314.488 647.88 313.688 652.28C312.968 656.52 310.908 660.1 307.508 663.02C304.148 665.9 300.308 667.34 295.988 667.34ZM296.528 659.78C298.808 659.78 300.848 659.02 302.648 657.5C304.488 655.98 305.608 653.96 306.008 651.44C306.488 648.96 306.088 646.98 304.808 645.5C303.528 643.98 301.748 643.22 299.468 643.22C297.228 643.22 295.208 643.98 293.408 645.5C291.648 646.98 290.528 648.98 290.048 651.5C289.608 654.02 290.008 656.04 291.248 657.56C292.528 659.04 294.288 659.78 296.528 659.78Z" fill="black"/>
<path d="M44.2905 159H36.753L30.8235 131.764C29.8185 127.141 28.981 123.121 28.311 119.704C27.708 116.22 27.172 113.205 26.703 110.659C26.837 113.339 26.9375 116.488 27.0045 120.106C27.1385 123.724 27.2055 127.945 27.2055 132.769V159H10.422V84.228H34.2405L38.763 108.85C39.366 112.066 39.835 114.78 40.17 116.991C40.572 119.202 40.84 121.011 40.974 122.418C41.108 121.011 41.3425 119.202 41.6775 116.991C42.0795 114.78 42.582 112.066 43.185 108.85L47.9085 84.228H71.2245V159H54.039V132.769C54.039 127.945 54.0725 123.758 54.1395 120.207C54.2735 116.656 54.4075 113.473 54.5415 110.659C54.0725 113.138 53.503 116.12 52.833 119.604C52.163 123.088 51.3255 127.141 50.3205 131.764L44.2905 159ZM101.707 108.951H112.159C117.653 108.951 121.975 110.358 125.124 113.172C128.273 115.986 129.847 120.441 129.847 126.538V141.513C129.847 147.878 128.273 152.4 125.124 155.08C122.042 157.693 117.72 159 112.159 159H80.4014V84.228H101.707V108.951ZM104.521 144.227C106.062 144.227 107.134 143.891 107.737 143.221C108.407 142.551 108.742 141.278 108.742 139.402V128.649C108.742 126.907 108.407 125.667 107.737 124.93C107.134 124.193 106.062 123.825 104.521 123.825H101.707V144.227H104.521ZM155.475 159H134.169V84.228H155.475V159ZM164.511 84.228H185.817V141.412H193.254V84.228H214.56V141.412H221.997V84.228H243.303V159H164.511V84.228ZM286.822 136.287C286.822 132.669 286.889 129.218 287.023 125.935C287.224 122.585 287.392 119.369 287.526 116.287C286.789 119.369 285.951 122.552 285.013 125.835C284.142 129.051 283.137 132.401 281.998 135.885L274.662 159H252.351V84.228H273.657V106.941C273.657 110.358 273.59 113.674 273.456 116.89C273.389 120.039 273.288 123.121 273.154 126.136C273.958 123.121 274.796 120.039 275.667 116.89C276.538 113.674 277.509 110.425 278.581 107.142L285.817 84.228H308.128V159H286.822V136.287Z" fill="black"/>
<path d="M451.59 139.946C449.37 154.302 441.452 165.106 427.836 172.358C434.496 175.762 439.454 180.868 442.71 187.676C446.114 194.336 447.15 201.884 445.818 210.32C444.042 222.012 438.418 232.002 428.946 240.29C419.474 248.43 408.226 252.5 395.202 252.5H327.492L354.798 97.1H414.072C426.208 97.1 435.902 101.318 443.154 109.754C450.554 118.19 453.366 128.254 451.59 139.946ZM425.172 158.15C431.24 152.822 434.94 146.384 436.272 138.836C437.604 131.288 436.05 124.924 431.61 119.744C427.318 114.416 421.324 111.752 413.628 111.752H367.674L358.35 165.92H405.192C412.444 165.92 419.104 163.33 425.172 158.15ZM418.734 229.412C425.246 223.788 429.168 217.054 430.5 209.21C431.832 201.366 430.278 194.632 425.838 189.008C421.546 183.384 415.552 180.572 407.856 180.572H355.686L345.696 237.848H396.534C404.822 237.848 412.222 235.036 418.734 229.412Z" fill="black"/>
<path d="M68.04 1052.77C48.132 1052.77 32.823 1045.84 22.113 1031.98C11.403 1018.12 7.749 1001.61 11.151 982.46C14.553 963.434 23.688 947.621 38.556 935.021C53.424 922.295 70.245 915.932 89.019 915.932C101.871 915.932 112.959 918.893 122.283 924.815C131.607 930.611 138.6 938.612 143.262 948.818L131.544 955.055C123.606 937.541 109.368 928.784 88.83 928.784C72.702 928.784 58.527 934.139 46.305 944.849C34.083 955.559 26.649 968.726 24.003 984.35C21.357 1000.23 24.318 1013.46 32.886 1024.04C41.454 1034.62 53.676 1039.92 69.552 1039.92C79.758 1039.92 89.271 1037.52 98.091 1032.73C107.037 1027.95 114.345 1021.33 120.015 1012.89L131.166 1019.88C124.11 1029.96 114.975 1037.96 103.761 1043.88C92.547 1049.81 80.64 1052.77 68.04 1052.77ZM245.344 930.674H181.84L173.713 977.546H232.303L230.035 990.02H171.445L163.129 1038.03H227.389L225.121 1050.5H147.631L170.878 918.2H247.423L245.344 930.674ZM346.511 930.674H282.062L275.069 971.12H310.979C321.437 971.12 330.005 975.341 336.683 983.783C343.361 992.099 345.692 1001.74 343.676 1012.7C341.786 1023.54 336.368 1032.54 327.422 1039.73C318.602 1046.91 308.459 1050.5 296.993 1050.5H247.853L271.1 918.2H348.59L346.511 930.674ZM308.711 983.594H272.801L263.351 1038.03H299.261C306.695 1038.03 313.436 1035.38 319.484 1030.09C325.658 1024.67 329.438 1018.24 330.824 1010.81C332.336 1002.87 330.887 996.383 326.477 991.343C322.067 986.177 316.145 983.594 308.711 983.594ZM456.493 930.674H392.989L384.862 977.546H443.452L441.184 990.02H382.594L374.278 1038.03H438.538L436.27 1050.5H358.78L382.027 918.2H458.572L456.493 930.674Z" fill="black"/>
<path d="M151.056 567.5L162.864 500.3H180.048L174.288 533.036L203.76 500.3H217.008L205.2 567.5H188.112L193.872 534.764L164.4 567.5H151.056Z" fill="black"/>
<path d="M8.556 1194.5L20.364 1127.3H37.548L31.788 1160.04L61.26 1127.3H74.508L62.7 1194.5H45.612L51.372 1161.76L21.9 1194.5H8.556Z" fill="black"/>
<path d="M91.6875 1139.32H112.856C114.816 1139.32 116.58 1139.56 118.148 1140.05C119.765 1140.54 121.088 1141.35 122.117 1142.48C123.146 1143.55 123.832 1145 124.175 1146.81C124.567 1148.63 124.542 1150.83 124.101 1153.43L123.807 1155.12C123.562 1156.64 123.146 1157.94 122.558 1159.01C121.97 1160.04 121.308 1160.9 120.573 1161.59C119.887 1162.22 119.152 1162.74 118.368 1163.13C117.633 1163.47 116.947 1163.72 116.31 1163.86C116.947 1164.16 117.633 1164.58 118.368 1165.11C119.103 1165.65 119.74 1166.41 120.279 1167.39C120.867 1168.32 121.284 1169.52 121.529 1170.99C121.774 1172.42 121.725 1174.15 121.382 1176.21L120.573 1180.77C120.181 1182.83 119.667 1184.69 119.03 1186.36C118.442 1187.97 117.633 1189.37 116.604 1190.55C115.575 1191.67 114.277 1192.53 112.709 1193.12C111.19 1193.71 109.328 1194 107.123 1194H82.059L91.6875 1139.32ZM104.403 1149.61L102.492 1160.19H105.579C107.539 1160.19 108.74 1158.87 109.181 1156.22L109.622 1153.57C109.867 1152.15 109.769 1151.15 109.328 1150.56C108.936 1149.92 108.103 1149.61 106.829 1149.61H104.403ZM100.728 1170.26L98.376 1183.34H101.904C103.129 1183.34 103.987 1183.02 104.477 1182.39C105.016 1181.75 105.408 1180.65 105.653 1179.08L106.461 1174.45C106.706 1173.13 106.608 1172.1 106.167 1171.36C105.726 1170.63 104.869 1170.26 103.595 1170.26H100.728ZM143.614 1182.68C144.741 1182.68 145.525 1182.31 145.966 1181.58C146.407 1180.84 146.75 1179.84 146.995 1178.56L148.465 1170.33H162.871L161.254 1179.45C160.911 1181.36 160.421 1183.24 159.784 1185.11C159.196 1186.92 158.289 1188.56 157.064 1190.03C155.839 1191.45 154.247 1192.6 152.287 1193.49C150.327 1194.37 147.852 1194.81 144.863 1194.81H142.364C135.7 1194.81 131.045 1193.29 128.399 1190.25C125.802 1187.16 125.018 1182.73 126.047 1176.95L129.869 1155.19C130.31 1152.69 130.898 1150.41 131.633 1148.36C132.417 1146.3 133.471 1144.53 134.794 1143.06C136.117 1141.59 137.783 1140.47 139.792 1139.68C141.85 1138.9 144.398 1138.51 147.436 1138.51H149.935C156.256 1138.51 160.69 1139.78 163.238 1142.33C165.835 1144.88 166.693 1148.7 165.811 1153.8L164.561 1160.85H150.155L151.331 1154.16C151.576 1152.99 151.478 1152.06 151.037 1151.37C150.645 1150.63 149.861 1150.27 148.685 1150.27C147.558 1150.27 146.774 1150.63 146.333 1151.37C145.941 1152.1 145.647 1153.04 145.451 1154.16L141.115 1178.56C140.674 1181.31 141.507 1182.68 143.614 1182.68ZM202.167 1139.32L199.962 1151.88H186.291L184.968 1159.38H196.728L194.449 1172.17H182.689L181.072 1181.28H195.184L192.906 1194H164.388L174.016 1139.32H202.167ZM207.969 1139.32H235.972L233.694 1151.88H220.905L213.481 1194H198.267L207.969 1139.32ZM232.435 1181.28C232.827 1180.11 233.194 1179.03 233.537 1178.05C233.929 1177.07 234.321 1175.97 234.713 1174.74C235.105 1173.47 235.522 1171.97 235.963 1170.26C236.453 1168.5 236.992 1166.27 237.58 1163.57C238.168 1160.83 238.829 1157.49 239.564 1153.57C240.299 1149.65 241.181 1144.9 242.21 1139.32H275.212L267.788 1181.28H272.198L268.597 1201.94H254.926L256.322 1194H240.299L238.903 1201.94H225.232L228.833 1181.28H232.435ZM252.574 1181.28L257.792 1151.66H253.015C252.28 1155.73 251.594 1159.23 250.957 1162.17C250.32 1165.11 249.707 1167.74 249.119 1170.04C248.58 1172.29 248.041 1174.33 247.502 1176.14C246.963 1177.9 246.424 1179.62 245.885 1181.28H252.574ZM290.674 1175.62H295.819L296.04 1168.2C296.138 1165.46 296.211 1162.96 296.26 1160.7C296.358 1158.4 296.456 1156.39 296.554 1154.68C296.113 1156.39 295.599 1158.35 295.011 1160.56C294.423 1162.76 293.712 1165.29 292.879 1168.13L290.674 1175.62ZM295.452 1186.8H287.44L285.309 1194H272.079L289.572 1139.32H309.343L309.27 1194H295.231L295.452 1186.8Z" fill="black"/>
<path d="M342.288 1138.39C345.076 1139.41 346.47 1141.4 346.47 1144.36C346.47 1146.43 345.773 1148.15 344.379 1149.51C343.019 1150.84 341.047 1151.5 338.463 1151.5H326.07V1126H337.443C339.925 1126 341.846 1126.65 343.206 1127.94C344.566 1129.2 345.246 1130.83 345.246 1132.83C345.246 1135.38 344.26 1137.24 342.288 1138.39ZM337.443 1129.26H329.436V1137.02H337.443C340.401 1137.02 341.88 1135.69 341.88 1133.04C341.88 1131.85 341.489 1130.93 340.707 1130.28C339.959 1129.6 338.871 1129.26 337.443 1129.26ZM338.463 1148.24C339.959 1148.24 341.098 1147.88 341.88 1147.16C342.696 1146.45 343.104 1145.45 343.104 1144.16C343.104 1142.97 342.696 1142.03 341.88 1141.35C341.098 1140.64 339.959 1140.28 338.463 1140.28H329.436V1148.24H338.463ZM363.351 1125.39C367.125 1125.39 370.168 1126.73 372.48 1129.42C374.826 1132.07 375.999 1135.21 375.999 1138.85C375.999 1139.23 375.965 1139.75 375.897 1140.43H353.508C353.848 1143.02 354.936 1145.07 356.772 1146.6C358.642 1148.1 360.937 1148.85 363.657 1148.85C365.595 1148.85 367.261 1148.46 368.655 1147.67C370.083 1146.86 371.154 1145.8 371.868 1144.51L374.826 1146.25C373.704 1148.05 372.174 1149.48 370.236 1150.53C368.298 1151.58 366.088 1152.11 363.606 1152.11C359.594 1152.11 356.33 1150.85 353.814 1148.34C351.298 1145.82 350.04 1142.63 350.04 1138.75C350.04 1134.94 351.281 1131.76 353.763 1129.21C356.245 1126.66 359.441 1125.39 363.351 1125.39ZM363.351 1128.65C360.699 1128.65 358.472 1129.45 356.67 1131.05C354.902 1132.61 353.848 1134.65 353.508 1137.17H372.531C372.191 1134.48 371.154 1132.39 369.42 1130.9C367.686 1129.4 365.663 1128.65 363.351 1128.65ZM395.021 1125.39C398.659 1125.39 401.753 1126.68 404.303 1129.26C406.887 1131.85 408.179 1135.01 408.179 1138.75C408.179 1142.49 406.887 1145.65 404.303 1148.24C401.753 1150.82 398.659 1152.11 395.021 1152.11C390.499 1152.11 387.065 1150.24 384.719 1146.5V1161.7H381.353V1126H384.719V1131C387.065 1127.26 390.499 1125.39 395.021 1125.39ZM387.626 1145.94C389.564 1147.88 391.944 1148.85 394.766 1148.85C397.588 1148.85 399.968 1147.88 401.906 1145.94C403.844 1143.97 404.813 1141.57 404.813 1138.75C404.813 1135.93 403.844 1133.55 401.906 1131.61C399.968 1129.64 397.588 1128.65 394.766 1128.65C391.944 1128.65 389.564 1129.64 387.626 1131.61C385.688 1133.55 384.719 1135.93 384.719 1138.75C384.719 1141.57 385.688 1143.97 387.626 1145.94ZM432.34 1126H435.196V1151.5H431.83V1131.86L416.632 1151.5H413.776V1126H417.142V1145.63L432.34 1126ZM460.674 1126V1129.26H451.647V1151.5H448.281V1129.26H439.254V1126H460.674Z" fill="black"/>
<path d="M346.362 1182.19C349.724 1183.42 351.405 1185.82 351.405 1189.39C351.405 1191.89 350.565 1193.96 348.884 1195.6C347.244 1197.2 344.866 1198 341.75 1198H326.805V1167.25H340.52C343.513 1167.25 345.829 1168.03 347.469 1169.59C349.109 1171.1 349.929 1173.07 349.929 1175.49C349.929 1178.57 348.74 1180.8 346.362 1182.19ZM340.52 1171.19H330.864V1180.53H340.52C344.087 1180.53 345.87 1178.93 345.87 1175.74C345.87 1174.3 345.399 1173.19 344.456 1172.42C343.554 1171.6 342.242 1171.19 340.52 1171.19ZM341.75 1194.06C343.554 1194.06 344.927 1193.63 345.87 1192.77C346.854 1191.91 347.346 1190.7 347.346 1189.14C347.346 1187.71 346.854 1186.58 345.87 1185.76C344.927 1184.9 343.554 1184.47 341.75 1184.47H330.864V1194.06H341.75ZM383.877 1166.51C388.51 1166.51 392.241 1168.05 395.07 1171.12C397.899 1174.16 399.314 1177.99 399.314 1182.62C399.314 1187.26 397.879 1191.11 395.009 1194.19C392.18 1197.22 388.428 1198.74 383.754 1198.74C380.433 1198.74 377.543 1198.02 375.083 1196.59C372.664 1195.11 370.921 1193.12 369.855 1190.62L373.361 1188.59C374.058 1190.48 375.308 1191.99 377.112 1193.14C378.916 1194.25 381.13 1194.8 383.754 1194.8C386.829 1194.8 389.392 1193.86 391.442 1191.97C393.492 1190.05 394.722 1187.59 395.132 1184.59H379.818V1180.66H395.132C394.763 1177.66 393.553 1175.22 391.503 1173.34C389.494 1171.41 386.952 1170.45 383.877 1170.45C381.54 1170.45 379.47 1171 377.665 1172.11C375.862 1173.22 374.529 1174.71 373.668 1176.6L370.101 1174.57C371.331 1172.07 373.156 1170.1 375.575 1168.66C378.035 1167.23 380.802 1166.51 383.877 1166.51ZM427.021 1167.25V1171.19H416.136V1198H412.077V1171.19H401.191V1167.25H427.021ZM456.535 1194.13C453.419 1197.2 449.606 1198.74 445.096 1198.74C440.586 1198.74 436.752 1197.2 433.595 1194.13C430.479 1191.01 428.921 1187.18 428.921 1182.62C428.921 1178.07 430.479 1174.26 433.595 1171.19C436.752 1168.07 440.586 1166.51 445.096 1166.51C449.606 1166.51 453.419 1168.07 456.535 1171.19C459.692 1174.26 461.27 1178.07 461.27 1182.62C461.27 1187.18 459.692 1191.01 456.535 1194.13ZM436.486 1191.3C438.823 1193.63 441.693 1194.8 445.096 1194.8C448.499 1194.8 451.369 1193.63 453.706 1191.3C456.043 1188.92 457.211 1186.03 457.211 1182.62C457.211 1179.22 456.043 1176.35 453.706 1174.01C451.369 1171.64 448.499 1170.45 445.096 1170.45C441.693 1170.45 438.823 1171.64 436.486 1174.01C434.149 1176.35 432.98 1179.22 432.98 1182.62C432.98 1186.03 434.149 1188.92 436.486 1191.3Z" fill="black"/>
<path d="M167.062 295.728H196.007C198.687 295.728 201.099 296.063 203.243 296.733C205.454 297.403 207.263 298.508 208.67 300.049C210.077 301.523 211.015 303.5 211.484 305.979C212.02 308.458 211.986 311.473 211.383 315.024L210.981 317.335C210.646 319.412 210.077 321.188 209.273 322.662C208.469 324.069 207.564 325.241 206.559 326.179C205.621 327.05 204.616 327.754 203.544 328.29C202.539 328.759 201.601 329.094 200.73 329.295C201.601 329.697 202.539 330.266 203.544 331.003C204.549 331.74 205.42 332.779 206.157 334.119C206.961 335.392 207.531 337.033 207.866 339.043C208.201 340.986 208.134 343.365 207.665 346.179L206.559 352.41C206.023 355.224 205.32 357.77 204.449 360.048C203.645 362.259 202.539 364.168 201.132 365.776C199.725 367.317 197.95 368.49 195.806 369.294C193.729 370.098 191.183 370.5 188.168 370.5H153.897L167.062 295.728ZM184.449 309.798L181.836 324.27H186.057C188.737 324.27 190.379 322.461 190.982 318.843L191.585 315.225C191.92 313.282 191.786 311.908 191.183 311.104C190.647 310.233 189.508 309.798 187.766 309.798H184.449ZM179.424 338.038L176.208 355.927H181.032C182.707 355.927 183.88 355.492 184.55 354.621C185.287 353.75 185.823 352.242 186.158 350.098L187.263 343.767C187.598 341.958 187.464 340.551 186.861 339.546C186.258 338.541 185.086 338.038 183.344 338.038H179.424ZM236.053 343.566L231.33 370.5H210.526L223.692 295.728H252.334C255.014 295.728 257.493 296.063 259.771 296.733C262.049 297.403 263.959 298.475 265.5 299.949C267.041 301.356 268.113 303.265 268.716 305.677C269.319 308.022 269.319 310.903 268.716 314.32L266.605 326.179C265.533 332.209 263.624 336.631 260.877 339.445C258.13 342.192 254.076 343.566 248.716 343.566H236.053ZM238.666 328.893H241.882C243.423 328.893 244.462 328.491 244.998 327.687C245.601 326.883 246.07 325.61 246.405 323.868L248.013 314.823C248.348 312.88 248.214 311.573 247.611 310.903C247.008 310.166 245.936 309.798 244.395 309.798H241.983L238.666 328.893ZM317.635 295.728L314.62 312.913H295.927L294.118 323.164H310.198L307.083 340.651H291.003L288.792 353.113H308.088L304.972 370.5H265.978L279.144 295.728H317.635ZM345.367 370.5H338.03L336.925 343.264C336.724 338.574 336.623 334.521 336.623 331.104C336.623 327.687 336.623 324.705 336.623 322.159C336.288 324.839 335.853 327.988 335.317 331.606C334.781 335.224 334.077 339.445 333.206 344.269L328.583 370.5H312.202L325.367 295.728H348.08L348.281 320.35C348.281 323.432 348.248 326.146 348.181 328.491C348.181 330.769 348.147 332.578 348.08 333.918C348.482 332.578 349.052 330.802 349.789 328.591C350.526 326.38 351.464 323.667 352.603 320.451L361.447 295.728H384.763L371.597 370.5H354.814L359.437 344.269C360.308 339.445 361.112 335.258 361.849 331.707C362.586 328.156 363.256 324.973 363.859 322.159C362.921 324.638 361.815 327.62 360.542 331.104C359.336 334.588 357.829 338.641 356.02 343.264L345.367 370.5ZM412.472 342.862H410.261L398.603 370.5H378.402L392.472 337.938C390.73 336.598 389.39 334.688 388.452 332.209C387.581 329.73 387.514 326.581 388.251 322.762L389.96 312.913C391.032 306.749 393.377 302.361 396.995 299.748C400.68 297.068 405.906 295.728 412.673 295.728H440.913L427.647 370.5H407.547L412.472 342.862ZM418.401 309.798H414.783C413.309 309.798 412.17 310.133 411.366 310.803C410.629 311.406 410.093 312.578 409.758 314.32L408.251 322.963C407.916 324.705 408.016 325.945 408.552 326.682C409.088 327.419 410.093 327.787 411.567 327.787H415.185L418.401 309.798Z" fill="black"/>
<path d="M232.875 512.2H254.475C256.475 512.2 258.275 512.45 259.875 512.95C261.525 513.45 262.875 514.275 263.925 515.425C264.975 516.525 265.675 518 266.025 519.85C266.425 521.7 266.4 523.95 265.95 526.6L265.65 528.325C265.4 529.875 264.975 531.2 264.375 532.3C263.775 533.35 263.1 534.225 262.35 534.925C261.65 535.575 260.9 536.1 260.1 536.5C259.35 536.85 258.65 537.1 258 537.25C258.65 537.55 259.35 537.975 260.1 538.525C260.85 539.075 261.5 539.85 262.05 540.85C262.65 541.8 263.075 543.025 263.325 544.525C263.575 545.975 263.525 547.75 263.175 549.85L262.35 554.5C261.95 556.6 261.425 558.5 260.775 560.2C260.175 561.85 259.35 563.275 258.3 564.475C257.25 565.625 255.925 566.5 254.325 567.1C252.775 567.7 250.875 568 248.625 568H223.05L232.875 512.2ZM245.85 522.7L243.9 533.5H247.05C249.05 533.5 250.275 532.15 250.725 529.45L251.175 526.75C251.425 525.3 251.325 524.275 250.875 523.675C250.475 523.025 249.625 522.7 248.325 522.7H245.85ZM242.1 543.775L239.7 557.125H243.3C244.55 557.125 245.425 556.8 245.925 556.15C246.475 555.5 246.875 554.375 247.125 552.775L247.95 548.05C248.2 546.7 248.1 545.65 247.65 544.9C247.2 544.15 246.325 543.775 245.025 543.775H242.1ZM285.861 556.45C287.011 556.45 287.811 556.075 288.261 555.325C288.711 554.575 289.061 553.55 289.311 552.25L290.811 543.85H305.511L303.861 553.15C303.511 555.1 303.011 557.025 302.361 558.925C301.761 560.775 300.836 562.45 299.586 563.95C298.336 565.4 296.711 566.575 294.711 567.475C292.711 568.375 290.186 568.825 287.136 568.825H284.586C277.786 568.825 273.036 567.275 270.336 564.175C267.686 561.025 266.886 556.5 267.936 550.6L271.836 528.4C272.286 525.85 272.886 523.525 273.636 521.425C274.436 519.325 275.511 517.525 276.861 516.025C278.211 514.525 279.911 513.375 281.961 512.575C284.061 511.775 286.661 511.375 289.761 511.375H292.311C298.761 511.375 303.286 512.675 305.886 515.275C308.536 517.875 309.411 521.775 308.511 526.975L307.236 534.175H292.536L293.736 527.35C293.986 526.15 293.886 525.2 293.436 524.5C293.036 523.75 292.236 523.375 291.036 523.375C289.886 523.375 289.086 523.75 288.636 524.5C288.236 525.25 287.936 526.2 287.736 527.35L283.311 552.25C282.861 555.05 283.711 556.45 285.861 556.45ZM345.609 512.2L343.359 525.025H329.409L328.059 532.675H340.059L337.734 545.725H325.734L324.084 555.025H338.484L336.159 568H307.059L316.884 512.2H345.609ZM351.529 512.2H380.104L377.779 525.025H364.729L357.154 568H341.629L351.529 512.2ZM376.495 555.025C376.895 553.825 377.27 552.725 377.62 551.725C378.02 550.725 378.42 549.6 378.82 548.35C379.22 547.05 379.645 545.525 380.095 543.775C380.595 541.975 381.145 539.7 381.745 536.95C382.345 534.15 383.02 530.75 383.77 526.75C384.52 522.75 385.42 517.9 386.47 512.2H420.145L412.57 555.025H417.07L413.395 576.1H399.445L400.87 568H384.52L383.095 576.1H369.145L372.82 555.025H376.495ZM397.045 555.025L402.37 524.8H397.495C396.745 528.95 396.045 532.525 395.395 535.525C394.745 538.525 394.12 541.2 393.52 543.55C392.97 545.85 392.42 547.925 391.87 549.775C391.32 551.575 390.77 553.325 390.22 555.025H397.045ZM435.923 549.25H441.173L441.398 541.675C441.498 538.875 441.573 536.325 441.623 534.025C441.723 531.675 441.823 529.625 441.923 527.875C441.473 529.625 440.948 531.625 440.348 533.875C439.748 536.125 439.023 538.7 438.173 541.6L435.923 549.25ZM440.798 560.65H432.623L430.448 568H416.948L434.798 512.2H454.973L454.898 568H440.573L440.798 560.65Z" fill="black"/>
<path d="M49.8975 301.052L41.4 379.692H24.405L15.9075 301.052H49.8975ZM47.889 416H17.916V386.336H47.889V416ZM94.7085 301.052L86.211 379.692H69.216L60.7185 301.052H94.7085ZM92.7 416H62.727V386.336H92.7V416ZM139.52 301.052L131.022 379.692H114.027L105.53 301.052H139.52ZM137.511 416H107.538V386.336H137.511V416Z" fill="black"/>
<path d="M369.462 482H339.18V452.027H369.462V482ZM412.161 482H381.879V452.027H412.161V482ZM454.859 482H424.577V452.027H454.859V482Z" fill="black"/>
<circle cx="273.75" cy="356.75" r="27.75" fill="#FD3E3E"/>
</svg>
