<svg width="314" height="823" viewBox="0 0 314 823" fill="none" xmlns="http://www.w3.org/2000/svg">
<path d="M37.084 17.3H17.572L16.96 20.612H26.032C28.168 20.612 29.944 20.816 31.36 21.224C32.776 21.632 33.904 22.196 34.744 22.916C35.608 23.636 36.208 24.5 36.544 25.508C36.904 26.516 37.084 27.632 37.084 28.856C37.084 30.176 36.856 31.4 36.4 32.528C35.944 33.632 35.224 34.592 34.24 35.408C33.28 36.224 32.044 36.86 30.532 37.316C29.02 37.772 27.208 38 25.096 38H5.188L10.372 11.216H38.272L37.084 17.3ZM24.304 31.916C25.84 31.916 26.896 31.664 27.472 31.16C28.072 30.656 28.372 29.972 28.372 29.108C28.372 28.772 28.324 28.46 28.228 28.172C28.132 27.86 27.952 27.596 27.688 27.38C27.448 27.164 27.112 26.996 26.68 26.876C26.272 26.756 25.732 26.696 25.06 26.696H15.772L14.728 31.916H24.304ZM70.6563 11.216L69.4683 17.3H52.7283L51.9363 21.296H68.1723L66.9483 27.56H50.7123L49.8843 31.844H66.8763L65.6883 38H40.3442L45.5643 11.216H70.6563ZM89.1394 10.856H90.2914C92.7874 10.856 94.9114 11.024 96.6634 11.36C98.4394 11.672 99.8914 12.116 101.019 12.692C102.147 13.268 102.975 13.976 103.503 14.816C104.031 15.632 104.295 16.544 104.295 17.552C104.295 18.536 104.115 19.376 103.755 20.072C103.419 20.768 102.963 21.368 102.387 21.872C101.835 22.352 101.187 22.748 100.443 23.06C99.7234 23.348 98.9794 23.576 98.2114 23.744C98.8834 23.936 99.5194 24.188 100.119 24.5C100.719 24.812 101.247 25.22 101.703 25.724C102.183 26.204 102.555 26.78 102.819 27.452C103.107 28.124 103.251 28.892 103.251 29.756C103.251 32.708 102.003 34.904 99.5074 36.344C97.0354 37.76 93.1474 38.468 87.8434 38.468H86.9794C84.6274 38.468 82.4434 38.288 80.4274 37.928C78.4114 37.568 76.6834 36.992 75.2434 36.2C73.8034 35.384 72.7114 34.34 71.9674 33.068C71.2234 31.796 70.9474 30.236 71.1394 28.388H80.2474C80.1514 29.204 80.2594 29.888 80.5714 30.44C80.9074 30.968 81.3874 31.4 82.0114 31.736C82.6594 32.072 83.4394 32.312 84.3514 32.456C85.2874 32.6 86.3074 32.672 87.4114 32.672C88.7314 32.672 89.8234 32.612 90.6874 32.492C91.5754 32.348 92.2834 32.144 92.8114 31.88C93.3634 31.592 93.7474 31.244 93.9634 30.836C94.2034 30.428 94.3234 29.948 94.3234 29.396C94.3234 28.532 93.9754 27.896 93.2794 27.488C92.5834 27.08 91.3954 26.876 89.7154 26.876H82.9114L83.9554 21.476H90.7954C91.3954 21.476 91.9594 21.452 92.4874 21.404C93.0154 21.332 93.4714 21.2 93.8554 21.008C94.2634 20.816 94.5754 20.552 94.7914 20.216C95.0314 19.856 95.1514 19.388 95.1514 18.812C95.1514 18.044 94.6954 17.468 93.7834 17.084C92.8954 16.7 91.5154 16.508 89.6434 16.508C87.5314 16.508 85.8034 16.772 84.4594 17.3C83.1154 17.828 82.3234 18.764 82.0834 20.108H72.9394C73.2274 18.404 73.8514 16.964 74.8114 15.788C75.7954 14.612 77.0074 13.664 78.4474 12.944C79.9114 12.2 81.5554 11.672 83.3794 11.36C85.2034 11.024 87.1234 10.856 89.1394 10.856ZM116.021 31.484C116.429 31.484 116.693 31.424 116.813 31.304C116.957 31.16 117.029 30.956 117.029 30.692C117.029 30.284 116.825 29.672 116.417 28.856L108.353 11.216H117.677L123.905 25.472L134.345 11.216H143.633L127.793 32.06C126.977 33.14 126.173 34.064 125.381 34.832C124.613 35.576 123.773 36.188 122.861 36.668C121.973 37.124 120.977 37.46 119.873 37.676C118.769 37.892 117.461 38 115.949 38H110.117L111.377 31.484H116.021ZM147.166 11.216H157.93L162.43 28.028L173.482 11.216H184.894L179.71 38H171.538L174.886 20.756L163.618 38H157.822L153.214 20.756L149.902 38H141.946L147.166 11.216ZM191.111 11.216H199.499L197.627 20.936H211.523L213.431 11.216H221.819L216.635 38H208.211L210.263 27.524H196.331L194.279 38H185.891L191.111 11.216ZM241.992 31.736C243.36 31.736 244.404 31.46 245.124 30.908C245.868 30.332 246.24 29.504 246.24 28.424C246.24 27.68 246 27.068 245.52 26.588C245.04 26.084 244.128 25.832 242.784 25.832H233.568L232.416 31.736H241.992ZM234.792 19.568H244.008C246.144 19.568 247.92 19.796 249.336 20.252C250.752 20.684 251.868 21.284 252.684 22.052C253.524 22.82 254.112 23.732 254.448 24.788C254.784 25.844 254.952 26.984 254.952 28.208C254.952 29.672 254.7 31.004 254.196 32.204C253.716 33.404 252.972 34.436 251.964 35.3C250.956 36.164 249.672 36.836 248.112 37.316C246.576 37.772 244.752 38 242.64 38H222.84L228.024 11.216H236.412L234.792 19.568ZM264.744 38H256.356L261.576 11.216H269.964L264.744 38ZM301.281 11.216L300.093 17.3H283.353L282.561 21.296H298.797L297.573 27.56H281.337L280.509 31.844H297.501L296.313 38H270.969L276.189 11.216H301.281Z" fill="black"/>
<path d="M5.188 520L10.408 493.216H18.796L16.708 503.872L29.884 493.216H40.504L24.592 505.924L36.04 520H25.96L15.988 507.652L13.576 520H5.188ZM57.6254 499.444L51.4334 509.488H60.1454L57.6254 499.444ZM61.6214 515.32H47.8334L44.9174 520H36.0614L52.9814 493.216H64.0694L71.3414 520H62.8094L61.6214 515.32ZM100.477 520H92.0892L94.3212 508.372L81.6492 520H70.8132L86.9412 505.24L76.9332 493.216H86.9052L95.3292 503.296L97.2732 493.216H105.661L103.681 503.332L115.993 493.216H126.325L111.097 505.708L121.249 520H111.025L102.709 508.372L100.477 520ZM127.099 513.736C127.675 512.848 128.215 511.876 128.719 510.82C129.223 509.74 129.715 508.42 130.195 506.86C130.699 505.276 131.203 503.392 131.707 501.208C132.211 499 132.763 496.336 133.363 493.216H160.147L156.115 513.736H160.435L158.347 524.5H150.535L151.435 520H130.267L129.367 524.5H121.555L123.679 513.736H127.099ZM147.727 513.736L150.571 499.48H139.987C139.579 501.4 139.183 503.104 138.799 504.592C138.415 506.056 138.031 507.364 137.647 508.516C137.287 509.644 136.915 510.64 136.531 511.504C136.147 512.344 135.751 513.088 135.343 513.736H147.727ZM182.367 513.736C183.735 513.736 184.779 513.46 185.499 512.908C186.243 512.332 186.615 511.504 186.615 510.424C186.615 509.68 186.375 509.068 185.895 508.588C185.415 508.084 184.503 507.832 183.159 507.832H173.943L172.791 513.736H182.367ZM175.167 501.568H184.383C186.519 501.568 188.295 501.796 189.711 502.252C191.127 502.684 192.243 503.284 193.059 504.052C193.899 504.82 194.487 505.732 194.823 506.788C195.159 507.844 195.327 508.984 195.327 510.208C195.327 511.672 195.075 513.004 194.571 514.204C194.091 515.404 193.347 516.436 192.339 517.3C191.331 518.164 190.047 518.836 188.487 519.316C186.951 519.772 185.127 520 183.015 520H163.215L168.399 493.216H176.787L175.167 501.568ZM205.119 520H196.731L201.951 493.216H210.339L205.119 520ZM237.516 502.936L219.732 520H211.344L216.564 493.216H224.952L221.604 510.28L239.424 493.216H247.812L242.592 520H234.204L237.516 502.936ZM232.62 491.308C231.012 491.308 229.728 491.092 228.768 490.66C227.832 490.204 227.124 489.664 226.644 489.04C226.164 488.392 225.852 487.708 225.708 486.988C225.588 486.268 225.552 485.632 225.6 485.08H231.18C231.18 485.224 231.18 485.404 231.18 485.62C231.204 485.836 231.276 486.052 231.396 486.268C231.516 486.484 231.696 486.676 231.936 486.844C232.2 486.988 232.572 487.06 233.052 487.06H233.088C233.52 487.06 233.88 486.988 234.168 486.844C234.456 486.676 234.684 486.496 234.852 486.304C235.02 486.088 235.14 485.872 235.212 485.656C235.308 485.416 235.368 485.224 235.392 485.08H240.972C240.924 485.632 240.768 486.268 240.504 486.988C240.24 487.684 239.82 488.356 239.244 489.004C238.668 489.652 237.912 490.204 236.976 490.66C236.04 491.092 234.888 491.308 233.52 491.308H232.62Z" fill="black"/>
<path d="M162.932 575.216H167.612L165.74 585.836H170.06L171.932 575.216H176.612L171.896 602H167.216L169.268 590.3H164.948L162.896 602H158.216L162.932 575.216ZM181.77 593.108H185.298L185.37 587.06C185.394 585.692 185.418 584.504 185.442 583.496C185.49 582.488 185.538 581.54 185.586 580.652C185.394 581.348 185.142 582.224 184.83 583.28C184.542 584.336 184.17 585.584 183.714 587.024L181.77 593.108ZM185.262 597.068H180.474L178.89 602H174.678L183.642 575.216H189.474L189.582 602H185.19L185.262 597.068ZM190.419 602L197.619 587.78L195.567 575.216H200.175L201.255 584.144L205.395 575.216H210.003L203.667 588.104L205.791 602H201.255L199.887 591.956L195.027 602H190.419ZM222.726 595.052C222.534 596.204 222.27 597.236 221.934 598.148C221.598 599.036 221.154 599.792 220.602 600.416C220.074 601.04 219.414 601.52 218.622 601.856C217.854 602.168 216.918 602.324 215.814 602.324H215.13C214.074 602.324 213.114 602.192 212.25 601.928C211.41 601.64 210.702 601.208 210.126 600.632C209.55 600.056 209.142 599.312 208.902 598.4C208.686 597.464 208.686 596.348 208.902 595.052L211.17 582.128C211.362 581.024 211.614 580.028 211.926 579.14C212.238 578.252 212.658 577.496 213.186 576.872C213.714 576.248 214.362 575.768 215.13 575.432C215.922 575.096 216.894 574.928 218.046 574.928H218.73C219.882 574.928 220.89 575.072 221.754 575.36C222.642 575.624 223.362 576.056 223.914 576.656C224.466 577.232 224.838 577.976 225.03 578.888C225.222 579.8 225.21 580.88 224.994 582.128L222.726 595.052ZM220.278 582.164C220.47 581.012 220.374 580.208 219.99 579.752C219.606 579.296 219.066 579.068 218.37 579.068C217.674 579.068 217.134 579.308 216.75 579.788C216.366 580.244 216.078 581.036 215.886 582.164L213.618 595.088C213.426 596.096 213.498 596.864 213.834 597.392C214.17 597.896 214.722 598.148 215.49 598.148C216.234 598.148 216.786 597.908 217.146 597.428C217.53 596.948 217.818 596.168 218.01 595.088L220.278 582.164ZM225.627 597.752C225.915 597.224 226.179 596.684 226.419 596.132C226.683 595.556 226.935 594.884 227.175 594.116C227.439 593.348 227.703 592.448 227.967 591.416C228.231 590.36 228.519 589.088 228.831 587.6C229.143 586.088 229.479 584.324 229.839 582.308C230.223 580.292 230.655 577.928 231.135 575.216H243.663L239.703 597.752H241.863L240.423 605.888H236.103L236.787 602H227.931L227.247 605.888H222.927L224.367 597.752H225.627ZM235.023 597.752L238.263 579.356H234.735C234.183 582.5 233.691 585.104 233.259 587.168C232.827 589.232 232.443 590.948 232.107 592.316C231.771 593.66 231.447 594.74 231.135 595.556C230.847 596.372 230.559 597.104 230.271 597.752H235.023ZM254.876 592.244C255.044 591.236 255.2 590.336 255.344 589.544C255.512 588.752 255.656 588.056 255.776 587.456C255.896 586.832 256.004 586.292 256.1 585.836C256.22 585.356 256.328 584.924 256.424 584.54C256.088 585.308 255.692 586.196 255.236 587.204C254.804 588.188 254.252 589.388 253.58 590.804L248.252 602H243.716L248.468 575.216H253.076L251.348 584.972C251.156 586.028 250.988 586.94 250.844 587.708C250.7 588.476 250.568 589.148 250.448 589.724C250.328 590.3 250.22 590.816 250.124 591.272C250.028 591.704 249.932 592.124 249.836 592.532C250.196 591.764 250.58 590.912 250.988 589.976C251.42 589.016 251.972 587.828 252.644 586.412L258.008 575.216H262.544L257.792 602H253.184L254.876 592.244ZM269.025 579.428H264.777L265.497 575.216H278.673L277.917 579.428H273.705L269.745 602H265.065L269.025 579.428ZM286.963 575.216H294.271C296.167 575.216 297.559 575.696 298.447 576.656C299.359 577.616 299.635 579.116 299.275 581.156L298.879 583.388C298.735 584.156 298.531 584.78 298.267 585.26C298.027 585.74 297.751 586.136 297.439 586.448C297.127 586.736 296.815 586.952 296.503 587.096C296.215 587.216 295.951 587.3 295.711 587.348C295.927 587.444 296.179 587.6 296.467 587.816C296.755 588.008 297.007 588.308 297.223 588.716C297.463 589.124 297.631 589.652 297.727 590.3C297.823 590.948 297.787 591.764 297.619 592.748L297.007 596.24C296.839 597.176 296.623 598.004 296.359 598.724C296.095 599.444 295.735 600.044 295.279 600.524C294.847 601.004 294.283 601.376 293.587 601.64C292.891 601.88 292.027 602 290.995 602H282.247L286.963 575.216ZM290.959 578.78L289.699 585.908H291.931C292.699 585.908 293.251 585.704 293.587 585.296C293.947 584.888 294.199 584.264 294.343 583.424L294.703 581.408C294.847 580.568 294.799 579.92 294.559 579.464C294.319 579.008 293.755 578.78 292.867 578.78H290.959ZM289.015 589.724L287.503 598.256H289.915C290.683 598.256 291.235 598.052 291.571 597.644C291.931 597.212 292.195 596.54 292.363 595.628L292.939 592.352C293.083 591.536 292.999 590.9 292.687 590.444C292.399 589.964 291.835 589.724 290.995 589.724H289.015Z" fill="black"/>
<path d="M25.064 143H21.896L12.896 134.324V143H10.52V125H12.896V132.956L21.464 125H24.704L15.416 133.64L25.064 143ZM40.5659 125H43.0859L35.3819 144.656C34.6859 146.432 33.6899 147.824 32.3939 148.832C31.1219 149.864 29.6939 150.32 28.1099 150.2V147.968C30.2699 148.208 31.9139 146.96 33.0419 144.224L33.5099 143.108L25.4459 125H27.9659L34.7339 140.084L40.5659 125ZM55.6055 124.568C58.1735 124.568 60.3575 125.48 62.1575 127.304C63.9815 129.128 64.8935 131.36 64.8935 134C64.8935 136.64 63.9815 138.872 62.1575 140.696C60.3575 142.52 58.1735 143.432 55.6055 143.432C52.4135 143.432 49.9895 142.112 48.3335 139.472V150.2H45.9575V125H48.3335V128.528C49.9895 125.888 52.4135 124.568 55.6055 124.568ZM50.3855 139.076C51.7535 140.444 53.4335 141.128 55.4255 141.128C57.4175 141.128 59.0975 140.444 60.4655 139.076C61.8335 137.684 62.5175 135.992 62.5175 134C62.5175 132.008 61.8335 130.328 60.4655 128.96C59.0975 127.568 57.4175 126.872 55.4255 126.872C53.4335 126.872 51.7535 127.568 50.3855 128.96C49.0175 130.328 48.3335 132.008 48.3335 134C48.3335 135.992 49.0175 137.684 50.3855 139.076ZM77.2322 143.432C74.5202 143.432 72.2642 142.532 70.4642 140.732C68.6642 138.908 67.7642 136.664 67.7642 134C67.7642 131.336 68.6642 129.104 70.4642 127.304C72.2642 125.48 74.5202 124.568 77.2322 124.568C79.0082 124.568 80.6042 125 82.0202 125.864C83.4362 126.704 84.4682 127.844 85.1162 129.284L83.1722 130.4C82.6922 129.32 81.9122 128.468 80.8322 127.844C79.7762 127.196 78.5762 126.872 77.2322 126.872C75.2402 126.872 73.5602 127.568 72.1922 128.96C70.8242 130.328 70.1402 132.008 70.1402 134C70.1402 135.992 70.8242 137.684 72.1922 139.076C73.5602 140.444 75.2402 141.128 77.2322 141.128C78.5762 141.128 79.7762 140.816 80.8322 140.192C81.8882 139.544 82.7162 138.68 83.3162 137.6L85.2962 138.752C84.5522 140.192 83.4602 141.332 82.0202 142.172C80.5802 143.012 78.9842 143.432 77.2322 143.432ZM96.8477 124.568C99.5117 124.568 101.66 125.516 103.292 127.412C104.948 129.284 105.776 131.504 105.776 134.072C105.776 134.336 105.752 134.708 105.704 135.188H89.8997C90.1397 137.012 90.9077 138.464 92.2037 139.544C93.5237 140.6 95.1437 141.128 97.0637 141.128C98.4317 141.128 99.6077 140.852 100.592 140.3C101.6 139.724 102.356 138.98 102.86 138.068L104.948 139.292C104.156 140.564 103.076 141.572 101.708 142.316C100.34 143.06 98.7797 143.432 97.0277 143.432C94.1957 143.432 91.8917 142.544 90.1157 140.768C88.3397 138.992 87.4517 136.736 87.4517 134C87.4517 131.312 88.3277 129.068 90.0797 127.268C91.8317 125.468 94.0877 124.568 96.8477 124.568ZM96.8477 126.872C94.9757 126.872 93.4037 127.436 92.1317 128.564C90.8837 129.668 90.1397 131.108 89.8997 132.884H103.328C103.088 130.988 102.356 129.512 101.132 128.456C99.9077 127.4 98.4797 126.872 96.8477 126.872ZM133.099 143H129.931L120.931 134.324V143H118.555V125H120.931V132.956L129.499 125H132.739L123.451 133.64L133.099 143ZM150.031 125H152.407V143H150.031V139.472C148.375 142.112 145.951 143.432 142.759 143.432C140.191 143.432 137.995 142.52 136.171 140.696C134.371 138.872 133.471 136.64 133.471 134C133.471 131.36 134.371 129.128 136.171 127.304C137.995 125.48 140.191 124.568 142.759 124.568C145.951 124.568 148.375 125.888 150.031 128.528V125ZM137.899 139.076C139.267 140.444 140.947 141.128 142.939 141.128C144.931 141.128 146.611 140.444 147.979 139.076C149.347 137.684 150.031 135.992 150.031 134C150.031 132.008 149.347 130.328 147.979 128.96C146.611 127.568 144.931 126.872 142.939 126.872C140.947 126.872 139.267 127.568 137.899 128.96C136.531 130.328 135.847 132.008 135.847 134C135.847 135.992 136.531 137.684 137.899 139.076ZM171.982 143H168.814L159.814 134.324V143H157.438V125H159.814V132.956L168.382 125H171.622L162.334 133.64L171.982 143Z" fill="black"/>
<path d="M124.96 269.5V290H122.254V273.641L115.079 285.285H114.751L107.576 273.641V290H104.87V269.5H107.986L114.915 280.734L121.844 269.5H124.96ZM148.325 269.5H151.031V290H148.325V285.982C146.439 288.989 143.679 290.492 140.043 290.492C137.119 290.492 134.618 289.453 132.54 287.376C130.49 285.299 129.465 282.757 129.465 279.75C129.465 276.743 130.49 274.201 132.54 272.124C134.618 270.047 137.119 269.008 140.043 269.008C143.679 269.008 146.439 270.511 148.325 273.518V269.5ZM134.508 285.531C136.066 287.089 137.98 287.868 140.248 287.868C142.517 287.868 144.43 287.089 145.988 285.531C147.546 283.946 148.325 282.019 148.325 279.75C148.325 277.481 147.546 275.568 145.988 274.01C144.43 272.425 142.517 271.632 140.248 271.632C137.98 271.632 136.066 272.425 134.508 274.01C132.95 275.568 132.171 277.481 132.171 279.75C132.171 282.019 132.95 283.946 134.508 285.531ZM173.325 290H169.717L159.467 280.119V290H156.761V269.5H159.467V278.561L169.225 269.5H172.915L162.337 279.34L173.325 290ZM184.531 290.492C181.443 290.492 178.873 289.467 176.823 287.417C174.773 285.34 173.748 282.784 173.748 279.75C173.748 276.716 174.773 274.174 176.823 272.124C178.873 270.047 181.443 269.008 184.531 269.008C186.554 269.008 188.372 269.5 189.984 270.484C191.597 271.441 192.772 272.739 193.51 274.379L191.296 275.65C190.75 274.42 189.861 273.45 188.631 272.739C187.429 272.001 186.062 271.632 184.531 271.632C182.263 271.632 180.349 272.425 178.791 274.01C177.233 275.568 176.454 277.481 176.454 279.75C176.454 282.019 177.233 283.946 178.791 285.531C180.349 287.089 182.263 287.868 184.531 287.868C186.062 287.868 187.429 287.513 188.631 286.802C189.834 286.064 190.777 285.08 191.46 283.85L193.715 285.162C192.868 286.802 191.624 288.1 189.984 289.057C188.344 290.014 186.527 290.492 184.531 290.492ZM212.524 269.5H214.82V290H212.114V274.215L199.896 290H197.6V269.5H200.306V285.285L212.524 269.5ZM240.633 269.5V290H237.927V273.641L230.752 285.285H230.424L223.249 273.641V290H220.543V269.5H223.659L230.588 280.734L237.517 269.5H240.633ZM261.128 269.5H263.998L255.224 291.886C254.431 293.909 253.297 295.494 251.821 296.642C250.372 297.817 248.746 298.337 246.942 298.2V295.658C249.402 295.931 251.274 294.51 252.559 291.394L253.092 290.123L243.908 269.5H246.778L254.486 286.679L261.128 269.5ZM287.358 269.5V290H284.652V273.641L277.477 285.285H277.149L269.974 273.641V290H267.268V269.5H270.384L277.313 280.734L284.242 269.5H287.358Z" fill="black"/>
<path d="M28.09 300.5V321H25.384V303.124H13.576V321H10.87V300.5H28.09ZM50.9914 318.417C48.9141 320.467 46.372 321.492 43.3654 321.492C40.3587 321.492 37.803 320.467 35.6984 318.417C33.621 316.34 32.5824 313.784 32.5824 310.75C32.5824 307.716 33.621 305.174 35.6984 303.124C37.803 301.047 40.3587 300.008 43.3654 300.008C46.372 300.008 48.9141 301.047 50.9914 303.124C53.0961 305.174 54.1484 307.716 54.1484 310.75C54.1484 313.784 53.0961 316.34 50.9914 318.417ZM37.6254 316.531C39.1834 318.089 41.0967 318.868 43.3654 318.868C45.634 318.868 47.5474 318.089 49.1054 316.531C50.6634 314.946 51.4424 313.019 51.4424 310.75C51.4424 308.481 50.6634 306.568 49.1054 305.01C47.5474 303.425 45.634 302.632 43.3654 302.632C41.0967 302.632 39.1834 303.425 37.6254 305.01C36.0674 306.568 35.2884 308.481 35.2884 310.75C35.2884 313.019 36.0674 314.946 37.6254 316.531ZM74.6859 300.5V321H71.9799V303.124H62.7139V312.267C62.7139 315.684 62.0579 318.034 60.7459 319.319C59.4612 320.604 57.6845 321.164 55.4159 321V318.458C56.9739 318.622 58.1219 318.253 58.8599 317.351C59.6252 316.449 60.0079 314.754 60.0079 312.267V300.5H74.6859ZM88.7409 308.29C90.6542 308.29 92.2669 308.891 93.5789 310.094C94.9182 311.269 95.5879 312.786 95.5879 314.645C95.5879 316.504 94.9182 318.034 93.5789 319.237C92.2669 320.412 90.6542 321 88.7409 321H80.4179V300.5H83.1239V308.29H88.7409ZM88.7409 318.376C89.8889 318.376 90.8592 318.034 91.6519 317.351C92.4719 316.668 92.8819 315.766 92.8819 314.645C92.8819 313.524 92.4719 312.622 91.6519 311.939C90.8592 311.256 89.8889 310.914 88.7409 310.914H83.1239V318.376H88.7409ZM109.854 310.463C112.232 311.365 113.421 313.005 113.421 315.383C113.421 317.078 112.752 318.526 111.412 319.729C110.1 320.904 108.214 321.492 105.754 321.492C101.627 321.492 98.9209 319.852 97.6363 316.572L99.9323 315.219C100.78 317.652 102.72 318.868 105.754 318.868C107.34 318.868 108.556 318.526 109.403 317.843C110.278 317.16 110.715 316.285 110.715 315.219C110.715 314.262 110.36 313.483 109.649 312.882C108.939 312.281 107.982 311.98 106.779 311.98H103.786V309.356H105.959C107.135 309.356 108.05 309.069 108.706 308.495C109.39 307.894 109.731 307.074 109.731 306.035C109.731 305.051 109.335 304.245 108.542 303.616C107.75 302.96 106.684 302.632 105.344 302.632C102.775 302.632 101.067 303.657 100.219 305.707L97.9643 304.395C99.3309 301.47 101.791 300.008 105.344 300.008C107.504 300.008 109.226 300.582 110.51 301.73C111.795 302.851 112.437 304.231 112.437 305.871C112.437 307.976 111.576 309.506 109.854 310.463ZM125.857 308.29C127.77 308.29 129.383 308.891 130.695 310.094C132.034 311.269 132.704 312.786 132.704 314.645C132.704 316.504 132.034 318.034 130.695 319.237C129.383 320.412 127.77 321 125.857 321H117.534V300.5H120.24V308.29H125.857ZM135.574 300.5H138.28V321H135.574V300.5ZM125.857 318.376C127.005 318.376 127.975 318.034 128.768 317.351C129.588 316.668 129.998 315.766 129.998 314.645C129.998 313.524 129.588 312.622 128.768 311.939C127.975 311.256 127.005 310.914 125.857 310.914H120.24V318.376H125.857ZM171.51 318.376H174.38V326.494H171.674V321H154.946V326.494H152.24V318.376H154.741C156.135 316.545 156.832 313.962 156.832 310.627V300.5H171.51V318.376ZM158.021 318.376H168.804V303.124H159.538V310.627C159.538 313.77 159.032 316.353 158.021 318.376ZM195.284 300.5V321H192.578V303.124H183.312V312.267C183.312 315.684 182.656 318.034 181.344 319.319C180.059 320.604 178.282 321.164 176.014 321V318.458C177.572 318.622 178.72 318.253 179.458 317.351C180.223 316.449 180.606 314.754 180.606 312.267V300.5H195.284ZM215.776 300.5V321H213.07V313.128H209.544L203.23 321H199.786L206.264 313.046C204.624 312.8 203.271 312.117 202.205 310.996C201.139 309.875 200.606 308.495 200.606 306.855C200.606 304.996 201.262 303.479 202.574 302.304C203.913 301.101 205.539 300.5 207.453 300.5H215.776ZM207.453 310.586H213.07V303.124H207.453C206.305 303.124 205.321 303.466 204.501 304.149C203.708 304.832 203.312 305.734 203.312 306.855C203.312 307.976 203.708 308.878 204.501 309.561C205.321 310.244 206.305 310.586 207.453 310.586Z" fill="black"/>
<path d="M158.96 391.5V412H156.254V395.641L149.079 407.285H148.751L141.576 395.641V412H138.87V391.5H141.986L148.915 402.734L155.844 391.5H158.96ZM179.619 391.5H181.915V412H179.209V396.215L166.991 412H164.695V391.5H167.401V407.285L179.619 391.5ZM202.152 391.5H204.858V412H202.152V403.062H190.344V412H187.638V391.5H190.344V400.438H202.152V391.5ZM225.504 391.5H227.8V412H225.094V396.215L212.876 412H210.58V391.5H213.286V407.285L225.504 391.5ZM253.612 391.5V412H250.906V395.641L243.731 407.285H243.403L236.228 395.641V412H233.522V391.5H236.638L243.567 402.734L250.496 391.5H253.612ZM274.108 391.5H276.978L268.204 413.886C267.411 415.909 266.277 417.494 264.801 418.642C263.352 419.817 261.726 420.337 259.922 420.2V417.658C262.382 417.931 264.254 416.51 265.539 413.394L266.072 412.123L256.888 391.5H259.758L267.466 408.679L274.108 391.5ZM300.338 391.5V412H297.632V395.641L290.457 407.285H290.129L282.954 395.641V412H280.248V391.5H283.364L290.293 402.734L297.222 391.5H300.338Z" fill="black"/>
<path d="M259.09 443.376H261.96V451.494H259.254V446H242.526V451.494H239.82V443.376H242.321C243.715 441.545 244.412 438.962 244.412 435.627V425.5H259.09V443.376ZM245.601 443.376H256.384V428.124H247.118V435.627C247.118 438.77 246.612 441.353 245.601 443.376ZM282.864 425.5V446H280.158V428.124H270.892V437.267C270.892 440.684 270.236 443.034 268.924 444.319C267.639 445.604 265.862 446.164 263.594 446V443.458C265.152 443.622 266.3 443.253 267.038 442.351C267.803 441.449 268.186 439.754 268.186 437.267V425.5H282.864ZM303.356 425.5V446H300.65V438.128H297.124L290.81 446H287.366L293.844 438.046C292.204 437.8 290.851 437.117 289.785 435.996C288.719 434.875 288.186 433.495 288.186 431.855C288.186 429.996 288.842 428.479 290.154 427.304C291.493 426.101 293.119 425.5 295.033 425.5H303.356ZM295.033 435.586H300.65V428.124H295.033C293.885 428.124 292.901 428.466 292.081 429.149C291.288 429.832 290.892 430.734 290.892 431.855C290.892 432.976 291.288 433.878 292.081 434.561C292.901 435.244 293.885 435.586 295.033 435.586Z" fill="black"/>
<path d="M68.049 476.417C65.9717 478.467 63.4297 479.492 60.423 479.492C57.4163 479.492 54.8607 478.467 52.756 476.417C50.6787 474.34 49.64 471.784 49.64 468.75C49.64 465.716 50.6787 463.174 52.756 461.124C54.8607 459.047 57.4163 458.008 60.423 458.008C63.4297 458.008 65.9717 459.047 68.049 461.124C70.1537 463.174 71.206 465.716 71.206 468.75C71.206 471.784 70.1537 474.34 68.049 476.417ZM54.683 474.531C56.241 476.089 58.1543 476.868 60.423 476.868C62.6917 476.868 64.605 476.089 66.163 474.531C67.721 472.946 68.5 471.019 68.5 468.75C68.5 466.481 67.721 464.568 66.163 463.01C64.605 461.425 62.6917 460.632 60.423 460.632C58.1543 460.632 56.241 461.425 54.683 463.01C53.125 464.568 52.346 466.481 52.346 468.75C52.346 471.019 53.125 472.946 54.683 474.531ZM92.2983 479H88.6903L78.4403 469.119V479H75.7343V458.5H78.4403V467.561L88.1983 458.5H91.8883L81.3103 468.34L92.2983 479ZM106.982 458.008C109.907 458.008 112.394 459.047 114.444 461.124C116.521 463.201 117.56 465.743 117.56 468.75C117.56 471.757 116.521 474.299 114.444 476.376C112.394 478.453 109.907 479.492 106.982 479.492C103.347 479.492 100.586 477.989 98.7 474.982V487.2H95.994V458.5H98.7V462.518C100.586 459.511 103.347 458.008 106.982 458.008ZM101.037 474.531C102.595 476.089 104.508 476.868 106.777 476.868C109.046 476.868 110.959 476.089 112.517 474.531C114.075 472.946 114.854 471.019 114.854 468.75C114.854 466.481 114.075 464.568 112.517 463.01C110.959 461.425 109.046 460.632 106.777 460.632C104.508 460.632 102.595 461.425 101.037 463.01C99.479 464.568 98.7 466.481 98.7 468.75C98.7 471.019 99.479 472.946 101.037 474.531ZM136.019 458.5H138.889L130.115 480.886C129.322 482.909 128.188 484.494 126.712 485.642C125.263 486.817 123.637 487.337 121.833 487.2V484.658C124.293 484.931 126.165 483.51 127.45 480.394L127.983 479.123L118.799 458.5H121.669L129.377 475.679L136.019 458.5ZM165.703 479H162.423L154.059 469.119V479H151.353V469.119L142.989 479H139.709L148.893 468.34L140.119 458.5H143.399L151.353 467.602V458.5H154.059V467.602L162.013 458.5H165.293L156.519 468.34L165.703 479ZM185.374 458.5H188.08V479H185.374V474.982C183.488 477.989 180.727 479.492 177.092 479.492C174.167 479.492 171.666 478.453 169.589 476.376C167.539 474.299 166.514 471.757 166.514 468.75C166.514 465.743 167.539 463.201 169.589 461.124C171.666 459.047 174.167 458.008 177.092 458.008C180.727 458.008 183.488 459.511 185.374 462.518V458.5ZM171.557 474.531C173.115 476.089 175.028 476.868 177.297 476.868C179.566 476.868 181.479 476.089 183.037 474.531C184.595 472.946 185.374 471.019 185.374 468.75C185.374 466.481 184.595 464.568 183.037 463.01C181.479 461.425 179.566 460.632 177.297 460.632C175.028 460.632 173.115 461.425 171.557 463.01C169.999 464.568 169.22 466.481 169.22 468.75C169.22 471.019 169.999 472.946 171.557 474.531ZM211.316 458.008C214.323 458.008 216.865 459.047 218.942 461.124C221.047 463.174 222.099 465.716 222.099 468.75C222.099 471.784 221.047 474.34 218.942 476.417C216.865 478.467 214.323 479.492 211.316 479.492C208.556 479.492 206.178 478.604 204.182 476.827C202.214 475.023 201.08 472.768 200.779 470.062H196.515V479H193.809V458.5H196.515V467.438H200.779C201.08 464.732 202.214 462.491 204.182 460.714C206.178 458.91 208.556 458.008 211.316 458.008ZM205.576 474.531C207.134 476.089 209.048 476.868 211.316 476.868C213.585 476.868 215.498 476.089 217.056 474.531C218.614 472.946 219.393 471.019 219.393 468.75C219.393 466.481 218.614 464.568 217.056 463.01C215.498 461.425 213.585 460.632 211.316 460.632C209.048 460.632 207.134 461.425 205.576 463.01C204.018 464.568 203.239 466.481 203.239 468.75C203.239 471.019 204.018 472.946 205.576 474.531ZM254.071 476.376H256.941V484.494H254.235V479H226.601V458.5H229.307V476.376H238.983V458.5H241.689V476.376H251.365V458.5H254.071V476.376ZM275.959 458.5H278.255V479H275.549V463.215L263.331 479H261.035V458.5H263.741V474.285L275.959 458.5ZM301.197 479H297.958L291.562 470.554L285.166 479H281.927L289.963 468.381L282.46 458.5H285.699L291.562 466.249L297.425 458.5H300.664L293.202 468.381L301.197 479Z" fill="black"/>
<path d="M17.423 558.492C14.3343 558.492 11.765 557.467 9.715 555.417C7.665 553.34 6.64 550.784 6.64 547.75C6.64 544.716 7.665 542.174 9.715 540.124C11.765 538.047 14.3343 537.008 17.423 537.008C19.4457 537.008 21.2633 537.5 22.876 538.484C24.4887 539.441 25.664 540.739 26.402 542.379L24.188 543.65C23.6413 542.42 22.753 541.45 21.523 540.739C20.3203 540.001 18.9537 539.632 17.423 539.632C15.1543 539.632 13.241 540.425 11.683 542.01C10.125 543.568 9.346 545.481 9.346 547.75C9.346 550.019 10.125 551.946 11.683 553.531C13.241 555.089 15.1543 555.868 17.423 555.868C18.9537 555.868 20.3203 555.513 21.523 554.802C22.7257 554.064 23.6687 553.08 24.352 551.85L26.607 553.162C25.7597 554.802 24.516 556.1 22.876 557.057C21.236 558.014 19.4183 558.492 17.423 558.492ZM44.4513 537.5H47.3213L38.5473 559.886C37.7546 561.909 36.6203 563.494 35.1443 564.642C33.6956 565.817 32.0693 566.337 30.2653 566.2V563.658C32.7253 563.931 34.5976 562.51 35.8823 559.394L36.4153 558.123L27.2313 537.5H30.1013L37.8093 554.679L44.4513 537.5ZM70.6817 537.5V558H67.9757V541.641L60.8007 553.285H60.4727L53.2977 541.641V558H50.5917V537.5H53.7077L60.6367 548.734L67.5657 537.5H70.6817ZM94.0469 537.5H96.7529V558H94.0469V553.982C92.1609 556.989 89.4002 558.492 85.7649 558.492C82.8402 558.492 80.3392 557.453 78.2619 555.376C76.2119 553.299 75.1869 550.757 75.1869 547.75C75.1869 544.743 76.2119 542.201 78.2619 540.124C80.3392 538.047 82.8402 537.008 85.7649 537.008C89.4002 537.008 92.1609 538.511 94.0469 541.518V537.5ZM80.2299 553.531C81.7879 555.089 83.7012 555.868 85.9699 555.868C88.2385 555.868 90.1519 555.089 91.7099 553.531C93.2679 551.946 94.0469 550.019 94.0469 547.75C94.0469 545.481 93.2679 543.568 91.7099 542.01C90.1519 540.425 88.2385 539.632 85.9699 539.632C83.7012 539.632 81.7879 540.425 80.2299 542.01C78.6719 543.568 77.8929 545.481 77.8929 547.75C77.8929 550.019 78.6719 551.946 80.2299 553.531ZM112.035 558.492C108.947 558.492 106.377 557.467 104.327 555.417C102.277 553.34 101.252 550.784 101.252 547.75C101.252 544.716 102.277 542.174 104.327 540.124C106.377 538.047 108.947 537.008 112.035 537.008C114.058 537.008 115.876 537.5 117.488 538.484C119.101 539.441 120.276 540.739 121.014 542.379L118.8 543.65C118.254 542.42 117.365 541.45 116.135 540.739C114.933 540.001 113.566 539.632 112.035 539.632C109.767 539.632 107.853 540.425 106.295 542.01C104.737 543.568 103.958 545.481 103.958 547.75C103.958 550.019 104.737 551.946 106.295 553.531C107.853 555.089 109.767 555.868 112.035 555.868C113.566 555.868 114.933 555.513 116.135 554.802C117.338 554.064 118.281 553.08 118.964 551.85L121.219 553.162C120.372 554.802 119.128 556.1 117.488 557.057C115.848 558.014 114.031 558.492 112.035 558.492ZM149.868 537.5H152.574V558H125.104V537.5H127.81V555.376H137.486V537.5H140.192V555.376H149.868V537.5ZM167.768 537.008C170.802 537.008 173.248 538.088 175.107 540.247C176.993 542.379 177.936 544.907 177.936 547.832C177.936 548.133 177.908 548.556 177.854 549.103H159.855C160.128 551.18 161.003 552.834 162.479 554.064C163.982 555.267 165.827 555.868 168.014 555.868C169.572 555.868 170.911 555.554 172.032 554.925C173.18 554.269 174.041 553.422 174.615 552.383L176.993 553.777C176.091 555.226 174.861 556.374 173.303 557.221C171.745 558.068 169.968 558.492 167.973 558.492C164.747 558.492 162.123 557.481 160.101 555.458C158.078 553.435 157.067 550.866 157.067 547.75C157.067 544.689 158.064 542.133 160.06 540.083C162.055 538.033 164.624 537.008 167.768 537.008ZM167.768 539.632C165.636 539.632 163.845 540.274 162.397 541.559C160.975 542.816 160.128 544.456 159.855 546.479H175.148C174.874 544.32 174.041 542.639 172.647 541.436C171.253 540.233 169.626 539.632 167.768 539.632ZM198.659 555.376H201.529V563.494H198.823V558H182.095V563.494H179.389V555.376H181.89C183.284 553.545 183.981 550.962 183.981 547.627V537.5H198.659V555.376ZM185.17 555.376H195.953V540.124H186.687V547.627C186.687 550.77 186.182 553.353 185.17 555.376ZM230.387 537.5H233.093V558H205.623V537.5H208.329V555.376H218.005V537.5H220.711V555.376H230.387V537.5ZM253.739 537.5H256.035V558H253.329V542.215L241.111 558H238.815V537.5H241.521V553.285L253.739 537.5ZM265.038 534.22V531.842H275.698V534.22H265.038ZM276.682 537.5H278.978V558H276.272V542.215L264.054 558H261.758V537.5H264.464V553.285L276.682 537.5Z" fill="black"/>
<path d="M19.025 725.5H21.896L18.992 742H16.121L17.144 736.159C15.56 736.665 14.053 736.918 12.623 736.918C10.533 736.918 8.993 736.379 8.003 735.301C7.013 734.223 6.672 732.782 6.98 730.978L7.937 725.5H10.808L9.884 730.813C9.488 733.101 10.555 734.245 13.085 734.245C14.361 734.245 15.879 733.959 17.639 733.387L19.025 725.5ZM38.5339 725.5L38.0389 728.272H32.4289L30.0199 742H27.1489L29.5579 728.272H23.9479L24.4099 725.5H38.5339ZM45.4544 742.429C43.0124 742.429 41.0544 741.582 39.5804 739.888C38.1064 738.194 37.6004 736.049 38.0624 733.453C38.5244 730.901 39.7344 728.866 41.6924 727.348C43.6504 725.83 45.8284 725.071 48.2264 725.071C50.5804 725.071 52.4724 725.918 53.9024 727.612C55.3324 729.306 55.8274 731.429 55.3874 733.981C54.9474 736.577 53.7704 738.634 51.8564 740.152C49.9424 741.67 47.8084 742.429 45.4544 742.429ZM45.6854 739.624C47.2914 739.624 48.7544 739.096 50.0744 738.04C51.4164 736.984 52.2414 735.532 52.5494 733.684C52.8574 731.902 52.5274 730.494 51.5594 729.46C50.6134 728.404 49.3484 727.876 47.7644 727.876C46.2024 727.898 44.7614 728.426 43.4414 729.46C42.1214 730.494 41.2854 731.924 40.9334 733.75C40.6254 735.598 40.9444 737.05 41.8904 738.106C42.8584 739.14 44.1234 739.646 45.6854 739.624ZM59.2332 733.255L59.6952 730.483H71.7402L71.2782 733.255H59.2332ZM88.5173 725.5L88.0223 728.272H82.4123L80.0033 742H77.1323L79.5413 728.272H73.9313L74.3933 725.5H88.5173ZM95.4378 742.429C92.9958 742.429 91.0378 741.582 89.5638 739.888C88.0898 738.194 87.5838 736.049 88.0458 733.453C88.5078 730.901 89.7178 728.866 91.6758 727.348C93.6338 725.83 95.8118 725.071 98.2098 725.071C100.564 725.071 102.456 725.918 103.886 727.612C105.316 729.306 105.811 731.429 105.371 733.981C104.931 736.577 103.754 738.634 101.84 740.152C99.9258 741.67 97.7918 742.429 95.4378 742.429ZM95.6688 739.624C97.2748 739.624 98.7378 739.096 100.058 738.04C101.4 736.984 102.225 735.532 102.533 733.684C102.841 731.902 102.511 730.494 101.543 729.46C100.597 728.404 99.3318 727.876 97.7478 727.876C96.1858 727.898 94.7448 728.426 93.4248 729.46C92.1048 730.494 91.2688 731.924 90.9168 733.75C90.6088 735.598 90.9278 737.05 91.8738 738.106C92.8418 739.14 94.1068 739.646 95.6688 739.624ZM123.572 742.429C121.13 742.429 119.172 741.582 117.698 739.888C116.224 738.194 115.718 736.049 116.18 733.453C116.642 730.901 117.852 728.866 119.81 727.348C121.768 725.83 123.946 725.071 126.344 725.071C128.698 725.071 130.59 725.918 132.02 727.612C133.45 729.306 133.945 731.429 133.505 733.981C133.065 736.577 131.888 738.634 129.974 740.152C128.06 741.67 125.926 742.429 123.572 742.429ZM123.803 739.624C125.409 739.624 126.872 739.096 128.192 738.04C129.534 736.984 130.359 735.532 130.667 733.684C130.975 731.902 130.645 730.494 129.677 729.46C128.731 728.404 127.466 727.876 125.882 727.876C124.32 727.898 122.879 728.426 121.559 729.46C120.239 730.494 119.403 731.924 119.051 733.75C118.743 735.598 119.062 737.05 120.008 738.106C120.976 739.14 122.241 739.646 123.803 739.624ZM143.356 742.429C140.892 742.429 138.956 741.549 137.548 739.789C136.14 738.007 135.656 735.873 136.096 733.387C136.514 730.967 137.658 728.976 139.528 727.414C141.398 725.852 143.565 725.071 146.029 725.071C147.679 725.071 149.109 725.467 150.319 726.259C151.529 727.029 152.376 728.063 152.86 729.361L150.319 730.681C149.593 728.811 148.086 727.876 145.798 727.876C144.126 727.876 142.641 728.426 141.343 729.526C140.067 730.604 139.275 731.968 138.967 733.618C138.659 735.312 138.956 736.731 139.858 737.875C140.76 739.019 142.047 739.591 143.719 739.591C144.841 739.591 145.864 739.327 146.788 738.799C147.734 738.271 148.504 737.556 149.098 736.654L151.408 738.172C150.572 739.514 149.439 740.559 148.009 741.307C146.601 742.055 145.05 742.429 143.356 742.429ZM161.309 742.429C158.867 742.429 156.909 741.582 155.435 739.888C153.961 738.194 153.455 736.049 153.917 733.453C154.379 730.901 155.589 728.866 157.547 727.348C159.505 725.83 161.683 725.071 164.081 725.071C166.435 725.071 168.327 725.918 169.757 727.612C171.187 729.306 171.682 731.429 171.242 733.981C170.802 736.577 169.625 738.634 167.711 740.152C165.797 741.67 163.663 742.429 161.309 742.429ZM161.54 739.624C163.146 739.624 164.609 739.096 165.929 738.04C167.271 736.984 168.096 735.532 168.404 733.684C168.712 731.902 168.382 730.494 167.414 729.46C166.468 728.404 165.203 727.876 163.619 727.876C162.057 727.898 160.616 728.426 159.296 729.46C157.976 730.494 157.14 731.924 156.788 733.75C156.48 735.598 156.799 737.05 157.745 738.106C158.713 739.14 159.978 739.646 161.54 739.624ZM180.863 742.429C178.487 742.429 176.595 741.615 175.187 739.987C173.779 738.359 173.295 736.302 173.735 733.816C174.219 730.978 175 728.8 176.078 727.282C177.156 725.742 179.07 724.356 181.82 723.124C182.348 722.882 183.03 722.596 183.866 722.266C184.724 721.914 185.351 721.65 185.747 721.474C186.165 721.298 186.627 721.056 187.133 720.748C187.661 720.44 188.068 720.099 188.354 719.725C188.662 719.329 188.926 718.878 189.146 718.372L191.324 719.692C191.192 720.044 191.038 720.374 190.862 720.682C190.708 720.968 190.499 721.254 190.235 721.54C189.993 721.804 189.773 722.035 189.575 722.233C189.377 722.431 189.08 722.64 188.684 722.86C188.31 723.08 188.013 723.256 187.793 723.388C187.595 723.52 187.243 723.696 186.737 723.916C186.253 724.114 185.912 724.257 185.714 724.345C185.516 724.411 185.12 724.565 184.526 724.807C183.954 725.027 183.58 725.17 183.404 725.236C181.864 725.83 180.687 726.446 179.873 727.084C179.059 727.7 178.421 728.481 177.959 729.427C179.587 727.887 181.6 727.117 183.998 727.117C185.956 727.117 187.562 727.865 188.816 729.361C190.092 730.857 190.543 732.705 190.169 734.905C189.773 737.149 188.728 738.964 187.034 740.35C185.34 741.736 183.283 742.429 180.863 742.429ZM177.497 738.172C178.377 739.162 179.587 739.657 181.127 739.657C182.667 739.657 184.02 739.195 185.186 738.271C186.352 737.325 187.067 736.126 187.331 734.674C187.573 733.222 187.287 732.023 186.473 731.077C185.659 730.131 184.504 729.658 183.008 729.658C181.556 729.658 180.192 730.087 178.916 730.945C177.64 731.803 176.87 732.958 176.606 734.41C176.342 735.906 176.639 737.16 177.497 738.172ZM202.391 725.071C204.877 725.071 206.78 725.929 208.1 727.645C209.442 729.339 209.882 731.385 209.42 733.783C209.376 734.135 209.266 734.564 209.09 735.07H195.296C195.296 736.544 195.747 737.688 196.649 738.502C197.573 739.316 198.794 739.723 200.312 739.723C202.534 739.723 204.283 738.909 205.559 737.281L207.704 738.832C206.868 739.976 205.757 740.867 204.371 741.505C203.007 742.121 201.544 742.429 199.982 742.429C197.386 742.429 195.395 741.56 194.009 739.822C192.623 738.084 192.15 735.95 192.59 733.42C193.008 731.022 194.141 729.031 195.989 727.447C197.837 725.863 199.971 725.071 202.391 725.071ZM195.725 732.529H206.714C206.78 730.967 206.395 729.79 205.559 728.998C204.723 728.184 203.612 727.777 202.226 727.777C200.686 727.777 199.333 728.206 198.167 729.064C197.023 729.9 196.209 731.055 195.725 732.529ZM225.557 725.5H228.428L225.524 742H222.653L223.874 735.103H215.327L214.106 742H211.235L214.139 725.5H217.01L215.789 732.364H224.336L225.557 725.5ZM244.216 725.5H247.087L244.183 742H241.312L242.533 735.103H233.986L232.765 742H229.894L232.798 725.5H235.669L234.448 732.364H242.995L244.216 725.5ZM256.506 742.429C254.064 742.429 252.106 741.582 250.632 739.888C249.158 738.194 248.652 736.049 249.114 733.453C249.576 730.901 250.786 728.866 252.744 727.348C254.702 725.83 256.88 725.071 259.278 725.071C261.632 725.071 263.524 725.918 264.954 727.612C266.384 729.306 266.879 731.429 266.439 733.981C265.999 736.577 264.822 738.634 262.908 740.152C260.994 741.67 258.86 742.429 256.506 742.429ZM256.737 739.624C258.343 739.624 259.806 739.096 261.126 738.04C262.468 736.984 263.293 735.532 263.601 733.684C263.909 731.902 263.579 730.494 262.611 729.46C261.665 728.404 260.4 727.876 258.816 727.876C257.254 727.898 255.813 728.426 254.493 729.46C253.173 730.494 252.337 731.924 251.985 733.75C251.677 735.598 251.996 737.05 252.942 738.106C253.91 739.14 255.175 739.646 256.737 739.624ZM278.832 725.071C281.318 725.071 283.221 725.929 284.541 727.645C285.883 729.339 286.323 731.385 285.861 733.783C285.817 734.135 285.707 734.564 285.531 735.07H271.737C271.737 736.544 272.188 737.688 273.09 738.502C274.014 739.316 275.235 739.723 276.753 739.723C278.975 739.723 280.724 738.909 282 737.281L284.145 738.832C283.309 739.976 282.198 740.867 280.812 741.505C279.448 742.121 277.985 742.429 276.423 742.429C273.827 742.429 271.836 741.56 270.45 739.822C269.064 738.084 268.591 735.95 269.031 733.42C269.449 731.022 270.582 729.031 272.43 727.447C274.278 725.863 276.412 725.071 278.832 725.071ZM272.166 732.529H283.155C283.221 730.967 282.836 729.79 282 728.998C281.164 728.184 280.053 727.777 278.667 727.777C277.127 727.777 275.774 728.206 274.608 729.064C273.464 729.9 272.65 731.055 272.166 732.529Z" fill="black"/>
<path d="M20.423 354.492C17.3343 354.492 14.765 353.467 12.715 351.417C10.665 349.34 9.64 346.784 9.64 343.75C9.64 340.716 10.665 338.174 12.715 336.124C14.765 334.047 17.3343 333.008 20.423 333.008C22.4457 333.008 24.2633 333.5 25.876 334.484C27.4887 335.441 28.664 336.739 29.402 338.379L27.188 339.65C26.6413 338.42 25.753 337.45 24.523 336.739C23.3203 336.001 21.9537 335.632 20.423 335.632C18.1543 335.632 16.241 336.425 14.683 338.01C13.125 339.568 12.346 341.481 12.346 343.75C12.346 346.019 13.125 347.946 14.683 349.531C16.241 351.089 18.1543 351.868 20.423 351.868C21.9537 351.868 23.3203 351.513 24.523 350.802C25.7257 350.064 26.6687 349.08 27.352 347.85L29.607 349.162C28.7597 350.802 27.516 352.1 25.876 353.057C24.236 354.014 22.4183 354.492 20.423 354.492ZM42.7629 333.008C45.7969 333.008 48.2432 334.088 50.1019 336.247C51.9879 338.379 52.9309 340.907 52.9309 343.832C52.9309 344.133 52.9035 344.556 52.8489 345.103H34.8499C35.1232 347.18 35.9979 348.834 37.4739 350.064C38.9772 351.267 40.8222 351.868 43.0089 351.868C44.5669 351.868 45.9062 351.554 47.0269 350.925C48.1749 350.269 49.0359 349.422 49.6099 348.383L51.9879 349.777C51.0859 351.226 49.8559 352.374 48.2979 353.221C46.7399 354.068 44.9632 354.492 42.9679 354.492C39.7425 354.492 37.1185 353.481 35.0959 351.458C33.0732 349.435 32.0619 346.866 32.0619 343.75C32.0619 340.689 33.0595 338.133 35.0549 336.083C37.0502 334.033 39.6195 333.008 42.7629 333.008ZM42.7629 335.632C40.6309 335.632 38.8405 336.274 37.3919 337.559C35.9705 338.816 35.1232 340.456 34.8499 342.479H50.1429C49.8695 340.32 49.0359 338.639 47.6419 337.436C46.2479 336.233 44.6215 335.632 42.7629 335.632ZM66.3372 354.492C63.3852 354.492 60.9252 353.522 58.9572 351.581C56.9892 349.613 56.0052 347.071 56.0052 343.955C56.0052 340.456 56.5246 337.778 57.5632 335.919C58.6019 334.033 60.7066 332.325 63.8772 330.794C64.4786 330.493 65.2712 330.138 66.2552 329.728C67.2666 329.318 68.0182 328.99 68.5102 328.744C69.0296 328.498 69.5899 328.184 70.1912 327.801C70.7926 327.391 71.2436 326.94 71.5442 326.448C71.8449 325.956 72.0362 325.368 72.1182 324.685L74.2502 325.915C74.1409 326.571 73.9222 327.186 73.5942 327.76C73.2662 328.334 72.9246 328.799 72.5692 329.154C72.2412 329.509 71.7082 329.906 70.9702 330.343C70.2596 330.753 69.6992 331.054 69.2892 331.245C68.9066 331.409 68.2232 331.696 67.2392 332.106C66.2826 332.516 65.6402 332.789 65.3122 332.926C63.3989 333.746 61.9912 334.607 61.0892 335.509C60.1872 336.384 59.5449 337.532 59.1622 338.953C60.0916 337.723 61.2669 336.821 62.6882 336.247C64.1369 335.646 65.5446 335.345 66.9112 335.345C69.6446 335.345 71.8996 336.247 73.6762 338.051C75.4802 339.828 76.3822 342.11 76.3822 344.898C76.3822 347.659 75.4256 349.955 73.5122 351.786C71.6262 353.59 69.2346 354.492 66.3372 354.492ZM66.3372 351.786C68.4692 351.786 70.2186 351.144 71.5852 349.859C72.9792 348.547 73.6762 346.893 73.6762 344.898C73.6762 342.875 73.0202 341.222 71.7082 339.937C70.4236 338.625 68.7016 337.969 66.5422 337.969C64.6016 337.969 62.8386 338.584 61.2532 339.814C59.6679 341.017 58.8752 342.629 58.8752 344.652C58.8752 346.729 59.5859 348.438 61.0072 349.777C62.4559 351.116 64.2326 351.786 66.3372 351.786ZM94.4571 333.5V354H91.7511V346.128H88.2251L81.9111 354H78.4671L84.9451 346.046C83.3051 345.8 81.9521 345.117 80.8861 343.996C79.8201 342.875 79.2871 341.495 79.2871 339.855C79.2871 337.996 79.9431 336.479 81.2551 335.304C82.5945 334.101 84.2208 333.5 86.1341 333.5H94.4571ZM86.1341 343.586H91.7511V336.124H86.1341C84.9861 336.124 84.0021 336.466 83.1821 337.149C82.3895 337.832 81.9931 338.734 81.9931 339.855C81.9931 340.976 82.3895 341.878 83.1821 342.561C84.0021 343.244 84.9861 343.586 86.1341 343.586Z" fill="black"/>
<path d="M15.784 366.4H17.08L12.886 376.246C12.466 377.254 11.932 377.98 11.284 378.424C10.636 378.868 9.832 379.06 8.872 379V377.848C9.544 377.92 10.096 377.824 10.528 377.56C10.972 377.284 11.338 376.81 11.626 376.138L11.878 375.544L7.54 366.4H8.836L12.472 374.14L15.784 366.4ZM23.6231 372.484C24.3191 372.748 24.8591 373.15 25.2431 373.69C25.6271 374.23 25.8191 374.866 25.8191 375.598C25.8191 376.654 25.4231 377.524 24.6311 378.208C23.8511 378.88 22.7951 379.216 21.4631 379.216C20.2631 379.216 19.3031 378.946 18.5831 378.406C17.8631 377.866 17.3651 377.188 17.0891 376.372L18.1691 375.76C18.3251 376.396 18.6611 376.936 19.1771 377.38C19.7051 377.812 20.4671 378.028 21.4631 378.028C22.4471 378.028 23.2091 377.806 23.7491 377.362C24.2891 376.906 24.5591 376.318 24.5591 375.598C24.5591 374.878 24.3071 374.296 23.8031 373.852C23.3111 373.396 22.6271 373.168 21.7511 373.168H20.3111V371.98H21.3011C22.1531 371.98 22.8311 371.764 23.3351 371.332C23.8391 370.9 24.0911 370.342 24.0911 369.658C24.0911 368.986 23.8451 368.44 23.3531 368.02C22.8731 367.588 22.2131 367.372 21.3731 367.372C19.8251 367.372 18.8051 368.032 18.3131 369.352L17.2691 368.74C17.5811 367.972 18.0731 367.354 18.7451 366.886C19.4291 366.418 20.3051 366.184 21.3731 366.184C22.5611 366.184 23.5211 366.52 24.2531 367.192C24.9851 367.852 25.3511 368.68 25.3511 369.676C25.3511 370.936 24.7751 371.872 23.6231 372.484ZM36.0869 366.4H37.3469V379H36.0869V373.114H29.2469V379H27.9869V366.4H29.2469V371.926H36.0869V366.4ZM48.6093 379L47.4393 375.904H41.4633L40.2933 379H38.9613L43.8033 366.4H45.0993L49.9413 379H48.6093ZM41.9133 374.716H46.9893L44.4513 367.966L41.9133 374.716ZM58.5431 372.466C59.1551 372.73 59.6411 373.132 60.0011 373.672C60.3731 374.2 60.5591 374.806 60.5591 375.49C60.5591 376.462 60.2171 377.29 59.5331 377.974C58.8491 378.658 58.0211 379 57.0491 379H51.5591V366.4H56.6351C57.5711 366.4 58.3691 366.736 59.0291 367.408C59.6891 368.068 60.0191 368.86 60.0191 369.784C60.0191 370.96 59.5271 371.854 58.5431 372.466ZM56.6351 367.588H52.8191V371.98H56.6351C57.2231 371.98 57.7211 371.77 58.1291 371.35C58.5491 370.918 58.7591 370.396 58.7591 369.784C58.7591 369.184 58.5491 368.668 58.1291 368.236C57.7211 367.804 57.2231 367.588 56.6351 367.588ZM57.0491 377.812C57.6731 377.812 58.2011 377.59 58.6331 377.146C59.0771 376.69 59.2991 376.138 59.2991 375.49C59.2991 374.854 59.0771 374.308 58.6331 373.852C58.2011 373.396 57.6731 373.168 57.0491 373.168H52.8191V377.812H57.0491ZM71.1093 379L69.9393 375.904H63.9633L62.7933 379H61.4613L66.3033 366.4H67.5993L72.4413 379H71.1093ZM64.4133 374.716H69.4893L66.9513 367.966L64.4133 374.716ZM81.0827 366.4V367.588H77.2127V379H75.9527V367.588H72.0827V366.4H81.0827ZM87.3834 371.08C88.5114 371.08 89.4534 371.458 90.2094 372.214C90.9654 372.97 91.3434 373.912 91.3434 375.04C91.3434 376.168 90.9654 377.11 90.2094 377.866C89.4534 378.622 88.5114 379 87.3834 379H82.8834V366.4H84.1434V371.08H87.3834ZM87.3834 377.812C88.1634 377.812 88.8054 377.554 89.3094 377.038C89.8254 376.51 90.0834 375.844 90.0834 375.04C90.0834 374.236 89.8254 373.576 89.3094 373.06C88.8054 372.532 88.1634 372.268 87.3834 372.268H84.1434V377.812H87.3834Z" fill="black"/>
<path d="M264.26 499L263.77 497.59H260.79L260.3 499H259.05L261.59 492H262.97L265.5 499H264.26ZM261.17 496.51H263.39L262.28 493.35L261.17 496.51ZM275.453 492V499H274.303V494.01L272.173 497.53H272.033L269.903 494V499H268.753V492H269.993L272.103 495.5L274.223 492H275.453ZM282.698 498.08C281.998 498.78 281.142 499.13 280.128 499.13C279.115 499.13 278.255 498.78 277.548 498.08C276.848 497.373 276.498 496.513 276.498 495.5C276.498 494.487 276.848 493.63 277.548 492.93C278.255 492.223 279.115 491.87 280.128 491.87C281.142 491.87 281.998 492.223 282.698 492.93C283.405 493.63 283.758 494.487 283.758 495.5C283.758 496.513 283.405 497.373 282.698 498.08ZM278.358 497.3C278.838 497.773 279.428 498.01 280.128 498.01C280.828 498.01 281.415 497.773 281.888 497.3C282.368 496.82 282.608 496.22 282.608 495.5C282.608 494.78 282.368 494.183 281.888 493.71C281.415 493.23 280.828 492.99 280.128 492.99C279.428 492.99 278.838 493.23 278.358 493.71C277.885 494.183 277.648 494.78 277.648 495.5C277.648 496.22 277.885 496.82 278.358 497.3ZM292.222 499H290.932L288.522 495.72V499H287.372V495.72L284.962 499H283.662L286.282 495.42L283.762 492H285.062L287.372 495.18V492H288.522V495.18L290.832 492H292.122L289.612 495.42L292.222 499ZM294.219 497.9H297.319V499H293.069V492H297.269V493.1H294.219V494.92H297.019V496.01H294.219V497.9ZM302.922 492V493.1H300.952V499H299.802V493.1H297.822V492H302.922Z" fill="black"/>
<path d="M288.9 511V506.25L285.6 511H284.7V504H285.85V508.75L289.15 504H290.05V511H288.9ZM298.098 504H299.248V511H298.098V507.97H295.098V511H293.948V504H295.098V506.87H298.098V504ZM301.797 509.9H304.897V511H300.647V504H304.847V505.1H301.797V506.92H304.597V508.01H301.797V509.9Z" fill="black"/>
<path d="M264.98 522H263.61L260.85 518.67V522H259.7V515H260.85V518.14L263.51 515H264.88L262.05 518.41L264.98 522ZM270.432 522L269.942 520.59H266.962L266.472 522H265.222L267.762 515H269.142L271.672 522H270.432ZM267.342 519.51H269.562L268.452 516.35L267.342 519.51ZM280.435 522H279.145L276.735 518.72V522H275.585V518.72L273.175 522H271.875L274.495 518.42L271.975 515H273.275L275.585 518.18V515H276.735V518.18L279.045 515H280.335L277.825 518.42L280.435 522ZM286.581 520.9H287.331V523.34H286.181V522H281.931V523.34H280.781V520.9H281.431C281.838 520.367 282.041 519.563 282.041 518.49V515H286.581V520.9ZM282.691 520.9H285.431V516.08H283.191V518.51C283.191 519.55 283.024 520.347 282.691 520.9ZM288.333 522V515H289.483V517.4H290.913C291.573 517.4 292.123 517.623 292.563 518.07C293.009 518.51 293.233 519.053 293.233 519.7C293.233 520.347 293.009 520.893 292.563 521.34C292.123 521.78 291.573 522 290.913 522H288.333ZM293.913 522V515H295.063V522H293.913ZM289.483 520.92H290.913C291.253 520.92 291.533 520.807 291.753 520.58C291.973 520.347 292.083 520.053 292.083 519.7C292.083 519.347 291.973 519.057 291.753 518.83C291.533 518.597 291.253 518.48 290.913 518.48H289.483V520.92ZM297.748 514.3V513.36H300.548V514.3H297.748ZM300.668 522V517.25L297.368 522H296.468V515H297.618V519.75L300.918 515H301.818V522H300.668Z" fill="black"/>
<path d="M16.54 573.4H17.8V586H16.54V580.114H9.7V586H8.44V573.4H9.7V578.926H16.54V573.4ZM29.0624 586L27.8924 582.904H21.9164L20.7464 586H19.4144L24.2564 573.4H25.5524L30.3944 586H29.0624ZM22.3664 581.716H27.4424L24.9044 574.966L22.3664 581.716ZM40.6523 586H39.2123L35.7923 580.618L32.3723 586H30.9323L35.0723 579.502L31.2023 573.4H32.6243L35.7923 578.368L38.9603 573.4H40.3823L36.5123 579.502L40.6523 586ZM52.3308 584.326C51.0708 585.586 49.5288 586.216 47.7048 586.216C45.8808 586.216 44.3388 585.586 43.0788 584.326C41.8188 583.054 41.1888 581.512 41.1888 579.7C41.1888 577.888 41.8188 576.352 43.0788 575.092C44.3388 573.82 45.8808 573.184 47.7048 573.184C49.5288 573.184 51.0708 573.82 52.3308 575.092C53.5908 576.352 54.2208 577.888 54.2208 579.7C54.2208 581.512 53.5908 583.054 52.3308 584.326ZM43.9608 583.462C44.9688 584.482 46.2168 584.992 47.7048 584.992C49.1928 584.992 50.4408 584.482 51.4488 583.462C52.4568 582.43 52.9608 581.176 52.9608 579.7C52.9608 578.224 52.4568 576.976 51.4488 575.956C50.4408 574.924 49.1928 574.408 47.7048 574.408C46.2168 574.408 44.9688 574.924 43.9608 575.956C42.9528 576.976 42.4488 578.224 42.4488 579.7C42.4488 581.176 42.9528 582.43 43.9608 583.462ZM64.8306 584.812H66.1806V588.412H64.9206V586H55.9206V588.412H54.6606V584.812H55.6866C56.5146 583.84 56.9286 582.34 56.9286 580.312V573.4H64.8306V584.812ZM57.1806 584.812H63.5706V574.588H58.1886V580.348C58.1886 582.34 57.8526 583.828 57.1806 584.812ZM76.3584 586V575.74L69.3384 586H68.2584V573.4H69.5184V583.66L76.5384 573.4H77.6184V586H76.3584ZM88.4127 573.4V574.588H84.5427V586H83.2827V574.588H79.4127V573.4H88.4127ZM94.7134 578.08C95.8414 578.08 96.7834 578.458 97.5394 579.214C98.2954 579.97 98.6734 580.912 98.6734 582.04C98.6734 583.168 98.2954 584.11 97.5394 584.866C96.7834 585.622 95.8414 586 94.7134 586H90.2134V573.4H91.4734V578.08H94.7134ZM94.7134 584.812C95.4934 584.812 96.1354 584.554 96.6394 584.038C97.1554 583.51 97.4134 582.844 97.4134 582.04C97.4134 581.236 97.1554 580.576 96.6394 580.06C96.1354 579.532 95.4934 579.268 94.7134 579.268H91.4734V584.812H94.7134Z" fill="black"/>
<path d="M12.94 592.4C14.068 592.4 15.01 592.778 15.766 593.534C16.522 594.29 16.9 595.232 16.9 596.36C16.9 597.488 16.522 598.43 15.766 599.186C15.01 599.942 14.068 600.32 12.94 600.32H9.7V605H8.44V592.4H12.94ZM12.94 599.132C13.72 599.132 14.362 598.874 14.866 598.358C15.382 597.83 15.64 597.164 15.64 596.36C15.64 595.556 15.382 594.896 14.866 594.38C14.362 593.852 13.72 593.588 12.94 593.588H9.7V599.132H12.94ZM26.1796 605L25.0096 601.904H19.0336L17.8636 605H16.5316L21.3736 592.4H22.6696L27.5116 605H26.1796ZM19.4836 600.716H24.5596L22.0216 593.966L19.4836 600.716ZM34.9435 598.484C35.6395 598.748 36.1795 599.15 36.5635 599.69C36.9475 600.23 37.1395 600.866 37.1395 601.598C37.1395 602.654 36.7435 603.524 35.9515 604.208C35.1715 604.88 34.1155 605.216 32.7835 605.216C31.5835 605.216 30.6235 604.946 29.9035 604.406C29.1835 603.866 28.6855 603.188 28.4095 602.372L29.4895 601.76C29.6455 602.396 29.9815 602.936 30.4975 603.38C31.0255 603.812 31.7875 604.028 32.7835 604.028C33.7675 604.028 34.5295 603.806 35.0695 603.362C35.6095 602.906 35.8795 602.318 35.8795 601.598C35.8795 600.878 35.6275 600.296 35.1235 599.852C34.6315 599.396 33.9475 599.168 33.0715 599.168H31.6315V597.98H32.6215C33.4735 597.98 34.1515 597.764 34.6555 597.332C35.1595 596.9 35.4115 596.342 35.4115 595.658C35.4115 594.986 35.1655 594.44 34.6735 594.02C34.1935 593.588 33.5335 593.372 32.6935 593.372C31.1455 593.372 30.1255 594.032 29.6335 595.352L28.5895 594.74C28.9015 593.972 29.3935 593.354 30.0655 592.886C30.7495 592.418 31.6255 592.184 32.6935 592.184C33.8815 592.184 34.8415 592.52 35.5735 593.192C36.3055 593.852 36.6715 594.68 36.6715 595.676C36.6715 596.936 36.0955 597.872 34.9435 598.484ZM46.2912 598.466C46.9032 598.73 47.3892 599.132 47.7492 599.672C48.1212 600.2 48.3072 600.806 48.3072 601.49C48.3072 602.462 47.9652 603.29 47.2812 603.974C46.5972 604.658 45.7692 605 44.7972 605H39.3072V592.4H44.3832C45.3192 592.4 46.1172 592.736 46.7772 593.408C47.4372 594.068 47.7672 594.86 47.7672 595.784C47.7672 596.96 47.2752 597.854 46.2912 598.466ZM44.3832 593.588H40.5672V597.98H44.3832C44.9712 597.98 45.4692 597.77 45.8772 597.35C46.2972 596.918 46.5072 596.396 46.5072 595.784C46.5072 595.184 46.2972 594.668 45.8772 594.236C45.4692 593.804 44.9712 593.588 44.3832 593.588ZM44.7972 603.812C45.4212 603.812 45.9492 603.59 46.3812 603.146C46.8252 602.69 47.0472 602.138 47.0472 601.49C47.0472 600.854 46.8252 600.308 46.3812 599.852C45.9492 599.396 45.4212 599.168 44.7972 599.168H40.5672V603.812H44.7972ZM48.7544 605V603.884C49.6304 604.004 50.2844 603.734 50.7164 603.074C51.1604 602.402 51.3824 601.178 51.3824 599.402V592.4H59.5544V605H58.2944V593.588H52.6424V599.438C52.6424 600.578 52.5524 601.532 52.3724 602.3C52.1924 603.068 51.9224 603.656 51.5624 604.064C51.2144 604.46 50.8124 604.73 50.3564 604.874C49.9124 605.006 49.3784 605.048 48.7544 605ZM63.7 603.812H69.82V605H62.44V592.4H69.73V593.588H63.7V598.052H69.28V599.24H63.7V603.812ZM79.0949 592.4H80.3549V605H79.0949V599.69C78.0029 600.23 76.8629 600.5 75.6749 600.5C74.4749 600.5 73.5149 600.164 72.7949 599.492C72.0749 598.82 71.7149 597.956 71.7149 596.9V592.4H72.9749V596.9C72.9749 597.632 73.2089 598.22 73.6769 598.664C74.1569 599.096 74.8229 599.312 75.6749 599.312C76.8629 599.312 78.0029 599.042 79.0949 598.502V592.4ZM84.4949 603.812H90.6149V605H83.2349V592.4H90.5249V593.588H84.4949V598.052H90.0749V599.24H84.4949V603.812ZM100.88 592.4H102.14V605H100.88V599.114H94.0398V605H92.7798V592.4H94.0398V597.926H100.88V592.4ZM113.114 605V594.74L106.094 605H105.014V592.4H106.274V602.66L113.294 592.4H114.374V605H113.114ZM125.529 592.4V605H124.269V599.96H121.245L117.789 605H116.349L119.859 599.906C118.959 599.75 118.209 599.324 117.609 598.628C117.009 597.92 116.709 597.104 116.709 596.18C116.709 595.136 117.075 594.248 117.807 593.516C118.551 592.772 119.445 592.4 120.489 592.4H125.529ZM120.489 598.772H124.269V593.588H120.489C119.793 593.588 119.199 593.84 118.707 594.344C118.215 594.848 117.969 595.46 117.969 596.18C117.969 596.888 118.215 597.5 118.707 598.016C119.199 598.52 119.793 598.772 120.489 598.772Z" fill="black"/>
<path d="M14.326 397.216C12.418 397.216 10.84 396.586 9.592 395.326C8.344 394.066 7.72 392.524 7.72 390.7C7.72 388.876 8.344 387.334 9.592 386.074C10.84 384.814 12.418 384.184 14.326 384.184C15.49 384.184 16.558 384.466 17.53 385.03C18.502 385.582 19.252 386.332 19.78 387.28L18.664 387.928C18.268 387.16 17.68 386.548 16.9 386.092C16.12 385.636 15.262 385.408 14.326 385.408C12.754 385.408 11.47 385.918 10.474 386.938C9.478 387.958 8.98 389.212 8.98 390.7C8.98 392.188 9.478 393.442 10.474 394.462C11.47 395.482 12.754 395.992 14.326 395.992C15.262 395.992 16.12 395.764 16.9 395.308C17.68 394.852 18.268 394.24 18.664 393.472L19.78 394.102C19.264 395.05 18.514 395.806 17.53 396.37C16.558 396.934 15.49 397.216 14.326 397.216ZM23.1121 395.812H29.2321V397H21.8521V384.4H29.1421V385.588H23.1121V390.052H28.6921V391.24H23.1121V395.812ZM36.077 389.44C37.121 389.44 38.009 389.812 38.741 390.556C39.485 391.3 39.857 392.188 39.857 393.22C39.857 394.264 39.485 395.158 38.741 395.902C38.009 396.634 37.121 397 36.077 397H31.397V384.4H38.777V385.588H32.657V389.44H36.077ZM36.077 395.812C36.773 395.812 37.367 395.56 37.859 395.056C38.351 394.552 38.597 393.94 38.597 393.22C38.597 392.512 38.351 391.906 37.859 391.402C37.367 390.886 36.773 390.628 36.077 390.628H32.657V395.812H36.077ZM49.8548 384.4V397H48.5948V391.96H45.5708L42.1148 397H40.6748L44.1848 391.906C43.2848 391.75 42.5348 391.324 41.9348 390.628C41.3348 389.92 41.0348 389.104 41.0348 388.18C41.0348 387.136 41.4008 386.248 42.1328 385.516C42.8768 384.772 43.7708 384.4 44.8148 384.4H49.8548ZM44.8148 390.772H48.5948V385.588H44.8148C44.1188 385.588 43.5248 385.84 43.0328 386.344C42.5408 386.848 42.2948 387.46 42.2948 388.18C42.2948 388.888 42.5408 389.5 43.0328 390.016C43.5248 390.52 44.1188 390.772 44.8148 390.772Z" fill="black"/>
<path d="M17.44 401.4V414H16.18V402.588H9.7V414H8.44V401.4H17.44ZM30.7448 412.326C29.4848 413.586 27.9428 414.216 26.1188 414.216C24.2948 414.216 22.7528 413.586 21.4928 412.326C20.2328 411.054 19.6028 409.512 19.6028 407.7C19.6028 405.888 20.2328 404.352 21.4928 403.092C22.7528 401.82 24.2948 401.184 26.1188 401.184C27.9428 401.184 29.4848 401.82 30.7448 403.092C32.0048 404.352 32.6348 405.888 32.6348 407.7C32.6348 409.512 32.0048 411.054 30.7448 412.326ZM22.3748 411.462C23.3828 412.482 24.6308 412.992 26.1188 412.992C27.6068 412.992 28.8548 412.482 29.8628 411.462C30.8708 410.43 31.3748 409.176 31.3748 407.7C31.3748 406.224 30.8708 404.976 29.8628 403.956C28.8548 402.924 27.6068 402.408 26.1188 402.408C24.6308 402.408 23.3828 402.924 22.3748 403.956C21.3668 404.976 20.8628 406.224 20.8628 407.7C20.8628 409.176 21.3668 410.43 22.3748 411.462ZM40.6756 414.216C38.7676 414.216 37.1896 413.586 35.9416 412.326C34.6936 411.066 34.0696 409.524 34.0696 407.7C34.0696 405.876 34.6936 404.334 35.9416 403.074C37.1896 401.814 38.7676 401.184 40.6756 401.184C41.8396 401.184 42.9076 401.466 43.8796 402.03C44.8516 402.582 45.6016 403.332 46.1296 404.28L45.0136 404.928C44.6176 404.16 44.0296 403.548 43.2496 403.092C42.4696 402.636 41.6116 402.408 40.6756 402.408C39.1036 402.408 37.8196 402.918 36.8236 403.938C35.8276 404.958 35.3296 406.212 35.3296 407.7C35.3296 409.188 35.8276 410.442 36.8236 411.462C37.8196 412.482 39.1036 412.992 40.6756 412.992C41.6116 412.992 42.4696 412.764 43.2496 412.308C44.0296 411.852 44.6176 411.24 45.0136 410.472L46.1296 411.102C45.6136 412.05 44.8636 412.806 43.8796 413.37C42.9076 413.934 41.8396 414.216 40.6756 414.216ZM55.9459 401.4V402.588H52.0759V414H50.8159V402.588H46.9459V401.4H55.9459ZM67.4479 412.326C66.1879 413.586 64.6459 414.216 62.8219 414.216C60.9979 414.216 59.4559 413.586 58.1959 412.326C56.9359 411.054 56.3059 409.512 56.3059 407.7C56.3059 405.888 56.9359 404.352 58.1959 403.092C59.4559 401.82 60.9979 401.184 62.8219 401.184C64.6459 401.184 66.1879 401.82 67.4479 403.092C68.7079 404.352 69.3379 405.888 69.3379 407.7C69.3379 409.512 68.7079 411.054 67.4479 412.326ZM59.0779 411.462C60.0859 412.482 61.3339 412.992 62.8219 412.992C64.3099 412.992 65.5579 412.482 66.5659 411.462C67.5739 410.43 68.0779 409.176 68.0779 407.7C68.0779 406.224 67.5739 404.976 66.5659 403.956C65.5579 402.924 64.3099 402.408 62.8219 402.408C61.3339 402.408 60.0859 402.924 59.0779 403.956C58.0699 404.976 57.5659 406.224 57.5659 407.7C57.5659 409.176 58.0699 410.43 59.0779 411.462ZM79.5091 401.4V414H78.2491V408.96H75.2251L71.7691 414H70.3291L73.8391 408.906C72.9391 408.75 72.1891 408.324 71.5891 407.628C70.9891 406.92 70.6891 406.104 70.6891 405.18C70.6891 404.136 71.0551 403.248 71.7871 402.516C72.5311 401.772 73.4251 401.4 74.4691 401.4H79.5091ZM74.4691 407.772H78.2491V402.588H74.4691C73.7731 402.588 73.1791 402.84 72.6871 403.344C72.1951 403.848 71.9491 404.46 71.9491 405.18C71.9491 405.888 72.1951 406.5 72.6871 407.016C73.1791 407.52 73.7731 407.772 74.4691 407.772ZM90.4912 401.4H91.7512V414H90.4912V408.114H83.6512V414H82.3912V401.4H83.6512V406.926H90.4912V401.4ZM102.726 401.4H103.986V414H102.726V408.114H95.8855V414H94.6255V401.4H95.8855V406.926H102.726V401.4ZM117.282 412.326C116.022 413.586 114.48 414.216 112.656 414.216C110.832 414.216 109.29 413.586 108.03 412.326C106.77 411.054 106.14 409.512 106.14 407.7C106.14 405.888 106.77 404.352 108.03 403.092C109.29 401.82 110.832 401.184 112.656 401.184C114.48 401.184 116.022 401.82 117.282 403.092C118.542 404.352 119.172 405.888 119.172 407.7C119.172 409.512 118.542 411.054 117.282 412.326ZM108.912 411.462C109.92 412.482 111.168 412.992 112.656 412.992C114.144 412.992 115.392 412.482 116.4 411.462C117.408 410.43 117.912 409.176 117.912 407.7C117.912 406.224 117.408 404.976 116.4 403.956C115.392 402.924 114.144 402.408 112.656 402.408C111.168 402.408 109.92 402.924 108.912 403.956C107.904 404.976 107.4 406.224 107.4 407.7C107.4 409.176 107.904 410.43 108.912 411.462Z" fill="black"/>
<path d="M30.4 159L26.88 179H21.72L24.4 163.84H16.44L13.76 179H8.6L12.12 159H30.4ZM46.5678 158.44C49.3945 158.44 51.5678 159.547 53.0878 161.76C54.6345 163.947 55.1678 166.493 54.6878 169.4C54.2611 172.227 53.0345 174.627 51.0078 176.6C48.9811 178.573 46.5278 179.56 43.6478 179.56C40.7145 179.56 38.5811 178.44 37.2478 176.2L35.3678 187H30.2078L35.1278 159H40.2878L39.9278 161.08C41.6878 159.32 43.9011 158.44 46.5678 158.44ZM49.5278 169.04C49.8211 167.36 49.5411 166 48.6878 164.96C47.8611 163.893 46.6478 163.36 45.0478 163.36C43.5278 163.36 42.1678 163.827 40.9678 164.76C39.7945 165.693 39.0078 166.92 38.6078 168.44L38.4478 169.44C38.2611 171.04 38.6211 172.307 39.5278 173.24C40.4345 174.173 41.6478 174.64 43.1678 174.64C44.7145 174.64 46.0878 174.147 47.2878 173.16C48.4878 172.147 49.2345 170.773 49.5278 169.04ZM66.6459 179.56C63.3393 179.56 60.8459 178.453 59.1659 176.24C57.4859 174 56.9393 171.373 57.5259 168.36C58.0859 165.507 59.4726 163.147 61.6859 161.28C63.8993 159.387 66.5393 158.44 69.6059 158.44C72.6993 158.44 75.0726 159.56 76.7259 161.8C78.4059 164.013 78.9793 166.587 78.4459 169.52C77.9659 172.347 76.5926 174.733 74.3259 176.68C72.0859 178.6 69.5259 179.56 66.6459 179.56ZM67.0059 174.52C68.5259 174.52 69.8859 174.013 71.0859 173C72.3126 171.987 73.0593 170.64 73.3259 168.96C73.6459 167.307 73.3793 165.987 72.5259 165C71.6726 163.987 70.4859 163.48 68.9659 163.48C67.4726 163.48 66.1259 163.987 64.9259 165C63.7526 165.987 63.0059 167.32 62.6859 169C62.3926 170.68 62.6593 172.027 63.4859 173.04C64.3393 174.027 65.5126 174.52 67.0059 174.52ZM99.2759 164.92C98.9559 166.787 98.0759 168.12 96.6359 168.92C98.3159 170.013 98.9693 171.573 98.5959 173.6C98.2759 175.307 97.4759 176.64 96.1959 177.6C94.9159 178.533 93.1693 179 90.9559 179H80.4359L83.9559 159H93.6759C95.5959 159 97.0759 159.573 98.1159 160.72C99.1826 161.867 99.5693 163.267 99.2759 164.92ZM92.4359 163.24H88.0359L87.4359 166.84H91.7559C93.2759 166.84 94.1293 166.24 94.3159 165.04C94.4226 164.453 94.3159 164.013 93.9959 163.72C93.6759 163.4 93.1559 163.24 92.4359 163.24ZM93.6759 172.72C93.7826 172.16 93.6626 171.72 93.3159 171.4C92.9693 171.08 92.4493 170.92 91.7559 170.92H86.7159L86.0359 174.64H91.1159C91.7826 174.64 92.3426 174.48 92.7959 174.16C93.2759 173.813 93.5693 173.333 93.6759 172.72ZM110.826 179.56C107.519 179.56 105.026 178.453 103.346 176.24C101.666 174 101.119 171.373 101.706 168.36C102.266 165.507 103.652 163.147 105.866 161.28C108.079 159.387 110.719 158.44 113.786 158.44C116.879 158.44 119.252 159.56 120.906 161.8C122.586 164.013 123.159 166.587 122.626 169.52C122.146 172.347 120.772 174.733 118.506 176.68C116.266 178.6 113.706 179.56 110.826 179.56ZM111.186 174.52C112.706 174.52 114.066 174.013 115.266 173C116.492 171.987 117.239 170.64 117.506 168.96C117.826 167.307 117.559 165.987 116.706 165C115.852 163.987 114.666 163.48 113.146 163.48C111.652 163.48 110.306 163.987 109.106 165C107.932 165.987 107.186 167.32 106.866 169C106.572 170.68 106.839 172.027 107.666 173.04C108.519 174.027 109.692 174.52 111.186 174.52ZM145.354 159L142.674 174.16H145.354L143.514 184.36H138.474L139.434 179H126.994L126.074 184.36H120.994L122.834 174.16H125.314C126.728 172.48 127.714 170.12 128.274 167.08L129.674 159H145.354ZM130.914 174.16H137.634L139.514 163.64H133.914L133.314 167.08C132.781 170.04 131.981 172.4 130.914 174.16ZM165.701 159H169.541L166.021 179H160.981L162.941 167.88L151.581 179H147.741L151.261 159H156.301L154.341 170.12L165.701 159ZM190.028 159L189.148 163.96H182.908L180.268 179H175.108L177.748 163.96H171.468L172.308 159H190.028ZM200.704 165.4C202.811 165.4 204.464 166.093 205.664 167.48C206.891 168.84 207.331 170.533 206.984 172.56C206.611 174.613 205.677 176.2 204.184 177.32C202.691 178.44 200.731 179 198.304 179H189.264L192.784 159H197.944L196.824 165.4H200.704ZM201.024 173.84C201.584 173.413 201.917 172.867 202.024 172.2C202.131 171.533 201.984 170.987 201.584 170.56C201.211 170.133 200.664 169.92 199.944 169.92H196.024L195.224 174.44H199.144C199.864 174.44 200.491 174.24 201.024 173.84Z" fill="black"/>
<path d="M25.56 424H29.4L25.88 444H20.84L22.8 432.88L11.44 444H7.6L11.12 424H16.16L14.2 435.12L25.56 424ZM47.2478 424H52.4078L48.8878 444H43.7278L45.0478 436.4H37.0878L35.7678 444H30.6078L34.1278 424H39.2878L37.9678 431.56H45.9278L47.2478 424ZM72.8956 424L72.0156 428.96H65.7756L63.1356 444H57.9756L60.6156 428.96H54.3356L55.1756 424H72.8956ZM76.23 426.36C78.4967 424.413 81.11 423.44 84.07 423.44C87.03 423.44 89.3633 424.467 91.07 426.52C92.7767 428.547 93.35 431.04 92.79 434C92.7367 434.587 92.55 435.293 92.23 436.12H77.11C77.2167 437.4 77.71 438.347 78.59 438.96C79.47 439.573 80.5767 439.88 81.91 439.88C83.91 439.88 85.55 439.2 86.83 437.84L90.47 440.76C88.23 443.293 85.2433 444.56 81.51 444.56C78.2033 444.56 75.6833 443.507 73.95 441.4C72.2433 439.293 71.6433 436.693 72.15 433.6C72.6033 430.693 73.9633 428.28 76.23 426.36ZM77.83 432.08H87.99C87.9633 430.72 87.55 429.72 86.75 429.08C85.9767 428.413 84.9767 428.08 83.75 428.08C82.4167 428.08 81.23 428.427 80.19 429.12C79.1767 429.813 78.39 430.8 77.83 432.08ZM109.474 423.44C112.301 423.44 114.474 424.547 115.994 426.76C117.541 428.947 118.074 431.493 117.594 434.4C117.167 437.227 115.941 439.627 113.914 441.6C111.887 443.573 109.434 444.56 106.554 444.56C103.621 444.56 101.487 443.44 100.154 441.2L98.2741 452H93.1141L98.0341 424H103.194L102.834 426.08C104.594 424.32 106.807 423.44 109.474 423.44ZM112.434 434.04C112.727 432.36 112.447 431 111.594 429.96C110.767 428.893 109.554 428.36 107.954 428.36C106.434 428.36 105.074 428.827 103.874 429.76C102.701 430.693 101.914 431.92 101.514 433.44L101.354 434.44C101.167 436.04 101.527 437.307 102.434 438.24C103.341 439.173 104.554 439.64 106.074 439.64C107.621 439.64 108.994 439.147 110.194 438.16C111.394 437.147 112.141 435.773 112.434 434.04ZM124.472 426.36C126.739 424.413 129.352 423.44 132.312 423.44C135.272 423.44 137.606 424.467 139.312 426.52C141.019 428.547 141.592 431.04 141.032 434C140.979 434.587 140.792 435.293 140.472 436.12H125.352C125.459 437.4 125.952 438.347 126.832 438.96C127.712 439.573 128.819 439.88 130.152 439.88C132.152 439.88 133.792 439.2 135.072 437.84L138.712 440.76C136.472 443.293 133.486 444.56 129.752 444.56C126.446 444.56 123.926 443.507 122.192 441.4C120.486 439.293 119.886 436.693 120.392 433.6C120.846 430.693 122.206 428.28 124.472 426.36ZM126.072 432.08H136.232C136.206 430.72 135.792 429.72 134.992 429.08C134.219 428.413 133.219 428.08 131.992 428.08C130.659 428.08 129.472 428.427 128.432 429.12C127.419 429.813 126.632 430.8 126.072 432.08ZM152.676 444.56C149.583 444.56 147.156 443.507 145.396 441.4C143.663 439.267 143.05 436.667 143.556 433.6C144.01 430.667 145.356 428.24 147.596 426.32C149.863 424.4 152.503 423.44 155.516 423.44C157.57 423.44 159.33 423.92 160.796 424.88C162.263 425.813 163.316 427.067 163.956 428.64L159.276 431.12C158.556 429.387 157.156 428.52 155.076 428.52C153.53 428.52 152.143 429.027 150.916 430.04C149.716 431.027 148.983 432.307 148.716 433.88C148.45 435.48 148.73 436.813 149.556 437.88C150.383 438.92 151.57 439.44 153.116 439.44C155.196 439.44 156.85 438.547 158.076 436.76L162.236 439.44C161.223 441.093 159.863 442.36 158.156 443.24C156.476 444.12 154.65 444.56 152.676 444.56ZM180.998 424H186.158L182.638 444H177.478L178.798 436.4H170.838L169.518 444H164.358L167.878 424H173.038L171.718 431.56H179.678L180.998 424ZM197.326 444.56C194.019 444.56 191.526 443.453 189.846 441.24C188.166 439 187.619 436.373 188.206 433.36C188.766 430.507 190.152 428.147 192.366 426.28C194.579 424.387 197.219 423.44 200.286 423.44C203.379 423.44 205.752 424.56 207.406 426.8C209.086 429.013 209.659 431.587 209.126 434.52C208.646 437.347 207.272 439.733 205.006 441.68C202.766 443.6 200.206 444.56 197.326 444.56ZM197.686 439.52C199.206 439.52 200.566 439.013 201.766 438C202.992 436.987 203.739 435.64 204.006 433.96C204.326 432.307 204.059 430.987 203.206 430C202.352 428.987 201.166 428.48 199.646 428.48C198.152 428.48 196.806 428.987 195.606 430C194.432 430.987 193.686 432.32 193.366 434C193.072 435.68 193.339 437.027 194.166 438.04C195.019 439.027 196.192 439.52 197.686 439.52Z" fill="black"/>
<path d="M29.527 106H24.502L20.549 87.843C19.879 84.761 19.3207 82.081 18.874 79.803C18.472 77.4803 18.1147 75.4703 17.802 73.773C17.8913 75.5597 17.9583 77.659 18.003 80.071C18.0923 82.483 18.137 85.297 18.137 88.513V106H6.948V56.152H22.827L25.842 72.567C26.244 74.711 26.5567 76.52 26.78 77.994C27.048 79.468 27.2267 80.674 27.316 81.612C27.4053 80.674 27.5617 79.468 27.785 77.994C28.053 76.52 28.388 74.711 28.79 72.567L31.939 56.152H47.483V106H36.026V88.513C36.026 85.297 36.0483 82.5053 36.093 80.138C36.1823 77.7707 36.2717 75.649 36.361 73.773C36.0483 75.4257 35.6687 77.4133 35.222 79.736C34.7753 82.0587 34.217 84.761 33.547 87.843L29.527 106ZM67.8049 72.634H74.7729C78.4356 72.634 81.3166 73.572 83.4159 75.448C85.5153 77.324 86.5649 80.2943 86.5649 84.359V94.342C86.5649 98.5853 85.5153 101.6 83.4159 103.387C81.3613 105.129 78.4803 106 74.7729 106H53.6009V56.152H67.8049V72.634ZM69.6809 96.151C70.7083 96.151 71.4229 95.9277 71.8249 95.481C72.2716 95.0343 72.4949 94.1857 72.4949 92.935V85.766C72.4949 84.6047 72.2716 83.7783 71.8249 83.287C71.4229 82.7957 70.7083 82.55 69.6809 82.55H67.8049V96.151H69.6809ZM103.65 106H89.4459V56.152H103.65V106ZM109.674 56.152H123.878V94.275H128.836V56.152H143.04V94.275H147.998V56.152H162.202V106H109.674V56.152ZM191.215 90.858C191.215 88.446 191.259 86.1457 191.349 83.957C191.483 81.7237 191.594 79.5797 191.684 77.525C191.192 79.5797 190.634 81.7013 190.009 83.89C189.428 86.034 188.758 88.2673 187.999 90.59L183.108 106H168.234V56.152H182.438V71.294C182.438 73.572 182.393 75.783 182.304 77.927C182.259 80.0263 182.192 82.081 182.103 84.091C182.639 82.081 183.197 80.0263 183.778 77.927C184.358 75.783 185.006 73.6167 185.721 71.428L190.545 56.152H205.419V106H191.215V90.858Z" fill="black"/>
<path d="M301.06 92.964C299.58 102.535 294.301 109.737 285.224 114.572C289.664 116.841 292.969 120.245 295.14 124.784C297.409 129.224 298.1 134.256 297.212 139.88C296.028 147.675 292.279 154.335 285.964 159.86C279.649 165.287 272.151 168 263.468 168H218.328L236.532 64.4H276.048C284.139 64.4 290.601 67.212 295.436 72.836C300.369 78.46 302.244 85.1693 301.06 92.964ZM283.448 105.1C287.493 101.548 289.96 97.256 290.848 92.224C291.736 87.192 290.7 82.9493 287.74 79.496C284.879 75.944 280.883 74.168 275.752 74.168H245.116L238.9 110.28H270.128C274.963 110.28 279.403 108.553 283.448 105.1ZM279.156 152.608C283.497 148.859 286.112 144.369 287 139.14C287.888 133.911 286.852 129.421 283.892 125.672C281.031 121.923 277.035 120.048 271.904 120.048H237.124L230.464 158.232H264.356C269.881 158.232 274.815 156.357 279.156 152.608Z" fill="black"/>
<path d="M45.36 701.512C32.088 701.512 21.882 696.892 14.742 687.652C7.602 678.412 5.166 667.408 7.434 654.64C9.702 641.956 15.792 631.414 25.704 623.014C35.616 614.53 46.83 610.288 59.346 610.288C67.914 610.288 75.306 612.262 81.522 616.21C87.738 620.074 92.4 625.408 95.508 632.212L87.696 636.37C82.404 624.694 72.912 618.856 59.22 618.856C48.468 618.856 39.018 622.426 30.87 629.566C22.722 636.706 17.766 645.484 16.002 655.9C14.238 666.484 16.212 675.304 21.924 682.36C27.636 689.416 35.784 692.944 46.368 692.944C53.172 692.944 59.514 691.348 65.394 688.156C71.358 684.964 76.23 680.554 80.01 674.926L87.444 679.588C82.74 686.308 76.65 691.642 69.174 695.59C61.698 699.538 53.76 701.512 45.36 701.512ZM163.563 620.116H121.227L115.809 651.364H154.869L153.357 659.68H114.297L108.753 691.684H151.593L150.081 700H98.4208L113.919 611.8H164.949L163.563 620.116ZM231.007 620.116H188.041L183.379 647.08H207.319C214.291 647.08 220.003 649.894 224.455 655.522C228.907 661.066 230.461 667.492 229.117 674.8C227.857 682.024 224.245 688.03 218.281 692.818C212.401 697.606 205.639 700 197.995 700H165.235L180.733 611.8H232.393L231.007 620.116ZM205.807 655.396H181.867L175.567 691.684H199.507C204.463 691.684 208.957 689.92 212.989 686.392C217.105 682.78 219.625 678.496 220.549 673.54C221.557 668.248 220.591 663.922 217.651 660.562C214.711 657.118 210.763 655.396 205.807 655.396ZM304.328 620.116H261.992L256.574 651.364H295.634L294.122 659.68H255.062L249.518 691.684H292.358L290.846 700H239.186L254.684 611.8H305.714L304.328 620.116Z" fill="black"/>
<path d="M100.704 378L108.576 333.2H120.032L116.192 355.024L135.84 333.2H144.672L136.8 378H125.408L129.248 356.176L109.6 378H100.704Z" fill="black"/>
<path d="M5.704 796L13.576 751.2H25.032L21.192 773.024L40.84 751.2H49.672L41.8 796H30.408L34.248 774.176L14.6 796H5.704Z" fill="black"/>
<path d="M61.125 758.544H75.237C76.5437 758.544 77.7197 758.707 78.765 759.034C79.843 759.361 80.725 759.9 81.411 760.651C82.097 761.37 82.5543 762.333 82.783 763.542C83.0443 764.751 83.028 766.221 82.734 767.952L82.538 769.079C82.3747 770.092 82.097 770.957 81.705 771.676C81.313 772.362 80.872 772.934 80.382 773.391C79.9247 773.816 79.4347 774.159 78.912 774.42C78.422 774.649 77.9647 774.812 77.54 774.91C77.9647 775.106 78.422 775.384 78.912 775.743C79.402 776.102 79.8267 776.609 80.186 777.262C80.578 777.883 80.8557 778.683 81.019 779.663C81.1823 780.61 81.1497 781.77 80.921 783.142L80.382 786.18C80.1207 787.552 79.7777 788.793 79.353 789.904C78.961 790.982 78.422 791.913 77.736 792.697C77.05 793.448 76.1843 794.02 75.139 794.412C74.1263 794.804 72.885 795 71.415 795H54.706L61.125 758.544ZM69.602 765.404L68.328 772.46H70.386C71.6927 772.46 72.493 771.578 72.787 769.814L73.081 768.05C73.2443 767.103 73.179 766.433 72.885 766.041C72.6237 765.616 72.0683 765.404 71.219 765.404H69.602ZM67.152 779.173L65.584 787.895H67.936C68.7527 787.895 69.3243 787.683 69.651 787.258C70.0103 786.833 70.2717 786.098 70.435 785.053L70.974 781.966C71.1373 781.084 71.072 780.398 70.778 779.908C70.484 779.418 69.9123 779.173 69.063 779.173H67.152ZM95.7424 787.454C96.4937 787.454 97.0164 787.209 97.3104 786.719C97.6044 786.229 97.833 785.559 97.9964 784.71L98.9764 779.222H108.58L107.502 785.298C107.274 786.572 106.947 787.83 106.522 789.071C106.13 790.28 105.526 791.374 104.709 792.354C103.893 793.301 102.831 794.069 101.524 794.657C100.218 795.245 98.568 795.539 96.5754 795.539H94.9094C90.4667 795.539 87.3634 794.526 85.5994 792.501C83.868 790.443 83.3454 787.487 84.0314 783.632L86.5794 769.128C86.8734 767.462 87.2654 765.943 87.7554 764.571C88.278 763.199 88.9804 762.023 89.8624 761.043C90.7444 760.063 91.855 759.312 93.1944 758.789C94.5664 758.266 96.265 758.005 98.2904 758.005H99.9564C104.17 758.005 107.127 758.854 108.825 760.553C110.557 762.252 111.128 764.8 110.54 768.197L109.707 772.901H100.103L100.887 768.442C101.051 767.658 100.985 767.037 100.691 766.58C100.43 766.09 99.9074 765.845 99.1234 765.845C98.372 765.845 97.8494 766.09 97.5554 766.58C97.294 767.07 97.098 767.691 96.9674 768.442L94.0764 784.71C93.7824 786.539 94.3377 787.454 95.7424 787.454ZM134.778 758.544L133.308 766.923H124.194L123.312 771.921H131.152L129.633 780.447H121.793L120.715 786.523H130.123L128.604 795H109.592L116.011 758.544H134.778ZM138.646 758.544H157.315L155.796 766.923H147.27L142.321 795H132.178L138.646 758.544ZM154.957 786.523C155.218 785.739 155.463 785.02 155.692 784.367C155.953 783.714 156.214 782.979 156.476 782.162C156.737 781.313 157.015 780.316 157.309 779.173C157.635 777.997 157.995 776.511 158.387 774.714C158.779 772.885 159.22 770.663 159.71 768.05C160.2 765.437 160.788 762.268 161.474 758.544H183.475L178.526 786.523H181.466L179.065 800.292H169.951L170.882 795H160.2L159.269 800.292H150.155L152.556 786.523H154.957ZM168.383 786.523L171.862 766.776H168.677C168.187 769.487 167.729 771.823 167.305 773.783C166.88 775.743 166.472 777.491 166.08 779.026C165.72 780.529 165.361 781.884 165.002 783.093C164.642 784.269 164.283 785.412 163.924 786.523H168.383ZM193.783 782.75H197.213L197.36 777.801C197.425 775.972 197.474 774.306 197.507 772.803C197.572 771.268 197.638 769.928 197.703 768.785C197.409 769.928 197.066 771.235 196.674 772.705C196.282 774.175 195.808 775.857 195.253 777.752L193.783 782.75ZM196.968 790.198H191.627L190.206 795H181.386L193.048 758.544H206.229L206.18 795H196.821L196.968 790.198Z" fill="black"/>
<path d="M228.192 758.262C230.051 758.942 230.98 760.268 230.98 762.24C230.98 763.623 230.515 764.767 229.586 765.674C228.679 766.558 227.365 767 225.642 767H217.38V750H224.962C226.617 750 227.897 750.431 228.804 751.292C229.711 752.131 230.164 753.219 230.164 754.556C230.164 756.256 229.507 757.491 228.192 758.262ZM224.962 752.176H219.624V757.344H224.962C226.934 757.344 227.92 756.46 227.92 754.692C227.92 753.899 227.659 753.287 227.138 752.856C226.639 752.403 225.914 752.176 224.962 752.176ZM225.642 764.824C226.639 764.824 227.399 764.586 227.92 764.11C228.464 763.634 228.736 762.965 228.736 762.104C228.736 761.311 228.464 760.687 227.92 760.234C227.399 759.758 226.639 759.52 225.642 759.52H219.624V764.824H225.642ZM242.234 749.592C244.75 749.592 246.779 750.487 248.32 752.278C249.884 754.046 250.666 756.143 250.666 758.568C250.666 758.817 250.643 759.169 250.598 759.622H235.672C235.899 761.345 236.624 762.716 237.848 763.736C239.095 764.733 240.625 765.232 242.438 765.232C243.73 765.232 244.841 764.971 245.77 764.45C246.722 763.906 247.436 763.203 247.912 762.342L249.884 763.498C249.136 764.699 248.116 765.651 246.824 766.354C245.532 767.057 244.059 767.408 242.404 767.408C239.729 767.408 237.553 766.569 235.876 764.892C234.199 763.215 233.36 761.084 233.36 758.5C233.36 755.961 234.187 753.842 235.842 752.142C237.497 750.442 239.627 749.592 242.234 749.592ZM242.234 751.768C240.466 751.768 238.981 752.301 237.78 753.366C236.601 754.409 235.899 755.769 235.672 757.446H248.354C248.127 755.655 247.436 754.261 246.28 753.264C245.124 752.267 243.775 751.768 242.234 751.768ZM263.347 749.592C265.773 749.592 267.835 750.453 269.535 752.176C271.258 753.899 272.119 756.007 272.119 758.5C272.119 760.993 271.258 763.101 269.535 764.824C267.835 766.547 265.773 767.408 263.347 767.408C260.333 767.408 258.043 766.161 256.479 763.668V773.8H254.235V750H256.479V753.332C258.043 750.839 260.333 749.592 263.347 749.592ZM258.417 763.294C259.709 764.586 261.296 765.232 263.177 765.232C265.059 765.232 266.645 764.586 267.937 763.294C269.229 761.979 269.875 760.381 269.875 758.5C269.875 756.619 269.229 755.032 267.937 753.74C266.645 752.425 265.059 751.768 263.177 751.768C261.296 751.768 259.709 752.425 258.417 753.74C257.125 755.032 256.479 756.619 256.479 758.5C256.479 760.381 257.125 761.979 258.417 763.294ZM288.227 750H290.131V767H287.887V753.91L277.755 767H275.851V750H278.095V763.09L288.227 750ZM307.116 750V752.176H301.098V767H298.854V752.176H292.836V750H307.116Z" fill="black"/>
<path d="M230.908 788.463C233.149 789.283 234.27 790.882 234.27 793.26C234.27 794.927 233.71 796.308 232.589 797.401C231.496 798.467 229.91 799 227.833 799H217.87V778.5H227.013C229.008 778.5 230.553 779.019 231.646 780.058C232.739 781.069 233.286 782.381 233.286 783.994C233.286 786.044 232.493 787.534 230.908 788.463ZM227.013 781.124H220.576V787.356H227.013C229.391 787.356 230.58 786.29 230.58 784.158C230.58 783.201 230.266 782.463 229.637 781.944C229.036 781.397 228.161 781.124 227.013 781.124ZM227.833 796.376C229.036 796.376 229.951 796.089 230.58 795.515C231.236 794.941 231.564 794.135 231.564 793.096C231.564 792.139 231.236 791.388 230.58 790.841C229.951 790.267 229.036 789.98 227.833 789.98H220.576V796.376H227.833ZM255.918 778.008C259.007 778.008 261.494 779.033 263.38 781.083C265.266 783.106 266.209 785.661 266.209 788.75C266.209 791.839 265.252 794.408 263.339 796.458C261.453 798.481 258.952 799.492 255.836 799.492C253.622 799.492 251.695 799.014 250.055 798.057C248.442 797.073 247.281 795.747 246.57 794.08L248.907 792.727C249.372 793.984 250.205 794.996 251.408 795.761C252.611 796.499 254.087 796.868 255.836 796.868C257.886 796.868 259.594 796.239 260.961 794.982C262.328 793.697 263.148 792.057 263.421 790.062H253.212V787.438H263.421C263.175 785.443 262.369 783.816 261.002 782.559C259.663 781.274 257.968 780.632 255.918 780.632C254.36 780.632 252.98 781.001 251.777 781.739C250.574 782.477 249.686 783.475 249.112 784.732L246.734 783.379C247.554 781.712 248.77 780.4 250.383 779.443C252.023 778.486 253.868 778.008 255.918 778.008ZM284.681 778.5V781.124H277.424V799H274.718V781.124H267.461V778.5H284.681ZM304.357 796.417C302.279 798.467 299.737 799.492 296.731 799.492C293.724 799.492 291.168 798.467 289.064 796.417C286.986 794.34 285.948 791.784 285.948 788.75C285.948 785.716 286.986 783.174 289.064 781.124C291.168 779.047 293.724 778.008 296.731 778.008C299.737 778.008 302.279 779.047 304.357 781.124C306.461 783.174 307.514 785.716 307.514 788.75C307.514 791.784 306.461 794.34 304.357 796.417ZM290.991 794.531C292.549 796.089 294.462 796.868 296.731 796.868C298.999 796.868 300.913 796.089 302.471 794.531C304.029 792.946 304.808 791.019 304.808 788.75C304.808 786.481 304.029 784.568 302.471 783.01C300.913 781.425 298.999 780.632 296.731 780.632C294.462 780.632 292.549 781.425 290.991 783.01C289.433 784.568 288.654 786.481 288.654 788.75C288.654 791.019 289.433 792.946 290.991 794.531Z" fill="black"/>
<path d="M111.375 197.152H130.671C132.458 197.152 134.066 197.375 135.495 197.822C136.969 198.269 138.175 199.006 139.113 200.033C140.051 201.016 140.676 202.333 140.989 203.986C141.346 205.639 141.324 207.649 140.922 210.016L140.654 211.557C140.431 212.942 140.051 214.125 139.515 215.108C138.979 216.046 138.376 216.828 137.706 217.453C137.081 218.034 136.411 218.503 135.696 218.86C135.026 219.173 134.401 219.396 133.82 219.53C134.401 219.798 135.026 220.178 135.696 220.669C136.366 221.16 136.947 221.853 137.438 222.746C137.974 223.595 138.354 224.689 138.577 226.029C138.8 227.324 138.756 228.91 138.443 230.786L137.706 234.94C137.349 236.816 136.88 238.513 136.299 240.032C135.763 241.506 135.026 242.779 134.088 243.851C133.15 244.878 131.966 245.66 130.537 246.196C129.152 246.732 127.455 247 125.445 247H102.598L111.375 197.152ZM122.966 206.532L121.224 216.18H124.038C125.825 216.18 126.919 214.974 127.321 212.562L127.723 210.15C127.946 208.855 127.857 207.939 127.455 207.403C127.098 206.822 126.338 206.532 125.177 206.532H122.966ZM119.616 225.359L117.472 237.285H120.688C121.805 237.285 122.586 236.995 123.033 236.414C123.524 235.833 123.882 234.828 124.105 233.399L124.842 229.178C125.065 227.972 124.976 227.034 124.574 226.364C124.172 225.694 123.39 225.359 122.229 225.359H119.616ZM157.369 229.044L154.22 247H140.351L149.128 197.152H168.223C170.01 197.152 171.662 197.375 173.181 197.822C174.7 198.269 175.973 198.983 177 199.966C178.027 200.904 178.742 202.177 179.144 203.785C179.546 205.348 179.546 207.269 179.144 209.547L177.737 217.453C177.022 221.473 175.749 224.421 173.918 226.297C172.087 228.128 169.384 229.044 165.811 229.044H157.369ZM159.111 219.262H161.255C162.282 219.262 162.975 218.994 163.332 218.458C163.734 217.922 164.047 217.073 164.27 215.912L165.342 209.882C165.565 208.587 165.476 207.716 165.074 207.269C164.672 206.778 163.957 206.532 162.93 206.532H161.322L159.111 219.262ZM211.757 197.152L209.747 208.609H197.285L196.079 215.443H206.799L204.722 227.101H194.002L192.528 235.409H205.392L203.315 247H177.319L186.096 197.152H211.757ZM230.245 247H225.354L224.617 228.843C224.483 225.716 224.416 223.014 224.416 220.736C224.416 218.458 224.416 216.47 224.416 214.773C224.192 216.56 223.902 218.659 223.545 221.071C223.187 223.483 222.718 226.297 222.138 229.513L219.056 247H208.135L216.912 197.152H232.054L232.188 213.567C232.188 215.622 232.165 217.431 232.121 218.994C232.121 220.513 232.098 221.719 232.054 222.612C232.322 221.719 232.701 220.535 233.193 219.061C233.684 217.587 234.309 215.778 235.069 213.634L240.965 197.152H256.509L247.732 247H236.543L239.625 229.513C240.205 226.297 240.741 223.505 241.233 221.138C241.724 218.771 242.171 216.649 242.573 214.773C241.947 216.426 241.21 218.413 240.362 220.736C239.558 223.059 238.553 225.761 237.347 228.843L230.245 247ZM274.981 228.575H273.507L265.735 247H252.268L261.648 225.292C260.487 224.399 259.593 223.126 258.968 221.473C258.387 219.82 258.343 217.721 258.834 215.175L259.973 208.609C260.688 204.5 262.251 201.574 264.663 199.832C267.12 198.045 270.604 197.152 275.115 197.152H293.942L285.098 247H271.698L274.981 228.575ZM278.934 206.532H276.522C275.539 206.532 274.78 206.755 274.244 207.202C273.753 207.604 273.395 208.386 273.172 209.547L272.167 215.309C271.944 216.47 272.011 217.297 272.368 217.788C272.725 218.279 273.395 218.525 274.378 218.525H276.79L278.934 206.532Z" fill="black"/>
<path d="M155.25 341.8H169.65C170.983 341.8 172.183 341.967 173.25 342.3C174.35 342.633 175.25 343.183 175.95 343.95C176.65 344.683 177.117 345.667 177.35 346.9C177.617 348.133 177.6 349.633 177.3 351.4L177.1 352.55C176.933 353.583 176.65 354.467 176.25 355.2C175.85 355.9 175.4 356.483 174.9 356.95C174.433 357.383 173.933 357.733 173.4 358C172.9 358.233 172.433 358.4 172 358.5C172.433 358.7 172.9 358.983 173.4 359.35C173.9 359.717 174.333 360.233 174.7 360.9C175.1 361.533 175.383 362.35 175.55 363.35C175.717 364.317 175.683 365.5 175.45 366.9L174.9 370C174.633 371.4 174.283 372.667 173.85 373.8C173.45 374.9 172.9 375.85 172.2 376.65C171.5 377.417 170.617 378 169.55 378.4C168.517 378.8 167.25 379 165.75 379H148.7L155.25 341.8ZM163.9 348.8L162.6 356H164.7C166.033 356 166.85 355.1 167.15 353.3L167.45 351.5C167.617 350.533 167.55 349.85 167.25 349.45C166.983 349.017 166.417 348.8 165.55 348.8H163.9ZM161.4 362.85L159.8 371.75H162.2C163.033 371.75 163.617 371.533 163.95 371.1C164.317 370.667 164.583 369.917 164.75 368.85L165.3 365.7C165.467 364.8 165.4 364.1 165.1 363.6C164.8 363.1 164.217 362.85 163.35 362.85H161.4ZM190.574 371.3C191.34 371.3 191.874 371.05 192.174 370.55C192.474 370.05 192.707 369.367 192.874 368.5L193.874 362.9H203.674L202.574 369.1C202.34 370.4 202.007 371.683 201.574 372.95C201.174 374.183 200.557 375.3 199.724 376.3C198.89 377.267 197.807 378.05 196.474 378.65C195.14 379.25 193.457 379.55 191.424 379.55H189.724C185.19 379.55 182.024 378.517 180.224 376.45C178.457 374.35 177.924 371.333 178.624 367.4L181.224 352.6C181.524 350.9 181.924 349.35 182.424 347.95C182.957 346.55 183.674 345.35 184.574 344.35C185.474 343.35 186.607 342.583 187.974 342.05C189.374 341.517 191.107 341.25 193.174 341.25H194.874C199.174 341.25 202.19 342.117 203.924 343.85C205.69 345.583 206.274 348.183 205.674 351.65L204.824 356.45H195.024L195.824 351.9C195.99 351.1 195.924 350.467 195.624 350C195.357 349.5 194.824 349.25 194.024 349.25C193.257 349.25 192.724 349.5 192.424 350C192.157 350.5 191.957 351.133 191.824 351.9L188.874 368.5C188.574 370.367 189.14 371.3 190.574 371.3ZM230.406 341.8L228.906 350.35H219.606L218.706 355.45H226.706L225.156 364.15H217.156L216.056 370.35H225.656L224.106 379H204.706L211.256 341.8H230.406ZM234.353 341.8H253.403L251.853 350.35H243.153L238.103 379H227.753L234.353 341.8ZM250.996 370.35C251.263 369.55 251.513 368.817 251.746 368.15C252.013 367.483 252.28 366.733 252.546 365.9C252.813 365.033 253.096 364.017 253.396 362.85C253.73 361.65 254.096 360.133 254.496 358.3C254.896 356.433 255.346 354.167 255.846 351.5C256.346 348.833 256.946 345.6 257.646 341.8H280.096L275.046 370.35H278.046L275.596 384.4H266.296L267.246 379H256.346L255.396 384.4H246.096L248.546 370.35H250.996ZM264.696 370.35L268.246 350.2H264.996C264.496 352.967 264.03 355.35 263.596 357.35C263.163 359.35 262.746 361.133 262.346 362.7C261.98 364.233 261.613 365.617 261.246 366.85C260.88 368.05 260.513 369.217 260.146 370.35H264.696ZM290.615 366.5H294.115L294.265 361.45C294.332 359.583 294.382 357.883 294.415 356.35C294.482 354.783 294.549 353.417 294.615 352.25C294.315 353.417 293.965 354.75 293.565 356.25C293.165 357.75 292.682 359.467 292.115 361.4L290.615 366.5ZM293.865 374.1H288.415L286.965 379H277.965L289.865 341.8H303.315L303.265 379H293.715L293.865 374.1Z" fill="black"/>
<path d="M33.265 200.368L27.6 252.795H16.27L10.605 200.368H33.265ZM31.926 277H11.944V257.224H31.926V277ZM63.139 200.368L57.474 252.795H46.144L40.479 200.368H63.139ZM61.8 277H41.818V257.224H61.8V277ZM93.013 200.368L87.348 252.795H76.018L70.353 200.368H93.013ZM91.674 277H71.692V257.224H91.674V277Z" fill="black"/>
<path d="M246.308 321H226.12V301.018H246.308V321ZM274.774 321H254.586V301.018H274.774V321ZM303.24 321H283.052V301.018H303.24V321Z" fill="black"/>
</svg>
