<svg width="322" height="31" viewBox="0 0 322 31" fill="none" xmlns="http://www.w3.org/2000/svg">
<path d="M34.841 7.575H13.703L13.04 11.163H22.868C25.182 11.163 27.106 11.384 28.64 11.826C30.174 12.268 31.396 12.879 32.306 13.659C33.242 14.439 33.892 15.375 34.256 16.467C34.646 17.559 34.841 18.768 34.841 20.094C34.841 21.524 34.594 22.85 34.1 24.072C33.606 25.268 32.826 26.308 31.76 27.192C30.72 28.076 29.381 28.765 27.743 29.259C26.105 29.753 24.142 30 21.854 30H0.287L5.903 0.983999H36.128L34.841 7.575ZM20.996 23.409C22.66 23.409 23.804 23.136 24.428 22.59C25.078 22.044 25.403 21.303 25.403 20.367C25.403 20.003 25.351 19.665 25.247 19.353C25.143 19.015 24.948 18.729 24.662 18.495C24.402 18.261 24.038 18.079 23.57 17.949C23.128 17.819 22.543 17.754 21.815 17.754H11.753L10.622 23.409H20.996ZM71.2109 0.983999L69.9239 7.575H51.7889L50.9309 11.904H68.5199L67.1939 18.69H49.6049L48.7079 23.331H67.1159L65.8289 30H38.3729L44.0279 0.983999H71.2109ZM91.2344 0.594H92.4824C95.1864 0.594 97.4874 0.776 99.3854 1.14C101.309 1.478 102.882 1.959 104.104 2.583C105.326 3.207 106.223 3.974 106.795 4.884C107.367 5.768 107.653 6.756 107.653 7.848C107.653 8.914 107.458 9.824 107.068 10.578C106.704 11.332 106.21 11.982 105.586 12.528C104.988 13.048 104.286 13.477 103.48 13.815C102.7 14.127 101.894 14.374 101.062 14.556C101.79 14.764 102.479 15.037 103.129 15.375C103.779 15.713 104.351 16.155 104.845 16.701C105.365 17.221 105.768 17.845 106.054 18.573C106.366 19.301 106.522 20.133 106.522 21.069C106.522 24.267 105.17 26.646 102.466 28.206C99.7884 29.74 95.5764 30.507 89.8304 30.507H88.8944C86.3464 30.507 83.9804 30.312 81.7964 29.922C79.6124 29.532 77.7404 28.908 76.1804 28.05C74.6204 27.166 73.4374 26.035 72.6314 24.657C71.8254 23.279 71.5264 21.589 71.7344 19.587H81.6014C81.4974 20.471 81.6144 21.212 81.9524 21.81C82.3164 22.382 82.8364 22.85 83.5124 23.214C84.2144 23.578 85.0594 23.838 86.0474 23.994C87.0614 24.15 88.1664 24.228 89.3624 24.228C90.7924 24.228 91.9754 24.163 92.9114 24.033C93.8734 23.877 94.6404 23.656 95.2124 23.37C95.8104 23.058 96.2264 22.681 96.4604 22.239C96.7204 21.797 96.8504 21.277 96.8504 20.679C96.8504 19.743 96.4734 19.054 95.7194 18.612C94.9654 18.17 93.6784 17.949 91.8584 17.949H84.4874L85.6184 12.099H93.0284C93.6784 12.099 94.2894 12.073 94.8614 12.021C95.4334 11.943 95.9274 11.8 96.3434 11.592C96.7854 11.384 97.1234 11.098 97.3574 10.734C97.6174 10.344 97.7474 9.837 97.7474 9.213C97.7474 8.381 97.2534 7.757 96.2654 7.341C95.3034 6.925 93.8084 6.717 91.7804 6.717C89.4924 6.717 87.6204 7.003 86.1644 7.575C84.7084 8.147 83.8504 9.161 83.5904 10.617H73.6844C73.9964 8.771 74.6724 7.211 75.7124 5.937C76.7784 4.663 78.0914 3.636 79.6514 2.856C81.2374 2.05 83.0184 1.478 84.9944 1.14C86.9704 0.776 89.0504 0.594 91.2344 0.594ZM120.356 22.941C120.798 22.941 121.084 22.876 121.214 22.746C121.37 22.59 121.448 22.369 121.448 22.083C121.448 21.641 121.227 20.978 120.785 20.094L112.049 0.983999H122.15L128.897 16.428L140.207 0.983999H150.269L133.109 23.565C132.225 24.735 131.354 25.736 130.496 26.568C129.664 27.374 128.754 28.037 127.766 28.557C126.804 29.051 125.725 29.415 124.529 29.649C123.333 29.883 121.916 30 120.278 30H113.96L115.325 22.941H120.356ZM154.096 0.983999H165.757L170.632 19.197L182.605 0.983999H194.968L189.352 30H180.499L184.126 11.319L171.919 30H165.64L160.648 11.319L157.06 30H148.441L154.096 0.983999ZM201.704 0.983999H210.791L208.763 11.514H223.817L225.884 0.983999H234.971L229.355 30H220.229L222.452 18.651H207.359L205.136 30H196.049L201.704 0.983999ZM256.825 23.214C258.307 23.214 259.438 22.915 260.218 22.317C261.024 21.693 261.427 20.796 261.427 19.626C261.427 18.82 261.167 18.157 260.647 17.637C260.127 17.091 259.139 16.818 257.683 16.818H247.699L246.451 23.214H256.825ZM249.025 10.032H259.009C261.323 10.032 263.247 10.279 264.781 10.773C266.315 11.241 267.524 11.891 268.408 12.723C269.318 13.555 269.955 14.543 270.319 15.687C270.683 16.831 270.865 18.066 270.865 19.392C270.865 20.978 270.592 22.421 270.046 23.721C269.526 25.021 268.72 26.139 267.628 27.075C266.536 28.011 265.145 28.739 263.455 29.259C261.791 29.753 259.815 30 257.527 30H236.077L241.693 0.983999H250.78L249.025 10.032ZM281.473 30H272.386L278.041 0.983999H287.128L281.473 30ZM321.055 0.983999L319.768 7.575H301.633L300.775 11.904H318.364L317.038 18.69H299.449L298.552 23.331H316.96L315.673 30H288.217L293.872 0.983999H321.055Z" fill="black"/>
</svg>
