<svg width="315" height="226" viewBox="0 0 315 226" fill="none" xmlns="http://www.w3.org/2000/svg">
<path d="M0 0H315V226H0V0Z" fill="#8485E8"/>
<mask id="path-2-inside-1_649_39" fill="white">
<path fill-rule="evenodd" clip-rule="evenodd" d="M258.815 128.056C251.33 176.728 209.267 214 158.5 214C123.073 214 91.885 195.85 73.7278 168.341C79.8274 166.959 84.3814 161.506 84.3814 154.988C84.3814 147.427 78.2519 141.298 70.6907 141.298C67.4338 141.298 64.4426 142.435 62.0924 144.334C58.7881 134.321 57 123.62 57 112.5C57 56.4431 102.443 11 158.5 11C166.48 11 174.244 11.9209 181.694 13.6621C171.627 18.2905 164.637 28.4639 164.637 40.2698C164.637 56.435 177.742 69.5395 193.907 69.5395C210.072 69.5395 223.177 56.435 223.177 40.2698C223.177 37.9954 222.917 35.7816 222.426 33.6563C234.677 43.6014 244.565 56.3443 251.116 70.912C239.294 74.6733 230.73 85.7412 230.73 98.8093C230.73 114.578 243.199 127.434 258.815 128.056ZM213.735 173.872C213.735 181.433 207.605 187.563 200.044 187.563C192.483 187.563 186.353 181.433 186.353 173.872C186.353 166.311 192.483 160.181 200.044 160.181C207.605 160.181 213.735 166.311 213.735 173.872ZM193.435 138.465C200.996 138.465 207.126 132.336 207.126 124.774C207.126 117.213 200.996 111.084 193.435 111.084C185.874 111.084 179.744 117.213 179.744 124.774C179.744 132.336 185.874 138.465 193.435 138.465ZM136.312 55.8488C136.312 63.41 130.182 69.5395 122.621 69.5395C115.06 69.5395 108.93 63.41 108.93 55.8488C108.93 48.2877 115.06 42.1581 122.621 42.1581C130.182 42.1581 136.312 48.2877 136.312 55.8488ZM122.621 196.06C130.182 196.06 136.312 189.931 136.312 182.37C136.312 174.809 130.182 168.679 122.621 168.679C115.06 168.679 108.93 174.809 108.93 182.37C108.93 189.931 115.06 196.06 122.621 196.06ZM117.428 148.851C133.593 148.851 146.698 135.747 146.698 119.581C146.698 103.416 133.593 90.3116 117.428 90.3116C101.263 90.3116 88.1581 103.416 88.1581 119.581C88.1581 135.747 101.263 148.851 117.428 148.851Z"/>
</mask>
<path fill-rule="evenodd" clip-rule="evenodd" d="M258.815 128.056C251.33 176.728 209.267 214 158.5 214C123.073 214 91.885 195.85 73.7278 168.341C79.8274 166.959 84.3814 161.506 84.3814 154.988C84.3814 147.427 78.2519 141.298 70.6907 141.298C67.4338 141.298 64.4426 142.435 62.0924 144.334C58.7881 134.321 57 123.62 57 112.5C57 56.4431 102.443 11 158.5 11C166.48 11 174.244 11.9209 181.694 13.6621C171.627 18.2905 164.637 28.4639 164.637 40.2698C164.637 56.435 177.742 69.5395 193.907 69.5395C210.072 69.5395 223.177 56.435 223.177 40.2698C223.177 37.9954 222.917 35.7816 222.426 33.6563C234.677 43.6014 244.565 56.3443 251.116 70.912C239.294 74.6733 230.73 85.7412 230.73 98.8093C230.73 114.578 243.199 127.434 258.815 128.056ZM213.735 173.872C213.735 181.433 207.605 187.563 200.044 187.563C192.483 187.563 186.353 181.433 186.353 173.872C186.353 166.311 192.483 160.181 200.044 160.181C207.605 160.181 213.735 166.311 213.735 173.872ZM193.435 138.465C200.996 138.465 207.126 132.336 207.126 124.774C207.126 117.213 200.996 111.084 193.435 111.084C185.874 111.084 179.744 117.213 179.744 124.774C179.744 132.336 185.874 138.465 193.435 138.465ZM136.312 55.8488C136.312 63.41 130.182 69.5395 122.621 69.5395C115.06 69.5395 108.93 63.41 108.93 55.8488C108.93 48.2877 115.06 42.1581 122.621 42.1581C130.182 42.1581 136.312 48.2877 136.312 55.8488ZM122.621 196.06C130.182 196.06 136.312 189.931 136.312 182.37C136.312 174.809 130.182 168.679 122.621 168.679C115.06 168.679 108.93 174.809 108.93 182.37C108.93 189.931 115.06 196.06 122.621 196.06ZM117.428 148.851C133.593 148.851 146.698 135.747 146.698 119.581C146.698 103.416 133.593 90.3116 117.428 90.3116C101.263 90.3116 88.1581 103.416 88.1581 119.581C88.1581 135.747 101.263 148.851 117.428 148.851Z" fill="#FDDC3E"/>
<path d="M258.815 128.056L261.781 128.512L262.291 125.192L258.935 125.058L258.815 128.056ZM73.7278 168.341L73.0651 165.415L68.8345 166.373L71.2241 169.994L73.7278 168.341ZM62.0924 144.334L59.2435 145.274L60.6032 149.394L63.9779 146.667L62.0924 144.334ZM181.694 13.6621L182.947 16.3878L190.897 12.7325L182.376 10.7408L181.694 13.6621ZM222.426 33.6563L224.317 31.3272L217.539 25.8243L219.503 34.3314L222.426 33.6563ZM251.116 70.912L252.026 73.7708L255.233 72.7505L253.852 69.6815L251.116 70.912ZM158.5 217C210.771 217 254.073 178.625 261.781 128.512L255.85 127.599C248.586 174.831 207.764 211 158.5 211V217ZM71.2241 169.994C89.9129 198.308 122.023 217 158.5 217V211C124.123 211 93.8571 193.392 76.2316 166.688L71.2241 169.994ZM81.3814 154.988C81.3814 160.074 77.8276 164.336 73.0651 165.415L74.3905 171.267C81.8271 169.583 87.3814 162.938 87.3814 154.988H81.3814ZM70.6907 144.298C76.595 144.298 81.3814 149.084 81.3814 154.988H87.3814C87.3814 145.77 79.9087 138.298 70.6907 138.298V144.298ZM63.9779 146.667C65.8137 145.184 68.1447 144.298 70.6907 144.298V138.298C66.723 138.298 63.0714 139.686 60.2069 142.001L63.9779 146.667ZM54 112.5C54 123.943 55.8403 134.962 59.2435 145.274L64.9412 143.394C61.7358 133.681 60 123.296 60 112.5H54ZM158.5 8C100.786 8 54 54.7862 54 112.5H60C60 58.1 104.1 14 158.5 14V8ZM182.376 10.7408C174.705 8.94765 166.711 8 158.5 8V14C166.248 14 173.784 14.8941 181.011 16.5833L182.376 10.7408ZM167.637 40.2698C167.637 29.6785 173.905 20.5449 182.947 16.3878L180.44 10.9364C169.349 16.0361 161.637 27.2493 161.637 40.2698H167.637ZM193.907 66.5395C179.399 66.5395 167.637 54.7782 167.637 40.2698H161.637C161.637 58.0919 176.085 72.5395 193.907 72.5395V66.5395ZM220.177 40.2698C220.177 54.7782 208.415 66.5395 193.907 66.5395V72.5395C211.729 72.5395 226.177 58.0919 226.177 40.2698H220.177ZM219.503 34.3314C219.944 36.2368 220.177 38.2242 220.177 40.2698H226.177C226.177 37.7666 225.891 35.3263 225.35 32.9812L219.503 34.3314ZM253.852 69.6815C247.106 54.6814 236.927 41.5639 224.317 31.3272L220.536 35.9855C232.427 45.639 242.023 58.0072 248.38 72.1425L253.852 69.6815ZM233.73 98.8093C233.73 87.0851 241.413 77.1475 252.026 73.7708L250.207 68.0532C237.176 72.1991 227.73 84.3972 227.73 98.8093H233.73ZM258.935 125.058C244.921 124.5 233.73 112.961 233.73 98.8093H227.73C227.73 116.195 241.477 130.368 258.696 131.053L258.935 125.058ZM200.044 190.563C209.262 190.563 216.735 183.09 216.735 173.872H210.735C210.735 179.776 205.948 184.563 200.044 184.563V190.563ZM183.353 173.872C183.353 183.09 190.826 190.563 200.044 190.563V184.563C194.14 184.563 189.353 179.776 189.353 173.872H183.353ZM200.044 157.181C190.826 157.181 183.353 164.654 183.353 173.872H189.353C189.353 167.968 194.14 163.181 200.044 163.181V157.181ZM216.735 173.872C216.735 164.654 209.262 157.181 200.044 157.181V163.181C205.948 163.181 210.735 167.968 210.735 173.872H216.735ZM204.126 124.774C204.126 130.679 199.339 135.465 193.435 135.465V141.465C202.653 141.465 210.126 133.992 210.126 124.774H204.126ZM193.435 114.084C199.339 114.084 204.126 118.87 204.126 124.774H210.126C210.126 115.556 202.653 108.084 193.435 108.084V114.084ZM182.744 124.774C182.744 118.87 187.531 114.084 193.435 114.084V108.084C184.217 108.084 176.744 115.556 176.744 124.774H182.744ZM193.435 135.465C187.531 135.465 182.744 130.679 182.744 124.774H176.744C176.744 133.992 184.217 141.465 193.435 141.465V135.465ZM122.621 72.5395C131.839 72.5395 139.312 65.0669 139.312 55.8488H133.312C133.312 61.7531 128.525 66.5395 122.621 66.5395V72.5395ZM105.93 55.8488C105.93 65.0669 113.403 72.5395 122.621 72.5395V66.5395C116.717 66.5395 111.93 61.7531 111.93 55.8488H105.93ZM122.621 39.1581C113.403 39.1581 105.93 46.6308 105.93 55.8488H111.93C111.93 49.9445 116.717 45.1581 122.621 45.1581V39.1581ZM139.312 55.8488C139.312 46.6308 131.839 39.1581 122.621 39.1581V45.1581C128.525 45.1581 133.312 49.9445 133.312 55.8488H139.312ZM133.312 182.37C133.312 188.274 128.525 193.06 122.621 193.06V199.06C131.839 199.06 139.312 191.588 139.312 182.37H133.312ZM122.621 171.679C128.525 171.679 133.312 176.465 133.312 182.37H139.312C139.312 173.152 131.839 165.679 122.621 165.679V171.679ZM111.93 182.37C111.93 176.465 116.717 171.679 122.621 171.679V165.679C113.403 165.679 105.93 173.152 105.93 182.37H111.93ZM122.621 193.06C116.717 193.06 111.93 188.274 111.93 182.37H105.93C105.93 191.588 113.403 199.06 122.621 199.06V193.06ZM143.698 119.581C143.698 134.09 131.936 145.851 117.428 145.851V151.851C135.25 151.851 149.698 137.403 149.698 119.581H143.698ZM117.428 93.3116C131.936 93.3116 143.698 105.073 143.698 119.581H149.698C149.698 101.759 135.25 87.3116 117.428 87.3116V93.3116ZM91.1581 119.581C91.1581 105.073 102.92 93.3116 117.428 93.3116V87.3116C99.6058 87.3116 85.1581 101.759 85.1581 119.581H91.1581ZM117.428 145.851C102.92 145.851 91.1581 134.09 91.1581 119.581H85.1581C85.1581 137.403 99.6058 151.851 117.428 151.851V145.851Z" fill="white" mask="url(#path-2-inside-1_649_39)"/>
</svg>
