<svg width="383" height="284" viewBox="0 0 383 284" fill="none" xmlns="http://www.w3.org/2000/svg">
<path d="M0 0H383V283.797H0V0Z" fill="#DFDFDF"/>
<path d="M339.05 141.27C339.05 110.62 328.422 80.9185 308.978 57.2257C289.534 33.533 262.476 17.3151 232.415 11.3356C202.354 5.35609 171.149 9.98483 144.118 24.4331C117.088 38.8815 95.9026 62.2554 84.1733 90.5723C72.4441 118.889 70.8962 150.397 79.7934 179.727C88.6907 209.058 107.482 234.395 132.967 251.424C158.452 268.452 189.052 276.117 219.555 273.113C250.057 270.109 278.574 256.621 300.247 234.948L206.569 141.27H339.05Z" fill="black"/>
<path d="M136.57 80.9343C100.028 79.3677 35.6525 84.0921 72.5987 119.81C118.781 164.457 234.968 29.9953 245.697 40.8047C256.426 51.614 61.4441 149.31 96.4311 196.307C124.421 233.905 141.318 205.387 146.604 186.275" stroke="black" stroke-width="74.0885" stroke-linecap="square"/>
<path d="M281.607 32.6492C284.927 41.6486 288.362 51.4852 260.349 82.8787C248.125 96.579 224.76 111.242 196.577 128.085M61.5312 159.479C122.096 163.151 164.584 147.206 196.577 128.085M132.806 252.403C155.423 235.395 200.561 186.787 196.577 128.085M196.577 128.085C194.918 96.0917 198.191 27.1239 224.087 10.0459" stroke="white" stroke-width="6.27869" stroke-linecap="round"/>
<path d="M114.272 45.2065L337.794 139.387" stroke="white" stroke-width="6.27869" stroke-linecap="round"/>
</svg>
