<svg width="488" height="432" viewBox="0 0 488 432" fill="none" xmlns="http://www.w3.org/2000/svg">
<rect width="488" height="432" fill="#DFDFDF"/>
<path d="M12 420V13H475V420H12Z" stroke="white" stroke-width="5" stroke-linecap="round"/>
<path d="M25 56.5C25 40.2076 38.2076 27 54.5 27H157.5C173.792 27 187 40.2076 187 56.5V56.5C187 72.7924 173.792 86 157.5 86H54.5C38.2076 86 25 72.7924 25 56.5V56.5Z" fill="#898989"/>
<path d="M61.7 55.925C62.55 56.2917 63.225 56.85 63.725 57.6C64.2417 58.3333 64.5 59.175 64.5 60.125C64.5 61.475 64.025 62.625 63.075 63.575C62.125 64.525 60.975 65 59.625 65H52V47.5H59.05C60.35 47.5 61.4583 47.9667 62.375 48.9C63.2917 49.8167 63.75 50.9167 63.75 52.2C63.75 53.8333 63.0667 55.075 61.7 55.925ZM59.05 49.15H53.75V55.25H59.05C59.8667 55.25 60.5583 54.9583 61.125 54.375C61.7083 53.775 62 53.05 62 52.2C62 51.3667 61.7083 50.65 61.125 50.05C60.5583 49.45 59.8667 49.15 59.05 49.15ZM59.625 63.35C60.4917 63.35 61.225 63.0417 61.825 62.425C62.4417 61.7917 62.75 61.025 62.75 60.125C62.75 59.2417 62.4417 58.4833 61.825 57.85C61.225 57.2167 60.4917 56.9 59.625 56.9H53.75V63.35H59.625ZM69.2529 63.35H77.7529V65H67.5029V47.5H77.6279V49.15H69.2529V55.35H77.0029V57H69.2529V63.35ZM88.8127 65.3C86.1627 65.3 83.971 64.425 82.2377 62.675C80.5044 60.925 79.6377 58.7833 79.6377 56.25C79.6377 53.7167 80.5044 51.575 82.2377 49.825C83.971 48.075 86.1627 47.2 88.8127 47.2C90.4294 47.2 91.9127 47.5917 93.2627 48.375C94.6127 49.1417 95.6544 50.1833 96.3877 51.5L94.8377 52.4C94.2877 51.3333 93.471 50.4833 92.3877 49.85C91.3044 49.2167 90.1127 48.9 88.8127 48.9C86.6294 48.9 84.846 49.6083 83.4627 51.025C82.0794 52.4417 81.3877 54.1833 81.3877 56.25C81.3877 58.3167 82.0794 60.0583 83.4627 61.475C84.846 62.8917 86.6294 63.6 88.8127 63.6C90.1127 63.6 91.3044 63.2833 92.3877 62.65C93.471 62.0167 94.2877 61.1667 94.8377 60.1L96.3877 60.975C95.671 62.2917 94.6294 63.3417 93.2627 64.125C91.9127 64.9083 90.4294 65.3 88.8127 65.3ZM101.016 63.35H109.516V65H99.2656V47.5H109.391V49.15H101.016V55.35H108.766V57H101.016V63.35ZM110.897 65V63.45C112.114 63.6167 113.022 63.2417 113.622 62.325C114.239 61.3917 114.547 59.6917 114.547 57.225V47.5H125.897V65H124.147V49.15H116.297V57.275C116.297 58.8583 116.172 60.1833 115.922 61.25C115.672 62.3167 115.297 63.1333 114.797 63.7C114.314 64.25 113.756 64.625 113.122 64.825C112.506 65.0083 111.764 65.0667 110.897 65ZM144.38 62.675C142.63 64.425 140.489 65.3 137.955 65.3C135.422 65.3 133.28 64.425 131.53 62.675C129.78 60.9083 128.905 58.7667 128.905 56.25C128.905 53.7333 129.78 51.6 131.53 49.85C133.28 48.0833 135.422 47.2 137.955 47.2C140.489 47.2 142.63 48.0833 144.38 49.85C146.13 51.6 147.005 53.7333 147.005 56.25C147.005 58.7667 146.13 60.9083 144.38 62.675ZM132.755 61.475C134.155 62.8917 135.889 63.6 137.955 63.6C140.022 63.6 141.755 62.8917 143.155 61.475C144.555 60.0417 145.255 58.3 145.255 56.25C145.255 54.2 144.555 52.4667 143.155 51.05C141.755 49.6167 140.022 48.9 137.955 48.9C135.889 48.9 134.155 49.6167 132.755 51.05C131.355 52.4667 130.655 54.2 130.655 56.25C130.655 58.3 131.355 60.0417 132.755 61.475ZM151.748 63.35H160.248V65H149.998V47.5H160.123V49.15H151.748V55.35H159.498V57H151.748V63.35Z" fill="white"/>
<path d="M191 56.5C191 40.2076 204.208 27 220.5 27H410.5C426.792 27 440 40.2076 440 56.5V56.5C440 72.7924 426.792 86 410.5 86H220.5C204.208 86 191 72.7924 191 56.5V56.5Z" fill="#898989"/>
<path d="M233.025 51.4C234.575 52.5667 235.35 54.1833 235.35 56.25C235.35 58.3167 234.575 59.9333 233.025 61.1C231.492 62.2667 229.458 62.9083 226.925 63.025V65H225.175V63.025C222.642 62.9083 220.6 62.2667 219.05 61.1C217.517 59.9333 216.75 58.3167 216.75 56.25C216.75 54.1833 217.517 52.5667 219.05 51.4C220.6 50.2333 222.642 49.5917 225.175 49.475V47.5H226.925V49.475C229.458 49.5917 231.492 50.2333 233.025 51.4ZM220.3 52.55C219.1 53.4167 218.5 54.65 218.5 56.25C218.5 57.85 219.1 59.0917 220.3 59.975C221.5 60.8417 223.125 61.325 225.175 61.425V51.075C223.125 51.175 221.5 51.6667 220.3 52.55ZM226.925 61.425C228.975 61.325 230.6 60.8417 231.8 59.975C233 59.0917 233.6 57.85 233.6 56.25C233.6 54.65 233 53.4167 231.8 52.55C230.6 51.6667 228.975 51.175 226.925 51.075V61.425ZM249.343 65V50.75L239.593 65H238.093V47.5H239.843V61.75L249.593 47.5H251.093V65H249.343ZM253.46 65V63.45C254.677 63.6167 255.585 63.2417 256.185 62.325C256.802 61.3917 257.11 59.6917 257.11 57.225V47.5H268.46V65H266.71V49.15H258.86V57.275C258.86 58.8583 258.735 60.1833 258.485 61.25C258.235 62.3167 257.86 63.1333 257.36 63.7C256.877 64.25 256.318 64.625 255.685 64.825C255.068 65.0083 254.327 65.0667 253.46 65ZM286.943 62.675C285.193 64.425 283.051 65.3 280.518 65.3C277.984 65.3 275.843 64.425 274.093 62.675C272.343 60.9083 271.468 58.7667 271.468 56.25C271.468 53.7333 272.343 51.6 274.093 49.85C275.843 48.0833 277.984 47.2 280.518 47.2C283.051 47.2 285.193 48.0833 286.943 49.85C288.693 51.6 289.568 53.7333 289.568 56.25C289.568 58.7667 288.693 60.9083 286.943 62.675ZM275.318 61.475C276.718 62.8917 278.451 63.6 280.518 63.6C282.584 63.6 284.318 62.8917 285.718 61.475C287.118 60.0417 287.818 58.3 287.818 56.25C287.818 54.2 287.118 52.4667 285.718 51.05C284.318 49.6167 282.584 48.9 280.518 48.9C278.451 48.9 276.718 49.6167 275.318 51.05C273.918 52.4667 273.218 54.2 273.218 56.25C273.218 58.3 273.918 60.0417 275.318 61.475ZM300.736 65.3C298.086 65.3 295.894 64.425 294.161 62.675C292.427 60.925 291.561 58.7833 291.561 56.25C291.561 53.7167 292.427 51.575 294.161 49.825C295.894 48.075 298.086 47.2 300.736 47.2C302.352 47.2 303.836 47.5917 305.186 48.375C306.536 49.1417 307.577 50.1833 308.311 51.5L306.761 52.4C306.211 51.3333 305.394 50.4833 304.311 49.85C303.227 49.2167 302.036 48.9 300.736 48.9C298.552 48.9 296.769 49.6083 295.386 51.025C294.002 52.4417 293.311 54.1833 293.311 56.25C293.311 58.3167 294.002 60.0583 295.386 61.475C296.769 62.8917 298.552 63.6 300.736 63.6C302.036 63.6 303.227 63.2833 304.311 62.65C305.394 62.0167 306.211 61.1667 306.761 60.1L308.311 60.975C307.594 62.2917 306.552 63.3417 305.186 64.125C303.836 64.9083 302.352 65.3 300.736 65.3ZM325.663 62.675C323.913 64.425 321.772 65.3 319.238 65.3C316.705 65.3 314.563 64.425 312.813 62.675C311.063 60.9083 310.188 58.7667 310.188 56.25C310.188 53.7333 311.063 51.6 312.813 49.85C314.563 48.0833 316.705 47.2 319.238 47.2C321.772 47.2 323.913 48.0833 325.663 49.85C327.413 51.6 328.288 53.7333 328.288 56.25C328.288 58.7667 327.413 60.9083 325.663 62.675ZM314.038 61.475C315.438 62.8917 317.172 63.6 319.238 63.6C321.305 63.6 323.038 62.8917 324.438 61.475C325.838 60.0417 326.538 58.3 326.538 56.25C326.538 54.2 325.838 52.4667 324.438 51.05C323.038 49.6167 321.305 48.9 319.238 48.9C317.172 48.9 315.438 49.6167 314.038 51.05C312.638 52.4667 311.938 54.2 311.938 56.25C311.938 58.3 312.638 60.0417 314.038 61.475ZM346.306 51.4C347.856 52.5667 348.631 54.1833 348.631 56.25C348.631 58.3167 347.856 59.9333 346.306 61.1C344.773 62.2667 342.74 62.9083 340.206 63.025V65H338.456V63.025C335.923 62.9083 333.881 62.2667 332.331 61.1C330.798 59.9333 330.031 58.3167 330.031 56.25C330.031 54.1833 330.798 52.5667 332.331 51.4C333.881 50.2333 335.923 49.5917 338.456 49.475V47.5H340.206V49.475C342.74 49.5917 344.773 50.2333 346.306 51.4ZM333.581 52.55C332.381 53.4167 331.781 54.65 331.781 56.25C331.781 57.85 332.381 59.0917 333.581 59.975C334.781 60.8417 336.406 61.325 338.456 61.425V51.075C336.406 51.175 334.781 51.6667 333.581 52.55ZM340.206 61.425C342.256 61.325 343.881 60.8417 345.081 59.975C346.281 59.0917 346.881 57.85 346.881 56.25C346.881 54.65 346.281 53.4167 345.081 52.55C343.881 51.6667 342.256 51.175 340.206 51.075V61.425ZM359.549 65.3C356.899 65.3 354.707 64.425 352.974 62.675C351.241 60.925 350.374 58.7833 350.374 56.25C350.374 53.7167 351.241 51.575 352.974 49.825C354.707 48.075 356.899 47.2 359.549 47.2C361.166 47.2 362.649 47.5917 363.999 48.375C365.349 49.1417 366.391 50.1833 367.124 51.5L365.574 52.4C365.024 51.3333 364.207 50.4833 363.124 49.85C362.041 49.2167 360.849 48.9 359.549 48.9C357.366 48.9 355.582 49.6083 354.199 51.025C352.816 52.4417 352.124 54.1833 352.124 56.25C352.124 58.3167 352.816 60.0583 354.199 61.475C355.582 62.8917 357.366 63.6 359.549 63.6C360.849 63.6 362.041 63.2833 363.124 62.65C364.207 62.0167 365.024 61.1667 365.574 60.1L367.124 60.975C366.407 62.2917 365.366 63.3417 363.999 64.125C362.649 64.9083 361.166 65.3 359.549 65.3ZM382.252 65H379.952L371.752 56.525V65H370.002V47.5H371.752V55.5L379.702 47.5H382.002L373.602 56L382.252 65ZM397.49 62.675C395.74 64.425 393.598 65.3 391.065 65.3C388.531 65.3 386.39 64.425 384.64 62.675C382.89 60.9083 382.015 58.7667 382.015 56.25C382.015 53.7333 382.89 51.6 384.64 49.85C386.39 48.0833 388.531 47.2 391.065 47.2C393.598 47.2 395.74 48.0833 397.49 49.85C399.24 51.6 400.115 53.7333 400.115 56.25C400.115 58.7667 399.24 60.9083 397.49 62.675ZM385.865 61.475C387.265 62.8917 388.998 63.6 391.065 63.6C393.131 63.6 394.865 62.8917 396.265 61.475C397.665 60.0417 398.365 58.3 398.365 56.25C398.365 54.2 397.665 52.4667 396.265 51.05C394.865 49.6167 393.131 48.9 391.065 48.9C388.998 48.9 387.265 49.6167 385.865 51.05C384.465 52.4667 383.765 54.2 383.765 56.25C383.765 58.3 384.465 60.0417 385.865 61.475ZM404.857 63.35H413.357V65H403.107V47.5H413.232V49.15H404.857V55.35H412.607V57H404.857V63.35Z" fill="white"/>
<path d="M227 248.5C227 232.208 240.208 219 256.5 219H381.5C397.792 219 411 232.208 411 248.5V248.5C411 264.792 397.792 278 381.5 278H256.5C240.208 278 227 264.792 227 248.5V248.5Z" fill="#898989"/>
<path d="M260.25 239.5C261.817 239.5 263.125 240.025 264.175 241.075C265.225 242.125 265.75 243.433 265.75 245C265.75 246.567 265.225 247.875 264.175 248.925C263.125 249.975 261.817 250.5 260.25 250.5H255.75V257H254V239.5H260.25ZM260.25 248.85C261.333 248.85 262.225 248.492 262.925 247.775C263.642 247.042 264 246.117 264 245C264 243.883 263.642 242.967 262.925 242.25C262.225 241.517 261.333 241.15 260.25 241.15H255.75V248.85H260.25ZM278.638 257L277.013 252.7H268.713L267.088 257H265.238L271.963 239.5H273.763L280.488 257H278.638ZM269.338 251.05H276.388L272.863 241.675L269.338 251.05ZM295.235 255.35H297.11V260.35H295.36V257H282.86V260.35H281.11V255.35H282.535C283.685 254 284.26 251.917 284.26 249.1V239.5H295.235V255.35ZM284.61 255.35H293.485V241.15H286.01V249.15C286.01 251.917 285.544 253.983 284.61 255.35ZM309.708 239.5H311.508L305.683 253.175C305.099 254.575 304.358 255.583 303.458 256.2C302.558 256.817 301.441 257.083 300.108 257V255.4C301.041 255.5 301.808 255.367 302.408 255C303.024 254.617 303.533 253.958 303.933 253.025L304.283 252.2L298.258 239.5H300.058L305.108 250.25L309.708 239.5ZM331.766 239.5H333.516V257H313.766V239.5H315.516V255.35H322.766V239.5H324.516V255.35H331.766V239.5ZM348.771 239.5H350.521V257H348.771V248.825H339.271V257H337.521V239.5H339.271V247.175H348.771V239.5ZM368.988 254.675C367.238 256.425 365.096 257.3 362.563 257.3C360.029 257.3 357.888 256.425 356.138 254.675C354.388 252.908 353.513 250.767 353.513 248.25C353.513 245.733 354.388 243.6 356.138 241.85C357.888 240.083 360.029 239.2 362.563 239.2C365.096 239.2 367.238 240.083 368.988 241.85C370.738 243.6 371.613 245.733 371.613 248.25C371.613 250.767 370.738 252.908 368.988 254.675ZM357.363 253.475C358.763 254.892 360.496 255.6 362.563 255.6C364.629 255.6 366.363 254.892 367.763 253.475C369.163 252.042 369.863 250.3 369.863 248.25C369.863 246.2 369.163 244.467 367.763 243.05C366.363 241.617 364.629 240.9 362.563 240.9C360.496 240.9 358.763 241.617 357.363 243.05C355.963 244.467 355.263 246.2 355.263 248.25C355.263 250.3 355.963 252.042 357.363 253.475ZM376.355 255.35H384.855V257H374.605V239.5H384.73V241.15H376.355V247.35H384.105V249H376.355V255.35Z" fill="white"/>
<mask id="path-8-inside-1_404_976" fill="white">
<path d="M18 120.5C18 104.208 31.2076 91 47.5 91H267.5C283.792 91 297 104.208 297 120.5V120.5C297 136.792 283.792 150 267.5 150H47.5C31.2076 150 18 136.792 18 120.5V120.5Z"/>
</mask>
<path d="M18 120.5C18 104.208 31.2076 91 47.5 91H267.5C283.792 91 297 104.208 297 120.5V120.5C297 136.792 283.792 150 267.5 150H47.5C31.2076 150 18 136.792 18 120.5V120.5Z" fill="black"/>
<path d="M55.2 111.5H57L51.175 125.175C50.5917 126.575 49.85 127.583 48.95 128.2C48.05 128.817 46.9333 129.083 45.6 129V127.4C46.5333 127.5 47.3 127.367 47.9 127C48.5167 126.617 49.025 125.958 49.425 125.025L49.775 124.2L43.75 111.5H45.55L50.6 122.25L55.2 111.5ZM65.5078 111.5C67.0745 111.5 68.3828 112.025 69.4328 113.075C70.4828 114.125 71.0078 115.433 71.0078 117C71.0078 118.567 70.4828 119.875 69.4328 120.925C68.3828 121.975 67.0745 122.5 65.5078 122.5H61.0078V129H59.2578V111.5H65.5078ZM65.5078 120.85C66.5911 120.85 67.4828 120.492 68.1828 119.775C68.8995 119.042 69.2578 118.117 69.2578 117C69.2578 115.883 68.8995 114.967 68.1828 114.25C67.4828 113.517 66.5911 113.15 65.5078 113.15H61.0078V120.85H65.5078ZM83.8961 129L82.2711 124.7H73.9711L72.3461 129H70.4961L77.2211 111.5H79.0211L85.7461 129H83.8961ZM74.5961 123.05H81.6461L78.1211 113.675L74.5961 123.05ZM97.6932 119.925C98.5432 120.292 99.2182 120.85 99.7182 121.6C100.235 122.333 100.493 123.175 100.493 124.125C100.493 125.475 100.018 126.625 99.0682 127.575C98.1182 128.525 96.9682 129 95.6182 129H87.9932V111.5H95.0432C96.3432 111.5 97.4515 111.967 98.3682 112.9C99.2848 113.817 99.7432 114.917 99.7432 116.2C99.7432 117.833 99.0598 119.075 97.6932 119.925ZM95.0432 113.15H89.7432V119.25H95.0432C95.8598 119.25 96.5515 118.958 97.1182 118.375C97.7015 117.775 97.9932 117.05 97.9932 116.2C97.9932 115.367 97.7015 114.65 97.1182 114.05C96.5515 113.45 95.8598 113.15 95.0432 113.15ZM95.6182 127.35C96.4848 127.35 97.2182 127.042 97.8182 126.425C98.4348 125.792 98.7432 125.025 98.7432 124.125C98.7432 123.242 98.4348 122.483 97.8182 121.85C97.2182 121.217 96.4848 120.9 95.6182 120.9H89.7432V127.35H95.6182ZM114.746 111.5H116.496V129H114.746V120.825H105.246V129H103.496V111.5H105.246V119.175H114.746V111.5ZM134.963 126.675C133.213 128.425 131.072 129.3 128.538 129.3C126.005 129.3 123.863 128.425 122.113 126.675C120.363 124.908 119.488 122.767 119.488 120.25C119.488 117.733 120.363 115.6 122.113 113.85C123.863 112.083 126.005 111.2 128.538 111.2C131.072 111.2 133.213 112.083 134.963 113.85C136.713 115.6 137.588 117.733 137.588 120.25C137.588 122.767 136.713 124.908 134.963 126.675ZM123.338 125.475C124.738 126.892 126.472 127.6 128.538 127.6C130.605 127.6 132.338 126.892 133.738 125.475C135.138 124.042 135.838 122.3 135.838 120.25C135.838 118.2 135.138 116.467 133.738 115.05C132.338 113.617 130.605 112.9 128.538 112.9C126.472 112.9 124.738 113.617 123.338 115.05C121.938 116.467 121.238 118.2 121.238 120.25C121.238 122.3 121.938 124.042 123.338 125.475ZM150.281 119.925C151.131 120.292 151.806 120.85 152.306 121.6C152.823 122.333 153.081 123.175 153.081 124.125C153.081 125.475 152.606 126.625 151.656 127.575C150.706 128.525 149.556 129 148.206 129H140.581V111.5H147.631C148.931 111.5 150.039 111.967 150.956 112.9C151.873 113.817 152.331 114.917 152.331 116.2C152.331 117.833 151.648 119.075 150.281 119.925ZM147.631 113.15H142.331V119.25H147.631C148.448 119.25 149.139 118.958 149.706 118.375C150.289 117.775 150.581 117.05 150.581 116.2C150.581 115.367 150.289 114.65 149.706 114.05C149.139 113.45 148.448 113.15 147.631 113.15ZM148.206 127.35C149.073 127.35 149.806 127.042 150.406 126.425C151.023 125.792 151.331 125.025 151.331 124.125C151.331 123.242 151.023 122.483 150.406 121.85C149.806 121.217 149.073 120.9 148.206 120.9H142.331V127.35H148.206ZM157.834 127.35H166.334V129H156.084V111.5H166.209V113.15H157.834V119.35H165.584V121H157.834V127.35ZM187.341 111.5H189.091V129H169.341V111.5H171.091V127.35H178.341V111.5H180.091V127.35H187.341V111.5ZM194.846 127.35H203.346V129H193.096V111.5H203.221V113.15H194.846V119.35H202.596V121H194.846V127.35ZM217.603 111.5H219.353V129H217.603V120.825H208.103V129H206.353V111.5H208.103V119.175H217.603V111.5ZM234.595 111.5H236.345V129H234.595V120.825H225.095V129H223.345V111.5H225.095V119.175H234.595V111.5ZM254.812 126.675C253.062 128.425 250.92 129.3 248.387 129.3C245.854 129.3 243.712 128.425 241.962 126.675C240.212 124.908 239.337 122.767 239.337 120.25C239.337 117.733 240.212 115.6 241.962 113.85C243.712 112.083 245.854 111.2 248.387 111.2C250.92 111.2 253.062 112.083 254.812 113.85C256.562 115.6 257.437 117.733 257.437 120.25C257.437 122.767 256.562 124.908 254.812 126.675ZM243.187 125.475C244.587 126.892 246.32 127.6 248.387 127.6C250.454 127.6 252.187 126.892 253.587 125.475C254.987 124.042 255.687 122.3 255.687 120.25C255.687 118.2 254.987 116.467 253.587 115.05C252.187 113.617 250.454 112.9 248.387 112.9C246.32 112.9 244.587 113.617 243.187 115.05C241.787 116.467 241.087 118.2 241.087 120.25C241.087 122.3 241.787 124.042 243.187 125.475ZM262.18 127.35H270.68V129H260.43V111.5H270.555V113.15H262.18V119.35H269.93V121H262.18V127.35Z" fill="white"/>
<path d="M18 120.5C18 102.551 32.5507 88 50.5 88H264.5C282.449 88 297 102.551 297 120.5C297 105.864 283.792 94 267.5 94H47.5C31.2076 94 18 105.864 18 120.5ZM297 150H18H297ZM18 150V91V150ZM297 91V150V91Z" fill="#898989" mask="url(#path-8-inside-1_404_976)"/>
<path d="M67 184.5C67 168.208 80.2076 155 96.5 155H206.5C222.792 155 236 168.208 236 184.5V184.5C236 200.792 222.792 214 206.5 214H96.5C80.2076 214 67 200.792 67 184.5V184.5Z" fill="#898989"/>
<path d="M106 193H104L99.25 185.525L94.5 193H92.5L98.25 183.975L92.875 175.5H94.85L99.25 182.4L103.65 175.5H105.625L100.25 183.975L106 193ZM122.22 190.675C120.47 192.425 118.328 193.3 115.795 193.3C113.262 193.3 111.12 192.425 109.37 190.675C107.62 188.908 106.745 186.767 106.745 184.25C106.745 181.733 107.62 179.6 109.37 177.85C111.12 176.083 113.262 175.2 115.795 175.2C118.328 175.2 120.47 176.083 122.22 177.85C123.97 179.6 124.845 181.733 124.845 184.25C124.845 186.767 123.97 188.908 122.22 190.675ZM110.595 189.475C111.995 190.892 113.728 191.6 115.795 191.6C117.862 191.6 119.595 190.892 120.995 189.475C122.395 188.042 123.095 186.3 123.095 184.25C123.095 182.2 122.395 180.467 120.995 179.05C119.595 177.617 117.862 176.9 115.795 176.9C113.728 176.9 111.995 177.617 110.595 179.05C109.195 180.467 108.495 182.2 108.495 184.25C108.495 186.3 109.195 188.042 110.595 189.475ZM134.088 175.5C135.655 175.5 136.963 176.025 138.013 177.075C139.063 178.125 139.588 179.433 139.588 181C139.588 182.567 139.063 183.875 138.013 184.925C136.963 185.975 135.655 186.5 134.088 186.5H129.588V193H127.838V175.5H134.088ZM134.088 184.85C135.171 184.85 136.063 184.492 136.763 183.775C137.48 183.042 137.838 182.117 137.838 181C137.838 179.883 137.48 178.967 136.763 178.25C136.063 177.517 135.171 177.15 134.088 177.15H129.588V184.85H134.088ZM156.937 190.675C155.187 192.425 153.045 193.3 150.512 193.3C147.979 193.3 145.837 192.425 144.087 190.675C142.337 188.908 141.462 186.767 141.462 184.25C141.462 181.733 142.337 179.6 144.087 177.85C145.837 176.083 147.979 175.2 150.512 175.2C153.045 175.2 155.187 176.083 156.937 177.85C158.687 179.6 159.562 181.733 159.562 184.25C159.562 186.767 158.687 188.908 156.937 190.675ZM145.312 189.475C146.712 190.892 148.445 191.6 150.512 191.6C152.579 191.6 154.312 190.892 155.712 189.475C157.112 188.042 157.812 186.3 157.812 184.25C157.812 182.2 157.112 180.467 155.712 179.05C154.312 177.617 152.579 176.9 150.512 176.9C148.445 176.9 146.712 177.617 145.312 179.05C143.912 180.467 143.212 182.2 143.212 184.25C143.212 186.3 143.912 188.042 145.312 189.475ZM180.555 175.5H182.305V193H162.555V175.5H164.305V191.35H171.555V175.5H173.305V191.35H180.555V175.5ZM188.06 191.35H196.56V193H186.31V175.5H196.435V177.15H188.06V183.35H195.81V185H188.06V191.35ZM201.316 191.35H209.816V193H199.566V175.5H209.691V177.15H201.316V183.35H209.066V185H201.316V191.35Z" fill="white"/>
<path d="M240 185C240 168.431 253.431 155 270 155H440C456.569 155 470 168.431 470 185V185C470 201.569 456.569 215 440 215H270C253.431 215 240 201.569 240 185V185Z" fill="#898989"/>
<path d="M283 176.5V194H281.25V179.15L275.125 189.4H274.875L268.75 179.15V194H267V176.5H269.175L275 186.25L280.825 176.5H283ZM298.245 194V179.75L288.495 194H286.995V176.5H288.745V190.75L298.495 176.5H299.995V194H298.245ZM312.162 194.3C309.512 194.3 307.321 193.425 305.587 191.675C303.854 189.925 302.987 187.783 302.987 185.25C302.987 182.717 303.854 180.575 305.587 178.825C307.321 177.075 309.512 176.2 312.162 176.2C313.779 176.2 315.262 176.592 316.612 177.375C317.962 178.142 319.004 179.183 319.737 180.5L318.187 181.4C317.637 180.333 316.821 179.483 315.737 178.85C314.654 178.217 313.462 177.9 312.162 177.9C309.979 177.9 308.196 178.608 306.812 180.025C305.429 181.442 304.737 183.183 304.737 185.25C304.737 187.317 305.429 189.058 306.812 190.475C308.196 191.892 309.979 192.6 312.162 192.6C313.462 192.6 314.654 192.283 315.737 191.65C316.821 191.017 317.637 190.167 318.187 189.1L319.737 189.975C319.021 191.292 317.979 192.342 316.612 193.125C315.262 193.908 313.779 194.3 312.162 194.3ZM333.371 176.5V178.15H327.996V194H326.246V178.15H320.871V176.5H333.371ZM347.122 194V179.75L337.372 194H335.872V176.5H337.622V190.75L347.372 176.5H348.872V194H347.122ZM362.739 176.5H364.489V194H362.739V186.625C361.223 187.375 359.639 187.75 357.989 187.75C356.323 187.75 354.989 187.283 353.989 186.35C352.989 185.417 352.489 184.217 352.489 182.75V176.5H354.239V182.75C354.239 183.767 354.564 184.583 355.214 185.2C355.881 185.8 356.806 186.1 357.989 186.1C359.639 186.1 361.223 185.725 362.739 184.975V176.5ZM370.239 192.35H378.739V194H368.489V176.5H378.614V178.15H370.239V184.35H377.989V186H370.239V192.35ZM389.799 194.3C387.149 194.3 384.957 193.425 383.224 191.675C381.491 189.925 380.624 187.783 380.624 185.25C380.624 182.717 381.491 180.575 383.224 178.825C384.957 177.075 387.149 176.2 389.799 176.2C391.416 176.2 392.899 176.592 394.249 177.375C395.599 178.142 396.641 179.183 397.374 180.5L395.824 181.4C395.274 180.333 394.457 179.483 393.374 178.85C392.291 178.217 391.099 177.9 389.799 177.9C387.616 177.9 385.832 178.608 384.449 180.025C383.066 181.442 382.374 183.183 382.374 185.25C382.374 187.317 383.066 189.058 384.449 190.475C385.832 191.892 387.616 192.6 389.799 192.6C391.099 192.6 392.291 192.283 393.374 191.65C394.457 191.017 395.274 190.167 395.824 189.1L397.374 189.975C396.657 191.292 395.616 192.342 394.249 193.125C392.899 193.908 391.416 194.3 389.799 194.3ZM412.502 194H410.202L402.002 185.525V194H400.252V176.5H402.002V184.5L409.952 176.5H412.252L403.852 185L412.502 194ZM427.74 191.675C425.99 193.425 423.848 194.3 421.315 194.3C418.781 194.3 416.64 193.425 414.89 191.675C413.14 189.908 412.265 187.767 412.265 185.25C412.265 182.733 413.14 180.6 414.89 178.85C416.64 177.083 418.781 176.2 421.315 176.2C423.848 176.2 425.99 177.083 427.74 178.85C429.49 180.6 430.365 182.733 430.365 185.25C430.365 187.767 429.49 189.908 427.74 191.675ZM416.115 190.475C417.515 191.892 419.248 192.6 421.315 192.6C423.381 192.6 425.115 191.892 426.515 190.475C427.915 189.042 428.615 187.3 428.615 185.25C428.615 183.2 427.915 181.467 426.515 180.05C425.115 178.617 423.381 177.9 421.315 177.9C419.248 177.9 417.515 178.617 416.115 180.05C414.715 181.467 414.015 183.2 414.015 185.25C414.015 187.3 414.715 189.042 416.115 190.475ZM435.107 192.35H443.607V194H433.357V176.5H443.482V178.15H435.107V184.35H442.857V186H435.107V192.35Z" fill="white"/>
<path d="M105 312.5C105 296.208 118.208 283 134.5 283H272.5C288.792 283 302 296.208 302 312.5V312.5C302 328.792 288.792 342 272.5 342H134.5C118.208 342 105 328.792 105 312.5V312.5Z" fill="#898989"/>
<path d="M144.5 303.5V321H142.75V305.15H133.75V321H132V303.5H144.5ZM150.254 319.35H158.754V321H148.504V303.5H158.629V305.15H150.254V311.35H158.004V313H150.254V319.35ZM171.636 303.5H173.386V321H171.636V313.625C170.119 314.375 168.536 314.75 166.886 314.75C165.219 314.75 163.886 314.283 162.886 313.35C161.886 312.417 161.386 311.217 161.386 309.75V303.5H163.136V309.75C163.136 310.767 163.461 311.583 164.111 312.2C164.777 312.8 165.702 313.1 166.886 313.1C168.536 313.1 170.119 312.725 171.636 311.975V303.5ZM189.036 321L187.411 316.7H179.111L177.486 321H175.636L182.361 303.5H184.161L190.886 321H189.036ZM179.736 315.05H186.786L183.261 305.675L179.736 315.05ZM191.508 321V319.45C192.724 319.617 193.633 319.242 194.233 318.325C194.849 317.392 195.158 315.692 195.158 313.225V303.5H206.508V321H204.758V305.15H196.908V313.275C196.908 314.858 196.783 316.183 196.533 317.25C196.283 318.317 195.908 319.133 195.408 319.7C194.924 320.25 194.366 320.625 193.733 320.825C193.116 321.008 192.374 321.067 191.508 321ZM216.766 310C218.332 310 219.641 310.525 220.691 311.575C221.741 312.625 222.266 313.933 222.266 315.5C222.266 317.067 221.741 318.375 220.691 319.425C219.641 320.475 218.332 321 216.766 321H210.516V303.5H212.266V310H216.766ZM216.766 319.35C217.849 319.35 218.741 318.992 219.441 318.275C220.157 317.542 220.516 316.617 220.516 315.5C220.516 314.383 220.157 313.467 219.441 312.75C218.741 312.017 217.849 311.65 216.766 311.65H212.266V319.35H216.766ZM236.512 303.5H238.262V321H236.512V312.825H227.012V321H225.262V303.5H227.012V311.175H236.512V303.5ZM242.254 321V303.5H244.004V310H248.504C250.071 310 251.379 310.525 252.429 311.575C253.479 312.625 254.004 313.933 254.004 315.5C254.004 317.067 253.479 318.375 252.429 319.425C251.379 320.475 250.071 321 248.504 321H242.254ZM255.879 321V303.5H257.629V321H255.879ZM244.004 319.35H248.504C249.587 319.35 250.479 318.992 251.179 318.275C251.896 317.542 252.254 316.617 252.254 315.5C252.254 314.383 251.896 313.467 251.179 312.75C250.479 312.017 249.587 311.65 248.504 311.65H244.004V319.35ZM264.889 301.5V300.05H271.389V301.5H264.889ZM272.889 321V306.75L263.139 321H261.639V303.5H263.389V317.75L273.139 303.5H274.639V321H272.889Z" fill="white"/>
<path d="M25 376.5C25 360.208 38.2076 347 54.5 347H239.5C255.792 347 269 360.208 269 376.5V376.5C269 392.792 255.792 406 239.5 406H54.5C38.2076 406 25 392.792 25 376.5V376.5Z" fill="#898989"/>
<path d="M63.65 385L62.025 380.7H53.725L52.1 385H50.25L56.975 367.5H58.775L65.5 385H63.65ZM54.35 379.05H61.4L57.875 369.675L54.35 379.05ZM77.4971 367.5V369.15H69.4971V385H67.7471V367.5H77.4971ZM86.2529 367.5C87.8196 367.5 89.1279 368.025 90.1779 369.075C91.2279 370.125 91.7529 371.433 91.7529 373C91.7529 374.567 91.2279 375.875 90.1779 376.925C89.1279 377.975 87.8196 378.5 86.2529 378.5H81.7529V385H80.0029V367.5H86.2529ZM86.2529 376.85C87.3363 376.85 88.2279 376.492 88.9279 375.775C89.6446 375.042 90.0029 374.117 90.0029 373C90.0029 371.883 89.6446 370.967 88.9279 370.25C88.2279 369.517 87.3363 369.15 86.2529 369.15H81.7529V376.85H86.2529ZM106.999 385H104.699L96.499 376.525V385H94.749V367.5H96.499V375.5L104.449 367.5H106.749L98.349 376L106.999 385ZM111.001 383.35H119.501V385H109.251V367.5H119.376V369.15H111.001V375.35H118.751V377H111.001V383.35ZM130.561 385.3C127.911 385.3 125.719 384.425 123.986 382.675C122.252 380.925 121.386 378.783 121.386 376.25C121.386 373.717 122.252 371.575 123.986 369.825C125.719 368.075 127.911 367.2 130.561 367.2C132.177 367.2 133.661 367.592 135.011 368.375C136.361 369.142 137.402 370.183 138.136 371.5L136.586 372.4C136.036 371.333 135.219 370.483 134.136 369.85C133.052 369.217 131.861 368.9 130.561 368.9C128.377 368.9 126.594 369.608 125.211 371.025C123.827 372.442 123.136 374.183 123.136 376.25C123.136 378.317 123.827 380.058 125.211 381.475C126.594 382.892 128.377 383.6 130.561 383.6C131.861 383.6 133.052 383.283 134.136 382.65C135.219 382.017 136.036 381.167 136.586 380.1L138.136 380.975C137.419 382.292 136.377 383.342 135.011 384.125C133.661 384.908 132.177 385.3 130.561 385.3ZM149.189 385.3C146.539 385.3 144.347 384.425 142.614 382.675C140.88 380.925 140.014 378.783 140.014 376.25C140.014 373.717 140.88 371.575 142.614 369.825C144.347 368.075 146.539 367.2 149.189 367.2C150.805 367.2 152.289 367.592 153.639 368.375C154.989 369.142 156.03 370.183 156.764 371.5L155.214 372.4C154.664 371.333 153.847 370.483 152.764 369.85C151.68 369.217 150.489 368.9 149.189 368.9C147.005 368.9 145.222 369.608 143.839 371.025C142.455 372.442 141.764 374.183 141.764 376.25C141.764 378.317 142.455 380.058 143.839 381.475C145.222 382.892 147.005 383.6 149.189 383.6C150.489 383.6 151.68 383.283 152.764 382.65C153.847 382.017 154.664 381.167 155.214 380.1L156.764 380.975C156.047 382.292 155.005 383.342 153.639 384.125C152.289 384.908 150.805 385.3 149.189 385.3ZM170.892 385V370.75L161.142 385H159.642V367.5H161.392V381.75L171.142 367.5H172.642V385H170.892ZM186.334 375.925C187.184 376.292 187.859 376.85 188.359 377.6C188.875 378.333 189.134 379.175 189.134 380.125C189.134 381.475 188.659 382.625 187.709 383.575C186.759 384.525 185.609 385 184.259 385H176.634V367.5H183.684C184.984 367.5 186.092 367.967 187.009 368.9C187.925 369.817 188.384 370.917 188.384 372.2C188.384 373.833 187.7 375.075 186.334 375.925ZM183.684 369.15H178.384V375.25H183.684C184.5 375.25 185.192 374.958 185.759 374.375C186.342 373.775 186.634 373.05 186.634 372.2C186.634 371.367 186.342 370.65 185.759 370.05C185.192 369.45 184.5 369.15 183.684 369.15ZM184.259 383.35C185.125 383.35 185.859 383.042 186.459 382.425C187.075 381.792 187.384 381.025 187.384 380.125C187.384 379.242 187.075 378.483 186.459 377.85C185.859 377.217 185.125 376.9 184.259 376.9H178.384V383.35H184.259ZM203.387 367.5H205.137V385H203.387V376.825H193.887V385H192.137V367.5H193.887V375.175H203.387V367.5ZM209.129 385V367.5H210.879V374H215.379C216.946 374 218.254 374.525 219.304 375.575C220.354 376.625 220.879 377.933 220.879 379.5C220.879 381.067 220.354 382.375 219.304 383.425C218.254 384.475 216.946 385 215.379 385H209.129ZM222.754 385V367.5H224.504V385H222.754ZM210.879 383.35H215.379C216.462 383.35 217.354 382.992 218.054 382.275C218.771 381.542 219.129 380.617 219.129 379.5C219.129 378.383 218.771 377.467 218.054 376.75C217.354 376.017 216.462 375.65 215.379 375.65H210.879V383.35ZM231.764 365.5V364.05H238.264V365.5H231.764ZM239.764 385V370.75L230.014 385H228.514V367.5H230.264V381.75L240.014 367.5H241.514V385H239.764Z" fill="white"/>
<path d="M273 376.5C273 360.208 286.208 347 302.5 347H430.5C446.792 347 460 360.208 460 376.5V376.5C460 392.792 446.792 406 430.5 406H302.5C286.208 406 273 392.792 273 376.5V376.5Z" fill="#898989"/>
<path d="M312.5 367.5V385H310.75V369.15H301.75V385H300V367.5H312.5ZM328.154 385L326.529 380.7H318.229L316.604 385H314.754L321.479 367.5H323.279L330.004 385H328.154ZM318.854 379.05H325.904L322.379 369.675L318.854 379.05ZM338.501 367.5C340.068 367.5 341.376 368.025 342.426 369.075C343.476 370.125 344.001 371.433 344.001 373C344.001 374.567 343.476 375.875 342.426 376.925C341.376 377.975 340.068 378.5 338.501 378.5H334.001V385H332.251V367.5H338.501ZM338.501 376.85C339.584 376.85 340.476 376.492 341.176 375.775C341.893 375.042 342.251 374.117 342.251 373C342.251 371.883 341.893 370.967 341.176 370.25C340.476 369.517 339.584 369.15 338.501 369.15H334.001V376.85H338.501ZM364.997 367.5H366.747V385H346.997V367.5H348.747V383.35H355.997V367.5H357.747V383.35H364.997V367.5ZM382.002 385V370.75L372.252 385H370.752V367.5H372.502V381.75L382.252 367.5H383.752V385H382.002ZM397.444 375.925C398.294 376.292 398.969 376.85 399.469 377.6C399.986 378.333 400.244 379.175 400.244 380.125C400.244 381.475 399.769 382.625 398.819 383.575C397.869 384.525 396.719 385 395.369 385H387.744V367.5H394.794C396.094 367.5 397.202 367.967 398.119 368.9C399.036 369.817 399.494 370.917 399.494 372.2C399.494 373.833 398.811 375.075 397.444 375.925ZM394.794 369.15H389.494V375.25H394.794C395.611 375.25 396.302 374.958 396.869 374.375C397.452 373.775 397.744 373.05 397.744 372.2C397.744 371.367 397.452 370.65 396.869 370.05C396.302 369.45 395.611 369.15 394.794 369.15ZM395.369 383.35C396.236 383.35 396.969 383.042 397.569 382.425C398.186 381.792 398.494 381.025 398.494 380.125C398.494 379.242 398.186 378.483 397.569 377.85C396.969 377.217 396.236 376.9 395.369 376.9H389.494V383.35H395.369ZM417.722 382.675C415.972 384.425 413.83 385.3 411.297 385.3C408.764 385.3 406.622 384.425 404.872 382.675C403.122 380.908 402.247 378.767 402.247 376.25C402.247 373.733 403.122 371.6 404.872 369.85C406.622 368.083 408.764 367.2 411.297 367.2C413.83 367.2 415.972 368.083 417.722 369.85C419.472 371.6 420.347 373.733 420.347 376.25C420.347 378.767 419.472 380.908 417.722 382.675ZM406.097 381.475C407.497 382.892 409.23 383.6 411.297 383.6C413.364 383.6 415.097 382.892 416.497 381.475C417.897 380.042 418.597 378.3 418.597 376.25C418.597 374.2 417.897 372.467 416.497 371.05C415.097 369.617 413.364 368.9 411.297 368.9C409.23 368.9 407.497 369.617 406.097 371.05C404.697 372.467 403.997 374.2 403.997 376.25C403.997 378.3 404.697 380.042 406.097 381.475ZM425.09 383.35H433.59V385H423.34V367.5H433.465V369.15H425.09V375.35H432.84V377H425.09V383.35Z" fill="white"/>
<path d="M306 312.5C306 296.208 319.208 283 335.5 283H440.5C456.792 283 470 296.208 470 312.5V312.5C470 328.792 456.792 342 440.5 342H335.5C319.208 342 306 328.792 306 312.5V312.5Z" fill="#898989"/>
<path d="M349 303.5V321H347.25V306.15L341.125 316.4H340.875L334.75 306.15V321H333V303.5H335.175L341 313.25L346.825 303.5H349ZM359.245 303.5C360.812 303.5 362.12 304.025 363.17 305.075C364.22 306.125 364.745 307.433 364.745 309C364.745 310.567 364.22 311.875 363.17 312.925C362.12 313.975 360.812 314.5 359.245 314.5H354.745V321H352.995V303.5H359.245ZM359.245 312.85C360.328 312.85 361.22 312.492 361.92 311.775C362.637 311.042 362.995 310.117 362.995 309C362.995 307.883 362.637 306.967 361.92 306.25C361.22 305.517 360.328 305.15 359.245 305.15H354.745V312.85H359.245ZM377.633 321L376.008 316.7H367.708L366.083 321H364.233L370.958 303.5H372.758L379.483 321H377.633ZM368.333 315.05H375.383L371.858 305.675L368.333 315.05ZM390.36 303.5H392.11V321H390.36V313.625C388.844 314.375 387.26 314.75 385.61 314.75C383.944 314.75 382.61 314.283 381.61 313.35C380.61 312.417 380.11 311.217 380.11 309.75V303.5H381.86V309.75C381.86 310.767 382.185 311.583 382.835 312.2C383.502 312.8 384.427 313.1 385.61 313.1C387.26 313.1 388.844 312.725 390.36 311.975V303.5ZM407.36 303.5H409.11V321H407.36V312.825H397.86V321H396.11V303.5H397.86V311.175H407.36V303.5ZM427.578 318.675C425.828 320.425 423.686 321.3 421.153 321.3C418.619 321.3 416.478 320.425 414.728 318.675C412.978 316.908 412.103 314.767 412.103 312.25C412.103 309.733 412.978 307.6 414.728 305.85C416.478 304.083 418.619 303.2 421.153 303.2C423.686 303.2 425.828 304.083 427.578 305.85C429.328 307.6 430.203 309.733 430.203 312.25C430.203 314.767 429.328 316.908 427.578 318.675ZM415.953 317.475C417.353 318.892 419.086 319.6 421.153 319.6C423.219 319.6 424.953 318.892 426.353 317.475C427.753 316.042 428.453 314.3 428.453 312.25C428.453 310.2 427.753 308.467 426.353 307.05C424.953 305.617 423.219 304.9 421.153 304.9C419.086 304.9 417.353 305.617 415.953 307.05C414.553 308.467 413.853 310.2 413.853 312.25C413.853 314.3 414.553 316.042 415.953 317.475ZM434.945 319.35H443.445V321H433.195V303.5H443.32V305.15H434.945V311.35H442.695V313H434.945V319.35Z" fill="white"/>
<path d="M25 248.5C25 232.208 38.2076 219 54.5 219H193.5C209.792 219 223 232.208 223 248.5V248.5C223 264.792 209.792 278 193.5 278H54.5C38.2076 278 25 264.792 25 248.5V248.5Z" fill="#898989"/>
<path d="M63 239.5V241.15H57.625V257H55.875V241.15H50.5V239.5H63ZM71.751 239.5C73.3176 239.5 74.626 240.025 75.676 241.075C76.726 242.125 77.251 243.433 77.251 245C77.251 246.567 76.726 247.875 75.676 248.925C74.626 249.975 73.3176 250.5 71.751 250.5H67.251V257H65.501V239.5H71.751ZM71.751 248.85C72.8343 248.85 73.726 248.492 74.426 247.775C75.1426 247.042 75.501 246.117 75.501 245C75.501 243.883 75.1426 242.967 74.426 242.25C73.726 241.517 72.8343 241.15 71.751 241.15H67.251V248.85H71.751ZM81.9971 255.35H90.4971V257H80.2471V239.5H90.3721V241.15H81.9971V247.35H89.7471V249H81.9971V255.35ZM103.204 247.925C104.054 248.292 104.729 248.85 105.229 249.6C105.746 250.333 106.004 251.175 106.004 252.125C106.004 253.475 105.529 254.625 104.579 255.575C103.629 256.525 102.479 257 101.129 257H93.5039V239.5H100.554C101.854 239.5 102.962 239.967 103.879 240.9C104.796 241.817 105.254 242.917 105.254 244.2C105.254 245.833 104.571 247.075 103.204 247.925ZM100.554 241.15H95.2539V247.25H100.554C101.371 247.25 102.062 246.958 102.629 246.375C103.212 245.775 103.504 245.05 103.504 244.2C103.504 243.367 103.212 242.65 102.629 242.05C102.062 241.45 101.371 241.15 100.554 241.15ZM101.129 255.35C101.996 255.35 102.729 255.042 103.329 254.425C103.946 253.792 104.254 253.025 104.254 252.125C104.254 251.242 103.946 250.483 103.329 249.85C102.729 249.217 101.996 248.9 101.129 248.9H95.2539V255.35H101.129ZM123.482 254.675C121.732 256.425 119.59 257.3 117.057 257.3C114.524 257.3 112.382 256.425 110.632 254.675C108.882 252.908 108.007 250.767 108.007 248.25C108.007 245.733 108.882 243.6 110.632 241.85C112.382 240.083 114.524 239.2 117.057 239.2C119.59 239.2 121.732 240.083 123.482 241.85C125.232 243.6 126.107 245.733 126.107 248.25C126.107 250.767 125.232 252.908 123.482 254.675ZM111.857 253.475C113.257 254.892 114.99 255.6 117.057 255.6C119.124 255.6 120.857 254.892 122.257 253.475C123.657 252.042 124.357 250.3 124.357 248.25C124.357 246.2 123.657 244.467 122.257 243.05C120.857 241.617 119.124 240.9 117.057 240.9C114.99 240.9 113.257 241.617 111.857 243.05C110.457 244.467 109.757 246.2 109.757 248.25C109.757 250.3 110.457 252.042 111.857 253.475ZM146.36 257H144.31L137.11 248.45V257H135.36V248.45L128.16 257H126.11L133.635 248L126.36 239.5H128.41L135.36 247.575V239.5H137.11V247.575L144.06 239.5H146.11L138.835 248L146.36 257ZM160.101 239.5H161.851V257H160.101V248.825H150.601V257H148.851V239.5H150.601V247.175H160.101V239.5ZM180.318 254.675C178.568 256.425 176.426 257.3 173.893 257.3C171.359 257.3 169.218 256.425 167.468 254.675C165.718 252.908 164.843 250.767 164.843 248.25C164.843 245.733 165.718 243.6 167.468 241.85C169.218 240.083 171.359 239.2 173.893 239.2C176.426 239.2 178.568 240.083 180.318 241.85C182.068 243.6 182.943 245.733 182.943 248.25C182.943 250.767 182.068 252.908 180.318 254.675ZM168.693 253.475C170.093 254.892 171.826 255.6 173.893 255.6C175.959 255.6 177.693 254.892 179.093 253.475C180.493 252.042 181.193 250.3 181.193 248.25C181.193 246.2 180.493 244.467 179.093 243.05C177.693 241.617 175.959 240.9 173.893 240.9C171.826 240.9 170.093 241.617 168.693 243.05C167.293 244.467 166.593 246.2 166.593 248.25C166.593 250.3 167.293 252.042 168.693 253.475ZM187.686 255.35H196.186V257H185.936V239.5H196.061V241.15H187.686V247.35H195.436V249H187.686V255.35Z" fill="white"/>
<path d="M301 120.5C301 104.208 314.208 91 330.5 91H440.5C456.792 91 470 104.208 470 120.5V120.5C470 136.792 456.792 150 440.5 150H330.5C314.208 150 301 136.792 301 120.5V120.5Z" fill="#898989"/>
<path d="M342.475 126.675C340.725 128.425 338.583 129.3 336.05 129.3C333.517 129.3 331.375 128.425 329.625 126.675C327.875 124.908 327 122.767 327 120.25C327 117.733 327.875 115.6 329.625 113.85C331.375 112.083 333.517 111.2 336.05 111.2C338.583 111.2 340.725 112.083 342.475 113.85C344.225 115.6 345.1 117.733 345.1 120.25C345.1 122.767 344.225 124.908 342.475 126.675ZM330.85 125.475C332.25 126.892 333.983 127.6 336.05 127.6C338.117 127.6 339.85 126.892 341.25 125.475C342.65 124.042 343.35 122.3 343.35 120.25C343.35 118.2 342.65 116.467 341.25 115.05C339.85 113.617 338.117 112.9 336.05 112.9C333.983 112.9 332.25 113.617 330.85 115.05C329.45 116.467 328.75 118.2 328.75 120.25C328.75 122.3 329.45 124.042 330.85 125.475ZM355.679 119.95C356.646 120.317 357.396 120.875 357.929 121.625C358.463 122.375 358.729 123.258 358.729 124.275C358.729 125.742 358.179 126.95 357.079 127.9C355.996 128.833 354.529 129.3 352.679 129.3C351.013 129.3 349.679 128.925 348.679 128.175C347.679 127.425 346.988 126.483 346.604 125.35L348.104 124.5C348.321 125.383 348.788 126.133 349.504 126.75C350.238 127.35 351.296 127.65 352.679 127.65C354.046 127.65 355.104 127.342 355.854 126.725C356.604 126.092 356.979 125.275 356.979 124.275C356.979 123.275 356.629 122.467 355.929 121.85C355.246 121.217 354.296 120.9 353.079 120.9H351.079V119.25H352.454C353.638 119.25 354.579 118.95 355.279 118.35C355.979 117.75 356.329 116.975 356.329 116.025C356.329 115.092 355.988 114.333 355.304 113.75C354.638 113.15 353.721 112.85 352.554 112.85C350.404 112.85 348.988 113.767 348.304 115.6L346.854 114.75C347.288 113.683 347.971 112.825 348.904 112.175C349.854 111.525 351.071 111.2 352.554 111.2C354.204 111.2 355.538 111.667 356.554 112.6C357.571 113.517 358.079 114.667 358.079 116.05C358.079 117.8 357.279 119.1 355.679 119.95ZM376.215 126.675C374.465 128.425 372.324 129.3 369.79 129.3C367.257 129.3 365.115 128.425 363.365 126.675C361.615 124.908 360.74 122.767 360.74 120.25C360.74 117.733 361.615 115.6 363.365 113.85C365.115 112.083 367.257 111.2 369.79 111.2C372.324 111.2 374.465 112.083 376.215 113.85C377.965 115.6 378.84 117.733 378.84 120.25C378.84 122.767 377.965 124.908 376.215 126.675ZM364.59 125.475C365.99 126.892 367.724 127.6 369.79 127.6C371.857 127.6 373.59 126.892 374.99 125.475C376.39 124.042 377.09 122.3 377.09 120.25C377.09 118.2 376.39 116.467 374.99 115.05C373.59 113.617 371.857 112.9 369.79 112.9C367.724 112.9 365.99 113.617 364.59 115.05C363.19 116.467 362.49 118.2 362.49 120.25C362.49 122.3 363.19 124.042 364.59 125.475ZM388.083 111.5C389.65 111.5 390.958 112.025 392.008 113.075C393.058 114.125 393.583 115.433 393.583 117C393.583 118.567 393.058 119.875 392.008 120.925C390.958 121.975 389.65 122.5 388.083 122.5H383.583V129H381.833V111.5H388.083ZM388.083 120.85C389.166 120.85 390.058 120.492 390.758 119.775C391.475 119.042 391.833 118.117 391.833 117C391.833 115.883 391.475 114.967 390.758 114.25C390.058 113.517 389.166 113.15 388.083 113.15H383.583V120.85H388.083ZM407.829 111.5H409.579V129H407.829V120.825H398.329V129H396.579V111.5H398.329V119.175H407.829V111.5ZM428.046 126.675C426.296 128.425 424.155 129.3 421.621 129.3C419.088 129.3 416.946 128.425 415.196 126.675C413.446 124.908 412.571 122.767 412.571 120.25C412.571 117.733 413.446 115.6 415.196 113.85C416.946 112.083 419.088 111.2 421.621 111.2C424.155 111.2 426.296 112.083 428.046 113.85C429.796 115.6 430.671 117.733 430.671 120.25C430.671 122.767 429.796 124.908 428.046 126.675ZM416.421 125.475C417.821 126.892 419.555 127.6 421.621 127.6C423.688 127.6 425.421 126.892 426.821 125.475C428.221 124.042 428.921 122.3 428.921 120.25C428.921 118.2 428.221 116.467 426.821 115.05C425.421 113.617 423.688 112.9 421.621 112.9C419.555 112.9 417.821 113.617 416.421 115.05C415.021 116.467 414.321 118.2 414.321 120.25C414.321 122.3 415.021 124.042 416.421 125.475ZM435.414 127.35H443.914V129H433.664V111.5H443.789V113.15H435.414V119.35H443.164V121H435.414V127.35Z" fill="white"/>
</svg>
