<svg width="315" height="226" viewBox="0 0 315 226" fill="none" xmlns="http://www.w3.org/2000/svg">
<path d="M0 0H315V226H0V0Z" fill="#8485E8"/>
<mask id="path-2-inside-1_649_47" fill="white">
<path fill-rule="evenodd" clip-rule="evenodd" d="M246.686 40.3146C230.007 23.6363 208.132 13.1549 184.684 10.6062C161.235 8.05751 137.619 13.5944 117.747 26.3001L126.618 40.174C129.313 37.5888 132.971 36.0002 137 36.0002C145.284 36.0002 152 42.7159 152 51.0002C152 57.3535 148.05 62.7843 142.472 64.9708L173.5 113.5L186.251 100.749C179.28 99.4578 174 93.3456 174 86.0002C174 77.7159 180.716 71.0002 189 71.0002C196.345 71.0002 202.458 76.2799 203.749 83.2515L246.686 40.3146Z"/>
</mask>
<path fill-rule="evenodd" clip-rule="evenodd" d="M246.686 40.3146C230.007 23.6363 208.132 13.1549 184.684 10.6062C161.235 8.05751 137.619 13.5944 117.747 26.3001L126.618 40.174C129.313 37.5888 132.971 36.0002 137 36.0002C145.284 36.0002 152 42.7159 152 51.0002C152 57.3535 148.05 62.7843 142.472 64.9708L173.5 113.5L186.251 100.749C179.28 99.4578 174 93.3456 174 86.0002C174 77.7159 180.716 71.0002 189 71.0002C196.345 71.0002 202.458 76.2799 203.749 83.2515L246.686 40.3146Z" fill="#FDDC3E"/>
<path d="M184.684 10.6062L184.36 13.5886L184.36 13.5886L184.684 10.6062ZM246.686 40.3146L248.807 42.4359L250.928 40.3146L248.807 38.1933L246.686 40.3146ZM117.747 26.3001L116.131 23.7725L113.604 25.3885L115.22 27.9161L117.747 26.3001ZM126.618 40.174L124.09 41.79L126.058 44.8679L128.694 42.3389L126.618 40.174ZM142.472 64.9708L141.377 62.1777L137.977 63.5103L139.944 66.5868L142.472 64.9708ZM173.5 113.5L170.972 115.116L172.983 118.26L175.621 115.621L173.5 113.5ZM186.251 100.749L188.373 102.87L192.405 98.8376L186.798 97.7991L186.251 100.749ZM203.749 83.2515L200.799 83.7978L201.837 89.4054L205.87 85.3728L203.749 83.2515ZM184.36 13.5886C207.129 16.0634 228.369 26.241 244.564 42.4359L248.807 38.1933C231.645 21.0315 209.136 10.2463 185.008 7.62375L184.36 13.5886ZM119.363 28.8276C138.659 16.4903 161.591 11.1138 184.36 13.5886L185.008 7.62375C160.88 5.0012 136.579 10.6986 116.131 23.7725L119.363 28.8276ZM129.145 38.5579L120.275 24.684L115.22 27.9161L124.09 41.79L129.145 38.5579ZM128.694 42.3389C130.853 40.2681 133.775 39.0002 137 39.0002V33.0002C132.166 33.0002 127.772 34.9096 124.541 38.009L128.694 42.3389ZM137 39.0002C143.627 39.0002 149 44.3728 149 51.0002H155C155 41.059 146.941 33.0002 137 33.0002V39.0002ZM149 51.0002C149 56.0781 145.845 60.4265 141.377 62.1777L143.567 67.7639C150.255 65.1422 155 58.6289 155 51.0002H149ZM176.028 111.884L144.999 63.3548L139.944 66.5868L170.972 115.116L176.028 111.884ZM184.13 98.6276L171.379 111.379L175.621 115.621L188.373 102.87L184.13 98.6276ZM171 86.0002C171 94.8179 177.337 102.149 185.705 103.699L186.798 97.7991C181.222 96.7665 177 91.8732 177 86.0002H171ZM189 68.0002C179.059 68.0002 171 76.059 171 86.0002H177C177 79.3728 182.373 74.0002 189 74.0002V68.0002ZM206.699 82.7052C205.149 74.3375 197.818 68.0002 189 68.0002V74.0002C194.873 74.0002 199.766 78.2223 200.799 83.7978L206.699 82.7052ZM244.564 38.1933L201.627 81.1301L205.87 85.3728L248.807 42.4359L244.564 38.1933Z" fill="white" mask="url(#path-2-inside-1_649_47)"/>
<mask id="path-4-inside-2_649_47" fill="white">
<path fill-rule="evenodd" clip-rule="evenodd" d="M246.686 186.686C233.244 200.127 216.383 209.586 197.971 214.066C197.489 206.217 190.97 200 183 200C174.716 200 168 206.716 168 215C168 215.63 168.039 216.251 168.114 216.86C156.194 216.239 144.406 213.557 133.29 208.87L173.5 113.5L198.999 139C195.356 141.736 193 146.093 193 151C193 159.285 199.716 166 208 166C212.907 166 217.264 163.644 220.001 160.001L246.686 186.686Z"/>
</mask>
<path fill-rule="evenodd" clip-rule="evenodd" d="M246.686 186.686C233.244 200.127 216.383 209.586 197.971 214.066C197.489 206.217 190.97 200 183 200C174.716 200 168 206.716 168 215C168 215.63 168.039 216.251 168.114 216.86C156.194 216.239 144.406 213.557 133.29 208.87L173.5 113.5L198.999 139C195.356 141.736 193 146.093 193 151C193 159.285 199.716 166 208 166C212.907 166 217.264 163.644 220.001 160.001L246.686 186.686Z" fill="#FDDC3E"/>
<path d="M197.971 214.066L194.977 214.25L195.197 217.828L198.681 216.981L197.971 214.066ZM246.686 186.686L248.807 188.807L250.928 186.686L248.807 184.564L246.686 186.686ZM168.114 216.86L167.958 219.856L171.531 220.042L171.091 216.492L168.114 216.86ZM133.29 208.87L130.525 207.704L129.36 210.469L132.124 211.634L133.29 208.87ZM173.5 113.5L175.621 111.379L172.468 108.226L170.736 112.335L173.5 113.5ZM198.999 139L200.801 141.398L203.565 139.322L201.121 136.878L198.999 139ZM220.001 160.001L222.122 157.88L219.678 155.436L217.602 158.199L220.001 160.001ZM198.681 216.981C217.626 212.371 234.976 202.638 248.807 188.807L244.564 184.564C231.512 197.616 215.14 206.801 197.262 211.151L198.681 216.981ZM183 203C189.375 203 194.591 207.973 194.977 214.25L200.966 213.882C200.387 204.46 192.566 197 183 197V203ZM171 215C171 208.373 176.373 203 183 203V197C173.059 197 165 205.059 165 215H171ZM171.091 216.492C171.031 216.004 171 215.507 171 215H165C165 215.753 165.046 216.497 165.137 217.228L171.091 216.492ZM132.124 211.634C143.563 216.457 155.692 219.217 167.958 219.856L168.27 213.864C156.695 213.261 145.249 210.657 134.455 206.106L132.124 211.634ZM170.736 112.335L130.525 207.704L136.054 210.035L176.264 114.666L170.736 112.335ZM201.121 136.878L175.621 111.379L171.379 115.622L196.878 141.121L201.121 136.878ZM196 151C196 147.076 197.88 143.593 200.801 141.398L197.198 136.601C192.833 139.88 190 145.11 190 151H196ZM208 163C201.373 163 196 157.628 196 151H190C190 160.941 198.059 169 208 169V163ZM217.602 158.199C215.408 161.12 211.924 163 208 163V169C213.891 169 219.12 166.168 222.399 161.803L217.602 158.199ZM248.807 184.564L222.122 157.88L217.879 162.122L244.564 188.807L248.807 184.564Z" fill="white" mask="url(#path-4-inside-2_649_47)"/>
<mask id="path-6-inside-3_649_47" fill="white">
<path fill-rule="evenodd" clip-rule="evenodd" d="M85.8398 168.527C73.0128 148.093 67.7275 123.82 70.897 99.9029L173.5 113.5L135.818 137.154C133.539 131.774 128.21 128 122 128C113.716 128 107 134.716 107 143C107 146.795 108.409 150.26 110.732 152.901L85.8398 168.527Z"/>
</mask>
<path fill-rule="evenodd" clip-rule="evenodd" d="M85.8398 168.527C73.0128 148.093 67.7275 123.82 70.897 99.9029L173.5 113.5L135.818 137.154C133.539 131.774 128.21 128 122 128C113.716 128 107 134.716 107 143C107 146.795 108.409 150.26 110.732 152.901L85.8398 168.527Z" fill="#FDDC3E"/>
<path d="M70.897 99.9029L71.2912 96.9289L68.3172 96.5348L67.923 99.5088L70.897 99.9029ZM85.8398 168.527L83.2989 170.122L84.8939 172.663L87.4347 171.068L85.8398 168.527ZM173.5 113.5L175.095 116.041L182.14 111.619L173.894 110.526L173.5 113.5ZM135.818 137.154L133.056 138.324L134.43 141.568L137.413 139.695L135.818 137.154ZM110.732 152.901L112.327 155.442L115.313 153.568L112.985 150.92L110.732 152.901ZM67.923 99.5088C64.6616 124.119 70.1002 149.096 83.2989 170.122L88.3806 166.932C75.9255 147.09 70.7933 123.521 73.871 100.297L67.923 99.5088ZM173.894 110.526L71.2912 96.9289L70.5029 102.877L173.106 116.474L173.894 110.526ZM137.413 139.695L175.095 116.041L171.905 110.959L134.223 134.613L137.413 139.695ZM122 131C126.964 131 131.23 134.015 133.056 138.324L138.58 135.984C135.848 129.534 129.457 125 122 125V131ZM110 143C110 136.373 115.373 131 122 131V125C112.059 125 104 133.059 104 143H110ZM112.985 150.92C111.125 148.805 110 146.038 110 143H104C104 147.551 105.693 151.714 108.479 154.883L112.985 150.92ZM87.4347 171.068L112.327 155.442L109.137 150.361L84.2448 165.986L87.4347 171.068Z" fill="white" mask="url(#path-6-inside-3_649_47)"/>
</svg>
