<svg width="383" height="284" viewBox="0 0 383 284" fill="none" xmlns="http://www.w3.org/2000/svg">
<path d="M0 0H383V283.797H0V0Z" fill="#8485E8"/>
<mask id="path-2-inside-1_768_1616" fill="white">
<path fill-rule="evenodd" clip-rule="evenodd" d="M315.945 160.811C306.748 220.609 255.071 266.4 192.7 266.4C149.175 266.4 110.859 244.101 88.5513 210.305C96.045 208.607 101.64 201.907 101.64 193.9C101.64 184.61 94.1094 177.08 84.82 177.08C80.8187 177.08 77.1437 178.477 74.2563 180.81C70.1968 168.509 68 155.361 68 141.7C68 72.8301 123.83 17 192.7 17C202.504 17 212.043 18.1313 221.195 20.2705C208.827 25.9568 200.239 38.4556 200.239 52.96C200.239 72.8202 216.339 88.92 236.199 88.92C256.06 88.92 272.159 72.8202 272.159 52.96C272.159 50.1655 271.841 47.4455 271.238 44.8343C286.289 57.0527 298.437 72.7085 306.486 90.6063C291.962 95.2274 281.44 108.825 281.44 124.88C281.44 144.253 296.759 160.047 315.945 160.811ZM260.56 217.1C260.56 226.389 253.029 233.92 243.74 233.92C234.451 233.92 226.92 226.389 226.92 217.1C226.92 207.811 234.451 200.28 243.74 200.28C253.029 200.28 260.56 207.811 260.56 217.1ZM235.62 173.6C244.909 173.6 252.44 166.069 252.44 156.78C252.44 147.491 244.909 139.96 235.62 139.96C226.331 139.96 218.8 147.491 218.8 156.78C218.8 166.069 226.331 173.6 235.62 173.6ZM165.441 72.1001C165.441 81.3895 157.91 88.9201 148.621 88.9201C139.331 88.9201 131.801 81.3895 131.801 72.1001C131.801 62.8107 139.331 55.2801 148.621 55.2801C157.91 55.2801 165.441 62.8107 165.441 72.1001ZM148.621 244.36C157.91 244.36 165.441 236.83 165.441 227.54C165.441 218.251 157.91 210.72 148.621 210.72C139.331 210.72 131.801 218.251 131.801 227.54C131.801 236.83 139.331 244.36 148.621 244.36ZM142.24 186.36C162.1 186.36 178.2 170.26 178.2 150.4C178.2 130.54 162.1 114.44 142.24 114.44C122.38 114.44 106.28 130.54 106.28 150.4C106.28 170.26 122.38 186.36 142.24 186.36Z"/>
</mask>
<path fill-rule="evenodd" clip-rule="evenodd" d="M315.945 160.811C306.748 220.609 255.071 266.4 192.7 266.4C149.175 266.4 110.859 244.101 88.5513 210.305C96.045 208.607 101.64 201.907 101.64 193.9C101.64 184.61 94.1094 177.08 84.82 177.08C80.8187 177.08 77.1437 178.477 74.2563 180.81C70.1968 168.509 68 155.361 68 141.7C68 72.8301 123.83 17 192.7 17C202.504 17 212.043 18.1313 221.195 20.2705C208.827 25.9568 200.239 38.4556 200.239 52.96C200.239 72.8202 216.339 88.92 236.199 88.92C256.06 88.92 272.159 72.8202 272.159 52.96C272.159 50.1655 271.841 47.4455 271.238 44.8343C286.289 57.0527 298.437 72.7085 306.486 90.6063C291.962 95.2274 281.44 108.825 281.44 124.88C281.44 144.253 296.759 160.047 315.945 160.811ZM260.56 217.1C260.56 226.389 253.029 233.92 243.74 233.92C234.451 233.92 226.92 226.389 226.92 217.1C226.92 207.811 234.451 200.28 243.74 200.28C253.029 200.28 260.56 207.811 260.56 217.1ZM235.62 173.6C244.909 173.6 252.44 166.069 252.44 156.78C252.44 147.491 244.909 139.96 235.62 139.96C226.331 139.96 218.8 147.491 218.8 156.78C218.8 166.069 226.331 173.6 235.62 173.6ZM165.441 72.1001C165.441 81.3895 157.91 88.9201 148.621 88.9201C139.331 88.9201 131.801 81.3895 131.801 72.1001C131.801 62.8107 139.331 55.2801 148.621 55.2801C157.91 55.2801 165.441 62.8107 165.441 72.1001ZM148.621 244.36C157.91 244.36 165.441 236.83 165.441 227.54C165.441 218.251 157.91 210.72 148.621 210.72C139.331 210.72 131.801 218.251 131.801 227.54C131.801 236.83 139.331 244.36 148.621 244.36ZM142.24 186.36C162.1 186.36 178.2 170.26 178.2 150.4C178.2 130.54 162.1 114.44 142.24 114.44C122.38 114.44 106.28 130.54 106.28 150.4C106.28 170.26 122.38 186.36 142.24 186.36Z" fill="#FDDC3E"/>
<path d="M315.945 160.811L319.588 161.371L320.215 157.292L316.091 157.128L315.945 160.811ZM88.5513 210.305L87.7371 206.71L82.5395 207.887L85.4752 212.335L88.5513 210.305ZM74.2563 180.81L70.7563 181.965L72.4268 187.027L76.5728 183.677L74.2563 180.81ZM221.195 20.2705L222.734 23.6192L232.502 19.1284L222.034 16.6815L221.195 20.2705ZM271.238 44.8343L273.56 41.9728L265.232 35.212L267.646 45.6638L271.238 44.8343ZM306.486 90.6063L307.603 94.1185L311.543 92.865L309.847 89.0945L306.486 90.6063ZM192.7 270.086C256.918 270.086 310.118 222.94 319.588 161.371L312.302 160.251C303.377 218.278 253.225 262.714 192.7 262.714V270.086ZM85.4752 212.335C108.436 247.121 147.885 270.086 192.7 270.086V262.714C150.465 262.714 113.282 241.081 91.6274 208.274L85.4752 212.335ZM97.9543 193.9C97.9543 200.148 93.5882 205.385 87.7371 206.71L89.3655 213.899C98.5018 211.83 105.326 203.666 105.326 193.9H97.9543ZM84.82 180.766C92.0739 180.766 97.9543 186.646 97.9543 193.9H105.326C105.326 182.575 96.145 173.394 84.82 173.394V180.766ZM76.5728 183.677C78.8283 181.854 81.692 180.766 84.82 180.766V173.394C79.9454 173.394 75.4591 175.1 71.9399 177.943L76.5728 183.677ZM64.3143 141.7C64.3143 155.758 66.5753 169.296 70.7563 181.965L77.7564 179.655C73.8183 167.722 71.6857 154.964 71.6857 141.7H64.3143ZM192.7 13.3143C121.795 13.3143 64.3143 70.7945 64.3143 141.7H71.6857C71.6857 74.8657 125.866 20.6857 192.7 20.6857V13.3143ZM222.034 16.6815C212.609 14.4785 202.788 13.3143 192.7 13.3143V20.6857C202.219 20.6857 211.477 21.7841 220.356 23.8595L222.034 16.6815ZM203.925 52.96C203.925 39.9478 211.626 28.7265 222.734 23.6192L219.655 16.9217C206.028 23.1871 196.554 36.9633 196.554 52.96H203.925ZM236.199 85.2343C218.375 85.2343 203.925 70.7846 203.925 52.96H196.554C196.554 74.8557 214.304 92.6057 236.199 92.6057V85.2343ZM268.474 52.96C268.474 70.7846 254.024 85.2343 236.199 85.2343V92.6057C258.095 92.6057 275.845 74.8557 275.845 52.96H268.474ZM267.646 45.6638C268.187 48.0049 268.474 50.4467 268.474 52.96H275.845C275.845 49.8844 275.494 46.8861 274.829 44.0048L267.646 45.6638ZM309.847 89.0945C301.559 70.6655 289.053 54.5494 273.56 41.9728L268.915 47.6958C283.525 59.556 295.314 74.7515 303.124 92.118L309.847 89.0945ZM285.126 124.88C285.126 110.476 294.564 98.2671 307.603 94.1185L305.368 87.094C289.359 92.1877 277.755 107.174 277.755 124.88H285.126ZM316.091 157.128C298.875 156.443 285.126 142.266 285.126 124.88H277.755C277.755 146.239 294.644 163.652 315.798 164.494L316.091 157.128ZM243.74 237.606C255.065 237.606 264.246 228.425 264.246 217.1H256.874C256.874 224.354 250.994 230.234 243.74 230.234V237.606ZM223.234 217.1C223.234 228.425 232.415 237.606 243.74 237.606V230.234C236.486 230.234 230.606 224.354 230.606 217.1H223.234ZM243.74 196.594C232.415 196.594 223.234 205.775 223.234 217.1H230.606C230.606 209.846 236.486 203.966 243.74 203.966V196.594ZM264.246 217.1C264.246 205.775 255.065 196.594 243.74 196.594V203.966C250.994 203.966 256.874 209.846 256.874 217.1H264.246ZM248.754 156.78C248.754 164.034 242.874 169.914 235.62 169.914V177.286C246.945 177.286 256.126 168.105 256.126 156.78H248.754ZM235.62 143.646C242.874 143.646 248.754 149.526 248.754 156.78H256.126C256.126 145.455 246.945 136.274 235.62 136.274V143.646ZM222.486 156.78C222.486 149.526 228.366 143.646 235.62 143.646V136.274C224.295 136.274 215.114 145.455 215.114 156.78H222.486ZM235.62 169.914C228.366 169.914 222.486 164.034 222.486 156.78H215.114C215.114 168.105 224.295 177.286 235.62 177.286V169.914ZM148.621 92.6058C159.946 92.6058 169.126 83.4251 169.126 72.1001H161.755C161.755 79.3539 155.874 85.2344 148.621 85.2344V92.6058ZM128.115 72.1001C128.115 83.4251 137.296 92.6058 148.621 92.6058V85.2344C141.367 85.2344 135.486 79.3539 135.486 72.1001H128.115ZM148.621 51.5944C137.296 51.5944 128.115 60.7751 128.115 72.1001H135.486C135.486 64.8462 141.367 58.9658 148.621 58.9658V51.5944ZM169.126 72.1001C169.126 60.7751 159.946 51.5944 148.621 51.5944V58.9658C155.874 58.9658 161.755 64.8462 161.755 72.1001H169.126ZM161.755 227.54C161.755 234.794 155.874 240.674 148.621 240.674V248.046C159.946 248.046 169.126 238.865 169.126 227.54H161.755ZM148.621 214.406C155.874 214.406 161.755 220.286 161.755 227.54H169.126C169.126 216.215 159.946 207.034 148.621 207.034V214.406ZM135.486 227.54C135.486 220.286 141.367 214.406 148.621 214.406V207.034C137.296 207.034 128.115 216.215 128.115 227.54H135.486ZM148.621 240.674C141.367 240.674 135.486 234.794 135.486 227.54H128.115C128.115 238.865 137.296 248.046 148.621 248.046V240.674ZM174.514 150.4C174.514 168.224 160.065 182.674 142.24 182.674V190.046C164.136 190.046 181.886 172.296 181.886 150.4H174.514ZM142.24 118.126C160.065 118.126 174.514 132.575 174.514 150.4H181.886C181.886 128.504 164.136 110.754 142.24 110.754V118.126ZM109.966 150.4C109.966 132.575 124.415 118.126 142.24 118.126V110.754C120.344 110.754 102.594 128.504 102.594 150.4H109.966ZM142.24 182.674C124.415 182.674 109.966 168.224 109.966 150.4H102.594C102.594 172.296 120.344 190.046 142.24 190.046V182.674Z" fill="white" mask="url(#path-2-inside-1_768_1616)"/>
</svg>
