<svg width="383" height="284" viewBox="0 0 383 284" fill="none" xmlns="http://www.w3.org/2000/svg">
<path d="M0 0H383V283.797H0V0Z" fill="#8485E8"/>
<mask id="path-2-inside-1_768_1649" fill="white">
<path fill-rule="evenodd" clip-rule="evenodd" d="M298.68 54.4901C278.605 34.4141 252.274 21.7975 224.048 18.7297C195.823 15.6618 167.396 22.3267 143.476 37.6206L154.153 54.3205C157.397 51.2089 161.8 49.2966 166.65 49.2966C176.622 49.2966 184.706 57.3804 184.706 67.3523C184.706 74.9999 179.951 81.537 173.237 84.1689L210.586 142.584L225.935 127.236C217.543 125.682 211.187 118.324 211.187 109.482C211.187 99.5104 219.271 91.4266 229.243 91.4266C238.085 91.4266 245.443 97.7822 246.996 106.174L298.68 54.4901Z"/>
</mask>
<path fill-rule="evenodd" clip-rule="evenodd" d="M298.68 54.4901C278.605 34.4141 252.274 21.7975 224.048 18.7297C195.823 15.6618 167.396 22.3267 143.476 37.6206L154.153 54.3205C157.397 51.2089 161.8 49.2966 166.65 49.2966C176.622 49.2966 184.706 57.3804 184.706 67.3523C184.706 74.9999 179.951 81.537 173.237 84.1689L210.586 142.584L225.935 127.236C217.543 125.682 211.187 118.324 211.187 109.482C211.187 99.5104 219.271 91.4266 229.243 91.4266C238.085 91.4266 245.443 97.7822 246.996 106.174L298.68 54.4901Z" fill="#FDDC3E"/>
<path d="M298.68 54.4901L301.234 57.0435L303.787 54.4901L301.234 51.9366L298.68 54.4901ZM143.476 37.6206L141.53 34.5781L138.488 36.5234L140.433 39.5658L143.476 37.6206ZM154.153 54.3205L151.111 56.2658L153.479 59.9707L156.653 56.9266L154.153 54.3205ZM173.237 84.1689L171.919 80.8068L167.827 82.4109L170.195 86.1141L173.237 84.1689ZM210.586 142.584L207.544 144.53L209.963 148.314L213.14 145.138L210.586 142.584ZM225.935 127.236L228.488 129.789L233.343 124.935L226.592 123.685L225.935 127.236ZM246.996 106.174L243.446 106.832L244.696 113.582L249.55 108.728L246.996 106.174ZM223.658 22.3196C251.065 25.2986 276.633 37.5495 296.127 57.0435L301.234 51.9366C280.576 31.2787 253.482 18.2965 224.438 15.1397L223.658 22.3196ZM145.421 40.663C168.648 25.8124 196.251 19.3407 223.658 22.3196L224.438 15.1397C195.395 11.9829 166.144 18.8409 141.53 34.5781L145.421 40.663ZM157.195 52.3753L146.518 35.6753L140.433 39.5658L151.111 56.2658L157.195 52.3753ZM156.653 56.9266C159.251 54.434 162.769 52.9077 166.65 52.9077V45.6855C160.832 45.6855 155.543 47.9838 151.653 51.7145L156.653 56.9266ZM166.65 52.9077C174.628 52.9077 181.095 59.3748 181.095 67.3523H188.317C188.317 55.386 178.617 45.6855 166.65 45.6855V52.9077ZM181.095 67.3523C181.095 73.4647 177.297 78.6988 171.919 80.8068L174.555 87.531C182.606 84.3751 188.317 76.5351 188.317 67.3523H181.095ZM213.629 140.639L176.279 82.2236L170.195 86.1141L207.544 144.53L213.629 140.639ZM223.382 124.682L208.033 140.031L213.14 145.138L228.488 129.789L223.382 124.682ZM207.576 109.482C207.576 120.097 215.205 128.921 225.278 130.786L226.592 123.685C219.881 122.442 214.799 116.552 214.799 109.482H207.576ZM229.243 87.8155C217.277 87.8155 207.576 97.516 207.576 109.482H214.799C214.799 101.505 221.266 95.0377 229.243 95.0377V87.8155ZM250.547 105.517C248.682 95.4441 239.857 87.8155 229.243 87.8155V95.0377C236.313 95.0377 242.203 100.12 243.446 106.832L250.547 105.517ZM296.127 51.9366L244.443 103.621L249.55 108.728L301.234 57.0435L296.127 51.9366Z" fill="white" mask="url(#path-2-inside-1_768_1649)"/>
<mask id="path-4-inside-2_768_1649" fill="white">
<path fill-rule="evenodd" clip-rule="evenodd" d="M298.68 230.679C282.5 246.858 262.204 258.243 240.042 263.636C239.461 254.188 231.615 246.705 222.021 246.705C212.049 246.705 203.965 254.789 203.965 264.761C203.965 265.519 204.012 266.266 204.102 267C189.754 266.252 175.565 263.024 162.184 257.382L210.585 142.584L241.279 173.278C236.894 176.572 234.058 181.817 234.058 187.723C234.058 197.695 242.142 205.779 252.114 205.779C258.02 205.779 263.265 202.943 266.559 198.558L298.68 230.679Z"/>
</mask>
<path fill-rule="evenodd" clip-rule="evenodd" d="M298.68 230.679C282.5 246.858 262.204 258.243 240.042 263.636C239.461 254.188 231.615 246.705 222.021 246.705C212.049 246.705 203.965 254.789 203.965 264.761C203.965 265.519 204.012 266.266 204.102 267C189.754 266.252 175.565 263.024 162.184 257.382L210.585 142.584L241.279 173.278C236.894 176.572 234.058 181.817 234.058 187.723C234.058 197.695 242.142 205.779 252.114 205.779C258.02 205.779 263.265 202.943 266.559 198.558L298.68 230.679Z" fill="#FDDC3E"/>
<path d="M240.042 263.636L236.438 263.858L236.702 268.165L240.896 267.145L240.042 263.636ZM298.68 230.679L301.233 233.232L303.787 230.679L301.233 228.125L298.68 230.679ZM204.102 267L203.914 270.606L208.215 270.83L207.686 266.557L204.102 267ZM162.184 257.382L158.856 255.979L157.453 259.306L160.781 260.709L162.184 257.382ZM210.585 142.584L213.139 140.031L209.343 136.235L207.258 141.181L210.585 142.584ZM241.279 173.278L243.448 176.165L246.775 173.667L243.833 170.725L241.279 173.278ZM266.559 198.558L269.112 196.004L266.17 193.062L263.672 196.389L266.559 198.558ZM240.896 267.145C263.701 261.596 284.585 249.881 301.233 233.232L296.126 228.125C280.416 243.836 260.708 254.891 239.188 260.127L240.896 267.145ZM222.021 250.316C229.695 250.316 235.973 256.303 236.438 263.858L243.646 263.415C242.949 252.074 233.535 243.094 222.021 243.094V250.316ZM207.576 264.761C207.576 256.784 214.043 250.316 222.021 250.316V243.094C210.054 243.094 200.354 252.795 200.354 264.761H207.576ZM207.686 266.557C207.614 265.97 207.576 265.371 207.576 264.761H200.354C200.354 265.668 200.41 266.563 200.519 267.443L207.686 266.557ZM160.781 260.709C174.55 266.515 189.15 269.837 203.914 270.606L204.29 263.394C190.357 262.667 176.58 259.533 163.587 254.054L160.781 260.709ZM207.258 141.181L158.856 255.979L165.511 258.785L213.913 143.987L207.258 141.181ZM243.833 170.725L213.139 140.031L208.032 145.138L238.726 175.832L243.833 170.725ZM237.669 187.723C237.669 183 239.932 178.807 243.448 176.165L239.11 170.391C233.856 174.338 230.447 180.633 230.447 187.723H237.669ZM252.114 202.168C244.136 202.168 237.669 195.701 237.669 187.723H230.447C230.447 199.69 240.147 209.39 252.114 209.39V202.168ZM263.672 196.389C261.03 199.905 256.837 202.168 252.114 202.168V209.39C259.204 209.39 265.499 205.981 269.446 200.727L263.672 196.389ZM301.233 228.125L269.112 196.004L264.005 201.111L296.126 233.232L301.233 228.125Z" fill="white" mask="url(#path-4-inside-2_768_1649)"/>
<mask id="path-6-inside-3_768_1649" fill="white">
<path fill-rule="evenodd" clip-rule="evenodd" d="M105.067 208.821C89.6269 184.224 83.2648 155.006 87.0801 126.217L210.585 142.584L165.227 171.056C162.484 164.581 156.07 160.038 148.594 160.038C138.622 160.038 130.539 168.122 130.539 178.094C130.539 182.661 132.234 186.832 135.03 190.012L105.067 208.821Z"/>
</mask>
<path fill-rule="evenodd" clip-rule="evenodd" d="M105.067 208.821C89.6269 184.224 83.2648 155.006 87.0801 126.217L210.585 142.584L165.227 171.056C162.484 164.581 156.07 160.038 148.594 160.038C138.622 160.038 130.539 168.122 130.539 178.094C130.539 182.661 132.234 186.832 135.03 190.012L105.067 208.821Z" fill="#FDDC3E"/>
<path d="M87.0801 126.217L87.5545 122.637L83.9746 122.163L83.5002 125.743L87.0801 126.217ZM105.067 208.821L102.008 210.741L103.928 213.799L106.987 211.879L105.067 208.821ZM210.585 142.584L212.504 145.643L220.984 140.32L211.059 139.004L210.585 142.584ZM165.227 171.056L161.902 172.465L163.556 176.369L167.147 174.115L165.227 171.056ZM135.03 190.012L136.95 193.07L140.545 190.814L137.742 187.627L135.03 190.012ZM83.5002 125.743C79.5743 155.366 86.1208 185.431 102.008 210.741L108.125 206.901C93.1329 183.017 86.9552 154.646 90.6599 126.691L83.5002 125.743ZM211.059 139.004L87.5545 122.637L86.6056 129.797L210.11 146.164L211.059 139.004ZM167.147 174.115L212.504 145.643L208.665 139.526L163.307 167.998L167.147 174.115ZM148.594 163.649C154.569 163.649 159.704 167.277 161.902 172.465L168.552 169.648C165.263 161.884 157.57 156.427 148.594 156.427V163.649ZM134.15 178.094C134.15 170.116 140.617 163.649 148.594 163.649V156.427C136.628 156.427 126.927 166.127 126.927 178.094H134.15ZM137.742 187.627C135.503 185.081 134.15 181.75 134.15 178.094H126.927C126.927 183.572 128.965 188.583 132.319 192.396L137.742 187.627ZM106.987 211.879L136.95 193.07L133.111 186.953L103.147 205.762L106.987 211.879Z" fill="white" mask="url(#path-6-inside-3_768_1649)"/>
</svg>
