<svg width="810" height="86" viewBox="0 0 810 86" fill="none" xmlns="http://www.w3.org/2000/svg">
<path d="M26.007 59.556C27.591 59.556 28.68 59.094 29.274 58.17C29.868 57.18 30.165 55.86 30.165 54.21V43.122H50.064V55.596C50.064 58.302 49.668 60.909 48.876 63.417C48.15 65.859 46.896 68.037 45.114 69.951C43.398 71.799 41.121 73.284 38.283 74.406C35.445 75.528 31.947 76.089 27.789 76.089H24.324C20.034 76.089 16.371 75.594 13.335 74.604C10.365 73.548 7.956 72.03 6.108 70.05C4.26 68.07 2.907 65.661 2.049 62.823C1.257 59.985 0.861 56.751 0.861 53.121V22.728C0.861 19.296 1.257 16.194 2.049 13.422C2.841 10.65 4.128 8.307 5.91 6.393C7.758 4.413 10.167 2.895 13.137 1.839C16.173 0.782996 19.869 0.254995 24.225 0.254995H27.69C31.65 0.254995 35.049 0.716995 37.887 1.64099C40.725 2.56499 43.035 3.885 44.817 5.601C46.665 7.25099 47.985 9.29699 48.777 11.739C49.635 14.181 50.064 16.92 50.064 19.956V30.351H30.165V21.342C30.165 19.89 29.868 18.702 29.274 17.778C28.746 16.788 27.657 16.293 26.007 16.293C24.489 16.293 23.433 16.755 22.839 17.679C22.311 18.603 22.047 19.824 22.047 21.342V54.21C22.047 55.926 22.311 57.246 22.839 58.17C23.433 59.094 24.489 59.556 26.007 59.556ZM108.701 53.814C108.701 57.114 108.206 60.15 107.216 62.922C106.292 65.628 104.84 67.971 102.86 69.951C100.88 71.865 98.3716 73.383 95.3356 74.505C92.3656 75.561 88.8676 76.089 84.8416 76.089H81.2776C77.0536 76.089 73.4236 75.561 70.3876 74.505C67.4176 73.383 64.9426 71.832 62.9626 69.852C61.0486 67.872 59.6296 65.529 58.7056 62.823C57.8476 60.051 57.4186 57.048 57.4186 53.814V22.53C57.4186 15.6 59.2666 10.155 62.9626 6.19499C66.7246 2.23499 72.8296 0.254995 81.2776 0.254995H84.8416C93.0256 0.254995 99.0316 2.23499 102.86 6.19499C106.754 10.089 108.701 15.534 108.701 22.53V53.814ZM87.5146 22.926C87.5146 21.21 87.1846 19.857 86.5246 18.867C85.8646 17.877 84.7096 17.382 83.0596 17.382C81.4096 17.382 80.2546 17.877 79.5946 18.867C78.9346 19.791 78.6046 21.144 78.6046 22.926V53.616C78.6046 55.332 78.9346 56.652 79.5946 57.576C80.3206 58.434 81.4756 58.863 83.0596 58.863C86.0296 58.863 87.5146 57.114 87.5146 53.616V22.926ZM116.987 1.344H137.975V57.675H145.301V1.344H166.289V57.675H173.615V1.344H194.603V75H116.987V1.344ZM242.324 1.344V18.471H223.514V28.272H239.651V45.696H223.514V57.675H242.819V75H203.516V1.344H242.324ZM252.07 57.675C252.466 56.091 252.796 54.573 253.06 53.121C253.39 51.603 253.654 49.92 253.852 48.072C254.116 46.224 254.314 44.046 254.446 41.538C254.644 39.03 254.776 35.961 254.842 32.331C254.974 28.701 255.073 24.378 255.139 19.362C255.205 14.28 255.238 8.274 255.238 1.344H300.679V57.675H306.619V85.692H287.611V75H266.227V85.692H247.219V57.675H252.07ZM279.691 57.675V18.174H273.256C273.256 27.282 273.058 35.037 272.662 41.439C272.332 47.775 271.672 53.187 270.682 57.675H279.691ZM312.57 1.344H333.558V57.675H340.884V1.344H361.872V57.675H369.198V1.344H390.186V75H312.57V1.344ZM433.056 52.626C433.056 49.062 433.122 45.663 433.254 42.429C433.452 39.129 433.617 35.961 433.749 32.925C433.023 35.961 432.198 39.096 431.274 42.33C430.416 45.498 429.426 48.798 428.304 52.23L421.077 75H399.099V1.344H420.087V23.718C420.087 27.084 420.021 30.351 419.889 33.519C419.823 36.621 419.724 39.657 419.592 42.627C420.384 39.657 421.209 36.621 422.067 33.519C422.925 30.351 423.882 27.15 424.938 23.916L432.066 1.344H454.044V75H433.056V52.626ZM501.715 1.344V18.471H482.905V28.272H499.042V45.696H482.905V57.675H502.21V75H462.907V1.344H501.715ZM569.734 59.556C571.318 59.556 572.407 59.094 573.001 58.17C573.595 57.18 573.892 55.86 573.892 54.21V43.122H593.791V55.596C593.791 58.302 593.395 60.909 592.603 63.417C591.877 65.859 590.623 68.037 588.841 69.951C587.125 71.799 584.848 73.284 582.01 74.406C579.172 75.528 575.674 76.089 571.516 76.089H568.051C563.761 76.089 560.098 75.594 557.062 74.604C554.092 73.548 551.683 72.03 549.835 70.05C547.987 68.07 546.634 65.661 545.776 62.823C544.984 59.985 544.588 56.751 544.588 53.121V22.728C544.588 19.296 544.984 16.194 545.776 13.422C546.568 10.65 547.855 8.307 549.637 6.393C551.485 4.413 553.894 2.895 556.864 1.839C559.9 0.782996 563.596 0.254995 567.952 0.254995H571.417C575.377 0.254995 578.776 0.716995 581.614 1.64099C584.452 2.56499 586.762 3.885 588.544 5.601C590.392 7.25099 591.712 9.29699 592.504 11.739C593.362 14.181 593.791 16.92 593.791 19.956V30.351H573.892V21.342C573.892 19.89 573.595 18.702 573.001 17.778C572.473 16.788 571.384 16.293 569.734 16.293C568.216 16.293 567.16 16.755 566.566 17.679C566.038 18.603 565.774 19.824 565.774 21.342V54.21C565.774 55.926 566.038 57.246 566.566 58.17C567.16 59.094 568.216 59.556 569.734 59.556ZM646.227 59.754C647.019 59.754 647.547 59.622 647.811 59.358C648.075 59.028 648.207 58.599 648.207 58.071V57.873C648.207 57.543 648.141 57.048 648.009 56.388C647.943 55.728 647.778 54.969 647.514 54.111L633.357 1.344H654.444L660.978 39.063L667.611 1.344H688.005L672.561 62.328C672.033 64.308 671.439 66.09 670.779 67.674C670.185 69.258 669.327 70.611 668.205 71.733C667.083 72.789 665.631 73.614 663.849 74.208C662.067 74.736 659.823 75 657.117 75H640.584V59.754H646.227ZM726.172 75H718.747L712.906 48.171C711.916 43.617 711.091 39.657 710.431 36.291C709.837 32.859 709.309 29.889 708.847 27.381C708.979 30.021 709.078 33.123 709.144 36.687C709.276 40.251 709.342 44.409 709.342 49.161V75H692.809V1.344H716.272L720.727 25.599C721.321 28.767 721.783 31.44 722.113 33.618C722.509 35.796 722.773 37.578 722.905 38.964C723.037 37.578 723.268 35.796 723.598 33.618C723.994 31.44 724.489 28.767 725.083 25.599L729.736 1.344H752.704V75H735.775V49.161C735.775 44.409 735.808 40.284 735.874 36.786C736.006 33.288 736.138 30.153 736.27 27.381C735.808 29.823 735.247 32.76 734.587 36.192C733.927 39.624 733.102 43.617 732.112 48.171L726.172 75ZM779.465 50.151H786.494L785.108 40.251C784.58 36.555 784.151 33.222 783.821 30.252C783.557 27.216 783.293 24.477 783.029 22.035C782.765 24.477 782.468 27.216 782.138 30.252C781.808 33.222 781.379 36.555 780.851 40.251L779.465 50.151ZM788.573 65.397H777.386L776.099 75H758.378L769.763 1.344H796.988L809.66 75H789.86L788.573 65.397Z" fill="black"/>
</svg>
