<svg width="1170" height="153" viewBox="0 0 1170 153" fill="none" xmlns="http://www.w3.org/2000/svg">
<path d="M6.85 111.937C7.912 109.695 8.856 107.276 9.682 104.68C10.508 101.966 11.216 98.721 11.806 94.945C12.396 91.169 12.868 86.685 13.222 81.493C13.576 76.183 13.812 69.811 13.93 62.377C14.166 54.943 14.284 46.27 14.284 36.358C14.402 26.328 14.461 14.646 14.461 1.312H77.119V111.937H87.739V152.116H65.968V133H22.426V152.116H0.655V111.937H6.85ZM53.578 111.937V21.667H36.232C36.232 31.933 36.173 41.019 36.055 48.925C35.937 56.713 35.76 63.616 35.524 69.634C35.288 75.652 34.934 80.844 34.462 85.21C34.108 89.576 33.695 93.411 33.223 96.715C32.751 99.901 32.22 102.733 31.63 105.211C31.04 107.571 30.391 109.813 29.683 111.937H53.578ZM158.954 1.312V21.844H124.085V54.412H153.113V75.475H124.085V111.937H160.016V133H101.075V1.312H158.954ZM175.747 1.312H199.288V53.527H221.059V1.312H244.6V133H221.059V75.652H199.288V133H175.747V1.312ZM296.819 113.884C300.477 113.884 303.073 112.881 304.607 110.875C306.141 108.869 306.908 105.683 306.908 101.317V84.502C306.908 80.018 306.141 76.714 304.607 74.59C303.191 72.466 300.477 71.404 296.465 71.404H287.615V113.884H296.819ZM287.615 52.288H303.014C308.088 52.288 312.336 52.996 315.758 54.412C319.298 55.828 322.13 57.834 324.254 60.43C326.496 62.908 328.089 65.858 329.033 69.28C330.095 72.702 330.626 76.36 330.626 80.254V105.034C330.626 108.928 330.095 112.586 329.033 116.008C328.089 119.43 326.496 122.439 324.254 125.035C322.13 127.513 319.298 129.46 315.758 130.876C312.218 132.292 307.97 133 303.014 133H264.074V1.312H287.615V52.288ZM373.662 1.312H413.664C423.812 1.312 430.892 3.436 434.904 7.684C438.916 11.814 440.922 18.245 440.922 26.977V38.659C440.922 42.317 440.568 45.444 439.86 48.04C439.152 50.636 438.208 52.819 437.028 54.589C435.848 56.241 434.55 57.598 433.134 58.66C431.718 59.604 430.243 60.371 428.709 60.961C430.361 61.551 432.013 62.377 433.665 63.439C435.435 64.501 436.969 65.976 438.267 67.864C439.683 69.752 440.804 72.053 441.63 74.767C442.456 77.481 442.869 80.844 442.869 84.856V104.149C442.869 113.117 440.45 120.197 435.612 125.389C430.892 130.463 423.576 133 413.664 133H373.662V1.312ZM396.849 19.012V53.881H407.469C411.363 53.881 414.077 52.878 415.611 50.872C417.263 48.866 418.089 45.68 418.089 41.314V30.871C418.089 26.505 417.263 23.437 415.611 21.667C414.077 19.897 411.304 19.012 407.292 19.012H396.849ZM396.849 72.82V114.415H407.823C411.953 114.415 414.844 113.471 416.496 111.583C418.148 109.695 418.974 106.391 418.974 101.671V85.741C418.974 81.139 418.089 77.835 416.319 75.829C414.549 73.823 411.599 72.82 407.469 72.82H396.849ZM510.248 133H486.707V1.312H553.082V133H529.541V21.667H510.248V133ZM606.067 113.884C609.961 113.884 612.675 112.645 614.209 110.167C615.743 107.689 616.51 104.208 616.51 99.724V78.307H639.343V100.963C639.343 105.565 638.753 109.931 637.573 114.061C636.511 118.073 634.741 121.613 632.263 124.681C629.785 127.749 626.54 130.168 622.528 131.938C618.634 133.708 613.855 134.593 608.191 134.593H603.943C598.279 134.593 593.441 133.826 589.429 132.292C585.417 130.64 582.113 128.339 579.517 125.389C577.039 122.439 575.151 118.899 573.853 114.769C572.673 110.521 572.083 105.86 572.083 100.786V33.703C572.083 23.201 574.561 15 579.517 9.09999C584.473 3.08199 592.379 0.0729917 603.235 0.0729917H607.483C619.165 0.0729917 627.366 2.90499 632.086 8.569C636.924 14.233 639.343 22.552 639.343 33.526V49.456H616.51V34.588C616.51 29.986 615.743 26.505 614.209 24.145C612.675 21.667 609.961 20.428 606.067 20.428C602.291 20.428 599.636 21.608 598.102 23.968C596.568 26.328 595.801 29.868 595.801 34.588V99.547C595.801 104.267 596.568 107.866 598.102 110.344C599.636 112.704 602.291 113.884 606.067 113.884ZM705.27 85.918C705.27 80.49 705.27 75.652 705.27 71.404C705.388 67.156 705.506 63.439 705.624 60.253C705.742 56.949 705.86 54.058 705.978 51.58C706.096 49.102 706.273 46.801 706.509 44.677C705.447 48.807 704.208 53.645 702.792 59.191C701.376 64.619 699.488 71.168 697.128 78.838L680.844 133H657.657V1.312H680.313V48.394C680.313 54.058 680.254 58.955 680.136 63.085C680.136 67.097 680.077 70.637 679.959 73.705C679.959 76.773 679.9 79.487 679.782 81.847C679.664 84.207 679.546 86.449 679.428 88.573C680.018 86.331 680.608 84.089 681.198 81.847C681.788 79.487 682.437 77.009 683.145 74.413C683.853 71.699 684.62 68.808 685.446 65.74C686.272 62.672 687.275 59.25 688.455 55.474L704.739 1.312H727.926V133H705.27V85.918ZM739.756 133L763.474 63.262L742.234 1.312H766.306L779.05 45.031L791.794 1.312H814.981L794.095 63.793L817.105 133H793.564L778.342 84.679L762.943 133H739.756ZM837.313 112.291C839.555 112.291 841.089 111.996 841.915 111.406C842.859 110.698 843.449 109.518 843.685 107.866L844.039 105.565C844.157 104.621 844.157 103.736 844.039 102.91C844.039 102.084 843.921 101.199 843.685 100.255C843.567 99.311 843.331 98.19 842.977 96.892C842.623 95.594 842.21 94.001 841.738 92.113L819.613 1.312H843.331L855.898 66.625L868.642 1.312H891.121L863.509 115.654C862.801 118.722 861.975 121.377 861.031 123.619C860.087 125.743 858.848 127.513 857.314 128.929C855.78 130.345 853.892 131.407 851.65 132.115C849.526 132.705 846.871 133 843.685 133H830.233V112.291H837.313ZM902.933 1.312H926.474V111.937H943.112V1.312H966.653V111.937H983.291V1.312H1006.83V133H902.933V1.312ZM1026.35 133V1.312H1049.71V59.899L1073.43 1.312H1096.44L1071.31 62.731L1098.92 133H1074.85L1049.71 69.988V133H1026.35ZM1168.23 1.312V21.844H1133.37V54.412H1162.39V75.475H1133.37V111.937H1169.3V133H1110.36V1.312H1168.23Z" fill="black"/>
</svg>
