<svg width="817" height="115" viewBox="0 0 817 115" fill="none" xmlns="http://www.w3.org/2000/svg">
<g clip-path="url(#clip0_529_9)">
<rect width="817" height="115" fill="#FD3E3E"/>
<path d="M34.952 108H6.12V6.816H75.888V108H47.056V30.344H34.952V108ZM116.897 71.824V108H88.0653V6.816H131.041C138.567 6.816 144.415 8.62933 148.585 12.256C152.847 15.792 154.977 21.8667 154.977 30.48V48.024C154.977 56.2747 152.847 62.304 148.585 66.112C144.324 69.92 138.476 71.824 131.041 71.824H116.897ZM116.897 51.696H120.705C122.791 51.696 124.241 51.1973 125.057 50.2C125.964 49.2027 126.417 47.5253 126.417 45.168V32.656C126.417 30.1173 125.964 28.3947 125.057 27.488C124.241 26.5813 122.791 26.128 120.705 26.128H116.897V51.696ZM211.612 77.264C211.612 72.368 211.702 67.6987 211.884 63.256C212.156 58.7227 212.382 54.3707 212.564 50.2C211.566 54.3707 210.433 58.6773 209.164 63.12C207.985 67.472 206.625 72.0053 205.084 76.72L195.156 108H164.964V6.816H193.796V37.552C193.796 42.176 193.705 46.664 193.524 51.016C193.433 55.2773 193.297 59.448 193.116 63.528C194.204 59.448 195.337 55.2773 196.516 51.016C197.694 46.664 199.009 42.2667 200.46 37.824L210.252 6.816H240.444V108H211.612V77.264ZM286.348 86.784C288.524 86.784 290.02 86.1493 290.836 84.88C291.652 83.52 292.06 81.7067 292.06 79.44V64.208H319.396V81.344C319.396 85.0613 318.852 88.6427 317.764 92.088C316.767 95.4427 315.044 98.4347 312.596 101.064C310.239 103.603 307.111 105.643 303.212 107.184C299.313 108.725 294.508 109.496 288.796 109.496H284.036C278.143 109.496 273.111 108.816 268.94 107.456C264.86 106.005 261.551 103.92 259.012 101.2C256.473 98.48 254.615 95.1707 253.436 91.272C252.348 87.3733 251.804 82.9307 251.804 77.944V36.192C251.804 31.4773 252.348 27.216 253.436 23.408C254.524 19.6 256.292 16.3813 258.74 13.752C261.279 11.032 264.588 8.94666 268.668 7.496C272.839 6.04533 277.916 5.31999 283.9 5.31999H288.66C294.1 5.31999 298.769 5.95466 302.668 7.22399C306.567 8.49333 309.74 10.3067 312.188 12.664C314.727 14.9307 316.54 17.7413 317.628 21.096C318.807 24.4507 319.396 28.2133 319.396 32.384V46.664H292.06V34.288C292.06 32.2933 291.652 30.6613 290.836 29.392C290.111 28.032 288.615 27.352 286.348 27.352C284.263 27.352 282.812 27.9867 281.996 29.256C281.271 30.5253 280.908 32.2027 280.908 34.288V79.44C280.908 81.7973 281.271 83.6107 281.996 84.88C282.812 86.1493 284.263 86.784 286.348 86.784ZM376.011 108H365.811L357.787 71.144C356.427 64.888 355.294 59.448 354.387 54.824C353.571 50.1093 352.846 46.0293 352.211 42.584C352.393 46.2107 352.529 50.472 352.619 55.368C352.801 60.264 352.891 65.976 352.891 72.504V108H330.179V6.816H362.411L368.531 40.136C369.347 44.488 369.982 48.16 370.435 51.152C370.979 54.144 371.342 56.592 371.523 58.496C371.705 56.592 372.022 54.144 372.475 51.152C373.019 48.16 373.699 44.488 374.515 40.136L380.907 6.816H412.459V108H389.203V72.504C389.203 65.976 389.249 60.3093 389.339 55.504C389.521 50.6987 389.702 46.392 389.883 42.584C389.249 45.9387 388.478 49.9733 387.571 54.688C386.665 59.4027 385.531 64.888 384.171 71.144L376.011 108ZM494.51 78.896C494.51 83.4293 493.83 87.6 492.47 91.408C491.2 95.1253 489.206 98.344 486.486 101.064C483.766 103.693 480.32 105.779 476.15 107.32C472.07 108.771 467.264 109.496 461.734 109.496H456.838C451.035 109.496 446.048 108.771 441.878 107.32C437.798 105.779 434.398 103.648 431.678 100.928C429.048 98.208 427.099 94.9893 425.83 91.272C424.651 87.464 424.062 83.3387 424.062 78.896V35.92C424.062 26.4 426.6 18.92 431.678 13.48C436.846 8.03999 445.232 5.31999 456.838 5.31999H461.734C472.976 5.31999 481.227 8.03999 486.486 13.48C491.835 18.8293 494.51 26.3093 494.51 35.92V78.896ZM465.406 36.464C465.406 34.1067 464.952 32.248 464.046 30.888C463.139 29.528 461.552 28.848 459.286 28.848C457.019 28.848 455.432 29.528 454.526 30.888C453.619 32.1573 453.166 34.016 453.166 36.464V78.624C453.166 80.9813 453.619 82.7947 454.526 84.064C455.523 85.2427 457.11 85.832 459.286 85.832C463.366 85.832 465.406 83.4293 465.406 78.624V36.464ZM517.485 29.8H501.573V6.816H560.597V29.8H544.685V108H517.485V29.8ZM598.741 71.824V108H569.909V6.816H612.885C620.41 6.816 626.258 8.62933 630.429 12.256C634.69 15.792 636.821 21.8667 636.821 30.48V48.024C636.821 56.2747 634.69 62.304 630.429 66.112C626.168 69.92 620.32 71.824 612.885 71.824H598.741ZM598.741 51.696H602.549C604.634 51.696 606.085 51.1973 606.901 50.2C607.808 49.2027 608.261 47.5253 608.261 45.168V32.656C608.261 30.1173 607.808 28.3947 606.901 27.488C606.085 26.5813 604.634 26.128 602.549 26.128H598.741V51.696ZM716.44 78.896C716.44 83.4293 715.76 87.6 714.4 91.408C713.13 95.1253 711.136 98.344 708.416 101.064C705.696 103.693 702.25 105.779 698.08 107.32C694 108.771 689.194 109.496 683.664 109.496H678.768C672.965 109.496 667.978 108.771 663.808 107.32C659.728 105.779 656.328 103.648 653.608 100.928C650.978 98.208 649.029 94.9893 647.76 91.272C646.581 87.464 645.992 83.3387 645.992 78.896V35.92C645.992 26.4 648.53 18.92 653.608 13.48C658.776 8.03999 667.162 5.31999 678.768 5.31999H683.664C694.906 5.31999 703.157 8.03999 708.416 13.48C713.765 18.8293 716.44 26.3093 716.44 35.92V78.896ZM687.336 36.464C687.336 34.1067 686.882 32.248 685.976 30.888C685.069 29.528 683.482 28.848 681.216 28.848C678.949 28.848 677.362 29.528 676.456 30.888C675.549 32.1573 675.096 34.016 675.096 36.464V78.624C675.096 80.9813 675.549 82.7947 676.456 84.064C677.453 85.2427 679.04 85.832 681.216 85.832C685.296 85.832 687.336 83.4293 687.336 78.624V36.464ZM773.519 108H763.319L755.295 71.144C753.935 64.888 752.802 59.448 751.895 54.824C751.079 50.1093 750.354 46.0293 749.719 42.584C749.9 46.2107 750.036 50.472 750.127 55.368C750.308 60.264 750.399 65.976 750.399 72.504V108H727.687V6.816H759.919L766.039 40.136C766.855 44.488 767.49 48.16 767.943 51.152C768.487 54.144 768.85 56.592 769.031 58.496C769.212 56.592 769.53 54.144 769.983 51.152C770.527 48.16 771.207 44.488 772.023 40.136L778.415 6.816H809.967V108H786.711V72.504C786.711 65.976 786.756 60.3093 786.847 55.504C787.028 50.6987 787.21 46.392 787.391 42.584C786.756 45.9387 785.986 49.9733 785.079 54.688C784.172 59.4027 783.039 64.888 781.679 71.144L773.519 108Z" fill="white"/>
</g>
<defs>
<clipPath id="clip0_529_9">
<rect width="817" height="115" fill="white"/>
</clipPath>
</defs>
</svg>
