<svg width="271" height="28" viewBox="0 0 271 28" fill="none" xmlns="http://www.w3.org/2000/svg">
<g clip-path="url(#clip0_744_1472)">
<rect width="271" height="28" fill="white"/>
<path d="M9.99108 20.7454C10.4275 20.7454 10.7275 20.6181 10.8911 20.3635C11.0547 20.0908 11.1366 19.7272 11.1366 19.2726V16.218H16.6185V19.6544C16.6185 20.3999 16.5094 21.1181 16.2912 21.809C16.0912 22.4818 15.7457 23.0818 15.2548 23.6091C14.7821 24.1182 14.1548 24.5273 13.373 24.8364C12.5911 25.1455 11.6275 25.3 10.482 25.3H9.52743C8.34559 25.3 7.33648 25.1636 6.5001 24.8909C5.6819 24.6 5.01825 24.1818 4.50914 23.6363C4.00004 23.0909 3.62731 22.4272 3.39094 21.6454C3.17275 20.8635 3.06366 19.9726 3.06366 18.9726V10.5997C3.06366 9.65422 3.17275 8.79965 3.39094 8.036C3.60913 7.27235 3.96368 6.62688 4.4546 6.0996C4.9637 5.55413 5.62735 5.13594 6.44555 4.84502C7.28193 4.55411 8.30013 4.40865 9.50016 4.40865H10.4547C11.5457 4.40865 12.482 4.53593 13.2639 4.79048C14.0457 5.04503 14.6821 5.40867 15.173 5.88141C15.6821 6.33596 16.0458 6.89961 16.2639 7.57235C16.5003 8.2451 16.6185 8.99966 16.6185 9.83604V12.6997H11.1366V10.2179C11.1366 9.81786 11.0547 9.49058 10.8911 9.23603C10.7456 8.96329 10.4456 8.82693 9.99108 8.82693C9.57289 8.82693 9.28197 8.9542 9.11833 9.20875C8.97288 9.46331 8.90015 9.79968 8.90015 10.2179V19.2726C8.90015 19.7453 8.97288 20.109 9.11833 20.3635C9.28197 20.6181 9.57289 20.7454 9.99108 20.7454ZM23.4238 18.1544H25.3602L24.9784 15.4271C24.8329 14.4089 24.7148 13.4907 24.6238 12.6725C24.5511 11.8361 24.4784 11.0815 24.4057 10.4088C24.3329 11.0815 24.2511 11.8361 24.1602 12.6725C24.0693 13.4907 23.9511 14.4089 23.8056 15.4271L23.4238 18.1544ZM25.933 22.3545H22.8511L22.4965 25H17.6146L20.751 4.70866H28.2512L31.7422 25H26.2875L25.933 22.3545ZM42.4344 25H40.3889L38.7798 17.6089C38.507 16.3544 38.2798 15.2634 38.0979 14.3361C37.9343 13.3907 37.7888 12.5725 37.6616 11.8815C37.6979 12.6088 37.7252 13.4634 37.7434 14.4452C37.7797 15.4271 37.7979 16.5725 37.7979 17.8817V25H33.2433V4.70866H39.7071L40.9344 11.3906C41.098 12.2634 41.2253 12.9997 41.3162 13.5998C41.4253 14.1998 41.498 14.6907 41.5344 15.0725C41.5707 14.6907 41.6344 14.1998 41.7253 13.5998C41.8344 12.9997 41.9707 12.2634 42.1344 11.3906L43.4162 4.70866H49.7436V25H45.0799V17.8817C45.0799 16.5725 45.089 15.4362 45.1072 14.4725C45.1435 13.5088 45.1799 12.6452 45.2163 11.8815C45.089 12.5543 44.9344 13.3634 44.7526 14.3089C44.5708 15.2543 44.3435 16.3544 44.0708 17.6089L42.4344 25ZM58.016 11.4179H60.8524C62.3433 11.4179 63.5161 11.7997 64.3706 12.5634C65.2252 13.327 65.6525 14.5361 65.6525 16.1907V20.2544C65.6525 21.9818 65.2252 23.2091 64.3706 23.9363C63.5343 24.6454 62.3615 25 60.8524 25H52.234V4.70866H58.016V11.4179ZM58.7796 20.9908C59.1978 20.9908 59.4887 20.8999 59.6524 20.7181C59.8342 20.5363 59.9251 20.1908 59.9251 19.6817V16.7635C59.9251 16.2907 59.8342 15.9544 59.6524 15.7543C59.4887 15.5543 59.1978 15.4543 58.7796 15.4543H58.016V20.9908H58.7796ZM72.6072 25H66.8252V4.70866H72.6072V25ZM85.7506 4.70866V9.42694H80.5686V12.127H85.0142V16.9271H80.5686V20.2272H85.8869V25H75.0594V4.70866H85.7506ZM102.697 25H96.9154V4.70866H110.907V25H105.125V9.42694H102.697V25ZM119.131 17.7453V25H113.349V4.70866H121.967C123.476 4.70866 124.649 5.0723 125.485 5.79959C126.34 6.5087 126.767 7.7269 126.767 9.45421V12.9725C126.767 14.6271 126.34 15.8362 125.485 16.5998C124.631 17.3635 123.458 17.7453 121.967 17.7453H119.131ZM119.131 13.7088H119.894C120.312 13.7088 120.603 13.6088 120.767 13.4088C120.949 13.2088 121.04 12.8725 121.04 12.3997V9.89059C121.04 9.38149 120.949 9.03602 120.767 8.8542C120.603 8.67238 120.312 8.58147 119.894 8.58147H119.131V13.7088ZM139.461 4.70866V9.42694H134.279V12.127H138.725V16.9271H134.279V20.2272H139.597V25H128.77V4.70866H139.461ZM148.398 20.7454C148.834 20.7454 149.134 20.6181 149.298 20.3635C149.461 20.0908 149.543 19.7272 149.543 19.2726V16.218H155.025V19.6544C155.025 20.3999 154.916 21.1181 154.698 21.809C154.498 22.4818 154.152 23.0818 153.662 23.6091C153.189 24.1182 152.562 24.5273 151.78 24.8364C150.998 25.1455 150.034 25.3 148.889 25.3H147.934C146.752 25.3 145.743 25.1636 144.907 24.8909C144.089 24.6 143.425 24.1818 142.916 23.6363C142.407 23.0909 142.034 22.4272 141.798 21.6454C141.579 20.8635 141.47 19.9726 141.47 18.9726V10.5997C141.47 9.65422 141.579 8.79965 141.798 8.036C142.016 7.27235 142.37 6.62688 142.861 6.0996C143.37 5.55413 144.034 5.13594 144.852 4.84502C145.689 4.55411 146.707 4.40865 147.907 4.40865H148.861C149.952 4.40865 150.889 4.53593 151.671 4.79048C152.452 5.04503 153.089 5.40867 153.58 5.88141C154.089 6.33596 154.452 6.89961 154.671 7.57235C154.907 8.2451 155.025 8.99966 155.025 9.83604V12.6997H149.543V10.2179C149.543 9.81786 149.461 9.49058 149.298 9.23603C149.152 8.96329 148.852 8.82693 148.398 8.82693C147.98 8.82693 147.689 8.9542 147.525 9.20875C147.38 9.46331 147.307 9.79968 147.307 10.2179V19.2726C147.307 19.7453 147.38 20.109 147.525 20.3635C147.689 20.6181 147.98 20.7454 148.398 20.7454ZM159.673 9.31785H156.482V4.70866H168.318V9.31785H165.127V25H159.673V9.31785ZM175.968 17.7453V25H170.186V4.70866H178.804C180.313 4.70866 181.486 5.0723 182.322 5.79959C183.177 6.5087 183.604 7.7269 183.604 9.45421V12.9725C183.604 14.6271 183.177 15.8362 182.322 16.5998C181.468 17.3635 180.295 17.7453 178.804 17.7453H175.968ZM175.968 13.7088H176.731C177.15 13.7088 177.44 13.6088 177.604 13.4088C177.786 13.2088 177.877 12.8725 177.877 12.3997V9.89059C177.877 9.38149 177.786 9.03602 177.604 8.8542C177.44 8.67238 177.15 8.58147 176.731 8.58147H175.968V13.7088ZM189.663 18.1544H191.6L191.218 15.4271C191.072 14.4089 190.954 13.4907 190.863 12.6725C190.79 11.8361 190.718 11.0815 190.645 10.4088C190.572 11.0815 190.49 11.8361 190.4 12.6725C190.309 13.4907 190.19 14.4089 190.045 15.4271L189.663 18.1544ZM192.172 22.3545H189.09L188.736 25H183.854L186.99 4.70866H194.491L197.982 25H192.527L192.172 22.3545ZM199.51 4.70866H205.292V11.6361H207.637V4.70866H213.419V25H207.637V17.2271H205.292V25H199.51V4.70866ZM215.863 4.70866H221.645V11.6361H223.991V4.70866H229.773V25H223.991V17.2271H221.645V25H215.863V4.70866ZM237.998 11.4179H240.835C242.326 11.4179 243.499 11.7997 244.353 12.5634C245.208 13.327 245.635 14.5361 245.635 16.1907V20.2544C245.635 21.9818 245.208 23.2091 244.353 23.9363C243.517 24.6454 242.344 25 240.835 25H232.217V4.70866H237.998V11.4179ZM238.762 20.9908C239.18 20.9908 239.471 20.8999 239.635 20.7181C239.817 20.5363 239.908 20.1908 239.908 19.6817V16.7635C239.908 16.2907 239.817 15.9544 239.635 15.7543C239.471 15.5543 239.18 15.4543 238.762 15.4543H237.998V20.9908H238.762ZM252.59 25H246.808V4.70866H252.59V25ZM265.733 4.70866V9.42694H260.551V12.127H264.997V16.9271H260.551V20.2272H265.869V25H255.042V4.70866H265.733Z" fill="black"/>
</g>
<defs>
<clipPath id="clip0_744_1472">
<rect width="271" height="28" fill="white"/>
</clipPath>
</defs>
</svg>
