<svg width="134" height="123" viewBox="0 0 134 123" fill="none" xmlns="http://www.w3.org/2000/svg">
<path d="M23.6115 15.6319C54.2154 -13.297 104.453 9.84435 120.158 29.5321C135.862 49.2198 138.808 66.2396 111.2 65.2753C119.509 75.725 126.166 89.5427 127.125 101.019C129.541 129.947 57.3263 120.587 31.5741 114.919C4.19266 108.892 -14.6432 51.793 23.6115 15.6319Z" fill="#3E73FD"/>
<path d="M99.2559 91.0899C82.6117 100.733 53.6112 111.119 69.3963 72.2254C81.3004 42.8947 98.5628 49.3832 111.2 65.2753M111.2 65.2753C119.509 75.725 126.166 89.5427 127.125 101.019C129.541 129.947 57.3263 120.587 31.5741 114.919C4.19266 108.892 -14.6432 51.793 23.6115 15.6319C54.2154 -13.297 104.453 9.84435 120.158 29.5321C135.862 49.2198 138.808 66.2396 111.2 65.2753Z" stroke="white" stroke-width="4" stroke-linecap="square"/>
</svg>
