<svg width="143" height="276" viewBox="0 0 143 276" fill="none" xmlns="http://www.w3.org/2000/svg">
<path d="M26.7545 7.24805C42.1058 0.685361 99.7006 -2.33978 120.588 14.2344C141.475 30.8086 138.399 100.475 134.563 131.006C130.726 161.537 110.497 146.68 80.6586 161.946C50.8205 177.211 69.6862 220.422 71.6746 186.897C73.5741 154.871 124.417 159.365 135.561 161.946C146.705 164.526 137.412 192.185 136.559 235.801C135.707 279.417 65.1121 273.802 55.703 273.727C46.2939 273.652 26.279 272.101 11.7811 250.772C-2.71677 229.443 -0.0118227 101.306 12.7794 85.0959C25.5705 68.8861 42.3496 89.3616 57.6995 85.0959C85.621 77.3364 23.1336 82.322 7.78823 56.1524C-7.55711 29.9829 11.4032 13.8107 26.7545 7.24805Z" fill="#8485E8" stroke="#FDDC3E" stroke-width="4" stroke-linecap="square"/>
</svg>
