<svg width="273" height="149" viewBox="0 0 273 149" fill="none" xmlns="http://www.w3.org/2000/svg">
<path d="M12.2584 37.5614C18.2333 19.8373 49.1264 5.36795 78.1477 4.56204C107.169 3.75613 69.8616 54.9963 121.076 21.5617C172.29 -11.8728 260.863 -3.44585 269.826 54.5611C278.788 112.568 234.123 135.934 214.918 139.56C195.713 143.185 205.079 94.9672 205.933 65.5609C206.787 36.1546 189.663 127.072 184.968 139.56C181.716 148.211 119.592 148.69 105.102 139.56C90.6128 130.429 102.953 81.2711 99.1124 65.5609C95.2714 49.8507 95.8055 111.627 85.1359 130.56C74.4663 149.493 28.9843 154.104 28.2315 133.56C27.4788 113.015 63.5707 59.5184 51.193 65.5609C38.8152 71.6035 26.9063 137.574 10.2617 135.56C-6.3828 133.546 6.2835 55.2855 12.2584 37.5614Z" fill="#FD3E3E" stroke="#84D0E8" stroke-width="4" stroke-linecap="square"/>
</svg>
