<svg width="806" height="86" viewBox="0 0 806 86" fill="none" xmlns="http://www.w3.org/2000/svg">
<path d="M11.86 18.075H0.277V1.344H43.243V18.075H31.66V75H11.86V18.075ZM88.8294 1.344V18.471H70.0194V28.272H86.1564V45.696H70.0194V57.675H89.3244V75H50.0214V1.344H88.8294ZM117.706 75H96.7177V1.344H147.505V75H126.517V18.471H117.706V75ZM195.177 1.344V18.471H176.367V28.272H192.504V45.696H176.367V57.675H195.672V75H156.369V1.344H195.177ZM224.053 48.666V75H203.065V1.344H234.349C239.827 1.344 244.084 2.664 247.12 5.30399C250.222 7.878 251.773 12.3 251.773 18.57V31.341C251.773 37.347 250.222 41.736 247.12 44.508C244.018 47.28 239.761 48.666 234.349 48.666H224.053ZM224.053 34.014H226.825C228.343 34.014 229.399 33.651 229.993 32.925C230.653 32.199 230.983 30.978 230.983 29.262V20.154C230.983 18.306 230.653 17.052 229.993 16.392C229.399 15.732 228.343 15.402 226.825 15.402H224.053V34.014ZM280.031 25.698H290.327C295.739 25.698 299.996 27.084 303.098 29.856C306.2 32.628 307.751 37.017 307.751 43.023V57.774C307.751 64.044 306.2 68.499 303.098 71.139C300.062 73.713 295.805 75 290.327 75H259.043V1.344H280.031V25.698ZM282.803 60.447C284.321 60.447 285.377 60.117 285.971 59.457C286.631 58.797 286.961 57.543 286.961 55.695V45.102C286.961 43.386 286.631 42.165 285.971 41.439C285.377 40.713 284.321 40.35 282.803 40.35H280.031V60.447H282.803ZM341.344 18.075H329.761V1.344H372.727V18.075H361.144V75H341.344V18.075ZM429.227 53.814C429.227 57.114 428.732 60.15 427.742 62.922C426.818 65.628 425.366 67.971 423.386 69.951C421.406 71.865 418.898 73.383 415.862 74.505C412.892 75.561 409.394 76.089 405.368 76.089H401.804C397.58 76.089 393.95 75.561 390.914 74.505C387.944 73.383 385.469 71.832 383.489 69.852C381.575 67.872 380.156 65.529 379.232 62.823C378.374 60.051 377.945 57.048 377.945 53.814V22.53C377.945 15.6 379.793 10.155 383.489 6.19499C387.251 2.23499 393.356 0.254995 401.804 0.254995H405.368C413.552 0.254995 419.558 2.23499 423.386 6.19499C427.28 10.089 429.227 15.534 429.227 22.53V53.814ZM408.041 22.926C408.041 21.21 407.711 19.857 407.051 18.867C406.391 17.877 405.236 17.382 403.586 17.382C401.936 17.382 400.781 17.877 400.121 18.867C399.461 19.791 399.131 21.144 399.131 22.926V53.616C399.131 55.332 399.461 56.652 400.121 57.576C400.847 58.434 402.002 58.863 403.586 58.863C406.556 58.863 408.041 57.114 408.041 53.616V22.926ZM465.717 46.884C464.595 47.214 463.308 47.445 461.856 47.577C460.47 47.643 459.183 47.676 457.995 47.676C454.233 47.676 450.966 47.379 448.194 46.785C445.488 46.125 443.211 45.003 441.363 43.419C439.581 41.835 438.228 39.723 437.304 37.083C436.446 34.377 436.017 30.978 436.017 26.886V1.344H457.005V23.124C457.005 24.708 457.071 26.028 457.203 27.084C457.335 28.14 457.566 28.965 457.896 29.559C458.292 30.153 458.82 30.582 459.48 30.846C460.14 31.044 460.998 31.143 462.054 31.143C462.978 31.143 463.737 31.077 464.331 30.945C464.925 30.813 465.387 30.681 465.717 30.549V1.344H486.705V75H465.717V46.884ZM495.618 1.344H516.606V26.49H525.12V1.344H546.108V75H525.12V46.785H516.606V75H495.618V1.344ZM605.667 53.814C605.667 57.114 605.172 60.15 604.182 62.922C603.258 65.628 601.806 67.971 599.826 69.951C597.846 71.865 595.338 73.383 592.302 74.505C589.332 75.561 585.834 76.089 581.808 76.089H578.244C574.02 76.089 570.39 75.561 567.354 74.505C564.384 73.383 561.909 71.832 559.929 69.852C558.015 67.872 556.596 65.529 555.672 62.823C554.814 60.051 554.385 57.048 554.385 53.814V22.53C554.385 15.6 556.233 10.155 559.929 6.19499C563.691 2.23499 569.796 0.254995 578.244 0.254995H581.808C589.992 0.254995 595.998 2.23499 599.826 6.19499C603.72 10.089 605.667 15.534 605.667 22.53V53.814ZM584.481 22.926C584.481 21.21 584.151 19.857 583.491 18.867C582.831 17.877 581.676 17.382 580.026 17.382C578.376 17.382 577.221 17.877 576.561 18.867C575.901 19.791 575.571 21.144 575.571 22.926V53.616C575.571 55.332 575.901 56.652 576.561 57.576C577.287 58.434 578.442 58.863 580.026 58.863C582.996 58.863 584.481 57.114 584.481 53.616V22.926ZM652.731 75H631.743V1.344H682.53V75H661.542V18.471H652.731V75ZM742.082 53.814C742.082 57.114 741.587 60.15 740.597 62.922C739.673 65.628 738.221 67.971 736.241 69.951C734.261 71.865 731.753 73.383 728.717 74.505C725.747 75.561 722.249 76.089 718.223 76.089H714.659C710.435 76.089 706.805 75.561 703.769 74.505C700.799 73.383 698.324 71.832 696.344 69.852C694.43 67.872 693.011 65.529 692.087 62.823C691.229 60.051 690.8 57.048 690.8 53.814V22.53C690.8 15.6 692.648 10.155 696.344 6.19499C700.106 2.23499 706.211 0.254995 714.659 0.254995H718.223C726.407 0.254995 732.413 2.23499 736.241 6.19499C740.135 10.089 742.082 15.534 742.082 22.53V53.814ZM720.896 22.926C720.896 21.21 720.566 19.857 719.906 18.867C719.246 17.877 718.091 17.382 716.441 17.382C714.791 17.382 713.636 17.877 712.976 18.867C712.316 19.791 711.986 21.144 711.986 22.926V53.616C711.986 55.332 712.316 56.652 712.976 57.576C713.702 58.434 714.857 58.863 716.441 58.863C719.411 58.863 720.896 57.114 720.896 53.616V22.926ZM750.777 57.675C751.173 56.091 751.503 54.573 751.767 53.121C752.097 51.603 752.361 49.92 752.559 48.072C752.823 46.224 753.021 44.046 753.153 41.538C753.351 39.03 753.483 35.961 753.549 32.331C753.681 28.701 753.78 24.378 753.846 19.362C753.912 14.28 753.945 8.274 753.945 1.344H799.386V57.675H805.326V85.692H786.318V75H764.934V85.692H745.926V57.675H750.777ZM778.398 57.675V18.174H771.963C771.963 27.282 771.765 35.037 771.369 41.439C771.039 47.775 770.379 53.187 769.389 57.675H778.398Z" fill="black"/>
</svg>
