<svg width="588" height="211" viewBox="0 0 588 211" fill="none" xmlns="http://www.w3.org/2000/svg">
<g clip-path="url(#clip0_698_148)">
<rect width="595.342" height="49.9065" transform="translate(0.549805 162.525) rotate(-15.7711)" fill="white"/>
<rect x="0.549805" y="162.525" width="54" height="85" transform="rotate(-15.7711 0.549805 162.525)" fill="#FD3E3E"/>
<rect x="52.5166" y="147.848" width="54" height="85" transform="rotate(-15.7711 52.5166 147.848)" fill="#FDDC3E"/>
<rect x="104.484" y="133.171" width="54" height="85" transform="rotate(-15.7711 104.484 133.171)" fill="#FD3E3E"/>
<rect x="156.451" y="118.494" width="54" height="85" transform="rotate(-15.7711 156.451 118.494)" fill="#FDDC3E"/>
<rect x="208.419" y="103.817" width="54" height="85" transform="rotate(-15.7711 208.419 103.817)" fill="#FD3E3E"/>
<rect x="260.386" y="89.1406" width="54" height="85" transform="rotate(-15.7711 260.386 89.1406)" fill="#FDDC3E"/>
<rect x="312.353" y="74.4634" width="54" height="85" transform="rotate(-15.7711 312.353 74.4634)" fill="#FD3E3E"/>
<rect x="364.32" y="59.7866" width="54" height="85" transform="rotate(-15.7711 364.32 59.7866)" fill="#FDDC3E"/>
<rect x="416.287" y="45.1099" width="54" height="85" transform="rotate(-15.7711 416.287 45.1099)" fill="#FD3E3E"/>
<rect x="468.255" y="30.4331" width="54" height="85" transform="rotate(-15.7711 468.255 30.4331)" fill="#FDDC3E"/>
<rect x="520.222" y="15.7559" width="54" height="85" transform="rotate(-15.7711 520.222 15.7559)" fill="#FD3E3E"/>
<rect x="572.188" y="1.0791" width="54" height="85" transform="rotate(-15.7711 572.188 1.0791)" fill="#FDDC3E"/>
</g>
<defs>
<clipPath id="clip0_698_148">
<rect width="595.342" height="49.9065" fill="white" transform="translate(0.549805 162.525) rotate(-15.7711)"/>
</clipPath>
</defs>
</svg>
