<svg width="314" height="109" viewBox="0 0 314 109" fill="none" xmlns="http://www.w3.org/2000/svg">
<path d="M0 0H6V109H0V0Z" fill="black"/>
<path d="M8 0H16V109H8V0Z" fill="black"/>
<path d="M20 0H42V109H20V0Z" fill="black"/>
<path d="M45 0H49V109H45V0Z" fill="black"/>
<path d="M53 0H58V109H53V0Z" fill="black"/>
<path d="M63 0H66V109H63V0Z" fill="black"/>
<path d="M68 0H79V109H68V0Z" fill="black"/>
<path d="M84 0H92V109H84V0Z" fill="black"/>
<path d="M96 0H102V109H96V0Z" fill="black"/>
<path d="M108 0H117V109H108V0Z" fill="black"/>
<path d="M120 0H122V109H120V0Z" fill="black"/>
<path d="M125 0H135V109H125V0Z" fill="black"/>
<path d="M142 0H143V109H142V0Z" fill="black"/>
<path d="M136 0H137V109H136V0Z" fill="black"/>
<path d="M149 0H151V109H149V0Z" fill="black"/>
<path d="M146 0H148V109H146V0Z" fill="black"/>
<path d="M154 0H169V109H154V0Z" fill="black"/>
<path d="M176 0H178V109H176V0Z" fill="black"/>
<path d="M181 0H182V109H181V0Z" fill="black"/>
<path d="M191 0H194V109H191V0Z" fill="black"/>
<path d="M184 0H189V109H184V0Z" fill="black"/>
<path d="M197 0H199V109H197V0Z" fill="black"/>
<path d="M202 0H203V109H202V0Z" fill="black"/>
<path d="M206 0H216V109H206V0Z" fill="black"/>
<path d="M226 0H232V109H226V0Z" fill="black"/>
<path d="M234 0H240V109H234V0Z" fill="black"/>
<path d="M243 0H246V109H243V0Z" fill="black"/>
<path d="M253 0H254V109H253V0Z" fill="black"/>
<path d="M251 0H252V109H251V0Z" fill="black"/>
<path d="M248 0H249V109H248V0Z" fill="black"/>
<path d="M257 0H271V109H257V0Z" fill="black"/>
<path d="M273 0H280V109H273V0Z" fill="black"/>
<path d="M284 0H284.955V109H284V0Z" fill="black"/>
<path d="M282 0H282.955V109H282V0Z" fill="black"/>
<path d="M287 0H289V109H287V0Z" fill="black"/>
<path d="M296 0H297V109H296V0Z" fill="black"/>
<path d="M294 0H295V109H294V0Z" fill="black"/>
<path d="M301 0H314V109H301V0Z" fill="black"/>
</svg>
