<svg width="264" height="309" viewBox="0 0 264 309" fill="none" xmlns="http://www.w3.org/2000/svg">
<path d="M30.9075 130.259C32.1246 95.9074 70.8026 23.7242 152.346 28.6315C233.889 33.5389 178.16 -14.0698 215.889 11.6937C253.618 37.4571 262.239 84.8002 234.246 120.378C224.008 133.391 216.548 143.105 210.241 148.608C208.618 161.713 203.91 188.747 196.12 196.599C186.384 206.413 178.597 230.844 210.241 233.297C241.885 235.751 273.488 282.699 254.015 282.699C234.542 282.699 174.253 314.729 152.346 302.46C130.439 290.192 76.6246 286.63 53.5007 293.991C30.3769 301.352 5.29518 306.009 4.07811 282.699C2.86105 259.39 15.4827 215.805 69.0336 212.125C68.6571 205.294 68.435 191.691 72.2961 189.769C65.5366 190.189 39.8097 190.132 40.7921 178.249C41.7657 166.472 52.0573 162.038 57.737 161.311C41.5776 153.516 30.4525 143.102 30.9075 130.259Z" fill="#8485E8"/>
<path d="M115.632 178.249C100.29 175.853 76.153 170.195 57.737 161.311M186.236 158.488C193.183 157.71 199.305 158.15 210.241 148.608M210.241 148.608C216.548 143.105 224.008 133.391 234.246 120.378C262.239 84.8002 253.618 37.4571 215.889 11.6937C178.16 -14.0698 233.889 33.5389 152.346 28.6315C70.8026 23.7242 32.1246 95.9074 30.9075 130.259C30.4525 143.102 41.5776 153.516 57.737 161.311M210.241 148.608C208.618 161.713 203.91 188.747 196.12 196.599C186.384 206.413 178.597 230.844 210.241 233.297C241.885 235.751 273.488 282.699 254.015 282.699C234.542 282.699 174.253 314.729 152.346 302.46C130.439 290.192 76.6246 286.63 53.5007 293.991C30.3769 301.352 5.29518 306.009 4.07811 282.699C2.86105 259.39 15.4827 215.805 69.0336 212.125C68.6279 204.764 68.4015 189.541 73.2698 189.541C79.3551 189.541 39.575 192.971 40.7921 178.249C41.7657 166.472 52.0573 162.038 57.737 161.311" stroke="#FDDC3E" stroke-width="7.07182"/>
</svg>
