<svg width="359" height="213" viewBox="0 0 359 213" fill="none" xmlns="http://www.w3.org/2000/svg">
<path d="M105.905 38.3528C31.1425 34.1839 0.401891 110.24 3.17087 167.215C5.30532 211.134 95.3777 204.33 145.802 194.186C152.263 201.674 169.195 214.841 184.701 208.171C204.084 199.833 254.832 202.178 314.366 202.178C373.899 202.178 357.686 192.18 338.304 128.257C322.797 77.118 258.38 75.2126 228.587 80.3079C228.267 52.1208 217.088 26.8721 200.66 10.3827C172.97 -17.41 180.667 42.5217 105.905 38.3528Z" fill="#FD3E3E"/>
<path d="M151.786 192.188C150.003 192.577 147.709 193.802 145.802 194.186M211.631 141.243C224.019 120.332 228.807 99.6298 228.587 80.3079M228.587 80.3079C228.267 52.1208 217.088 26.8721 200.66 10.3827C172.97 -17.41 180.667 42.5217 105.905 38.3528C31.1425 34.1839 0.40189 110.24 3.17087 167.215C5.30532 211.134 95.3777 204.33 145.802 194.186M228.587 80.3079C258.38 75.2126 322.797 77.1181 338.304 128.257C357.686 192.18 373.899 202.178 314.365 202.178C254.832 202.178 204.084 199.833 184.701 208.171C169.195 214.841 152.263 201.674 145.802 194.186" stroke="white" stroke-width="5"/>
</svg>
