<svg width="231" height="298" viewBox="0 0 231 298" fill="none" xmlns="http://www.w3.org/2000/svg">
<path d="M44 11L3 71H165L208 11H44Z" stroke="#8485E8" stroke-width="3"/>
<path d="M10.5943 69.518C28.7824 2.84745 145.075 -19.5763 190.163 25.5994C235.25 70.7752 105.464 112.873 145.271 142.383C185.078 171.893 129.741 142.277 173.203 97.4661C216.666 52.6548 237.043 193.284 226.076 243.196C215.109 293.108 182.368 292.07 163.227 295.1C147.626 297.569 124.661 295.392 96.388 283.122C70.1121 271.718 55.7876 258.408 46.508 248.187C33.5527 233.916 21.4897 218.412 14.5847 197.281C7.67971 176.15 -7.59376 136.189 10.5943 69.518Z" fill="#FDDC3E" stroke="#FD3E3E" stroke-width="3" stroke-linecap="round"/>
<path d="M3 71H165" stroke="#8485E8" stroke-width="3"/>
<path d="M208 11L164 71" stroke="#8485E8" stroke-width="3"/>
<path d="M165 71V290H15" stroke="#8485E8" stroke-width="3"/>
</svg>
