<svg width="315" height="263" viewBox="0 0 315 263" fill="none" xmlns="http://www.w3.org/2000/svg">
<rect width="315" height="263" fill="#3E73FD"/>
<path d="M219 244L299 204" stroke="white" stroke-width="5" stroke-linecap="square"/>
<path d="M302 7V168" stroke="white" stroke-width="5" stroke-linecap="round"/>
<path d="M101 245L293 190" stroke="white" stroke-width="5" stroke-linecap="round"/>
<path d="M300.541 208.599L300.501 208.773C295.953 228.498 263.353 208.642 258.502 218.741C252.438 231.365 213.809 221.647 208.503 213.757C203.955 226.381 142.373 227.504 107.504 226.715C102.579 227.118 97.2186 227.343 91.6506 227.207C74.8695 229.056 75.6675 235.136 44.5056 237.68C5.84684 240.836 1.95884 220.398 6.50634 188.837C11.0538 157.277 52.7817 72.1272 97.5047 45.3016C142.228 18.476 171.426 4.10763 249.502 48.2919C327.35 92.3475 305.18 188.486 300.541 208.599Z" fill="#FD3E60"/>
<path d="M107.504 226.715C72.6358 225.926 83.1644 234.524 44.5056 237.68C5.84684 240.836 1.95884 220.398 6.50634 188.837C11.0538 157.277 52.7817 72.1272 97.5047 45.3016C142.228 18.476 171.426 4.10763 249.502 48.2919C327.578 92.4762 305.049 189.048 300.501 208.773C295.953 228.498 263.353 208.642 258.502 218.741C252.438 231.365 213.809 221.647 208.503 213.757M107.504 226.715C142.373 227.504 203.955 226.381 208.503 213.757M107.504 226.715C85.0167 228.556 53.4562 226.67 34.5058 203.789C15.5554 180.908 24.7801 154.16 22.506 173.886M208.503 213.757C213.051 201.133 215.42 176.165 199.503 146.973C183.585 117.781 157.874 98.5042 146.504 96.1372" stroke="white" stroke-width="5" stroke-linecap="round"/>
<path d="M14 63L100 7H299" stroke="white" stroke-width="5" stroke-linecap="round"/>
<path d="M301 7L215 63M215 63L16 63M215 63V246L102 246" stroke="white" stroke-width="5" stroke-linecap="round"/>
</svg>
