<svg width="1179" height="233" viewBox="0 0 1179 233" fill="none" xmlns="http://www.w3.org/2000/svg">
<path d="M8.85 156.937C9.912 154.695 10.856 152.276 11.682 149.68C12.508 146.966 13.216 143.721 13.806 139.945C14.396 136.169 14.868 131.685 15.222 126.493C15.576 121.183 15.812 114.811 15.93 107.377C16.166 99.943 16.284 91.27 16.284 81.358C16.402 71.328 16.461 59.646 16.461 46.312H79.119V156.937H89.739V197.116H67.968V178H24.426V197.116H2.655V156.937H8.85ZM55.578 156.937V66.667H38.232C38.232 76.933 38.173 86.019 38.055 93.925C37.937 101.713 37.76 108.616 37.524 114.634C37.288 120.652 36.934 125.844 36.462 130.21C36.108 134.576 35.695 138.411 35.223 141.715C34.751 144.901 34.22 147.733 33.63 150.211C33.04 152.571 32.391 154.813 31.683 156.937H55.578ZM160.954 46.312V66.844H126.085V99.412H155.113V120.475H126.085V156.937H162.016V178H103.075V46.312H160.954ZM177.747 46.312H201.288V98.527H223.059V46.312H246.6V178H223.059V120.652H201.288V178H177.747V46.312ZM298.819 158.884C302.477 158.884 305.073 157.881 306.607 155.875C308.141 153.869 308.908 150.683 308.908 146.317V129.502C308.908 125.018 308.141 121.714 306.607 119.59C305.191 117.466 302.477 116.404 298.465 116.404H289.615V158.884H298.819ZM289.615 97.288H305.014C310.088 97.288 314.336 97.996 317.758 99.412C321.298 100.828 324.13 102.834 326.254 105.43C328.496 107.908 330.089 110.858 331.033 114.28C332.095 117.702 332.626 121.36 332.626 125.254V150.034C332.626 153.928 332.095 157.586 331.033 161.008C330.089 164.43 328.496 167.439 326.254 170.035C324.13 172.513 321.298 174.46 317.758 175.876C314.218 177.292 309.97 178 305.014 178H266.074V46.312H289.615V97.288ZM375.662 46.312H415.664C425.812 46.312 432.892 48.436 436.904 52.684C440.916 56.814 442.922 63.245 442.922 71.977V83.659C442.922 87.317 442.568 90.444 441.86 93.04C441.152 95.636 440.208 97.819 439.028 99.589C437.848 101.241 436.55 102.598 435.134 103.66C433.718 104.604 432.243 105.371 430.709 105.961C432.361 106.551 434.013 107.377 435.665 108.439C437.435 109.501 438.969 110.976 440.267 112.864C441.683 114.752 442.804 117.053 443.63 119.767C444.456 122.481 444.869 125.844 444.869 129.856V149.149C444.869 158.117 442.45 165.197 437.612 170.389C432.892 175.463 425.576 178 415.664 178H375.662V46.312ZM398.849 64.012V98.881H409.469C413.363 98.881 416.077 97.878 417.611 95.872C419.263 93.866 420.089 90.68 420.089 86.314V75.871C420.089 71.505 419.263 68.437 417.611 66.667C416.077 64.897 413.304 64.012 409.292 64.012H398.849ZM398.849 117.82V159.415H409.823C413.953 159.415 416.844 158.471 418.496 156.583C420.148 154.695 420.974 151.391 420.974 146.671V130.741C420.974 126.139 420.089 122.835 418.319 120.829C416.549 118.823 413.599 117.82 409.469 117.82H398.849ZM512.248 178H488.707V46.312H555.082V178H531.541V66.667H512.248V178ZM608.067 158.884C611.961 158.884 614.675 157.645 616.209 155.167C617.743 152.689 618.51 149.208 618.51 144.724V123.307H641.343V145.963C641.343 150.565 640.753 154.931 639.573 159.061C638.511 163.073 636.741 166.613 634.263 169.681C631.785 172.749 628.54 175.168 624.528 176.938C620.634 178.708 615.855 179.593 610.191 179.593H605.943C600.279 179.593 595.441 178.826 591.429 177.292C587.417 175.64 584.113 173.339 581.517 170.389C579.039 167.439 577.151 163.899 575.853 159.769C574.673 155.521 574.083 150.86 574.083 145.786V78.703C574.083 68.201 576.561 60 581.517 54.1C586.473 48.082 594.379 45.073 605.235 45.073H609.483C621.165 45.073 629.366 47.905 634.086 53.569C638.924 59.233 641.343 67.552 641.343 78.526V94.456H618.51V79.588C618.51 74.986 617.743 71.505 616.209 69.145C614.675 66.667 611.961 65.428 608.067 65.428C604.291 65.428 601.636 66.608 600.102 68.968C598.568 71.328 597.801 74.868 597.801 79.588V144.547C597.801 149.267 598.568 152.866 600.102 155.344C601.636 157.704 604.291 158.884 608.067 158.884ZM707.27 130.918C707.27 125.49 707.27 120.652 707.27 116.404C707.388 112.156 707.506 108.439 707.624 105.253C707.742 101.949 707.86 99.058 707.978 96.58C708.096 94.102 708.273 91.801 708.509 89.677C707.447 93.807 706.208 98.645 704.792 104.191C703.376 109.619 701.488 116.168 699.128 123.838L682.844 178H659.657V46.312H682.313V93.394C682.313 99.058 682.254 103.955 682.136 108.085C682.136 112.097 682.077 115.637 681.959 118.705C681.959 121.773 681.9 124.487 681.782 126.847C681.664 129.207 681.546 131.449 681.428 133.573C682.018 131.331 682.608 129.089 683.198 126.847C683.788 124.487 684.437 122.009 685.145 119.413C685.853 116.699 686.62 113.808 687.446 110.74C688.272 107.672 689.275 104.25 690.455 100.474L706.739 46.312H729.926V178H707.27V130.918ZM741.756 178L765.474 108.262L744.234 46.312H768.306L781.05 90.031L793.794 46.312H816.981L796.095 108.793L819.105 178H795.564L780.342 129.679L764.943 178H741.756ZM839.313 157.291C841.555 157.291 843.089 156.996 843.915 156.406C844.859 155.698 845.449 154.518 845.685 152.866L846.039 150.565C846.157 149.621 846.157 148.736 846.039 147.91C846.039 147.084 845.921 146.199 845.685 145.255C845.567 144.311 845.331 143.19 844.977 141.892C844.623 140.594 844.21 139.001 843.738 137.113L821.613 46.312H845.331L857.898 111.625L870.642 46.312H893.121L865.509 160.654C864.801 163.722 863.975 166.377 863.031 168.619C862.087 170.743 860.848 172.513 859.314 173.929C857.78 175.345 855.892 176.407 853.65 177.115C851.526 177.705 848.871 178 845.685 178H832.233V157.291H839.313ZM904.933 46.312H928.474V156.937H945.112V46.312H968.653V156.937H985.291V46.312H1008.83V178H904.933V46.312ZM1028.35 178V46.312H1051.71V104.899L1075.43 46.312H1098.44L1073.31 107.731L1100.92 178H1076.85L1051.71 114.988V178H1028.35ZM1170.23 46.312V66.844H1135.37V99.412H1164.39V120.475H1135.37V156.937H1171.3V178H1112.36V46.312H1170.23Z" fill="black"/>
<path d="M1 3H1179" stroke="black" stroke-width="5"/>
<path d="M1 230H1179" stroke="black" stroke-width="5"/>
</svg>
