<svg width="381" height="324" viewBox="0 0 381 324" fill="none" xmlns="http://www.w3.org/2000/svg">
<g clip-path="url(#clip0_330_1318)">
<rect width="381" height="324" rx="30.0546" fill="white"/>
<rect x="-11.02" width="403.734" height="40.5738" fill="black"/>
<circle cx="30.0546" cy="20.5375" r="8.01457" fill="white"/>
<circle cx="53.0966" cy="20.5375" r="8.01457" fill="white"/>
<circle cx="76.1386" cy="20.5375" r="8.01457" fill="white"/>
<circle cx="66" cy="250" r="59" fill="#3E73FD"/>
<circle cx="316" cy="253" r="59" fill="#3E73FD"/>
<ellipse cx="316" cy="167.5" rx="59" ry="26.5" fill="#3E73FD"/>
<ellipse cx="316" cy="128" rx="59" ry="15" fill="#3E73FD"/>
<ellipse cx="316" cy="106.5" rx="59" ry="10.5" fill="#3E73FD"/>
<ellipse cx="316" cy="85.5" rx="59" ry="10.5" fill="#3E73FD"/>
<ellipse cx="316" cy="66.5" rx="59" ry="10.5" fill="#3E73FD"/>
<circle cx="191" cy="111" r="59" fill="#3E73FD"/>
<ellipse cx="191" cy="211.5" rx="59" ry="41.5" fill="#3E73FD"/>
<ellipse cx="191" cy="281" rx="59" ry="28" fill="#3E73FD"/>
<ellipse cx="66" cy="158" rx="59" ry="33" fill="#3E73FD"/>
<ellipse cx="66" cy="100" rx="59" ry="25" fill="#3E73FD"/>
<ellipse cx="66" cy="65.5" rx="59" ry="9.5" fill="#3E73FD"/>
</g>
<rect x="0.751366" y="0.751366" width="379.497" height="322.497" rx="29.3033" stroke="black" stroke-width="1.50273"/>
<defs>
<clipPath id="clip0_330_1318">
<rect width="381" height="324" rx="30.0546" fill="white"/>
</clipPath>
</defs>
</svg>
