<svg width="382" height="275" viewBox="0 0 382 275" fill="none" xmlns="http://www.w3.org/2000/svg">
<g clip-path="url(#clip0_330_1336)">
<rect width="381.193" height="275" rx="30.0546" fill="white"/>
<rect x="-11.02" width="403.734" height="40.5738" fill="black"/>
<circle cx="30.0546" cy="20.5375" r="8.01457" fill="white"/>
<circle cx="53.0966" cy="20.5375" r="8.01457" fill="white"/>
<circle cx="76.1386" cy="20.5375" r="8.01457" fill="white"/>
<path d="M117.564 85.27C42.3977 81.0919 10.3826 157.691 13.1665 214.792C15.3125 258.808 107.234 251.189 157.93 241.023C164.426 248.527 181.315 261.866 196.905 255.181C216.392 246.824 266.503 249.61 326.357 249.61C386.211 249.61 369.508 239.861 350.02 175.796C334.43 124.544 270.626 121.945 240.673 127.051C240.351 98.8018 228.733 73.9417 212.216 57.4158C184.377 29.5616 192.73 89.4481 117.564 85.27Z" fill="#8485E8"/>
<path d="M163.498 239.861C161.706 240.25 159.847 240.638 157.93 241.023M223.352 188.331C235.806 167.373 240.893 146.416 240.673 127.051M240.673 127.051C240.351 98.8018 228.733 73.9417 212.216 57.4158C184.377 29.5616 192.73 89.4481 117.564 85.27C42.3977 81.0919 10.3826 157.691 13.1665 214.792C15.3125 258.808 107.234 251.189 157.93 241.023M240.673 127.051C270.626 121.945 334.43 124.544 350.02 175.796C369.508 239.861 386.211 249.61 326.357 249.61C266.503 249.61 216.392 246.824 196.905 255.181C181.315 261.866 164.426 248.527 157.93 241.023" stroke="#FD3E3E" stroke-width="5"/>
<path d="M348 234V58L256 78.5V209.5L348 234Z" stroke="white" stroke-width="5"/>
</g>
<rect x="0.751366" y="0.751366" width="379.69" height="273.497" rx="29.3033" stroke="#FD3E3E" stroke-width="1.50273"/>
<defs>
<clipPath id="clip0_330_1336">
<rect width="381.193" height="275" rx="30.0546" fill="white"/>
</clipPath>
</defs>
</svg>
