<svg width="454" height="328" viewBox="0 0 454 328" fill="none" xmlns="http://www.w3.org/2000/svg">
<g clip-path="url(#clip0_330_1353)">
<rect width="454" height="327.524" rx="35.795" fill="white"/>
<rect x="-13.125" width="480.846" height="48.3233" fill="black"/>
<circle cx="35.7948" cy="24.4599" r="9.54533" fill="white"/>
<circle cx="63.2377" cy="24.4599" r="9.54533" fill="white"/>
<circle cx="90.6806" cy="24.4599" r="9.54533" fill="white"/>
<circle cx="44.5" cy="90.5" r="12" stroke="#FD3E3E" stroke-width="5"/>
<circle cx="44.5" cy="135.5" r="12" stroke="#FD3E3E" stroke-width="5"/>
<circle cx="44.5" cy="180.5" r="12" stroke="#FD3E3E" stroke-width="5"/>
<circle cx="44.5" cy="225.5" r="12" stroke="#FD3E3E" stroke-width="5"/>
<circle cx="44.5" cy="270.5" r="12" stroke="#FD3E3E" stroke-width="5"/>
<path d="M82.296 89.014C83.044 89.3367 83.638 89.828 84.078 90.488C84.5327 91.1333 84.76 91.874 84.76 92.71C84.76 93.898 84.342 94.91 83.506 95.746C82.67 96.582 81.658 97 80.47 97H73.76V81.6H79.964C81.108 81.6 82.0833 82.0107 82.89 82.832C83.6967 83.6387 84.1 84.6067 84.1 85.736C84.1 87.1733 83.4987 88.266 82.296 89.014ZM79.964 83.052H75.3V88.42H79.964C80.6827 88.42 81.2913 88.1633 81.79 87.65C82.3033 87.122 82.56 86.484 82.56 85.736C82.56 85.0027 82.3033 84.372 81.79 83.844C81.2913 83.316 80.6827 83.052 79.964 83.052ZM80.47 95.548C81.2327 95.548 81.878 95.2767 82.406 94.734C82.9487 94.1767 83.22 93.502 83.22 92.71C83.22 91.9327 82.9487 91.2653 82.406 90.708C81.878 90.1507 81.2327 89.872 80.47 89.872H75.3V95.548H80.47ZM91.6486 90.18C92.6752 90.18 93.5406 90.5027 94.2446 91.148C94.9632 91.7787 95.3226 92.5927 95.3226 93.59C95.3226 94.5873 94.9632 95.4087 94.2446 96.054C93.5406 96.6847 92.6752 97 91.6486 97H87.1826V86H88.6346V90.18H91.6486ZM96.8626 86H98.3146V97H96.8626V86ZM91.6486 95.592C92.2646 95.592 92.7852 95.4087 93.2106 95.042C93.6506 94.6753 93.8706 94.1913 93.8706 93.59C93.8706 92.9887 93.6506 92.5047 93.2106 92.138C92.7852 91.7713 92.2646 91.588 91.6486 91.588H88.6346V95.592H91.6486ZM110.645 86V97H109.193V87.408H102.857V97H101.405V86H110.645ZM121.724 86H122.956V97H121.504V88.53L114.948 97H113.716V86H115.168V94.47L121.724 86ZM131.152 97.264C129.495 97.264 128.116 96.714 127.016 95.614C125.916 94.4993 125.366 93.128 125.366 91.5C125.366 89.872 125.916 88.508 127.016 87.408C128.116 86.2933 129.495 85.736 131.152 85.736C132.238 85.736 133.213 86 134.078 86.528C134.944 87.0413 135.574 87.738 135.97 88.618L134.782 89.3C134.489 88.64 134.012 88.1193 133.352 87.738C132.707 87.342 131.974 87.144 131.152 87.144C129.935 87.144 128.908 87.5693 128.072 88.42C127.236 89.256 126.818 90.2827 126.818 91.5C126.818 92.7173 127.236 93.7513 128.072 94.602C128.908 95.438 129.935 95.856 131.152 95.856C131.974 95.856 132.707 95.6653 133.352 95.284C133.998 94.888 134.504 94.36 134.87 93.7L136.08 94.404C135.626 95.284 134.958 95.9807 134.078 96.494C133.198 97.0073 132.223 97.264 131.152 97.264ZM147.518 86H148.97V97H147.518V94.844C146.506 96.4573 145.024 97.264 143.074 97.264C141.504 97.264 140.162 96.7067 139.048 95.592C137.948 94.4773 137.398 93.1133 137.398 91.5C137.398 89.8867 137.948 88.5227 139.048 87.408C140.162 86.2933 141.504 85.736 143.074 85.736C145.024 85.736 146.506 86.5427 147.518 88.156V86ZM140.104 94.602C140.94 95.438 141.966 95.856 143.184 95.856C144.401 95.856 145.428 95.438 146.264 94.602C147.1 93.7513 147.518 92.7173 147.518 91.5C147.518 90.2827 147.1 89.256 146.264 88.42C145.428 87.5693 144.401 87.144 143.184 87.144C141.966 87.144 140.94 87.5693 140.104 88.42C139.268 89.256 138.85 90.2827 138.85 91.5C138.85 92.7173 139.268 93.7513 140.104 94.602ZM159.964 86V87.408H156.07V97H154.618V87.408H150.724V86H159.964ZM166.199 90.18C167.226 90.18 168.091 90.5027 168.795 91.148C169.514 91.7787 169.873 92.5927 169.873 93.59C169.873 94.5873 169.514 95.4087 168.795 96.054C168.091 96.6847 167.226 97 166.199 97H161.733V86H163.185V90.18H166.199ZM166.199 95.592C166.815 95.592 167.336 95.4087 167.761 95.042C168.201 94.6753 168.421 94.1913 168.421 93.59C168.421 92.9887 168.201 92.5047 167.761 92.138C167.336 91.7713 166.815 91.588 166.199 91.588H163.185V95.592H166.199ZM188.347 86V97H186.895V88.222L183.045 94.47H182.869L179.019 88.222V97H177.567V86H179.239L182.957 92.028L186.675 86H188.347ZM195.891 90.18C196.917 90.18 197.783 90.5027 198.487 91.148C199.205 91.7787 199.565 92.5927 199.565 93.59C199.565 94.5873 199.205 95.4087 198.487 96.054C197.783 96.6847 196.917 97 195.891 97H191.425V86H192.877V90.18H195.891ZM201.105 86H202.557V97H201.105V86ZM195.891 95.592C196.507 95.592 197.027 95.4087 197.453 95.042C197.893 94.6753 198.113 94.1913 198.113 93.59C198.113 92.9887 197.893 92.5047 197.453 92.138C197.027 91.7713 196.507 91.588 195.891 91.588H192.877V95.592H195.891ZM218.935 86H220.387V97H205.647V86H207.099V95.592H212.291V86H213.743V95.592H218.935V86ZM227.924 90.18C228.951 90.18 229.816 90.5027 230.52 91.148C231.239 91.7787 231.598 92.5927 231.598 93.59C231.598 94.5873 231.239 95.4087 230.52 96.054C229.816 96.6847 228.951 97 227.924 97H223.458V86H224.91V90.18H227.924ZM227.924 95.592C228.54 95.592 229.061 95.4087 229.486 95.042C229.926 94.6753 230.146 94.1913 230.146 93.59C230.146 92.9887 229.926 92.5047 229.486 92.138C229.061 91.7713 228.54 91.588 227.924 91.588H224.91V95.592H227.924ZM247.3 86H248.532V97H247.08V88.53L240.524 97H239.292V86H240.744V94.47L247.3 86ZM257.279 91.346C258.555 91.83 259.193 92.71 259.193 93.986C259.193 94.8953 258.833 95.6727 258.115 96.318C257.411 96.9487 256.399 97.264 255.079 97.264C252.864 97.264 251.412 96.384 250.723 94.624L251.955 93.898C252.409 95.2033 253.451 95.856 255.079 95.856C255.929 95.856 256.582 95.6727 257.037 95.306C257.506 94.9393 257.741 94.47 257.741 93.898C257.741 93.3847 257.55 92.9667 257.169 92.644C256.787 92.3213 256.274 92.16 255.629 92.16H254.023V90.752H255.189C255.819 90.752 256.311 90.598 256.663 90.29C257.029 89.9673 257.213 89.5273 257.213 88.97C257.213 88.442 257 88.0093 256.575 87.672C256.149 87.32 255.577 87.144 254.859 87.144C253.48 87.144 252.563 87.694 252.109 88.794L250.899 88.09C251.632 86.5207 252.952 85.736 254.859 85.736C256.017 85.736 256.941 86.044 257.631 86.66C258.32 87.2613 258.665 88.002 258.665 88.882C258.665 90.0113 258.203 90.8327 257.279 91.346ZM276.139 86V97H274.687V87.408H268.351V97H266.899V86H276.139ZM288.67 86H290.122V97H288.67V94.844C287.658 96.4573 286.177 97.264 284.226 97.264C282.657 97.264 281.315 96.7067 280.2 95.592C279.1 94.4773 278.55 93.1133 278.55 91.5C278.55 89.8867 279.1 88.5227 280.2 87.408C281.315 86.2933 282.657 85.736 284.226 85.736C286.177 85.736 287.658 86.5427 288.67 88.156V86ZM281.256 94.602C282.092 95.438 283.119 95.856 284.336 95.856C285.553 95.856 286.58 95.438 287.416 94.602C288.252 93.7513 288.67 92.7173 288.67 91.5C288.67 90.2827 288.252 89.256 287.416 88.42C286.58 87.5693 285.553 87.144 284.336 87.144C283.119 87.144 282.092 87.5693 281.256 88.42C280.42 89.256 280.002 90.2827 280.002 91.5C280.002 92.7173 280.42 93.7513 281.256 94.602ZM302.216 86V97H300.764V87.408H295.792V92.314C295.792 94.1473 295.44 95.4087 294.736 96.098C294.047 96.7873 293.094 97.088 291.876 97V95.636C292.712 95.724 293.328 95.526 293.724 95.042C294.135 94.558 294.34 93.6487 294.34 92.314V86H302.216ZM314.752 86H316.204V97H314.752V94.844C313.74 96.4573 312.259 97.264 310.308 97.264C308.739 97.264 307.397 96.7067 306.282 95.592C305.182 94.4773 304.632 93.1133 304.632 91.5C304.632 89.8867 305.182 88.5227 306.282 87.408C307.397 86.2933 308.739 85.736 310.308 85.736C312.259 85.736 313.74 86.5427 314.752 88.156V86ZM307.338 94.602C308.174 95.438 309.201 95.856 310.418 95.856C311.635 95.856 312.662 95.438 313.498 94.602C314.334 93.7513 314.752 92.7173 314.752 91.5C314.752 90.2827 314.334 89.256 313.498 88.42C312.662 87.5693 311.635 87.144 310.418 87.144C309.201 87.144 308.174 87.5693 307.338 88.42C306.502 89.256 306.084 90.2827 306.084 91.5C306.084 92.7173 306.502 93.7513 307.338 94.602ZM327.198 86V87.408H323.304V97H321.852V87.408H317.958V86H327.198ZM333.434 90.18C334.46 90.18 335.326 90.5027 336.03 91.148C336.748 91.7787 337.108 92.5927 337.108 93.59C337.108 94.5873 336.748 95.4087 336.03 96.054C335.326 96.6847 334.46 97 333.434 97H328.968V86H330.42V90.18H333.434ZM338.648 86H340.1V97H338.648V86ZM333.434 95.592C334.05 95.592 334.57 95.4087 334.996 95.042C335.436 94.6753 335.656 94.1913 335.656 93.59C335.656 92.9887 335.436 92.5047 334.996 92.138C334.57 91.7713 334.05 91.588 333.434 91.588H330.42V95.592H333.434ZM365.256 87.936C364.303 87.936 363.504 87.6207 362.858 86.99C362.213 86.3447 361.89 85.56 361.89 84.636C361.89 83.712 362.213 82.9347 362.858 82.304C363.504 81.6587 364.303 81.336 365.256 81.336C366.21 81.336 367.009 81.6587 367.654 82.304C368.3 82.9347 368.622 83.712 368.622 84.636C368.622 85.56 368.307 86.3447 367.676 86.99C367.046 87.6207 366.239 87.936 365.256 87.936ZM358.81 81.6H360.35V97H359.03L350.45 84.46V97H348.91V81.6H350.23L358.81 94.14V81.6ZM363.848 86.044C364.215 86.4253 364.684 86.616 365.256 86.616C365.828 86.616 366.298 86.4253 366.664 86.044C367.031 85.6627 367.214 85.1933 367.214 84.636C367.214 84.0787 367.031 83.6093 366.664 83.228C366.298 82.8467 365.828 82.656 365.256 82.656C364.684 82.656 364.215 82.8467 363.848 83.228C363.482 83.6093 363.298 84.0787 363.298 84.636C363.298 85.1933 363.482 85.6627 363.848 86.044ZM362.154 90.884V89.476H368.358V90.884H362.154ZM380.494 86.418C380.494 87.5767 380.179 88.6033 379.548 89.498L374.51 97H372.772L376.556 91.368C376.16 91.456 375.749 91.5 375.324 91.5C373.813 91.5 372.574 91.0307 371.606 90.092C370.638 89.1387 370.154 87.914 370.154 86.418C370.154 84.922 370.638 83.7047 371.606 82.766C372.574 81.8127 373.813 81.336 375.324 81.336C376.835 81.336 378.074 81.8127 379.042 82.766C380.01 83.7047 380.494 84.922 380.494 86.418ZM372.684 83.822C372.024 84.482 371.694 85.3473 371.694 86.418C371.694 87.4887 372.024 88.354 372.684 89.014C373.359 89.674 374.239 90.004 375.324 90.004C376.409 90.004 377.282 89.674 377.942 89.014C378.617 88.354 378.954 87.4887 378.954 86.418C378.954 85.3473 378.617 84.482 377.942 83.822C377.282 83.162 376.409 82.832 375.324 82.832C374.239 82.832 373.359 83.162 372.684 83.822Z" fill="black"/>
<path d="M84.76 127.6V143H83.22V129.052H75.3V143H73.76V127.6H84.76ZM93.9594 131.736C95.5288 131.736 96.8634 132.293 97.9634 133.408C99.0781 134.523 99.6354 135.887 99.6354 137.5C99.6354 139.113 99.0781 140.477 97.9634 141.592C96.8634 142.707 95.5288 143.264 93.9594 143.264C92.0088 143.264 90.5274 142.457 89.5154 140.844V147.4H88.0634V132H89.5154V134.156C90.5274 132.543 92.0088 131.736 93.9594 131.736ZM90.7694 140.602C91.6054 141.438 92.6321 141.856 93.8494 141.856C95.0668 141.856 96.0934 141.438 96.9294 140.602C97.7654 139.751 98.1834 138.717 98.1834 137.5C98.1834 136.283 97.7654 135.256 96.9294 134.42C96.0934 133.569 95.0668 133.144 93.8494 133.144C92.6321 133.144 91.6054 133.569 90.7694 134.42C89.9334 135.256 89.5154 136.283 89.5154 137.5C89.5154 138.717 89.9334 139.751 90.7694 140.602ZM111.268 141.614C110.153 142.714 108.789 143.264 107.176 143.264C105.562 143.264 104.191 142.714 103.062 141.614C101.947 140.499 101.39 139.128 101.39 137.5C101.39 135.872 101.947 134.508 103.062 133.408C104.191 132.293 105.562 131.736 107.176 131.736C108.789 131.736 110.153 132.293 111.268 133.408C112.397 134.508 112.962 135.872 112.962 137.5C112.962 139.128 112.397 140.499 111.268 141.614ZM104.096 140.602C104.932 141.438 105.958 141.856 107.176 141.856C108.393 141.856 109.42 141.438 110.256 140.602C111.092 139.751 111.51 138.717 111.51 137.5C111.51 136.283 111.092 135.256 110.256 134.42C109.42 133.569 108.393 133.144 107.176 133.144C105.958 133.144 104.932 133.569 104.096 134.42C103.26 135.256 102.842 136.283 102.842 137.5C102.842 138.717 103.26 139.751 104.096 140.602ZM120.518 143.264C118.86 143.264 117.482 142.714 116.382 141.614C115.282 140.499 114.732 139.128 114.732 137.5C114.732 135.872 115.282 134.508 116.382 133.408C117.482 132.293 118.86 131.736 120.518 131.736C121.603 131.736 122.578 132 123.444 132.528C124.309 133.041 124.94 133.738 125.336 134.618L124.148 135.3C123.854 134.64 123.378 134.119 122.718 133.738C122.072 133.342 121.339 133.144 120.518 133.144C119.3 133.144 118.274 133.569 117.438 134.42C116.602 135.256 116.184 136.283 116.184 137.5C116.184 138.717 116.602 139.751 117.438 140.602C118.274 141.438 119.3 141.856 120.518 141.856C121.339 141.856 122.072 141.665 122.718 141.284C123.363 140.888 123.869 140.36 124.236 139.7L125.446 140.404C124.991 141.284 124.324 141.981 123.444 142.494C122.564 143.007 121.588 143.264 120.518 143.264ZM136.335 132V143H134.883V133.408H129.911V138.314C129.911 140.147 129.559 141.409 128.855 142.098C128.166 142.787 127.213 143.088 125.995 143V141.636C126.831 141.724 127.447 141.526 127.843 141.042C128.254 140.558 128.459 139.649 128.459 138.314V132H136.335ZM144.493 131.736C146.121 131.736 147.434 132.315 148.431 133.474C149.443 134.618 149.949 135.975 149.949 137.544C149.949 137.705 149.934 137.933 149.905 138.226H140.247C140.394 139.341 140.863 140.228 141.655 140.888C142.462 141.533 143.452 141.856 144.625 141.856C145.461 141.856 146.18 141.687 146.781 141.35C147.397 140.998 147.859 140.543 148.167 139.986L149.443 140.734C148.959 141.511 148.299 142.127 147.463 142.582C146.627 143.037 145.674 143.264 144.603 143.264C142.872 143.264 141.464 142.721 140.379 141.636C139.294 140.551 138.751 139.172 138.751 137.5C138.751 135.857 139.286 134.486 140.357 133.386C141.428 132.286 142.806 131.736 144.493 131.736ZM144.493 133.144C143.349 133.144 142.388 133.489 141.611 134.178C140.848 134.853 140.394 135.733 140.247 136.818H148.453C148.306 135.659 147.859 134.757 147.111 134.112C146.363 133.467 145.49 133.144 144.493 133.144ZM161.069 141.592H162.609V145.948H161.157V143H152.181V145.948H150.729V141.592H152.071C152.819 140.609 153.193 139.223 153.193 137.434V132H161.069V141.592ZM153.831 141.592H159.617V133.408H154.645V137.434C154.645 139.121 154.374 140.507 153.831 141.592ZM172.814 132H174.046V143H172.594V134.53L166.038 143H164.806V132H166.258V140.47L172.814 132ZM185.036 132V133.408H181.142V143H179.69V133.408H175.796V132H185.036ZM191.272 136.18C192.298 136.18 193.164 136.503 193.868 137.148C194.586 137.779 194.946 138.593 194.946 139.59C194.946 140.587 194.586 141.409 193.868 142.054C193.164 142.685 192.298 143 191.272 143H186.806V132H188.258V136.18H191.272ZM191.272 141.592C191.888 141.592 192.408 141.409 192.834 141.042C193.274 140.675 193.494 140.191 193.494 139.59C193.494 138.989 193.274 138.505 192.834 138.138C192.408 137.771 191.888 137.588 191.272 137.588H188.258V141.592H191.272ZM208.316 137.346C209.592 137.83 210.23 138.71 210.23 139.986C210.23 140.895 209.87 141.673 209.152 142.318C208.448 142.949 207.436 143.264 206.116 143.264C203.901 143.264 202.449 142.384 201.76 140.624L202.992 139.898C203.446 141.203 204.488 141.856 206.116 141.856C206.966 141.856 207.619 141.673 208.074 141.306C208.543 140.939 208.778 140.47 208.778 139.898C208.778 139.385 208.587 138.967 208.206 138.644C207.824 138.321 207.311 138.16 206.666 138.16H205.06V136.752H206.226C206.856 136.752 207.348 136.598 207.7 136.29C208.066 135.967 208.25 135.527 208.25 134.97C208.25 134.442 208.037 134.009 207.612 133.672C207.186 133.32 206.614 133.144 205.896 133.144C204.517 133.144 203.6 133.694 203.146 134.794L201.936 134.09C202.669 132.521 203.989 131.736 205.896 131.736C207.054 131.736 207.978 132.044 208.668 132.66C209.357 133.261 209.702 134.002 209.702 134.882C209.702 136.011 209.24 136.833 208.316 137.346ZM221.896 132H223.348V143H221.896V140.844C220.884 142.457 219.403 143.264 217.452 143.264C215.883 143.264 214.541 142.707 213.426 141.592C212.326 140.477 211.776 139.113 211.776 137.5C211.776 135.887 212.326 134.523 213.426 133.408C214.541 132.293 215.883 131.736 217.452 131.736C219.403 131.736 220.884 132.543 221.896 134.156V132ZM214.482 140.602C215.318 141.438 216.345 141.856 217.562 141.856C218.78 141.856 219.806 141.438 220.642 140.602C221.478 139.751 221.896 138.717 221.896 137.5C221.896 136.283 221.478 135.256 220.642 134.42C219.806 133.569 218.78 133.144 217.562 133.144C216.345 133.144 215.318 133.569 214.482 134.42C213.646 135.256 213.228 136.283 213.228 137.5C213.228 138.717 213.646 139.751 214.482 140.602ZM241.163 132V143H239.711V133.408H233.375V143H231.923V132H241.163ZM253.693 132H255.145V143H253.693V140.844C252.681 142.457 251.2 143.264 249.249 143.264C247.68 143.264 246.338 142.707 245.223 141.592C244.123 140.477 243.573 139.113 243.573 137.5C243.573 135.887 244.123 134.523 245.223 133.408C246.338 132.293 247.68 131.736 249.249 131.736C251.2 131.736 252.681 132.543 253.693 134.156V132ZM246.279 140.602C247.115 141.438 248.142 141.856 249.359 141.856C250.577 141.856 251.603 141.438 252.439 140.602C253.275 139.751 253.693 138.717 253.693 137.5C253.693 136.283 253.275 135.256 252.439 134.42C251.603 133.569 250.577 133.144 249.359 133.144C248.142 133.144 247.115 133.569 246.279 134.42C245.443 135.256 245.025 136.283 245.025 137.5C245.025 138.717 245.443 139.751 246.279 140.602ZM267.24 141.592H269V145.948H267.548V143H258.22V132H259.672V141.592H265.788V132H267.24V141.592ZM279.204 132H280.436V143H278.984V134.53L272.428 143H271.196V132H272.648V140.47L279.204 132ZM288.589 131.736C290.217 131.736 291.529 132.315 292.527 133.474C293.539 134.618 294.045 135.975 294.045 137.544C294.045 137.705 294.03 137.933 294.001 138.226H284.343C284.489 139.341 284.959 140.228 285.751 140.888C286.557 141.533 287.547 141.856 288.721 141.856C289.557 141.856 290.275 141.687 290.877 141.35C291.493 140.998 291.955 140.543 292.263 139.986L293.539 140.734C293.055 141.511 292.395 142.127 291.559 142.582C290.723 143.037 289.769 143.264 288.699 143.264C286.968 143.264 285.56 142.721 284.475 141.636C283.389 140.551 282.847 139.172 282.847 137.5C282.847 135.857 283.382 134.486 284.453 133.386C285.523 132.286 286.902 131.736 288.589 131.736ZM288.589 133.144C287.445 133.144 286.484 133.489 285.707 134.178C284.944 134.853 284.489 135.733 284.343 136.818H292.549C292.402 135.659 291.955 134.757 291.207 134.112C290.459 133.467 289.586 133.144 288.589 133.144ZM304.142 132H305.594V143H304.142V138.204H297.806V143H296.354V132H297.806V136.796H304.142V132ZM316.585 132V133.408H312.691V143H311.239V133.408H307.345V132H316.585ZM327.385 132H328.837V143H327.385V140.844C326.373 142.457 324.891 143.264 322.941 143.264C321.371 143.264 320.029 142.707 318.915 141.592C317.815 140.477 317.265 139.113 317.265 137.5C317.265 135.887 317.815 134.523 318.915 133.408C320.029 132.293 321.371 131.736 322.941 131.736C324.891 131.736 326.373 132.543 327.385 134.156V132ZM319.971 140.602C320.807 141.438 321.833 141.856 323.051 141.856C324.268 141.856 325.295 141.438 326.131 140.602C326.967 139.751 327.385 138.717 327.385 137.5C327.385 136.283 326.967 135.256 326.131 134.42C325.295 133.569 324.268 133.144 323.051 133.144C321.833 133.144 320.807 133.569 319.971 134.42C319.135 135.256 318.717 136.283 318.717 137.5C318.717 138.717 319.135 139.751 319.971 140.602ZM342.691 132V143H341.239V134.222L337.389 140.47H337.213L333.363 134.222V143H331.911V132H333.583L337.301 138.028L341.019 132H342.691ZM353.777 132H355.009V143H353.557V134.53L347.001 143H345.769V132H347.221V140.47L353.777 132Z" fill="black"/>
<path d="M84.76 172.6V188H83.22V174.052H75.3V188H73.76V172.6H84.76ZM93.9594 176.736C95.5288 176.736 96.8634 177.293 97.9634 178.408C99.0781 179.523 99.6354 180.887 99.6354 182.5C99.6354 184.113 99.0781 185.477 97.9634 186.592C96.8634 187.707 95.5288 188.264 93.9594 188.264C92.0088 188.264 90.5274 187.457 89.5154 185.844V192.4H88.0634V177H89.5154V179.156C90.5274 177.543 92.0088 176.736 93.9594 176.736ZM90.7694 185.602C91.6054 186.438 92.6321 186.856 93.8494 186.856C95.0668 186.856 96.0934 186.438 96.9294 185.602C97.7654 184.751 98.1834 183.717 98.1834 182.5C98.1834 181.283 97.7654 180.256 96.9294 179.42C96.0934 178.569 95.0668 178.144 93.8494 178.144C92.6321 178.144 91.6054 178.569 90.7694 179.42C89.9334 180.256 89.5154 181.283 89.5154 182.5C89.5154 183.717 89.9334 184.751 90.7694 185.602ZM110.058 177H111.29V188H109.838V179.53L103.282 188H102.05V177H103.502V185.47L110.058 177ZM122.148 177H123.6V188H122.148V183.204H115.812V188H114.36V177H115.812V181.796H122.148V177ZM134.591 177V188H133.139V183.776H131.247L127.859 188H126.011L129.487 183.732C128.607 183.6 127.881 183.233 127.309 182.632C126.737 182.031 126.451 181.29 126.451 180.41C126.451 179.413 126.803 178.599 127.507 177.968C128.226 177.323 129.098 177 130.125 177H134.591ZM130.125 182.412H133.139V178.408H130.125C129.509 178.408 128.981 178.591 128.541 178.958C128.116 179.325 127.903 179.809 127.903 180.41C127.903 181.011 128.116 181.495 128.541 181.862C128.981 182.229 129.509 182.412 130.125 182.412ZM145.591 177V178.408H141.697V188H140.245V178.408H136.351V177H145.591ZM151.826 181.18C152.853 181.18 153.718 181.503 154.422 182.148C155.141 182.779 155.5 183.593 155.5 184.59C155.5 185.587 155.141 186.409 154.422 187.054C153.718 187.685 152.853 188 151.826 188H147.36V177H148.812V181.18H151.826ZM151.826 186.592C152.442 186.592 152.963 186.409 153.388 186.042C153.828 185.675 154.048 185.191 154.048 184.59C154.048 183.989 153.828 183.505 153.388 183.138C152.963 182.771 152.442 182.588 151.826 182.588H148.812V186.592H151.826ZM172.434 186.592H173.974V190.948H172.522V188H163.546V190.948H162.094V186.592H163.436C164.184 185.609 164.558 184.223 164.558 182.434V177H172.434V186.592ZM165.196 186.592H170.982V178.408H166.01V182.434C166.01 184.121 165.739 185.507 165.196 186.592ZM184.959 186.614C183.845 187.714 182.481 188.264 180.867 188.264C179.254 188.264 177.883 187.714 176.753 186.614C175.639 185.499 175.081 184.128 175.081 182.5C175.081 180.872 175.639 179.508 176.753 178.408C177.883 177.293 179.254 176.736 180.867 176.736C182.481 176.736 183.845 177.293 184.959 178.408C186.089 179.508 186.653 180.872 186.653 182.5C186.653 184.128 186.089 185.499 184.959 186.614ZM177.787 185.602C178.623 186.438 179.65 186.856 180.867 186.856C182.085 186.856 183.111 186.438 183.947 185.602C184.783 184.751 185.201 183.717 185.201 182.5C185.201 181.283 184.783 180.256 183.947 179.42C183.111 178.569 182.085 178.144 180.867 178.144C179.65 178.144 178.623 178.569 177.787 179.42C176.951 180.256 176.533 181.283 176.533 182.5C176.533 183.717 176.951 184.751 177.787 185.602ZM194.209 188.264C192.552 188.264 191.173 187.714 190.073 186.614C188.973 185.499 188.423 184.128 188.423 182.5C188.423 180.872 188.973 179.508 190.073 178.408C191.173 177.293 192.552 176.736 194.209 176.736C195.294 176.736 196.27 177 197.135 177.528C198 178.041 198.631 178.738 199.027 179.618L197.839 180.3C197.546 179.64 197.069 179.119 196.409 178.738C195.764 178.342 195.03 178.144 194.209 178.144C192.992 178.144 191.965 178.569 191.129 179.42C190.293 180.256 189.875 181.283 189.875 182.5C189.875 183.717 190.293 184.751 191.129 185.602C191.965 186.438 192.992 186.856 194.209 186.856C195.03 186.856 195.764 186.665 196.409 186.284C197.054 185.888 197.56 185.36 197.927 184.7L199.137 185.404C198.682 186.284 198.015 186.981 197.135 187.494C196.255 188.007 195.28 188.264 194.209 188.264ZM208.927 177V178.408H205.033V188H203.581V178.408H199.687V177H208.927ZM219.727 177H221.179V188H219.727V185.844C218.715 187.457 217.233 188.264 215.283 188.264C213.713 188.264 212.371 187.707 211.257 186.592C210.157 185.477 209.607 184.113 209.607 182.5C209.607 180.887 210.157 179.523 211.257 178.408C212.371 177.293 213.713 176.736 215.283 176.736C217.233 176.736 218.715 177.543 219.727 179.156V177ZM212.313 185.602C213.149 186.438 214.175 186.856 215.393 186.856C216.61 186.856 217.637 186.438 218.473 185.602C219.309 184.751 219.727 183.717 219.727 182.5C219.727 181.283 219.309 180.256 218.473 179.42C217.637 178.569 216.61 178.144 215.393 178.144C214.175 178.144 213.149 178.569 212.313 179.42C211.477 180.256 211.059 181.283 211.059 182.5C211.059 183.717 211.477 184.751 212.313 185.602ZM231.249 182.346C232.452 182.786 233.053 183.644 233.053 184.92C233.053 185.815 232.752 186.555 232.151 187.142C231.564 187.714 230.714 188 229.599 188H224.253V177H229.159C230.23 177 231.058 177.279 231.645 177.836C232.232 178.379 232.525 179.083 232.525 179.948C232.525 181.048 232.1 181.847 231.249 182.346ZM229.159 178.408H225.705V181.752H229.159C230.435 181.752 231.073 181.18 231.073 180.036C231.073 179.523 230.904 179.127 230.567 178.848C230.244 178.555 229.775 178.408 229.159 178.408ZM229.599 186.592C230.244 186.592 230.736 186.438 231.073 186.13C231.425 185.822 231.601 185.389 231.601 184.832C231.601 184.319 231.425 183.915 231.073 183.622C230.736 183.314 230.244 183.16 229.599 183.16H225.705V186.592H229.599ZM244.141 188H242.205L236.705 182.698V188H235.253V177H236.705V181.862L241.941 177H243.921L238.245 182.28L244.141 188ZM253.614 177H255.154L250.446 189.012C250.021 190.097 249.412 190.948 248.62 191.564C247.843 192.195 246.97 192.473 246.002 192.4V191.036C247.322 191.183 248.327 190.42 249.016 188.748L249.302 188.066L244.374 177H245.914L250.05 186.218L253.614 177Z" fill="black"/>
<path d="M80.954 234.264C78.622 234.264 76.6933 233.494 75.168 231.954C73.6427 230.414 72.88 228.529 72.88 226.3C72.88 224.071 73.6427 222.186 75.168 220.646C76.6933 219.106 78.622 218.336 80.954 218.336C82.3767 218.336 83.682 218.681 84.87 219.37C86.058 220.045 86.9747 220.961 87.62 222.12L86.256 222.912C85.772 221.973 85.0533 221.225 84.1 220.668C83.1467 220.111 82.098 219.832 80.954 219.832C79.0327 219.832 77.4633 220.455 76.246 221.702C75.0287 222.949 74.42 224.481 74.42 226.3C74.42 228.119 75.0287 229.651 76.246 230.898C77.4633 232.145 79.0327 232.768 80.954 232.768C82.098 232.768 83.1467 232.489 84.1 231.932C85.0533 231.375 85.772 230.627 86.256 229.688L87.62 230.458C86.9893 231.617 86.0727 232.541 84.87 233.23C83.682 233.919 82.3767 234.264 80.954 234.264ZM96.9726 223V224.408H91.3846V234H89.9326V223H96.9726ZM104.637 222.736C106.207 222.736 107.541 223.293 108.641 224.408C109.756 225.523 110.313 226.887 110.313 228.5C110.313 230.113 109.756 231.477 108.641 232.592C107.541 233.707 106.207 234.264 104.637 234.264C102.687 234.264 101.205 233.457 100.193 231.844V238.4H98.7412V223H100.193V225.156C101.205 223.543 102.687 222.736 104.637 222.736ZM101.447 231.602C102.283 232.438 103.31 232.856 104.527 232.856C105.745 232.856 106.771 232.438 107.607 231.602C108.443 230.751 108.861 229.717 108.861 228.5C108.861 227.283 108.443 226.256 107.607 225.42C106.771 224.569 105.745 224.144 104.527 224.144C103.31 224.144 102.283 224.569 101.447 225.42C100.611 226.256 100.193 227.283 100.193 228.5C100.193 229.717 100.611 230.751 101.447 231.602ZM117.194 227.18C118.22 227.18 119.086 227.503 119.79 228.148C120.508 228.779 120.868 229.593 120.868 230.59C120.868 231.587 120.508 232.409 119.79 233.054C119.086 233.685 118.22 234 117.194 234H112.728V223H114.18V227.18H117.194ZM122.408 223H123.86V234H122.408V223ZM117.194 232.592C117.81 232.592 118.33 232.409 118.756 232.042C119.196 231.675 119.416 231.191 119.416 230.59C119.416 229.989 119.196 229.505 118.756 229.138C118.33 228.771 117.81 228.588 117.194 228.588H114.18V232.592H117.194ZM132.626 228.346C133.902 228.83 134.54 229.71 134.54 230.986C134.54 231.895 134.181 232.673 133.462 233.318C132.758 233.949 131.746 234.264 130.426 234.264C128.211 234.264 126.759 233.384 126.07 231.624L127.302 230.898C127.757 232.203 128.798 232.856 130.426 232.856C131.277 232.856 131.929 232.673 132.384 232.306C132.853 231.939 133.088 231.47 133.088 230.898C133.088 230.385 132.897 229.967 132.516 229.644C132.135 229.321 131.621 229.16 130.976 229.16H129.37V227.752H130.536C131.167 227.752 131.658 227.598 132.01 227.29C132.377 226.967 132.56 226.527 132.56 225.97C132.56 225.442 132.347 225.009 131.922 224.672C131.497 224.32 130.925 224.144 130.206 224.144C128.827 224.144 127.911 224.694 127.456 225.794L126.246 225.09C126.979 223.521 128.299 222.736 130.206 222.736C131.365 222.736 132.289 223.044 132.978 223.66C133.667 224.261 134.012 225.002 134.012 225.882C134.012 227.011 133.55 227.833 132.626 228.346ZM144.452 223V224.408H140.558V234H139.106V224.408H135.212V223H144.452ZM150.688 227.18C151.714 227.18 152.58 227.503 153.284 228.148C154.002 228.779 154.362 229.593 154.362 230.59C154.362 231.587 154.002 232.409 153.284 233.054C152.58 233.685 151.714 234 150.688 234H146.222V223H147.674V227.18H150.688ZM150.688 232.592C151.304 232.592 151.824 232.409 152.25 232.042C152.69 231.675 152.91 231.191 152.91 230.59C152.91 229.989 152.69 229.505 152.25 229.138C151.824 228.771 151.304 228.588 150.688 228.588H147.674V232.592H150.688ZM169.844 223H171.296V234H169.844V229.204H163.508V234H162.056V223H163.508V227.796H169.844V223ZM179.448 222.736C181.076 222.736 182.389 223.315 183.386 224.474C184.398 225.618 184.904 226.975 184.904 228.544C184.904 228.705 184.89 228.933 184.86 229.226H175.202C175.349 230.341 175.818 231.228 176.61 231.888C177.417 232.533 178.407 232.856 179.58 232.856C180.416 232.856 181.135 232.687 181.736 232.35C182.352 231.998 182.814 231.543 183.122 230.986L184.398 231.734C183.914 232.511 183.254 233.127 182.418 233.582C181.582 234.037 180.629 234.264 179.558 234.264C177.828 234.264 176.42 233.721 175.334 232.636C174.249 231.551 173.706 230.172 173.706 228.5C173.706 226.857 174.242 225.486 175.312 224.386C176.383 223.286 177.762 222.736 179.448 222.736ZM179.448 224.144C178.304 224.144 177.344 224.489 176.566 225.178C175.804 225.853 175.349 226.733 175.202 227.818H183.408C183.262 226.659 182.814 225.757 182.066 225.112C181.318 224.467 180.446 224.144 179.448 224.144ZM195.002 223H196.454V234H195.002V229.204H188.666V234H187.214V223H188.666V227.796H195.002V223ZM207.444 223H208.984L204.276 235.012C203.851 236.097 203.242 236.948 202.45 237.564C201.673 238.195 200.8 238.473 199.832 238.4V237.036C201.152 237.183 202.157 236.42 202.846 234.748L203.132 234.066L198.204 223H199.744L203.88 232.218L207.444 223ZM223.372 234H221.612L217.124 228.698V234H215.672V228.698L211.184 234H209.424L214.352 228.28L209.644 223H211.404L215.672 227.884V223H217.124V227.884L221.392 223H223.152L218.444 228.28L223.372 234ZM233.137 223H234.589V234H233.137V229.204H226.801V234H225.349V223H226.801V227.796H233.137V223ZM245.579 223H247.119L242.411 235.012C241.986 236.097 241.377 236.948 240.585 237.564C239.808 238.195 238.935 238.473 237.967 238.4V237.036C239.287 237.183 240.292 236.42 240.981 234.748L241.267 234.066L236.339 223H237.879L242.015 232.218L245.579 223ZM258.268 222.736C259.881 222.736 261.245 223.293 262.36 224.408C263.489 225.508 264.054 226.872 264.054 228.5C264.054 230.128 263.489 231.499 262.36 232.614C261.245 233.714 259.881 234.264 258.268 234.264C256.787 234.264 255.511 233.787 254.44 232.834C253.384 231.866 252.775 230.656 252.614 229.204H250.326V234H248.874V223H250.326V227.796H252.614C252.775 226.344 253.384 225.141 254.44 224.188C255.511 223.22 256.787 222.736 258.268 222.736ZM255.188 231.602C256.024 232.438 257.051 232.856 258.268 232.856C259.485 232.856 260.512 232.438 261.348 231.602C262.184 230.751 262.602 229.717 262.602 228.5C262.602 227.283 262.184 226.256 261.348 225.42C260.512 224.569 259.485 224.144 258.268 224.144C257.051 224.144 256.024 224.569 255.188 225.42C254.352 226.256 253.934 227.283 253.934 228.5C253.934 229.717 254.352 230.751 255.188 231.602ZM276.854 234.264C275.27 234.264 273.95 233.743 272.894 232.702C271.838 231.646 271.31 230.282 271.31 228.61C271.31 226.733 271.588 225.295 272.146 224.298C272.703 223.286 273.832 222.369 275.534 221.548C275.856 221.387 276.282 221.196 276.81 220.976C277.352 220.756 277.756 220.58 278.02 220.448C278.298 220.316 278.599 220.147 278.922 219.942C279.244 219.722 279.486 219.48 279.648 219.216C279.809 218.952 279.912 218.637 279.956 218.27L281.1 218.93C281.041 219.282 280.924 219.612 280.748 219.92C280.572 220.228 280.388 220.477 280.198 220.668C280.022 220.859 279.736 221.071 279.34 221.306C278.958 221.526 278.658 221.687 278.438 221.79C278.232 221.878 277.866 222.032 277.338 222.252C276.824 222.472 276.48 222.619 276.304 222.692C275.277 223.132 274.522 223.594 274.038 224.078C273.554 224.547 273.209 225.163 273.004 225.926C273.502 225.266 274.133 224.782 274.896 224.474C275.673 224.151 276.428 223.99 277.162 223.99C278.628 223.99 279.838 224.474 280.792 225.442C281.76 226.395 282.244 227.62 282.244 229.116C282.244 230.597 281.73 231.829 280.704 232.812C279.692 233.78 278.408 234.264 276.854 234.264ZM276.854 232.812C277.998 232.812 278.936 232.467 279.67 231.778C280.418 231.074 280.792 230.187 280.792 229.116C280.792 228.031 280.44 227.143 279.736 226.454C279.046 225.75 278.122 225.398 276.964 225.398C275.922 225.398 274.976 225.728 274.126 226.388C273.275 227.033 272.85 227.899 272.85 228.984C272.85 230.099 273.231 231.015 273.994 231.734C274.771 232.453 275.724 232.812 276.854 232.812ZM291.942 223H293.482L288.774 235.012C288.349 236.097 287.74 236.948 286.948 237.564C286.171 238.195 285.298 238.473 284.33 238.4V237.036C285.65 237.183 286.655 236.42 287.344 234.748L287.63 234.066L282.702 223H284.242L288.378 232.218L291.942 223ZM306.017 223V234H304.565V225.222L300.715 231.47H300.539L296.689 225.222V234H295.237V223H296.909L300.627 229.028L304.345 223H306.017ZM318.555 223H320.007V234H318.555V231.844C317.543 233.457 316.061 234.264 314.111 234.264C312.541 234.264 311.199 233.707 310.085 232.592C308.985 231.477 308.435 230.113 308.435 228.5C308.435 226.887 308.985 225.523 310.085 224.408C311.199 223.293 312.541 222.736 314.111 222.736C316.061 222.736 317.543 223.543 318.555 225.156V223ZM311.141 231.602C311.977 232.438 313.003 232.856 314.221 232.856C315.438 232.856 316.465 232.438 317.301 231.602C318.137 230.751 318.555 229.717 318.555 228.5C318.555 227.283 318.137 226.256 317.301 225.42C316.465 224.569 315.438 224.144 314.221 224.144C313.003 224.144 311.977 224.569 311.141 225.42C310.305 226.256 309.887 227.283 309.887 228.5C309.887 229.717 310.305 230.751 311.141 231.602ZM330.121 223V224.408H324.533V234H323.081V223H330.121ZM340.476 223H342.016L337.308 235.012C336.882 236.097 336.274 236.948 335.482 237.564C334.704 238.195 333.832 238.473 332.864 238.4V237.036C334.184 237.183 335.188 236.42 335.878 234.748L336.164 234.066L331.236 223H332.776L336.912 232.218L340.476 223Z" fill="black"/>
<path d="M84.76 262.6V278H83.22V264.052H75.3V278H73.76V262.6H84.76ZM93.1454 266.736C94.7734 266.736 96.0861 267.315 97.0834 268.474C98.0954 269.618 98.6014 270.975 98.6014 272.544C98.6014 272.705 98.5868 272.933 98.5574 273.226H88.8994C89.0461 274.341 89.5154 275.228 90.3074 275.888C91.1141 276.533 92.1041 276.856 93.2774 276.856C94.1134 276.856 94.8321 276.687 95.4334 276.35C96.0494 275.998 96.5114 275.543 96.8194 274.986L98.0954 275.734C97.6114 276.511 96.9514 277.127 96.1154 277.582C95.2794 278.037 94.3261 278.264 93.2554 278.264C91.5248 278.264 90.1168 277.721 89.0314 276.636C87.9461 275.551 87.4034 274.172 87.4034 272.5C87.4034 270.857 87.9388 269.486 89.0094 268.386C90.0801 267.286 91.4588 266.736 93.1454 266.736ZM93.1454 268.144C92.0014 268.144 91.0408 268.489 90.2634 269.178C89.5008 269.853 89.0461 270.733 88.8994 271.818H97.1054C96.9588 270.659 96.5114 269.757 95.7634 269.112C95.0154 268.467 94.1428 268.144 93.1454 268.144ZM106.807 266.736C108.376 266.736 109.711 267.293 110.811 268.408C111.926 269.523 112.483 270.887 112.483 272.5C112.483 274.113 111.926 275.477 110.811 276.592C109.711 277.707 108.376 278.264 106.807 278.264C104.856 278.264 103.375 277.457 102.363 275.844V282.4H100.911V267H102.363V269.156C103.375 267.543 104.856 266.736 106.807 266.736ZM103.617 275.602C104.453 276.438 105.48 276.856 106.697 276.856C107.914 276.856 108.941 276.438 109.777 275.602C110.613 274.751 111.031 273.717 111.031 272.5C111.031 271.283 110.613 270.256 109.777 269.42C108.941 268.569 107.914 268.144 106.697 268.144C105.48 268.144 104.453 268.569 103.617 269.42C102.781 270.256 102.363 271.283 102.363 272.5C102.363 273.717 102.781 274.751 103.617 275.602ZM119.979 266.736C121.607 266.736 122.92 267.315 123.917 268.474C124.929 269.618 125.435 270.975 125.435 272.544C125.435 272.705 125.421 272.933 125.391 273.226H115.733C115.88 274.341 116.349 275.228 117.141 275.888C117.948 276.533 118.938 276.856 120.111 276.856C120.947 276.856 121.666 276.687 122.267 276.35C122.883 275.998 123.345 275.543 123.653 274.986L124.929 275.734C124.445 276.511 123.785 277.127 122.949 277.582C122.113 278.037 121.16 278.264 120.089 278.264C118.359 278.264 116.951 277.721 115.865 276.636C114.78 275.551 114.237 274.172 114.237 272.5C114.237 270.857 114.773 269.486 115.843 268.386C116.914 267.286 118.293 266.736 119.979 266.736ZM119.979 268.144C118.835 268.144 117.875 268.489 117.097 269.178C116.335 269.853 115.88 270.733 115.733 271.818H123.939C123.793 270.659 123.345 269.757 122.597 269.112C121.849 268.467 120.977 268.144 119.979 268.144ZM136.555 276.592H138.095V280.948H136.643V278H127.667V280.948H126.215V276.592H127.557C128.305 275.609 128.679 274.223 128.679 272.434V267H136.555V276.592ZM129.317 276.592H135.103V268.408H130.131V272.434C130.131 274.121 129.86 275.507 129.317 276.592ZM147.288 272.346C148.491 272.786 149.092 273.644 149.092 274.92C149.092 275.815 148.791 276.555 148.19 277.142C147.603 277.714 146.753 278 145.638 278H140.292V267H145.198C146.269 267 147.097 267.279 147.684 267.836C148.271 268.379 148.564 269.083 148.564 269.948C148.564 271.048 148.139 271.847 147.288 272.346ZM145.198 268.408H141.744V271.752H145.198C146.474 271.752 147.112 271.18 147.112 270.036C147.112 269.523 146.943 269.127 146.606 268.848C146.283 268.555 145.814 268.408 145.198 268.408ZM145.638 276.592C146.283 276.592 146.775 276.438 147.112 276.13C147.464 275.822 147.64 275.389 147.64 274.832C147.64 274.319 147.464 273.915 147.112 273.622C146.775 273.314 146.283 273.16 145.638 273.16H141.744V276.592H145.638ZM159.3 267H160.532V278H159.08V269.53L152.524 278H151.292V267H152.744V275.47L159.3 267ZM171.391 267H172.843V278H171.391V273.204H165.055V278H163.603V267H165.055V271.796H171.391V267ZM183.833 267H185.373L180.665 279.012C180.24 280.097 179.631 280.948 178.839 281.564C178.062 282.195 177.189 282.473 176.221 282.4V281.036C177.541 281.183 178.546 280.42 179.235 278.748L179.521 278.066L174.593 267H176.133L180.269 276.218L183.833 267ZM195.048 267V268.408H191.154V278H189.702V268.408H185.808V267H195.048ZM201.283 271.18C202.31 271.18 203.175 271.503 203.879 272.148C204.598 272.779 204.957 273.593 204.957 274.59C204.957 275.587 204.598 276.409 203.879 277.054C203.175 277.685 202.31 278 201.283 278H196.817V267H198.269V271.18H201.283ZM201.283 276.592C201.899 276.592 202.42 276.409 202.845 276.042C203.285 275.675 203.505 275.191 203.505 274.59C203.505 273.989 203.285 273.505 202.845 273.138C202.42 272.771 201.899 272.588 201.283 272.588H198.269V276.592H201.283ZM221.539 278H219.603L214.103 272.698V278H212.651V267H214.103V271.862L219.339 267H221.319L215.643 272.28L221.539 278ZM231.645 276.614C230.53 277.714 229.166 278.264 227.553 278.264C225.939 278.264 224.568 277.714 223.439 276.614C222.324 275.499 221.767 274.128 221.767 272.5C221.767 270.872 222.324 269.508 223.439 268.408C224.568 267.293 225.939 266.736 227.553 266.736C229.166 266.736 230.53 267.293 231.645 268.408C232.774 269.508 233.339 270.872 233.339 272.5C233.339 274.128 232.774 275.499 231.645 276.614ZM224.473 275.602C225.309 276.438 226.335 276.856 227.553 276.856C228.77 276.856 229.797 276.438 230.633 275.602C231.469 274.751 231.887 273.717 231.887 272.5C231.887 271.283 231.469 270.256 230.633 269.42C229.797 268.569 228.77 268.144 227.553 268.144C226.335 268.144 225.309 268.569 224.473 269.42C223.637 270.256 223.219 271.283 223.219 272.5C223.219 273.717 223.637 274.751 224.473 275.602ZM246.549 267V278H245.097V269.222L241.247 275.47H241.071L237.221 269.222V278H235.769V267H237.441L241.159 273.028L244.877 267H246.549ZM258.844 276.614C257.729 277.714 256.365 278.264 254.752 278.264C253.139 278.264 251.767 277.714 250.638 276.614C249.523 275.499 248.966 274.128 248.966 272.5C248.966 270.872 249.523 269.508 250.638 268.408C251.767 267.293 253.139 266.736 254.752 266.736C256.365 266.736 257.729 267.293 258.844 268.408C259.973 269.508 260.538 270.872 260.538 272.5C260.538 274.128 259.973 275.499 258.844 276.614ZM251.672 275.602C252.508 276.438 253.535 276.856 254.752 276.856C255.969 276.856 256.996 276.438 257.832 275.602C258.668 274.751 259.086 273.717 259.086 272.5C259.086 271.283 258.668 270.256 257.832 269.42C256.996 268.569 255.969 268.144 254.752 268.144C253.535 268.144 252.508 268.569 251.672 269.42C250.836 270.256 250.418 271.283 250.418 272.5C250.418 273.717 250.836 274.751 251.672 275.602ZM271.778 276.592H273.318V280.948H271.866V278H262.89V280.948H261.438V276.592H262.78C263.528 275.609 263.902 274.223 263.902 272.434V267H271.778V276.592ZM264.54 276.592H270.326V268.408H265.354V272.434C265.354 274.121 265.083 275.507 264.54 276.592Z" fill="black"/>
</g>
<rect x="0.75" y="0.75" width="452.5" height="326.024" rx="35.045" stroke="black" stroke-width="1.5"/>
<defs>
<clipPath id="clip0_330_1353">
<rect width="454" height="327.524" rx="35.795" fill="white"/>
</clipPath>
</defs>
</svg>
