<svg width="382" height="275" viewBox="0 0 382 275" fill="none" xmlns="http://www.w3.org/2000/svg">
<g clip-path="url(#clip0_330_1309)">
<rect width="381.193" height="275" rx="30.0546" fill="white"/>
<rect x="-11.02" width="403.734" height="40.5738" fill="black"/>
<path d="M150.5 69L340.5 159.5" stroke="white" stroke-width="5"/>
<circle cx="30.0546" cy="20.5375" r="8.01457" fill="white"/>
<circle cx="53.0966" cy="20.5375" r="8.01457" fill="white"/>
<circle cx="76.1386" cy="20.5375" r="8.01457" fill="white"/>
<path d="M188.906 139.932C189.769 115.544 217.395 64.1527 275.238 67.6368C333.082 71.1209 294.232 37.1507 320.995 55.4424C347.758 73.734 353.801 107.704 333.945 132.964C326.682 142.203 321.152 148.179 316.678 152.086C315.527 161.391 311.844 181.394 306.318 186.968C299.412 193.936 294.232 210.486 316.678 212.228C339.125 213.97 361.571 247.069 347.758 247.069C333.945 247.069 290.778 269.716 275.238 261.006C259.699 252.296 221.712 250.554 205.309 255.78C188.906 261.006 169.912 263.619 169.049 247.069C168.186 230.52 178.546 200.034 216.532 197.421C216.266 192.592 216.492 183.302 219.251 181.917C214.273 182.263 195.112 182.377 195.812 173.903C196.503 165.541 204.733 162.419 208.762 161.903C197.299 156.369 188.583 149.051 188.906 139.932Z" fill="#8485E8"/>
<path d="M249.339 173.903C238.456 172.202 221.826 168.211 208.762 161.903M299.412 159.966C304.34 159.414 308.921 158.861 316.678 152.086M316.678 152.086C321.152 148.179 326.682 142.203 333.945 132.964C353.801 107.704 347.758 73.734 320.995 55.4424C294.232 37.1507 333.082 71.1209 275.238 67.6368C217.395 64.1527 189.769 115.544 188.906 139.932C188.583 149.051 197.299 156.369 208.762 161.903M316.678 152.086C315.527 161.391 311.844 181.394 306.318 186.968C299.412 193.936 294.232 210.486 316.678 212.228C339.125 213.97 361.571 247.069 347.758 247.069C333.945 247.069 290.778 269.716 275.238 261.006C259.699 252.296 221.712 250.554 205.309 255.78C188.906 261.006 169.912 263.619 169.049 247.069C168.186 230.52 178.546 200.034 216.532 197.421C216.244 192.194 216.532 181.742 219.985 181.742C224.302 181.742 194.949 184.355 195.812 173.903C196.503 165.541 204.733 162.419 208.762 161.903" stroke="#423EFD" stroke-width="5"/>
<path d="M44.1285 112.086C52.308 91.8162 77.2156 51.2763 111.411 51.2763C154.155 51.2763 122.493 59.1736 146.239 51.2763C169.986 43.3789 208.772 41.7994 181.859 88.394C165.475 116.76 164.933 126.394 158.622 132.619C160.563 139.727 160.804 156.47 146.239 166.578C144.128 178.424 140.54 204.96 143.073 216.332C146.239 230.547 135.949 269.244 109.036 262.137C82.1232 255.029 57.585 198.168 40.9623 196.588C24.7934 195.052 7.61609 176.767 41.6575 172.863C44.8325 166.805 58.373 163.528 76.9927 168.006C76.3096 167.624 75.7705 165.818 77.3737 158.353C79.7484 147.297 56.2746 151.573 56.2746 142.096C56.2746 132.619 67.0835 135.778 61.5426 128.671C56.0017 121.563 41.754 127.091 44.1285 112.086Z" fill="#84D0E8"/>
<path d="M133.574 144.465C148.129 139.213 154.566 136.62 158.622 132.619M158.622 132.619C164.933 126.394 165.475 116.76 181.859 88.394C208.772 41.7994 169.986 43.3789 146.239 51.2763C122.493 59.1736 154.155 51.2763 111.411 51.2763C77.2156 51.2763 52.308 91.8162 44.1285 112.086C41.754 127.091 56.0017 121.563 61.5426 128.671C67.0835 135.778 56.2746 132.619 56.2746 142.096C56.2746 151.573 79.7484 147.297 77.3737 158.353C75.474 167.198 76.5822 168.099 77.3737 168.099M158.622 132.619C160.563 139.727 160.804 156.47 146.239 166.578C144.128 178.424 140.54 204.96 143.073 216.332C146.239 230.547 135.949 269.244 109.036 262.137C82.1232 255.029 57.585 198.168 40.9623 196.588C24.3396 195.009 6.65113 175.728 44.6458 172.569M40.9623 175.265C41.7538 164.472 71.3578 159.313 107.453 180.794" stroke="#FD3E3E" stroke-width="5"/>
<path d="M149 69L30.5 240H307L149 69Z" stroke="white" stroke-width="5"/>
</g>
<rect x="0.75" y="0.75" width="379.693" height="273.5" rx="29.3046" stroke="black" stroke-width="1.5"/>
<defs>
<clipPath id="clip0_330_1309">
<rect width="381.193" height="275" rx="30.0546" fill="white"/>
</clipPath>
</defs>
</svg>
