<svg width="382" height="275" viewBox="0 0 382 275" fill="none" xmlns="http://www.w3.org/2000/svg">
<g clip-path="url(#clip0_330_1283)">
<rect width="381.193" height="275" rx="30.0546" fill="white"/>
<rect x="-11.02" width="403.734" height="40.5738" fill="black"/>
<circle cx="30.0546" cy="20.5375" r="8.01457" fill="white"/>
<circle cx="53.0966" cy="20.5375" r="8.01457" fill="white"/>
<circle cx="76.1386" cy="20.5375" r="8.01457" fill="white"/>
<rect x="14" y="70" width="17" height="182" fill="#FD3E3E"/>
<rect x="38" y="86" width="17" height="166" fill="#FD3E3E"/>
<rect x="62" y="119" width="17" height="133" fill="#FD3E3E"/>
<rect x="86" y="144" width="17" height="108" fill="#FD3E3E"/>
<rect x="110" y="168" width="17" height="84" fill="#FD3E3E"/>
<rect x="134" y="199" width="17" height="53" fill="#FD3E3E"/>
<rect x="158" y="227" width="17" height="25" fill="#FD3E3E"/>
<rect x="182" y="209" width="17" height="43" fill="#FD3E3E"/>
<rect x="206" y="177" width="17" height="75" fill="#FD3E3E"/>
<rect x="230" y="148" width="17" height="104" fill="#FD3E3E"/>
<rect x="254" y="124" width="17" height="128" fill="#FD3E3E"/>
<rect x="278" y="92" width="17" height="160" fill="#FD3E3E"/>
<rect x="302" y="70" width="17" height="182" fill="#FD3E3E"/>
<rect x="326" y="106" width="17" height="146" fill="#FD3E3E"/>
<rect x="350" y="144" width="17" height="108" fill="#FD3E3E"/>
<path d="M36.5 58H57L156.5 163.5L288.5 58H327.5L360.5 93.5" stroke="#423EFD" stroke-width="5" stroke-linecap="round"/>
<circle cx="58" cy="60" r="8" fill="#423EFD"/>
<circle cx="157" cy="161" r="8" fill="#423EFD"/>
<circle cx="289" cy="58" r="8" fill="#423EFD"/>
<circle cx="327" cy="58" r="8" fill="#423EFD"/>
<circle cx="361" cy="95" r="8" fill="#423EFD"/>
</g>
<rect x="0.751366" y="0.751366" width="379.69" height="273.497" rx="29.3033" stroke="black" stroke-width="1.50273"/>
<defs>
<clipPath id="clip0_330_1283">
<rect width="381.193" height="275" rx="30.0546" fill="white"/>
</clipPath>
</defs>
</svg>
