<svg width="271" height="28" viewBox="0 0 271 28" fill="none" xmlns="http://www.w3.org/2000/svg">
<g clip-path="url(#clip0_744_1470)">
<rect width="271" height="28" fill="white"/>
<path d="M15.6094 9.31785H8.73651V12.0997H11.5729C13.0639 12.0997 14.2366 12.4816 15.0912 13.2452C15.9458 14.0089 16.373 15.218 16.373 16.8726V20.2544C16.373 21.9818 15.9458 23.2091 15.0912 23.9363C14.2548 24.6454 13.0821 25 11.5729 25H3.2273V4.70866H15.6094V9.31785ZM9.50016 20.9908C9.91835 20.9908 10.2093 20.8999 10.3729 20.7181C10.5547 20.5363 10.6456 20.1908 10.6456 19.6817V17.3089C10.6456 16.8362 10.5547 16.4998 10.3729 16.2998C10.2093 16.0998 9.91835 15.9998 9.50016 15.9998H8.73651V20.9908H9.50016ZM29.3396 4.70866V9.42694H24.1576V12.127H28.6032V16.9271H24.1576V20.2272H29.4759V25H18.6484V4.70866H29.3396ZM37.216 4.40865H38.5251C40.3434 4.40865 41.7707 4.82684 42.807 5.66322C43.8616 6.48142 44.3889 7.67236 44.3889 9.23603V10.1633C44.3889 10.7997 44.3253 11.3361 44.198 11.7724C44.0707 12.1906 43.898 12.5543 43.6798 12.8634C43.4616 13.1725 43.2161 13.4361 42.9434 13.6543C42.6889 13.8543 42.4252 14.0361 42.1525 14.1998C42.4616 14.3452 42.7707 14.527 43.0798 14.7452C43.3889 14.9452 43.6616 15.218 43.898 15.5634C44.1525 15.8907 44.3525 16.318 44.498 16.8453C44.6616 17.3726 44.7435 18.0271 44.7435 18.809V19.3817C44.7435 20.509 44.5889 21.4545 44.2798 22.2181C43.9707 22.9636 43.5434 23.5727 42.998 24.0454C42.4525 24.5 41.7979 24.8182 41.0343 25C40.2706 25.2 39.4342 25.3 38.5251 25.3H37.216C36.3615 25.3 35.5614 25.2 34.816 25C34.0705 24.8 33.425 24.4818 32.8796 24.0454C32.3341 23.5909 31.8977 23 31.5704 22.2727C31.2613 21.5454 31.1068 20.6545 31.1068 19.5999V17.5817H36.5887V19.409C36.5887 20.009 36.6978 20.4272 36.916 20.6635C37.1524 20.8999 37.4524 21.0181 37.816 21.0181C38.1979 21.0181 38.4888 20.909 38.6888 20.6908C38.907 20.4544 39.0161 20.0272 39.0161 19.409V17.9362C39.0161 17.4089 38.9433 17.0726 38.7979 16.9271C38.6706 16.7635 38.3797 16.6816 37.9251 16.6816H35.7705V12.3452H37.8706C38.2342 12.3452 38.4979 12.2634 38.6615 12.0997C38.8251 11.9361 38.907 11.6543 38.907 11.2543V9.64513C38.907 8.7542 38.5251 8.30873 37.7615 8.30873C37.416 8.30873 37.1342 8.41783 36.916 8.63601C36.6978 8.83602 36.5887 9.17239 36.5887 9.64513V11.1724H31.1068V9.75422C31.1068 7.936 31.6341 6.59052 32.6887 5.71777C33.7432 4.84502 35.2523 4.40865 37.216 4.40865ZM57.1903 25H51.4084V4.70866H65.3996V25H59.6176V9.42694H57.1903V25ZM73.6235 17.7453V25H67.8416V4.70866H76.46C77.9691 4.70866 79.1418 5.0723 79.9782 5.79959C80.8328 6.5087 81.2601 7.7269 81.2601 9.45421V12.9725C81.2601 14.6271 80.8328 15.8362 79.9782 16.5998C79.1237 17.3635 77.9509 17.7453 76.46 17.7453H73.6235ZM73.6235 13.7088H74.3872C74.8054 13.7088 75.0963 13.6088 75.2599 13.4088C75.4418 13.2088 75.5327 12.8725 75.5327 12.3997V9.89059C75.5327 9.38149 75.4418 9.03602 75.2599 8.8542C75.0963 8.67238 74.8054 8.58147 74.3872 8.58147H73.6235V13.7088ZM92.6175 18.8362C92.6175 17.8544 92.6357 16.918 92.672 16.0271C92.7266 15.118 92.772 14.2452 92.8084 13.4088C92.6084 14.2452 92.3811 15.1089 92.1266 15.9998C91.8902 16.8726 91.6175 17.7817 91.3084 18.7271L89.3174 25H83.2627V4.70866H89.0447V10.8724C89.0447 11.7997 89.0265 12.6997 88.9901 13.5725C88.972 14.427 88.9447 15.2634 88.9083 16.0816C89.1265 15.2634 89.3538 14.427 89.5901 13.5725C89.8265 12.6997 90.0902 11.8179 90.3811 10.927L92.3447 4.70866H98.3994V25H92.6175V18.8362ZM107.605 20.7454C108.041 20.7454 108.341 20.6181 108.505 20.3635C108.669 20.0908 108.75 19.7272 108.75 19.2726V16.218H114.232V19.6544C114.232 20.3999 114.123 21.1181 113.905 21.809C113.705 22.4818 113.36 23.0818 112.869 23.6091C112.396 24.1182 111.769 24.5273 110.987 24.8364C110.205 25.1455 109.241 25.3 108.096 25.3H107.141C105.96 25.3 104.95 25.1636 104.114 24.8909C103.296 24.6 102.632 24.1818 102.123 23.6363C101.614 23.0909 101.241 22.4272 101.005 21.6454C100.787 20.8635 100.678 19.9726 100.678 18.9726V10.5997C100.678 9.65422 100.787 8.79965 101.005 8.036C101.223 7.27235 101.578 6.62688 102.069 6.0996C102.578 5.55413 103.241 5.13594 104.059 4.84502C104.896 4.55411 105.914 4.40865 107.114 4.40865H108.069C109.16 4.40865 110.096 4.53593 110.878 4.79048C111.66 5.04503 112.296 5.40867 112.787 5.88141C113.296 6.33596 113.66 6.89961 113.878 7.57235C114.114 8.2451 114.232 8.99966 114.232 9.83604V12.6997H108.75V10.2179C108.75 9.81786 108.669 9.49058 108.505 9.23603C108.36 8.96329 108.06 8.82693 107.605 8.82693C107.187 8.82693 106.896 8.9542 106.732 9.20875C106.587 9.46331 106.514 9.79968 106.514 10.2179V19.2726C106.514 19.7453 106.587 20.109 106.732 20.3635C106.896 20.6181 107.187 20.7454 107.605 20.7454ZM125.586 25H123.541L121.931 17.6089C121.659 16.3544 121.431 15.2634 121.25 14.3361C121.086 13.3907 120.94 12.5725 120.813 11.8815C120.85 12.6088 120.877 13.4634 120.895 14.4452C120.931 15.4271 120.95 16.5725 120.95 17.8817V25H116.395V4.70866H122.859L124.086 11.3906C124.25 12.2634 124.377 12.9997 124.468 13.5998C124.577 14.1998 124.65 14.6907 124.686 15.0725C124.722 14.6907 124.786 14.1998 124.877 13.5998C124.986 12.9997 125.122 12.2634 125.286 11.3906L126.568 4.70866H132.895V25H128.232V17.8817C128.232 16.5725 128.241 15.4362 128.259 14.4725C128.295 13.5088 128.332 12.6452 128.368 11.8815C128.241 12.5543 128.086 13.3634 127.904 14.3089C127.722 15.2543 127.495 16.3544 127.222 17.6089L125.586 25ZM149.35 19.1635C149.35 20.0726 149.213 20.909 148.94 21.6727C148.686 22.4181 148.286 23.0636 147.74 23.6091C147.195 24.1363 146.504 24.5545 145.668 24.8636C144.849 25.1545 143.886 25.3 142.777 25.3H141.795C140.631 25.3 139.631 25.1545 138.795 24.8636C137.977 24.5545 137.295 24.1273 136.749 23.5818C136.222 23.0363 135.831 22.3909 135.577 21.6454C135.34 20.8817 135.222 20.0544 135.222 19.1635V10.5451C135.222 8.63601 135.731 7.13598 136.749 6.04505C137.786 4.95412 139.468 4.40865 141.795 4.40865H142.777C145.031 4.40865 146.686 4.95412 147.74 6.04505C148.813 7.1178 149.35 8.61783 149.35 10.5451V19.1635ZM143.513 10.6542C143.513 10.1815 143.422 9.80877 143.24 9.53603C143.059 9.2633 142.74 9.12693 142.286 9.12693C141.831 9.12693 141.513 9.2633 141.331 9.53603C141.149 9.79058 141.059 10.1633 141.059 10.6542V19.109C141.059 19.5817 141.149 19.9453 141.331 20.1999C141.531 20.4363 141.849 20.5545 142.286 20.5545C143.104 20.5545 143.513 20.0726 143.513 19.109V10.6542ZM153.957 9.31785H150.766V4.70866H162.603V9.31785H159.412V25H153.957V9.31785ZM170.252 17.7453V25H164.47V4.70866H173.088C174.598 4.70866 175.77 5.0723 176.607 5.79959C177.461 6.5087 177.889 7.7269 177.889 9.45421V12.9725C177.889 14.6271 177.461 15.8362 176.607 16.5998C175.752 17.3635 174.579 17.7453 173.088 17.7453H170.252ZM170.252 13.7088H171.016C171.434 13.7088 171.725 13.6088 171.888 13.4088C172.07 13.2088 172.161 12.8725 172.161 12.3997V9.89059C172.161 9.38149 172.07 9.03602 171.888 8.8542C171.725 8.67238 171.434 8.58147 171.016 8.58147H170.252V13.7088ZM183.947 18.1544H185.884L185.502 15.4271C185.357 14.4089 185.238 13.4907 185.148 12.6725C185.075 11.8361 185.002 11.0815 184.929 10.4088C184.857 11.0815 184.775 11.8361 184.684 12.6725C184.593 13.4907 184.475 14.4089 184.329 15.4271L183.947 18.1544ZM186.457 22.3545H183.375L183.02 25H178.138L181.275 4.70866H188.775L192.266 25H186.811L186.457 22.3545ZM198.695 4.70866H207.341C208.831 4.70866 209.968 5.04503 210.75 5.71777C211.532 6.39051 211.922 7.53599 211.922 9.15421V10.1906C211.922 10.7724 211.841 11.2724 211.677 11.6906C211.532 12.1088 211.35 12.4634 211.132 12.7543C210.913 13.0452 210.677 13.2816 210.422 13.4634C210.168 13.627 209.931 13.7452 209.713 13.8179C209.931 13.8907 210.195 14.0089 210.504 14.1725C210.813 14.318 211.104 14.5452 211.377 14.8543C211.668 15.1452 211.913 15.5362 212.113 16.0271C212.313 16.518 212.413 17.1271 212.413 17.8544V20.009C212.413 21.6454 212.022 22.8909 211.241 23.7454C210.459 24.5818 209.268 25 207.668 25H198.695V4.70866ZM204.204 8.58147V12.427H205.24C206.059 12.427 206.468 11.9452 206.468 10.9815V9.99968C206.468 9.50876 206.377 9.15421 206.195 8.93602C206.031 8.69965 205.713 8.58147 205.24 8.58147H204.204ZM204.204 16.218V20.9908H205.404C205.877 20.9908 206.204 20.8635 206.386 20.609C206.568 20.3544 206.659 19.9817 206.659 19.4908V17.718C206.659 17.2089 206.568 16.8362 206.386 16.5998C206.204 16.3453 205.877 16.218 205.404 16.218H204.204ZM221.173 20.7454C221.609 20.7454 221.909 20.6181 222.073 20.3635C222.236 20.0908 222.318 19.7272 222.318 19.2726V16.218H227.8V19.6544C227.8 20.3999 227.691 21.1181 227.473 21.809C227.273 22.4818 226.927 23.0818 226.437 23.6091C225.964 24.1182 225.337 24.5273 224.555 24.8364C223.773 25.1455 222.809 25.3 221.664 25.3H220.709C219.527 25.3 218.518 25.1636 217.682 24.8909C216.864 24.6 216.2 24.1818 215.691 23.6363C215.182 23.0909 214.809 22.4272 214.573 21.6454C214.354 20.8635 214.245 19.9726 214.245 18.9726V10.5997C214.245 9.65422 214.354 8.79965 214.573 8.036C214.791 7.27235 215.145 6.62688 215.636 6.0996C216.145 5.55413 216.809 5.13594 217.627 4.84502C218.464 4.55411 219.482 4.40865 220.682 4.40865H221.636C222.727 4.40865 223.664 4.53593 224.446 4.79048C225.227 5.04503 225.864 5.40867 226.355 5.88141C226.864 6.33596 227.227 6.89961 227.446 7.57235C227.682 8.2451 227.8 8.99966 227.8 9.83604V12.6997H222.318V10.2179C222.318 9.81786 222.236 9.49058 222.073 9.23603C221.927 8.96329 221.627 8.82693 221.173 8.82693C220.755 8.82693 220.464 8.9542 220.3 9.20875C220.155 9.46331 220.082 9.79968 220.082 10.2179V19.2726C220.082 19.7453 220.155 20.109 220.3 20.3635C220.464 20.6181 220.755 20.7454 221.173 20.7454ZM240.681 4.70866V9.42694H235.499V12.127H239.945V16.9271H235.499V20.2272H240.817V25H229.99V4.70866H240.681ZM241.9 25L245.063 14.227L242.036 4.70866H247.954L249.4 10.6542L250.818 4.70866H256.3L253.436 14.3634L256.682 25H250.873L249.236 18.5362L247.518 25H241.9Z" fill="black"/>
</g>
<defs>
<clipPath id="clip0_744_1470">
<rect width="271" height="28" fill="white"/>
</clipPath>
</defs>
</svg>
